<svg xmlns="http://www.w3.org/2000/svg" xmlns:xlink="http://www.w3.org/1999/xlink" width="25.051" height="23.765" viewBox="0 0 25.051 23.765">
  <defs>
    <filter id="Bubble" x="0" y="0" width="18.051" height="16.765" filterUnits="userSpaceOnUse">
      <feOffset dy="-3" input="SourceAlpha"/>
      <feGaussianBlur stdDeviation="1" result="blur"/>
      <feFlood flood-opacity="0.78"/>
      <feComposite operator="in" in2="blur"/>
    </filter>
    <filter id="Bubble-2" x="0" y="0" width="18.051" height="16.765" filterUnits="userSpaceOnUse">
      <feOffset input="SourceAlpha"/>
      <feGaussianBlur stdDeviation="1.5" result="blur-2"/>
      <feFlood flood-color="#f0f" result="color"/>
      <feComposite operator="out" in="SourceGraphic" in2="blur-2"/>
      <feComposite operator="in" in="color"/>
      <feComposite operator="in" in2="SourceGraphic"/>
    </filter>
    <filter id="Bubble-3" x="1" y="1" width="24.051" height="22.765" filterUnits="userSpaceOnUse">
      <feOffset dy="-2" input="SourceAlpha"/>
      <feGaussianBlur stdDeviation="2" result="blur-3"/>
      <feFlood/>
      <feComposite operator="in" in2="blur-3"/>
    </filter>
    <filter id="Bubble-4" x="1" y="1" width="24.051" height="22.765" filterUnits="userSpaceOnUse">
      <feOffset input="SourceAlpha"/>
      <feGaussianBlur stdDeviation="1.5" result="blur-4"/>
      <feFlood flood-color="#f0f" result="color-2"/>
      <feComposite operator="out" in="SourceGraphic" in2="blur-4"/>
      <feComposite operator="in" in="color-2"/>
      <feComposite operator="in" in2="SourceGraphic"/>
    </filter>
  </defs>
  <g id="Chat_Icon" data-name="Chat Icon" transform="translate(3 6)">
    <g id="ChatBubble2" transform="translate(0)">
      <g data-type="innerShadowGroup">
        <g transform="matrix(1, 0, 0, 1, -3, -6)" filter="url(#Bubble)">
          <g id="Bubble-5" data-name="Bubble" transform="translate(3 6)" fill="#fff">
            <path d="M 0.7492974400520325 9.443817138671875 C 0.773565948009491 9.34492301940918 0.7975414991378784 9.248100280761719 0.8201478123664856 9.156806945800781 C 1.043597817420959 8.254406929016113 1.274657726287842 7.321277141571045 1.274657726287842 6.814897060394287 L 1.274657726287842 3.000006914138794 C 1.274657726287842 1.62149703502655 2.396157741546631 0.4999969899654388 3.774657726287842 0.4999969899654388 L 9.051267623901367 0.4999969899654388 C 10.42976760864258 0.4999969899654388 11.55126762390137 1.62149703502655 11.55126762390137 3.000006914138794 L 11.55126762390137 6.000017166137695 C 11.55126762390137 7.378527164459229 10.42976760864258 8.500026702880859 9.051267623901367 8.500026702880859 L 2.639407873153687 8.500026702880859 C 2.163947105407715 8.500026702880859 1.373565316200256 8.974072456359863 0.7492974400520325 9.443817138671875 Z" stroke="none"/>
            <path d="M 3.774657726287842 0.9999971389770508 C 2.671857833862305 0.9999971389770508 1.774658203125 1.897196769714355 1.774658203125 3.000006675720215 L 1.774658203125 6.814897060394287 C 1.774658203125 7.184799194335938 1.68345832824707 7.683192729949951 1.531344413757324 8.342228889465332 C 2.092353820800781 8.044414520263672 2.422773361206055 8.000026702880859 2.639408111572266 8.000026702880859 L 9.051267623901367 8.000026702880859 C 10.15406799316406 8.000026702880859 11.05126762390137 7.102827072143555 11.05126762390137 6.000017166137695 L 11.05126762390137 3.000006675720215 C 11.05126762390137 1.897196769714355 10.15406799316406 0.9999971389770508 9.051267623901367 0.9999971389770508 L 3.774657726287842 0.9999971389770508 M 3.774657726287842 -2.86102294921875e-06 L 9.051267623901367 -2.86102294921875e-06 C 10.70812797546387 -2.86102294921875e-06 12.05126762390137 1.343147277832031 12.05126762390137 3.000006675720215 L 12.05126762390137 6.000017166137695 C 12.05126762390137 7.656877040863037 10.70812797546387 9.000026702880859 9.051267623901367 9.000026702880859 L 2.639408111572266 9.000026702880859 C 2.049568176269531 9.000026702880859 0.4259481430053711 10.27258682250977 0.2628173828125 10.53823661804199 C -0.5475091934204102 11.73221492767334 0.774658203125 7.881917476654053 0.774658203125 6.814897060394287 L 0.774658203125 3.000006675720215 C 0.774658203125 1.343147277832031 2.1177978515625 -2.86102294921875e-06 3.774657726287842 -2.86102294921875e-06 Z" stroke="none" fill="#f0f"/>
          </g>
        </g>
        <g id="Bubble-6" data-name="Bubble" fill="#fff">
          <path d="M 0.7492974400520325 9.443817138671875 C 0.773565948009491 9.34492301940918 0.7975414991378784 9.248100280761719 0.8201478123664856 9.156806945800781 C 1.043597817420959 8.254406929016113 1.274657726287842 7.321277141571045 1.274657726287842 6.814897060394287 L 1.274657726287842 3.000006914138794 C 1.274657726287842 1.62149703502655 2.396157741546631 0.4999969899654388 3.774657726287842 0.4999969899654388 L 9.051267623901367 0.4999969899654388 C 10.42976760864258 0.4999969899654388 11.55126762390137 1.62149703502655 11.55126762390137 3.000006914138794 L 11.55126762390137 6.000017166137695 C 11.55126762390137 7.378527164459229 10.42976760864258 8.500026702880859 9.051267623901367 8.500026702880859 L 2.639407873153687 8.500026702880859 C 2.163947105407715 8.500026702880859 1.373565316200256 8.974072456359863 0.7492974400520325 9.443817138671875 Z" stroke="none"/>
          <path d="M 3.774657726287842 0.9999971389770508 C 2.671857833862305 0.9999971389770508 1.774658203125 1.897196769714355 1.774658203125 3.000006675720215 L 1.774658203125 6.814897060394287 C 1.774658203125 7.184799194335938 1.68345832824707 7.683192729949951 1.531344413757324 8.342228889465332 C 2.092353820800781 8.044414520263672 2.422773361206055 8.000026702880859 2.639408111572266 8.000026702880859 L 9.051267623901367 8.000026702880859 C 10.15406799316406 8.000026702880859 11.05126762390137 7.102827072143555 11.05126762390137 6.000017166137695 L 11.05126762390137 3.000006675720215 C 11.05126762390137 1.897196769714355 10.15406799316406 0.9999971389770508 9.051267623901367 0.9999971389770508 L 3.774657726287842 0.9999971389770508 M 3.774657726287842 -2.86102294921875e-06 L 9.051267623901367 -2.86102294921875e-06 C 10.70812797546387 -2.86102294921875e-06 12.05126762390137 1.343147277832031 12.05126762390137 3.000006675720215 L 12.05126762390137 6.000017166137695 C 12.05126762390137 7.656877040863037 10.70812797546387 9.000026702880859 9.051267623901367 9.000026702880859 L 2.639408111572266 9.000026702880859 C 2.049568176269531 9.000026702880859 0.4259481430053711 10.27258682250977 0.2628173828125 10.53823661804199 C -0.5475091934204102 11.73221492767334 0.774658203125 7.881917476654053 0.774658203125 6.814897060394287 L 0.774658203125 3.000006675720215 C 0.774658203125 1.343147277832031 2.1177978515625 -2.86102294921875e-06 3.774657726287842 -2.86102294921875e-06 Z" stroke="none"/>
        </g>
        <g transform="matrix(1, 0, 0, 1, -3, -6)" filter="url(#Bubble-2)">
          <g id="Bubble-7" data-name="Bubble" transform="translate(3 6)" fill="#fff">
            <path d="M 0.7492974400520325 9.443817138671875 C 0.773565948009491 9.34492301940918 0.7975414991378784 9.248100280761719 0.8201478123664856 9.156806945800781 C 1.043597817420959 8.254406929016113 1.274657726287842 7.321277141571045 1.274657726287842 6.814897060394287 L 1.274657726287842 3.000006914138794 C 1.274657726287842 1.62149703502655 2.396157741546631 0.4999969899654388 3.774657726287842 0.4999969899654388 L 9.051267623901367 0.4999969899654388 C 10.42976760864258 0.4999969899654388 11.55126762390137 1.62149703502655 11.55126762390137 3.000006914138794 L 11.55126762390137 6.000017166137695 C 11.55126762390137 7.378527164459229 10.42976760864258 8.500026702880859 9.051267623901367 8.500026702880859 L 2.639407873153687 8.500026702880859 C 2.163947105407715 8.500026702880859 1.373565316200256 8.974072456359863 0.7492974400520325 9.443817138671875 Z" stroke="none"/>
            <path d="M 3.774657726287842 0.9999971389770508 C 2.671857833862305 0.9999971389770508 1.774658203125 1.897196769714355 1.774658203125 3.000006675720215 L 1.774658203125 6.814897060394287 C 1.774658203125 7.184799194335938 1.68345832824707 7.683192729949951 1.531344413757324 8.342228889465332 C 2.092353820800781 8.044414520263672 2.422773361206055 8.000026702880859 2.639408111572266 8.000026702880859 L 9.051267623901367 8.000026702880859 C 10.15406799316406 8.000026702880859 11.05126762390137 7.102827072143555 11.05126762390137 6.000017166137695 L 11.05126762390137 3.000006675720215 C 11.05126762390137 1.897196769714355 10.15406799316406 0.9999971389770508 9.051267623901367 0.9999971389770508 L 3.774657726287842 0.9999971389770508 M 3.774657726287842 -2.86102294921875e-06 L 9.051267623901367 -2.86102294921875e-06 C 10.70812797546387 -2.86102294921875e-06 12.05126762390137 1.343147277832031 12.05126762390137 3.000006675720215 L 12.05126762390137 6.000017166137695 C 12.05126762390137 7.656877040863037 10.70812797546387 9.000026702880859 9.051267623901367 9.000026702880859 L 2.639408111572266 9.000026702880859 C 2.049568176269531 9.000026702880859 0.4259481430053711 10.27258682250977 0.2628173828125 10.53823661804199 C -0.5475091934204102 11.73221492767334 0.774658203125 7.881917476654053 0.774658203125 6.814897060394287 L 0.774658203125 3.000006675720215 C 0.774658203125 1.343147277832031 2.1177978515625 -2.86102294921875e-06 3.774657726287842 -2.86102294921875e-06 Z" stroke="none"/>
          </g>
        </g>
        <g id="Bubble-8" data-name="Bubble" fill="none">
          <path d="M 0.7492974400520325 9.443817138671875 C 0.773565948009491 9.34492301940918 0.7975414991378784 9.248100280761719 0.8201478123664856 9.156806945800781 C 1.043597817420959 8.254406929016113 1.274657726287842 7.321277141571045 1.274657726287842 6.814897060394287 L 1.274657726287842 3.000006914138794 C 1.274657726287842 1.62149703502655 2.396157741546631 0.4999969899654388 3.774657726287842 0.4999969899654388 L 9.051267623901367 0.4999969899654388 C 10.42976760864258 0.4999969899654388 11.55126762390137 1.62149703502655 11.55126762390137 3.000006914138794 L 11.55126762390137 6.000017166137695 C 11.55126762390137 7.378527164459229 10.42976760864258 8.500026702880859 9.051267623901367 8.500026702880859 L 2.639407873153687 8.500026702880859 C 2.163947105407715 8.500026702880859 1.373565316200256 8.974072456359863 0.7492974400520325 9.443817138671875 Z" stroke="none"/>
          <path d="M 3.774657726287842 0.9999971389770508 C 2.671857833862305 0.9999971389770508 1.774658203125 1.897196769714355 1.774658203125 3.000006675720215 L 1.774658203125 6.814897060394287 C 1.774658203125 7.184799194335938 1.68345832824707 7.683192729949951 1.531344413757324 8.342228889465332 C 2.092353820800781 8.044414520263672 2.422773361206055 8.000026702880859 2.639408111572266 8.000026702880859 L 9.051267623901367 8.000026702880859 C 10.15406799316406 8.000026702880859 11.05126762390137 7.102827072143555 11.05126762390137 6.000017166137695 L 11.05126762390137 3.000006675720215 C 11.05126762390137 1.897196769714355 10.15406799316406 0.9999971389770508 9.051267623901367 0.9999971389770508 L 3.774657726287842 0.9999971389770508 M 3.774657726287842 -2.86102294921875e-06 L 9.051267623901367 -2.86102294921875e-06 C 10.70812797546387 -2.86102294921875e-06 12.05126762390137 1.343147277832031 12.05126762390137 3.000006675720215 L 12.05126762390137 6.000017166137695 C 12.05126762390137 7.656877040863037 10.70812797546387 9.000026702880859 9.051267623901367 9.000026702880859 L 2.639408111572266 9.000026702880859 C 2.049568176269531 9.000026702880859 0.4259481430053711 10.27258682250977 0.2628173828125 10.53823661804199 C -0.5475091934204102 11.73221492767334 0.774658203125 7.881917476654053 0.774658203125 6.814897060394287 L 0.774658203125 3.000006675720215 C 0.774658203125 1.343147277832031 2.1177978515625 -2.86102294921875e-06 3.774657726287842 -2.86102294921875e-06 Z" stroke="none" fill="#f0f"/>
        </g>
      </g>
      <line id="Chat_Sentence_1" data-name="Chat Sentence 1" x2="6.277" transform="translate(3.275 2.5)" fill="none" stroke="#00e5ff" stroke-width="1"/>
      <line id="Chat_Sentence_2" data-name="Chat Sentence 2" x2="6.277" transform="translate(3.275 4.5)" fill="none" stroke="#00e5ff" stroke-width="1"/>
      <line id="Chat_Sentence_3" data-name="Chat Sentence 3" x2="6.277" transform="translate(3.275 6.5)" fill="none" stroke="#00e5ff" stroke-width="1"/>
    </g>
    <g id="Chat_Bubble_1" data-name="Chat Bubble 1" transform="translate(4 4)">
      <g data-type="innerShadowGroup">
        <g transform="matrix(1, 0, 0, 1, -7, -10)" filter="url(#Bubble-3)">
          <g id="Bubble-9" data-name="Bubble" transform="translate(7 9)" fill="#fff">
            <path d="M 11.30197143554688 9.443791389465332 C 10.67770290374756 8.97404670715332 9.887321472167969 8.500001907348633 9.411860466003418 8.500001907348633 L 3.000000715255737 8.500001907348633 C 1.621500849723816 8.500001907348633 0.5000007748603821 7.378501892089844 0.5000007748603821 6.000001907348633 L 0.5000007748603821 3.000001668930054 C 0.5000007748603821 1.621501684188843 1.621500849723816 0.5000017285346985 3.000000715255737 0.5000017285346985 L 8.276610374450684 0.5000017285346985 C 9.655110359191895 0.5000017285346985 10.77661037445068 1.621501684188843 10.77661037445068 3.000001668930054 L 10.77661037445068 6.814881801605225 C 10.77661037445068 7.32125186920166 11.00767040252686 8.254382133483887 11.23112106323242 9.156782150268555 C 11.25372695922852 9.248074531555176 11.27770233154297 9.344897270202637 11.30197143554688 9.443791389465332 Z" stroke="none"/>
            <path d="M 3.000000953674316 1.000001907348633 C 1.897200584411621 1.000001907348633 1.000000953674316 1.897201538085938 1.000000953674316 3.000001907348633 L 1.000000953674316 6.000001907348633 C 1.000000953674316 7.10280179977417 1.897200584411621 8.000001907348633 3.000000953674316 8.000001907348633 L 9.411860466003418 8.000001907348633 C 9.628495216369629 8.000001907348633 9.958913803100586 8.044388771057129 10.51992321014404 8.342203140258789 C 10.3678092956543 7.683167934417725 10.276611328125 7.184776782989502 10.276611328125 6.814881801605225 L 10.276611328125 3.000001907348633 C 10.276611328125 1.897201538085938 9.379410743713379 1.000001907348633 8.276611328125 1.000001907348633 L 3.000000953674316 1.000001907348633 M 3.000000953674316 1.9073486328125e-06 L 8.276611328125 1.9073486328125e-06 C 9.933470726013184 1.9073486328125e-06 11.276611328125 1.343141555786133 11.276611328125 3.000001907348633 L 11.276611328125 6.814881801605225 C 11.276611328125 7.88189172744751 12.59878158569336 11.7321834564209 11.78845119476318 10.53821182250977 C 11.62532043457031 10.27256202697754 10.00170135498047 9.000001907348633 9.411860466003418 9.000001907348633 L 3.000000953674316 9.000001907348633 C 1.343140602111816 9.000001907348633 9.5367431640625e-07 7.656851768493652 9.5367431640625e-07 6.000001907348633 L 9.5367431640625e-07 3.000001907348633 C 9.5367431640625e-07 1.343141555786133 1.343140602111816 1.9073486328125e-06 3.000000953674316 1.9073486328125e-06 Z" stroke="none" fill="#f0f"/>
          </g>
        </g>
        <g id="Bubble-10" data-name="Bubble" transform="translate(0 -1)" fill="#fff">
          <path d="M 11.30197143554688 9.443791389465332 C 10.67770290374756 8.97404670715332 9.887321472167969 8.500001907348633 9.411860466003418 8.500001907348633 L 3.000000715255737 8.500001907348633 C 1.621500849723816 8.500001907348633 0.5000007748603821 7.378501892089844 0.5000007748603821 6.000001907348633 L 0.5000007748603821 3.000001668930054 C 0.5000007748603821 1.621501684188843 1.621500849723816 0.5000017285346985 3.000000715255737 0.5000017285346985 L 8.276610374450684 0.5000017285346985 C 9.655110359191895 0.5000017285346985 10.77661037445068 1.621501684188843 10.77661037445068 3.000001668930054 L 10.77661037445068 6.814881801605225 C 10.77661037445068 7.32125186920166 11.00767040252686 8.254382133483887 11.23112106323242 9.156782150268555 C 11.25372695922852 9.248074531555176 11.27770233154297 9.344897270202637 11.30197143554688 9.443791389465332 Z" stroke="none"/>
          <path d="M 3.000000953674316 1.000001907348633 C 1.897200584411621 1.000001907348633 1.000000953674316 1.897201538085938 1.000000953674316 3.000001907348633 L 1.000000953674316 6.000001907348633 C 1.000000953674316 7.10280179977417 1.897200584411621 8.000001907348633 3.000000953674316 8.000001907348633 L 9.411860466003418 8.000001907348633 C 9.628495216369629 8.000001907348633 9.958913803100586 8.044388771057129 10.51992321014404 8.342203140258789 C 10.3678092956543 7.683167934417725 10.276611328125 7.184776782989502 10.276611328125 6.814881801605225 L 10.276611328125 3.000001907348633 C 10.276611328125 1.897201538085938 9.379410743713379 1.000001907348633 8.276611328125 1.000001907348633 L 3.000000953674316 1.000001907348633 M 3.000000953674316 1.9073486328125e-06 L 8.276611328125 1.9073486328125e-06 C 9.933470726013184 1.9073486328125e-06 11.276611328125 1.343141555786133 11.276611328125 3.000001907348633 L 11.276611328125 6.814881801605225 C 11.276611328125 7.88189172744751 12.59878158569336 11.7321834564209 11.78845119476318 10.53821182250977 C 11.62532043457031 10.27256202697754 10.00170135498047 9.000001907348633 9.411860466003418 9.000001907348633 L 3.000000953674316 9.000001907348633 C 1.343140602111816 9.000001907348633 9.5367431640625e-07 7.656851768493652 9.5367431640625e-07 6.000001907348633 L 9.5367431640625e-07 3.000001907348633 C 9.5367431640625e-07 1.343141555786133 1.343140602111816 1.9073486328125e-06 3.000000953674316 1.9073486328125e-06 Z" stroke="none"/>
        </g>
        <g transform="matrix(1, 0, 0, 1, -7, -10)" filter="url(#Bubble-4)">
          <g id="Bubble-11" data-name="Bubble" transform="translate(7 9)" fill="#fff">
            <path d="M 11.30197143554688 9.443791389465332 C 10.67770290374756 8.97404670715332 9.887321472167969 8.500001907348633 9.411860466003418 8.500001907348633 L 3.000000715255737 8.500001907348633 C 1.621500849723816 8.500001907348633 0.5000007748603821 7.378501892089844 0.5000007748603821 6.000001907348633 L 0.5000007748603821 3.000001668930054 C 0.5000007748603821 1.621501684188843 1.621500849723816 0.5000017285346985 3.000000715255737 0.5000017285346985 L 8.276610374450684 0.5000017285346985 C 9.655110359191895 0.5000017285346985 10.77661037445068 1.621501684188843 10.77661037445068 3.000001668930054 L 10.77661037445068 6.814881801605225 C 10.77661037445068 7.32125186920166 11.00767040252686 8.254382133483887 11.23112106323242 9.156782150268555 C 11.25372695922852 9.248074531555176 11.27770233154297 9.344897270202637 11.30197143554688 9.443791389465332 Z" stroke="none"/>
            <path d="M 3.000000953674316 1.000001907348633 C 1.897200584411621 1.000001907348633 1.000000953674316 1.897201538085938 1.000000953674316 3.000001907348633 L 1.000000953674316 6.000001907348633 C 1.000000953674316 7.10280179977417 1.897200584411621 8.000001907348633 3.000000953674316 8.000001907348633 L 9.411860466003418 8.000001907348633 C 9.628495216369629 8.000001907348633 9.958913803100586 8.044388771057129 10.51992321014404 8.342203140258789 C 10.3678092956543 7.683167934417725 10.276611328125 7.184776782989502 10.276611328125 6.814881801605225 L 10.276611328125 3.000001907348633 C 10.276611328125 1.897201538085938 9.379410743713379 1.000001907348633 8.276611328125 1.000001907348633 L 3.000000953674316 1.000001907348633 M 3.000000953674316 1.9073486328125e-06 L 8.276611328125 1.9073486328125e-06 C 9.933470726013184 1.9073486328125e-06 11.276611328125 1.343141555786133 11.276611328125 3.000001907348633 L 11.276611328125 6.814881801605225 C 11.276611328125 7.88189172744751 12.59878158569336 11.7321834564209 11.78845119476318 10.53821182250977 C 11.62532043457031 10.27256202697754 10.00170135498047 9.000001907348633 9.411860466003418 9.000001907348633 L 3.000000953674316 9.000001907348633 C 1.343140602111816 9.000001907348633 9.5367431640625e-07 7.656851768493652 9.5367431640625e-07 6.000001907348633 L 9.5367431640625e-07 3.000001907348633 C 9.5367431640625e-07 1.343141555786133 1.343140602111816 1.9073486328125e-06 3.000000953674316 1.9073486328125e-06 Z" stroke="none"/>
          </g>
        </g>
        <g id="Bubble-12" data-name="Bubble" transform="translate(0 -1)" fill="none">
          <path d="M 11.30197143554688 9.443791389465332 C 10.67770290374756 8.97404670715332 9.887321472167969 8.500001907348633 9.411860466003418 8.500001907348633 L 3.000000715255737 8.500001907348633 C 1.621500849723816 8.500001907348633 0.5000007748603821 7.378501892089844 0.5000007748603821 6.000001907348633 L 0.5000007748603821 3.000001668930054 C 0.5000007748603821 1.621501684188843 1.621500849723816 0.5000017285346985 3.000000715255737 0.5000017285346985 L 8.276610374450684 0.5000017285346985 C 9.655110359191895 0.5000017285346985 10.77661037445068 1.621501684188843 10.77661037445068 3.000001668930054 L 10.77661037445068 6.814881801605225 C 10.77661037445068 7.32125186920166 11.00767040252686 8.254382133483887 11.23112106323242 9.156782150268555 C 11.25372695922852 9.248074531555176 11.27770233154297 9.344897270202637 11.30197143554688 9.443791389465332 Z" stroke="none"/>
          <path d="M 3.000000953674316 1.000001907348633 C 1.897200584411621 1.000001907348633 1.000000953674316 1.897201538085938 1.000000953674316 3.000001907348633 L 1.000000953674316 6.000001907348633 C 1.000000953674316 7.10280179977417 1.897200584411621 8.000001907348633 3.000000953674316 8.000001907348633 L 9.411860466003418 8.000001907348633 C 9.628495216369629 8.000001907348633 9.958913803100586 8.044388771057129 10.51992321014404 8.342203140258789 C 10.3678092956543 7.683167934417725 10.276611328125 7.184776782989502 10.276611328125 6.814881801605225 L 10.276611328125 3.000001907348633 C 10.276611328125 1.897201538085938 9.379410743713379 1.000001907348633 8.276611328125 1.000001907348633 L 3.000000953674316 1.000001907348633 M 3.000000953674316 1.9073486328125e-06 L 8.276611328125 1.9073486328125e-06 C 9.933470726013184 1.9073486328125e-06 11.276611328125 1.343141555786133 11.276611328125 3.000001907348633 L 11.276611328125 6.814881801605225 C 11.276611328125 7.88189172744751 12.59878158569336 11.7321834564209 11.78845119476318 10.53821182250977 C 11.62532043457031 10.27256202697754 10.00170135498047 9.000001907348633 9.411860466003418 9.000001907348633 L 3.000000953674316 9.000001907348633 C 1.343140602111816 9.000001907348633 9.5367431640625e-07 7.656851768493652 9.5367431640625e-07 6.000001907348633 L 9.5367431640625e-07 3.000001907348633 C 9.5367431640625e-07 1.343141555786133 1.343140602111816 1.9073486328125e-06 3.000000953674316 1.9073486328125e-06 Z" stroke="none" fill="#f0f"/>
        </g>
      </g>
      <line id="Chat_Sentence_1-2" data-name="Chat Sentence 1" x1="6.277" transform="translate(2.5 1.5)" fill="none" stroke="#00e5ff" stroke-width="1"/>
      <line id="Chat_Sentence_2-2" data-name="Chat Sentence 2" x1="6.277" transform="translate(2.5 3.5)" fill="none" stroke="#00e5ff" stroke-width="1"/>
      <line id="Chat_Sentence_3-2" data-name="Chat Sentence 3" x1="6.277" transform="translate(2.5 5.5)" fill="none" stroke="#00e5ff" stroke-width="1"/>
    </g>
  </g>
</svg>
