<svg xmlns="http://www.w3.org/2000/svg" xmlns:xlink="http://www.w3.org/1999/xlink" width="15.528" height="15.228" viewBox="0 0 15.528 15.228">
  <defs>
    <filter id="Clapper_Bottom" x="0.274" y="3.228" width="15" height="12" filterUnits="userSpaceOnUse">
      <feOffset dy="-3" input="SourceAlpha"/>
      <feGaussianBlur stdDeviation="1" result="blur"/>
      <feFlood flood-opacity="0.776"/>
      <feComposite operator="in" in2="blur"/>
    </filter>
    <filter id="Clapper_Bottom-2" x="0.274" y="3.228" width="15" height="12" filterUnits="userSpaceOnUse">
      <feOffset input="SourceAlpha"/>
      <feGaussianBlur stdDeviation="1.5" result="blur-2"/>
      <feFlood flood-color="#f0f" result="color"/>
      <feComposite operator="out" in="SourceGraphic" in2="blur-2"/>
      <feComposite operator="in" in="color"/>
      <feComposite operator="in" in2="SourceGraphic"/>
    </filter>
    <filter id="Clapper_Top" x="0" y="0" width="15.528" height="10.602" filterUnits="userSpaceOnUse">
      <feOffset dy="-3" input="SourceAlpha"/>
      <feGaussianBlur stdDeviation="1" result="blur-3"/>
      <feFlood flood-opacity="0.776"/>
      <feComposite operator="in" in2="blur-3"/>
      <feComposite in="SourceGraphic"/>
    </filter>
  </defs>
  <g id="Clapper" transform="translate(3 6)">
    <g data-type="innerShadowGroup">
      <g transform="matrix(1, 0, 0, 1, -3, -6)" filter="url(#Clapper_Bottom)">
        <g id="Clapper_Bottom-3" data-name="Clapper Bottom" transform="translate(3.27 9.23)" fill="#fff" stroke="#f0f" stroke-width="1">
          <rect width="9" height="6" stroke="none"/>
          <rect x="0.5" y="0.5" width="8" height="5" fill="none"/>
        </g>
      </g>
      <rect id="Clapper_Bottom-4" data-name="Clapper Bottom" width="9" height="6" transform="translate(0.274 3.228)" fill="#fff"/>
      <g transform="matrix(1, 0, 0, 1, -3, -6)" filter="url(#Clapper_Bottom-2)">
        <rect id="Clapper_Bottom-5" data-name="Clapper Bottom" width="9" height="6" transform="translate(3.27 9.23)" fill="#fff"/>
      </g>
      <g id="Clapper_Bottom-6" data-name="Clapper Bottom" transform="translate(0.274 3.228)" fill="none" stroke="#f0f" stroke-width="1">
        <rect width="9" height="6" stroke="none"/>
        <rect x="0.5" y="0.5" width="8" height="5" fill="none"/>
      </g>
    </g>
    <g transform="matrix(1, 0, 0, 1, -3, -6)" filter="url(#Clapper_Top)">
      <g id="Clapper_Top-2" data-name="Clapper Top" transform="translate(3.2 8.66) rotate(-14)" fill="#fff">
        <path d="M 0.4381203651428223 1.451352000236511 L 0.4800136685371399 0.4760711193084717 L 8.601975440979004 0.05999046191573143 L 8.560087203979492 1.035271525382996 L 0.4381203651428223 1.451352000236511 Z" stroke="none"/>
        <path d="M 9.125091552734375 -0.4674687385559082 L 9.040101051330566 1.511341214179993 L -0.08498859405517578 1.978811264038086 L 1.9073486328125e-06 1.311302185058594e-06 L 9.125091552734375 -0.4674687385559082 Z" stroke="none" fill="#00e5ff"/>
      </g>
    </g>
  </g>
</svg>
