<svg xmlns="http://www.w3.org/2000/svg" xmlns:xlink="http://www.w3.org/1999/xlink" width="26.626" height="22.602" viewBox="0 0 26.626 22.602">
  <defs>
    <filter id="Floating_Arrow_Bottom" x="0" y="6.199" width="26.626" height="16.403" filterUnits="userSpaceOnUse">
      <feOffset dy="-3" input="SourceAlpha"/>
      <feGaussianBlur stdDeviation="1" result="blur"/>
      <feFlood flood-opacity="0.78"/>
      <feComposite operator="in" in2="blur"/>
    </filter>
    <filter id="Floating_Arrow_Bottom-2" x="0" y="6.199" width="26.626" height="16.403" filterUnits="userSpaceOnUse">
      <feOffset input="SourceAlpha"/>
      <feGaussianBlur stdDeviation="1.5" result="blur-2"/>
      <feFlood flood-color="#f0f" result="color"/>
      <feComposite operator="out" in="SourceGraphic" in2="blur-2"/>
      <feComposite operator="in" in="color"/>
      <feComposite operator="in" in2="SourceGraphic"/>
    </filter>
    <filter id="Floating_Arrow_Top" x="6.285" y="0" width="13.883" height="17.976" filterUnits="userSpaceOnUse">
      <feOffset dy="-3" input="SourceAlpha"/>
      <feGaussianBlur stdDeviation="1" result="blur-3"/>
      <feFlood flood-opacity="0.78"/>
      <feComposite operator="in" in2="blur-3"/>
    </filter>
    <filter id="Floating_Arrow_Top-2" x="6.285" y="0" width="13.883" height="17.976" filterUnits="userSpaceOnUse">
      <feOffset input="SourceAlpha"/>
      <feGaussianBlur stdDeviation="1.5" result="blur-4"/>
      <feFlood flood-color="#f0f" result="color-2"/>
      <feComposite operator="out" in="SourceGraphic" in2="blur-4"/>
      <feComposite operator="in" in="color-2"/>
      <feComposite operator="in" in2="SourceGraphic"/>
    </filter>
  </defs>
  <g id="Floating_Arrow_Down_Icon" data-name="Floating Arrow Down Icon" transform="translate(3.334 7.215)">
    <g data-type="innerShadowGroup">
      <g transform="matrix(1, 0, 0, 1, -3.33, -7.21)" filter="url(#Floating_Arrow_Bottom)">
        <path id="Floating_Arrow_Bottom-3" data-name="Floating Arrow Bottom" d="M1153.259,614.689l10.34,9.284,9.6-9.284-9.6,5.841Z" transform="translate(-1149.92 -602.05)" fill="#fff" stroke="#f0f" stroke-width="1"/>
      </g>
      <path id="Floating_Arrow_Bottom-4" data-name="Floating Arrow Bottom" d="M1153.259,614.689l10.34,9.284,9.6-9.284-9.6,5.841Z" transform="translate(-1153.259 -609.269)" fill="#fff"/>
      <g transform="matrix(1, 0, 0, 1, -3.33, -7.21)" filter="url(#Floating_Arrow_Bottom-2)">
        <path id="Floating_Arrow_Bottom-5" data-name="Floating Arrow Bottom" d="M1153.259,614.689l10.34,9.284,9.6-9.284-9.6,5.841Z" transform="translate(-1149.92 -602.05)" fill="#fff"/>
      </g>
      <path id="Floating_Arrow_Bottom-6" data-name="Floating Arrow Bottom" d="M1153.259,614.689l10.34,9.284,9.6-9.284-9.6,5.841Z" transform="translate(-1153.259 -609.269)" fill="none" stroke="#f0f" stroke-width="1"/>
    </g>
    <g data-type="innerShadowGroup">
      <g transform="matrix(1, 0, 0, 1, -3.33, -7.21)" filter="url(#Floating_Arrow_Top)">
        <path id="Floating_Arrow_Top-3" data-name="Floating Arrow Top" d="M1161.628,610.269a5.56,5.56,0,0,0,3.09.853,6.427,6.427,0,0,0,2.975-.853l-2.633,9.168Z" transform="translate(-1151.35 -603.05)" fill="#fff" stroke="#f0f" stroke-width="1"/>
      </g>
      <path id="Floating_Arrow_Top-4" data-name="Floating Arrow Top" d="M1161.628,610.269a5.56,5.56,0,0,0,3.09.853,6.427,6.427,0,0,0,2.975-.853l-2.633,9.168Z" transform="translate(-1154.688 -610.269)" fill="#fff"/>
      <g transform="matrix(1, 0, 0, 1, -3.33, -7.21)" filter="url(#Floating_Arrow_Top-2)">
        <path id="Floating_Arrow_Top-5" data-name="Floating Arrow Top" d="M1161.628,610.269a5.56,5.56,0,0,0,3.09.853,6.427,6.427,0,0,0,2.975-.853l-2.633,9.168Z" transform="translate(-1151.35 -603.05)" fill="#fff"/>
      </g>
      <path id="Floating_Arrow_Top-6" data-name="Floating Arrow Top" d="M1161.628,610.269a5.56,5.56,0,0,0,3.09.853,6.427,6.427,0,0,0,2.975-.853l-2.633,9.168Z" transform="translate(-1154.688 -610.269)" fill="none" stroke="#f0f" stroke-width="1"/>
    </g>
  </g>
</svg>
