<svg xmlns="http://www.w3.org/2000/svg" xmlns:xlink="http://www.w3.org/1999/xlink" width="17" height="16" viewBox="0 0 17 16">
  <defs>
    <filter id="Down" x="0" y="0" width="17" height="16" filterUnits="userSpaceOnUse">
      <feOffset dy="-3" input="SourceAlpha"/>
      <feGaussianBlur stdDeviation="1" result="blur"/>
      <feFlood flood-opacity="0.776"/>
      <feComposite operator="in" in2="blur"/>
    </filter>
    <filter id="Down-2" x="0" y="0" width="17" height="16" filterUnits="userSpaceOnUse">
      <feOffset input="SourceAlpha"/>
      <feGaussianBlur stdDeviation="1.5" result="blur-2"/>
      <feFlood flood-color="#f0f" result="color"/>
      <feComposite operator="out" in="SourceGraphic" in2="blur-2"/>
      <feComposite operator="in" in="color"/>
      <feComposite operator="in" in2="SourceGraphic"/>
    </filter>
  </defs>
  <g id="Down-3" data-name="Down" transform="translate(3 6)">
    <g data-type="innerShadowGroup">
      <g transform="matrix(1, 0, 0, 1, -3, -6)" filter="url(#Down)">
        <g id="Down-4" data-name="Down" transform="translate(14 16) rotate(180)" fill="#fff">
          <path d="M 9.308730125427246 9.500001907348633 L 1.691269993782043 9.500001907348633 C 1.433840036392212 9.500001907348633 1.304530024528503 9.328302383422852 1.260879993438721 9.254482269287109 C 1.217229962348938 9.180662155151367 1.12909996509552 8.984612464904785 1.253170013427734 8.759042739868164 L 5.061890125274658 1.834082365036011 C 5.19048023223877 1.600282311439514 5.411109924316406 1.575042366981506 5.5 1.575042366981506 C 5.588890075683594 1.575042366981506 5.80951976776123 1.600282311439514 5.938109874725342 1.834082365036011 L 9.746829986572266 8.759042739868164 C 9.87090015411377 8.984612464904785 9.782770156860352 9.180662155151367 9.739119529724121 9.254482269287109 C 9.695469856262207 9.328302383422852 9.566160202026367 9.500001907348633 9.308730125427246 9.500001907348633 Z" stroke="none"/>
          <path d="M 5.500002384185791 2.075037956237793 C 5.500001430511475 2.075039863586426 5.500000476837158 2.075040817260742 5.5 2.075042724609375 L 1.691269874572754 8.999992370605469 C 1.691267967224121 8.999995231628418 1.691267967224121 8.999998092651367 1.691269874572754 9.000001907348633 C 1.691269874572754 9.000001907348633 1.691269874572754 9.000001907348633 1.691269874572754 9.000001907348633 L 9.308719635009766 9.000001907348633 L 5.500010013580322 2.075052261352539 C 5.500007629394531 2.075047492980957 5.500004768371582 2.075042724609375 5.500002384185791 2.075037956237793 M 5.5 1.075037002563477 C 5.843127727508545 1.075037002563477 6.186254978179932 1.247732162475586 6.376220226287842 1.593122482299805 L 10.18494033813477 8.518082618713379 C 10.55148983001709 9.184532165527344 10.0693302154541 10.00000190734863 9.308730125427246 10.00000190734863 L 1.691269874572754 10.00000190734863 C 0.9306697845458984 10.00000190734863 0.4485101699829102 9.184532165527344 0.8150501251220703 8.518082618713379 L 4.623779773712158 1.593122482299805 C 4.813745021820068 1.247732162475586 5.156872272491455 1.075037002563477 5.5 1.075037002563477 Z" stroke="none" fill="#f0f"/>
        </g>
      </g>
      <g id="Down-5" data-name="Down" transform="translate(11 10) rotate(180)" fill="#fff">
        <path d="M 9.308730125427246 9.500001907348633 L 1.691269993782043 9.500001907348633 C 1.433840036392212 9.500001907348633 1.304530024528503 9.328302383422852 1.260879993438721 9.254482269287109 C 1.217229962348938 9.180662155151367 1.12909996509552 8.984612464904785 1.253170013427734 8.759042739868164 L 5.061890125274658 1.834082365036011 C 5.19048023223877 1.600282311439514 5.411109924316406 1.575042366981506 5.5 1.575042366981506 C 5.588890075683594 1.575042366981506 5.80951976776123 1.600282311439514 5.938109874725342 1.834082365036011 L 9.746829986572266 8.759042739868164 C 9.87090015411377 8.984612464904785 9.782770156860352 9.180662155151367 9.739119529724121 9.254482269287109 C 9.695469856262207 9.328302383422852 9.566160202026367 9.500001907348633 9.308730125427246 9.500001907348633 Z" stroke="none"/>
        <path d="M 5.500002384185791 2.075037956237793 C 5.500001430511475 2.075039863586426 5.500000476837158 2.075040817260742 5.5 2.075042724609375 L 1.691269874572754 8.999992370605469 C 1.691267967224121 8.999995231628418 1.691267967224121 8.999998092651367 1.691269874572754 9.000001907348633 C 1.691269874572754 9.000001907348633 1.691269874572754 9.000001907348633 1.691269874572754 9.000001907348633 L 9.308719635009766 9.000001907348633 L 5.500010013580322 2.075052261352539 C 5.500007629394531 2.075047492980957 5.500004768371582 2.075042724609375 5.500002384185791 2.075037956237793 M 5.5 1.075037002563477 C 5.843127727508545 1.075037002563477 6.186254978179932 1.247732162475586 6.376220226287842 1.593122482299805 L 10.18494033813477 8.518082618713379 C 10.55148983001709 9.184532165527344 10.0693302154541 10.00000190734863 9.308730125427246 10.00000190734863 L 1.691269874572754 10.00000190734863 C 0.9306697845458984 10.00000190734863 0.4485101699829102 9.184532165527344 0.8150501251220703 8.518082618713379 L 4.623779773712158 1.593122482299805 C 4.813745021820068 1.247732162475586 5.156872272491455 1.075037002563477 5.5 1.075037002563477 Z" stroke="none"/>
      </g>
      <g transform="matrix(1, 0, 0, 1, -3, -6)" filter="url(#Down-2)">
        <g id="Down-6" data-name="Down" transform="translate(14 16) rotate(180)" fill="#fff">
          <path d="M 9.308730125427246 9.500001907348633 L 1.691269993782043 9.500001907348633 C 1.433840036392212 9.500001907348633 1.304530024528503 9.328302383422852 1.260879993438721 9.254482269287109 C 1.217229962348938 9.180662155151367 1.12909996509552 8.984612464904785 1.253170013427734 8.759042739868164 L 5.061890125274658 1.834082365036011 C 5.19048023223877 1.600282311439514 5.411109924316406 1.575042366981506 5.5 1.575042366981506 C 5.588890075683594 1.575042366981506 5.80951976776123 1.600282311439514 5.938109874725342 1.834082365036011 L 9.746829986572266 8.759042739868164 C 9.87090015411377 8.984612464904785 9.782770156860352 9.180662155151367 9.739119529724121 9.254482269287109 C 9.695469856262207 9.328302383422852 9.566160202026367 9.500001907348633 9.308730125427246 9.500001907348633 Z" stroke="none"/>
          <path d="M 5.500002384185791 2.075037956237793 C 5.500001430511475 2.075039863586426 5.500000476837158 2.075040817260742 5.5 2.075042724609375 L 1.691269874572754 8.999992370605469 C 1.691267967224121 8.999995231628418 1.691267967224121 8.999998092651367 1.691269874572754 9.000001907348633 C 1.691269874572754 9.000001907348633 1.691269874572754 9.000001907348633 1.691269874572754 9.000001907348633 L 9.308719635009766 9.000001907348633 L 5.500010013580322 2.075052261352539 C 5.500007629394531 2.075047492980957 5.500004768371582 2.075042724609375 5.500002384185791 2.075037956237793 M 5.5 1.075037002563477 C 5.843127727508545 1.075037002563477 6.186254978179932 1.247732162475586 6.376220226287842 1.593122482299805 L 10.18494033813477 8.518082618713379 C 10.55148983001709 9.184532165527344 10.0693302154541 10.00000190734863 9.308730125427246 10.00000190734863 L 1.691269874572754 10.00000190734863 C 0.9306697845458984 10.00000190734863 0.4485101699829102 9.184532165527344 0.8150501251220703 8.518082618713379 L 4.623779773712158 1.593122482299805 C 4.813745021820068 1.247732162475586 5.156872272491455 1.075037002563477 5.5 1.075037002563477 Z" stroke="none"/>
        </g>
      </g>
      <g id="Down-7" data-name="Down" transform="translate(11 10) rotate(180)" fill="none">
        <path d="M 9.308730125427246 9.500001907348633 L 1.691269993782043 9.500001907348633 C 1.433840036392212 9.500001907348633 1.304530024528503 9.328302383422852 1.260879993438721 9.254482269287109 C 1.217229962348938 9.180662155151367 1.12909996509552 8.984612464904785 1.253170013427734 8.759042739868164 L 5.061890125274658 1.834082365036011 C 5.19048023223877 1.600282311439514 5.411109924316406 1.575042366981506 5.5 1.575042366981506 C 5.588890075683594 1.575042366981506 5.80951976776123 1.600282311439514 5.938109874725342 1.834082365036011 L 9.746829986572266 8.759042739868164 C 9.87090015411377 8.984612464904785 9.782770156860352 9.180662155151367 9.739119529724121 9.254482269287109 C 9.695469856262207 9.328302383422852 9.566160202026367 9.500001907348633 9.308730125427246 9.500001907348633 Z" stroke="none"/>
        <path d="M 5.500002384185791 2.075037956237793 C 5.500001430511475 2.075039863586426 5.500000476837158 2.075040817260742 5.5 2.075042724609375 L 1.691269874572754 8.999992370605469 C 1.691267967224121 8.999995231628418 1.691267967224121 8.999998092651367 1.691269874572754 9.000001907348633 C 1.691269874572754 9.000001907348633 1.691269874572754 9.000001907348633 1.691269874572754 9.000001907348633 L 9.308719635009766 9.000001907348633 L 5.500010013580322 2.075052261352539 C 5.500007629394531 2.075047492980957 5.500004768371582 2.075042724609375 5.500002384185791 2.075037956237793 M 5.5 1.075037002563477 C 5.843127727508545 1.075037002563477 6.186254978179932 1.247732162475586 6.376220226287842 1.593122482299805 L 10.18494033813477 8.518082618713379 C 10.55148983001709 9.184532165527344 10.0693302154541 10.00000190734863 9.308730125427246 10.00000190734863 L 1.691269874572754 10.00000190734863 C 0.9306697845458984 10.00000190734863 0.4485101699829102 9.184532165527344 0.8150501251220703 8.518082618713379 L 4.623779773712158 1.593122482299805 C 4.813745021820068 1.247732162475586 5.156872272491455 1.075037002563477 5.5 1.075037002563477 Z" stroke="none" fill="#f0f"/>
      </g>
    </g>
  </g>
</svg>
