<svg xmlns="http://www.w3.org/2000/svg" xmlns:xlink="http://www.w3.org/1999/xlink" width="15" height="19.25" viewBox="0 0 15 19.25">
  <defs>
    <filter id="Plate" x="0" y="9.25" width="15" height="10" filterUnits="userSpaceOnUse">
      <feOffset input="SourceAlpha"/>
      <feGaussianBlur stdDeviation="0.5" result="blur"/>
      <feFlood flood-opacity="0.776"/>
      <feComposite operator="in" in2="blur"/>
      <feComposite in="SourceGraphic"/>
    </filter>
    <filter id="Event_Cake" x="1.5" y="4.75" width="12" height="11" filterUnits="userSpaceOnUse">
      <feOffset dy="-3" input="SourceAlpha"/>
      <feGaussianBlur stdDeviation="1" result="blur-2"/>
      <feFlood flood-opacity="0.776"/>
      <feComposite operator="in" in2="blur-2"/>
    </filter>
    <filter id="Event_Cake-2" x="1.5" y="4.75" width="12" height="11" filterUnits="userSpaceOnUse">
      <feOffset input="SourceAlpha"/>
      <feGaussianBlur stdDeviation="1.5" result="blur-3"/>
      <feFlood flood-color="#f0f" result="color"/>
      <feComposite operator="out" in="SourceGraphic" in2="blur-3"/>
      <feComposite operator="in" in="color"/>
      <feComposite operator="in" in2="SourceGraphic"/>
    </filter>
    <filter id="Event_Cake_Top" x="1.5" y="2.75" width="12" height="10" filterUnits="userSpaceOnUse">
      <feOffset dy="-3" input="SourceAlpha"/>
      <feGaussianBlur stdDeviation="1" result="blur-4"/>
      <feFlood flood-opacity="0.776"/>
      <feComposite operator="in" in2="blur-4"/>
    </filter>
    <filter id="Event_Cake_Top-2" x="1.5" y="2.75" width="12" height="10" filterUnits="userSpaceOnUse">
      <feOffset input="SourceAlpha"/>
      <feGaussianBlur stdDeviation="1.5" result="blur-5"/>
      <feFlood flood-color="#f0f" result="color-2"/>
      <feComposite operator="out" in="SourceGraphic" in2="blur-5"/>
      <feComposite operator="in" in="color-2"/>
      <feComposite operator="in" in2="SourceGraphic"/>
    </filter>
    <filter id="Candle" x="4" y="0.75" width="7" height="10" filterUnits="userSpaceOnUse">
      <feOffset dy="-3" input="SourceAlpha"/>
      <feGaussianBlur stdDeviation="1" result="blur-6"/>
      <feFlood flood-opacity="0.776"/>
      <feComposite operator="in" in2="blur-6"/>
      <feComposite in="SourceGraphic"/>
    </filter>
    <filter id="Wick" x="4" y="0" width="7" height="7.5" filterUnits="userSpaceOnUse">
      <feOffset dy="-3" input="SourceAlpha"/>
      <feGaussianBlur stdDeviation="1" result="blur-7"/>
      <feFlood flood-opacity="0.776"/>
      <feComposite operator="in" in2="blur-7"/>
      <feComposite in="SourceGraphic"/>
    </filter>
  </defs>
  <g id="Event_Icon" data-name="Event Icon" transform="translate(1.5 6.5)">
    <g transform="matrix(1, 0, 0, 1, -1.5, -6.5)" filter="url(#Plate)">
      <g id="Plate-2" data-name="Plate" transform="translate(1.5 10.75)" fill="#fff" stroke="#00e5ff" stroke-width="1">
        <ellipse cx="6" cy="3.5" rx="6" ry="3.5" stroke="none"/>
        <ellipse cx="6" cy="3.5" rx="5.5" ry="3" fill="none"/>
      </g>
    </g>
    <g data-type="innerShadowGroup">
      <g transform="matrix(1, 0, 0, 1, -1.5, -6.5)" filter="url(#Event_Cake)">
        <g id="Event_Cake-3" data-name="Event Cake" transform="translate(4.5 12.67)" fill="#fff">
          <path d="M 3.619179010391235 2.578125 L 3.131449937820435 2.578125 L 2.652050018310547 2.578125 L 2.200180053710938 2.578125 L 1.693130493164062 2.522303104400635 L 1.182669997215271 2.460908174514771 L 0.7816102504730225 2.347048997879028 L 0.5 2.149957656860352 L 0.5 -0.9964787364006042 L 0.5952877402305603 -1.079776763916016 L 0.7787958383560181 -1.152254462242126 L 1.099935173988342 -1.242793679237366 L 1.693466067314148 -1.365580439567566 L 2.155376672744751 -1.421875 L 2.631249904632568 -1.421875 L 3.212500095367432 -1.421875 L 3.86823296546936 -1.421875 L 4.120462894439697 -1.402374982833862 L 4.660670280456543 -1.311695218086243 L 4.91855001449585 -1.254485011100769 L 5.144354820251465 -1.204393625259399 L 5.477030754089355 -1.069074988365173 L 5.5 -1.053731322288513 L 5.5 2.150313854217529 L 5.439402103424072 2.192824602127075 L 4.990537643432617 2.322562694549561 L 4.445532321929932 2.46203351020813 L 4.036819458007812 2.523931503295898 L 3.619179010391235 2.578125 Z" stroke="none"/>
          <path d="M 2.185753345489502 -0.921875 L 1.77445650100708 -0.8717489242553711 L 1.218555450439453 -0.756746768951416 L 1 -0.6951292753219604 L 1 1.88929295539856 L 1.281407356262207 1.969183206558228 L 1.750802993774414 2.025639057159424 L 2.227549076080322 2.078125 L 3.586820840835571 2.078125 L 3.967188835144043 2.028768062591553 L 4.345940589904785 1.971407651901245 L 4.859092712402344 1.840088248252869 L 5 1.799360990524292 L 5 -0.7233318090438843 L 4.994988441467285 -0.7253704071044922 L 4.565090179443359 -0.820745587348938 L 4.059675693511963 -0.9055848121643066 L 3.848965883255005 -0.921875 L 2.185753345489502 -0.921875 M 2.125 -1.921875 L 3.887500047683716 -1.921875 L 4.181250095367432 -1.899164915084839 L 4.756249904632568 -1.802644968032837 L 5.293749809265137 -1.683404922485352 L 5.712500095367432 -1.513075113296509 L 5.925000190734863 -1.371124982833862 L 6 -1.223505020141602 L 6 2.410315036773682 L 5.658299922943115 2.650024890899658 L 5.122069835662842 2.805015087127686 L 4.545219898223877 2.952635049819946 L 4.106450080871582 3.019084930419922 L 3.651459932327271 3.078125 L 2.172709941864014 3.078125 L 1.636429786682129 3.019084930419922 L 1.083940029144287 2.952635049819946 L 0.563960075378418 2.805015087127686 L 0 2.410315036773682 L 0 -1.223505020141602 L 0.3312501907348633 -1.513075113296509 L 0.6187500953674316 -1.626625061035156 L 0.9812498092651367 -1.728825092315674 L 1.612500190734863 -1.859415054321289 L 2.125 -1.921875 Z" stroke="none" fill="#f0f"/>
        </g>
      </g>
      <g id="Event_Cake-4" data-name="Event Cake" transform="translate(3 6.172)" fill="#fff">
        <path d="M 3.619179010391235 2.578125 L 3.131449937820435 2.578125 L 2.652050018310547 2.578125 L 2.200180053710938 2.578125 L 1.693130493164062 2.522303104400635 L 1.182669997215271 2.460908174514771 L 0.7816102504730225 2.347048997879028 L 0.5 2.149957656860352 L 0.5 -0.9964787364006042 L 0.5952877402305603 -1.079776763916016 L 0.7787958383560181 -1.152254462242126 L 1.099935173988342 -1.242793679237366 L 1.693466067314148 -1.365580439567566 L 2.155376672744751 -1.421875 L 2.631249904632568 -1.421875 L 3.212500095367432 -1.421875 L 3.86823296546936 -1.421875 L 4.120462894439697 -1.402374982833862 L 4.660670280456543 -1.311695218086243 L 4.91855001449585 -1.254485011100769 L 5.144354820251465 -1.204393625259399 L 5.477030754089355 -1.069074988365173 L 5.5 -1.053731322288513 L 5.5 2.150313854217529 L 5.439402103424072 2.192824602127075 L 4.990537643432617 2.322562694549561 L 4.445532321929932 2.46203351020813 L 4.036819458007812 2.523931503295898 L 3.619179010391235 2.578125 Z" stroke="none"/>
        <path d="M 2.185753345489502 -0.921875 L 1.77445650100708 -0.8717489242553711 L 1.218555450439453 -0.756746768951416 L 1 -0.6951292753219604 L 1 1.88929295539856 L 1.281407356262207 1.969183206558228 L 1.750802993774414 2.025639057159424 L 2.227549076080322 2.078125 L 3.586820840835571 2.078125 L 3.967188835144043 2.028768062591553 L 4.345940589904785 1.971407651901245 L 4.859092712402344 1.840088248252869 L 5 1.799360990524292 L 5 -0.7233318090438843 L 4.994988441467285 -0.7253704071044922 L 4.565090179443359 -0.820745587348938 L 4.059675693511963 -0.9055848121643066 L 3.848965883255005 -0.921875 L 2.185753345489502 -0.921875 M 2.125 -1.921875 L 3.887500047683716 -1.921875 L 4.181250095367432 -1.899164915084839 L 4.756249904632568 -1.802644968032837 L 5.293749809265137 -1.683404922485352 L 5.712500095367432 -1.513075113296509 L 5.925000190734863 -1.371124982833862 L 6 -1.223505020141602 L 6 2.410315036773682 L 5.658299922943115 2.650024890899658 L 5.122069835662842 2.805015087127686 L 4.545219898223877 2.952635049819946 L 4.106450080871582 3.019084930419922 L 3.651459932327271 3.078125 L 2.172709941864014 3.078125 L 1.636429786682129 3.019084930419922 L 1.083940029144287 2.952635049819946 L 0.563960075378418 2.805015087127686 L 0 2.410315036773682 L 0 -1.223505020141602 L 0.3312501907348633 -1.513075113296509 L 0.6187500953674316 -1.626625061035156 L 0.9812498092651367 -1.728825092315674 L 1.612500190734863 -1.859415054321289 L 2.125 -1.921875 Z" stroke="none"/>
      </g>
      <g transform="matrix(1, 0, 0, 1, -1.5, -6.5)" filter="url(#Event_Cake-2)">
        <g id="Event_Cake-5" data-name="Event Cake" transform="translate(4.5 12.67)" fill="#fff">
          <path d="M 3.619179010391235 2.578125 L 3.131449937820435 2.578125 L 2.652050018310547 2.578125 L 2.200180053710938 2.578125 L 1.693130493164062 2.522303104400635 L 1.182669997215271 2.460908174514771 L 0.7816102504730225 2.347048997879028 L 0.5 2.149957656860352 L 0.5 -0.9964787364006042 L 0.5952877402305603 -1.079776763916016 L 0.7787958383560181 -1.152254462242126 L 1.099935173988342 -1.242793679237366 L 1.693466067314148 -1.365580439567566 L 2.155376672744751 -1.421875 L 2.631249904632568 -1.421875 L 3.212500095367432 -1.421875 L 3.86823296546936 -1.421875 L 4.120462894439697 -1.402374982833862 L 4.660670280456543 -1.311695218086243 L 4.91855001449585 -1.254485011100769 L 5.144354820251465 -1.204393625259399 L 5.477030754089355 -1.069074988365173 L 5.5 -1.053731322288513 L 5.5 2.150313854217529 L 5.439402103424072 2.192824602127075 L 4.990537643432617 2.322562694549561 L 4.445532321929932 2.46203351020813 L 4.036819458007812 2.523931503295898 L 3.619179010391235 2.578125 Z" stroke="none"/>
          <path d="M 2.185753345489502 -0.921875 L 1.77445650100708 -0.8717489242553711 L 1.218555450439453 -0.756746768951416 L 1 -0.6951292753219604 L 1 1.88929295539856 L 1.281407356262207 1.969183206558228 L 1.750802993774414 2.025639057159424 L 2.227549076080322 2.078125 L 3.586820840835571 2.078125 L 3.967188835144043 2.028768062591553 L 4.345940589904785 1.971407651901245 L 4.859092712402344 1.840088248252869 L 5 1.799360990524292 L 5 -0.7233318090438843 L 4.994988441467285 -0.7253704071044922 L 4.565090179443359 -0.820745587348938 L 4.059675693511963 -0.9055848121643066 L 3.848965883255005 -0.921875 L 2.185753345489502 -0.921875 M 2.125 -1.921875 L 3.887500047683716 -1.921875 L 4.181250095367432 -1.899164915084839 L 4.756249904632568 -1.802644968032837 L 5.293749809265137 -1.683404922485352 L 5.712500095367432 -1.513075113296509 L 5.925000190734863 -1.371124982833862 L 6 -1.223505020141602 L 6 2.410315036773682 L 5.658299922943115 2.650024890899658 L 5.122069835662842 2.805015087127686 L 4.545219898223877 2.952635049819946 L 4.106450080871582 3.019084930419922 L 3.651459932327271 3.078125 L 2.172709941864014 3.078125 L 1.636429786682129 3.019084930419922 L 1.083940029144287 2.952635049819946 L 0.563960075378418 2.805015087127686 L 0 2.410315036773682 L 0 -1.223505020141602 L 0.3312501907348633 -1.513075113296509 L 0.6187500953674316 -1.626625061035156 L 0.9812498092651367 -1.728825092315674 L 1.612500190734863 -1.859415054321289 L 2.125 -1.921875 Z" stroke="none"/>
        </g>
      </g>
      <g id="Event_Cake-6" data-name="Event Cake" transform="translate(3 6.172)" fill="none">
        <path d="M 3.619179010391235 2.578125 L 3.131449937820435 2.578125 L 2.652050018310547 2.578125 L 2.200180053710938 2.578125 L 1.693130493164062 2.522303104400635 L 1.182669997215271 2.460908174514771 L 0.7816102504730225 2.347048997879028 L 0.5 2.149957656860352 L 0.5 -0.9964787364006042 L 0.5952877402305603 -1.079776763916016 L 0.7787958383560181 -1.152254462242126 L 1.099935173988342 -1.242793679237366 L 1.693466067314148 -1.365580439567566 L 2.155376672744751 -1.421875 L 2.631249904632568 -1.421875 L 3.212500095367432 -1.421875 L 3.86823296546936 -1.421875 L 4.120462894439697 -1.402374982833862 L 4.660670280456543 -1.311695218086243 L 4.91855001449585 -1.254485011100769 L 5.144354820251465 -1.204393625259399 L 5.477030754089355 -1.069074988365173 L 5.5 -1.053731322288513 L 5.5 2.150313854217529 L 5.439402103424072 2.192824602127075 L 4.990537643432617 2.322562694549561 L 4.445532321929932 2.46203351020813 L 4.036819458007812 2.523931503295898 L 3.619179010391235 2.578125 Z" stroke="none"/>
        <path d="M 2.185753345489502 -0.921875 L 1.77445650100708 -0.8717489242553711 L 1.218555450439453 -0.756746768951416 L 1 -0.6951292753219604 L 1 1.88929295539856 L 1.281407356262207 1.969183206558228 L 1.750802993774414 2.025639057159424 L 2.227549076080322 2.078125 L 3.586820840835571 2.078125 L 3.967188835144043 2.028768062591553 L 4.345940589904785 1.971407651901245 L 4.859092712402344 1.840088248252869 L 5 1.799360990524292 L 5 -0.7233318090438843 L 4.994988441467285 -0.7253704071044922 L 4.565090179443359 -0.820745587348938 L 4.059675693511963 -0.9055848121643066 L 3.848965883255005 -0.921875 L 2.185753345489502 -0.921875 M 2.125 -1.921875 L 3.887500047683716 -1.921875 L 4.181250095367432 -1.899164915084839 L 4.756249904632568 -1.802644968032837 L 5.293749809265137 -1.683404922485352 L 5.712500095367432 -1.513075113296509 L 5.925000190734863 -1.371124982833862 L 6 -1.223505020141602 L 6 2.410315036773682 L 5.658299922943115 2.650024890899658 L 5.122069835662842 2.805015087127686 L 4.545219898223877 2.952635049819946 L 4.106450080871582 3.019084930419922 L 3.651459932327271 3.078125 L 2.172709941864014 3.078125 L 1.636429786682129 3.019084930419922 L 1.083940029144287 2.952635049819946 L 0.563960075378418 2.805015087127686 L 0 2.410315036773682 L 0 -1.223505020141602 L 0.3312501907348633 -1.513075113296509 L 0.6187500953674316 -1.626625061035156 L 0.9812498092651367 -1.728825092315674 L 1.612500190734863 -1.859415054321289 L 2.125 -1.921875 Z" stroke="none" fill="#f0f"/>
      </g>
    </g>
    <g data-type="innerShadowGroup">
      <g transform="matrix(1, 0, 0, 1, -1.5, -6.5)" filter="url(#Event_Cake_Top)">
        <g id="Event_Cake_Top-3" data-name="Event Cake Top" transform="translate(4.5 8.75)" fill="#fff" stroke="#f0f" stroke-width="1">
          <ellipse cx="3" cy="2" rx="3" ry="2" stroke="none"/>
          <ellipse cx="3" cy="2" rx="2.5" ry="1.5" fill="none"/>
        </g>
      </g>
      <ellipse id="Event_Cake_Top-4" data-name="Event Cake Top" cx="3" cy="2" rx="3" ry="2" transform="translate(3 2.25)" fill="#fff"/>
      <g transform="matrix(1, 0, 0, 1, -1.5, -6.5)" filter="url(#Event_Cake_Top-2)">
        <ellipse id="Event_Cake_Top-5" data-name="Event Cake Top" cx="3" cy="2" rx="3" ry="2" transform="translate(4.5 8.75)" fill="#fff"/>
      </g>
      <g id="Event_Cake_Top-6" data-name="Event Cake Top" transform="translate(3 2.25)" fill="none" stroke="#f0f" stroke-width="1">
        <ellipse cx="3" cy="2" rx="3" ry="2" stroke="none"/>
        <ellipse cx="3" cy="2" rx="2.5" ry="1.5" fill="none"/>
      </g>
    </g>
    <g transform="matrix(1, 0, 0, 1, -1.5, -6.5)" filter="url(#Candle)">
      <path id="Candle-2" data-name="Candle" d="M0,4V0" transform="translate(7.5 6.75)" fill="none" stroke="#00e5ff" stroke-width="1"/>
    </g>
    <g transform="matrix(1, 0, 0, 1, -1.5, -6.5)" filter="url(#Wick)">
      <line id="Wick-2" data-name="Wick" y1="0.5" transform="translate(7.5 6.5)" fill="none" stroke="#dcc600" stroke-linecap="round" stroke-width="1"/>
    </g>
  </g>
</svg>
