<svg xmlns="http://www.w3.org/2000/svg" xmlns:xlink="http://www.w3.org/1999/xlink" width="18" height="21" viewBox="0 0 18 21">
  <defs>
    <filter id="Feed" x="0" y="0" width="18" height="21" filterUnits="userSpaceOnUse">
      <feOffset dy="-3" input="SourceAlpha"/>
      <feGaussianBlur stdDeviation="1" result="blur"/>
      <feFlood flood-opacity="0.78"/>
      <feComposite operator="in" in2="blur"/>
    </filter>
    <filter id="Feed-2" x="0" y="0" width="18" height="21" filterUnits="userSpaceOnUse">
      <feOffset dy="1" input="SourceAlpha"/>
      <feGaussianBlur stdDeviation="1.5" result="blur-2"/>
      <feFlood flood-color="#f0f" result="color"/>
      <feComposite operator="out" in="SourceGraphic" in2="blur-2"/>
      <feComposite operator="in" in="color"/>
      <feComposite operator="in" in2="SourceGraphic"/>
    </filter>
  </defs>
  <g id="Feed_Icon" data-name="Feed Icon" transform="translate(3 6)">
    <g data-type="innerShadowGroup">
      <g transform="matrix(1, 0, 0, 1, -3, -6)" filter="url(#Feed)">
        <g id="Feed-3" data-name="Feed" transform="translate(3 6)" fill="#fff" stroke="#f0f" stroke-width="1">
          <rect width="12" height="15" rx="3" stroke="none"/>
          <rect x="0.5" y="0.5" width="11" height="14" rx="2.5" fill="none"/>
        </g>
      </g>
      <rect id="Feed-4" data-name="Feed" width="12" height="15" rx="3" fill="#fff"/>
      <g transform="matrix(1, 0, 0, 1, -3, -6)" filter="url(#Feed-2)">
        <rect id="Feed-5" data-name="Feed" width="12" height="15" rx="3" transform="translate(3 6)" fill="#fff"/>
      </g>
      <g id="Feed-6" data-name="Feed" fill="none" stroke="#f0f" stroke-width="1">
        <rect width="12" height="15" rx="3" stroke="none"/>
        <rect x="0.5" y="0.5" width="11" height="14" rx="2.5" fill="none"/>
      </g>
    </g>
    <line id="Sentence_4" data-name="Sentence 4" x2="7" transform="translate(2.5 4.5)" fill="none" stroke="#00e5ff" stroke-width="1"/>
    <line id="Sentence_3" data-name="Sentence 3" x2="7" transform="translate(2.5 6.5)" fill="none" stroke="#00e5ff" stroke-width="1"/>
    <line id="Sentence_2" data-name="Sentence 2" x2="7" transform="translate(2.5 8.5)" fill="none" stroke="#00e5ff" stroke-width="1"/>
    <line id="Sentence_1" data-name="Sentence 1" x2="7" transform="translate(2.5 10.5)" fill="none" stroke="#00e5ff" stroke-width="1"/>
  </g>
</svg>
