<svg xmlns="http://www.w3.org/2000/svg" xmlns:xlink="http://www.w3.org/1999/xlink" width="22.139" height="19.035" viewBox="0 0 22.139 19.035">
  <defs>
    <filter id="Controller" x="0.117" y="0" width="22.022" height="19.035" filterUnits="userSpaceOnUse">
      <feOffset dy="-3" input="SourceAlpha"/>
      <feGaussianBlur stdDeviation="1" result="blur"/>
      <feFlood flood-opacity="0.776"/>
      <feComposite operator="in" in2="blur"/>
    </filter>
    <filter id="Controller-2" x="0.117" y="0" width="22.022" height="19.035" filterUnits="userSpaceOnUse">
      <feOffset input="SourceAlpha"/>
      <feGaussianBlur stdDeviation="2.5" result="blur-2"/>
      <feFlood flood-color="#f0f" result="color"/>
      <feComposite operator="out" in="SourceGraphic" in2="blur-2"/>
      <feComposite operator="in" in="color"/>
      <feComposite operator="in" in2="SourceGraphic"/>
    </filter>
    <filter id="Left_Analog" x="0" y="3.641" width="15" height="15" filterUnits="userSpaceOnUse">
      <feOffset input="SourceAlpha"/>
      <feGaussianBlur stdDeviation="2" result="blur-3"/>
      <feFlood flood-color="#f0f"/>
      <feComposite operator="in" in2="blur-3"/>
      <feComposite in="SourceGraphic"/>
    </filter>
    <filter id="Right_Analog" x="7" y="3.641" width="15" height="15" filterUnits="userSpaceOnUse">
      <feOffset input="SourceAlpha"/>
      <feGaussianBlur stdDeviation="2" result="blur-4"/>
      <feFlood flood-color="#f0f"/>
      <feComposite operator="in" in2="blur-4"/>
      <feComposite in="SourceGraphic"/>
    </filter>
    <filter id="Left_Button" x="4" y="7.641" width="7" height="7" filterUnits="userSpaceOnUse">
      <feOffset input="SourceAlpha"/>
      <feGaussianBlur stdDeviation="1" result="blur-5"/>
      <feFlood flood-color="#00e5ff"/>
      <feComposite operator="in" in2="blur-5"/>
      <feComposite in="SourceGraphic"/>
    </filter>
    <filter id="Right_Button" x="11" y="7.641" width="7" height="7" filterUnits="userSpaceOnUse">
      <feOffset input="SourceAlpha"/>
      <feGaussianBlur stdDeviation="1" result="blur-6"/>
      <feFlood flood-color="#00e5ff"/>
      <feComposite operator="in" in2="blur-6"/>
      <feComposite in="SourceGraphic"/>
    </filter>
  </defs>
  <g id="Game_Icon" data-name="Game Icon" transform="translate(3.117 6)">
    <g data-type="innerShadowGroup">
      <g transform="matrix(1, 0, 0, 1, -3.12, -6)" filter="url(#Controller)">
        <g id="Controller-3" data-name="Controller" transform="translate(9.28 8.64)" fill="#fff">
          <path d="M 9.352033615112305 9.491315841674805 C 9.271783828735352 9.367142677307129 9.188234329223633 9.233154296875 9.111612319946289 9.110275268554688 C 8.387752532958984 7.949394702911377 7.293832302093506 6.19505500793457 5.52015209197998 5.607504844665527 C 3.902482271194458 5.07164478302002 2.790332078933716 4.85307502746582 1.681472182273865 4.85307502746582 C 0.5859021544456482 4.85307502746582 -0.5477077960968018 5.079034805297852 -2.109047889709473 5.608644962310791 C -3.879297733306885 6.209115028381348 -4.933857917785645 8.06944465637207 -5.56392765045166 9.180954933166504 C -5.59691858291626 9.239152908325195 -5.631439685821533 9.300049781799316 -5.666335582733154 9.361069679260254 C -5.686350345611572 8.452714920043945 -5.437617301940918 6.844568252563477 -4.954137802124023 4.797235012054443 C -4.420627593994141 2.538044929504395 -3.706437826156616 0.1726648956537247 -3.235307931900024 -1.169355154037476 C -3.127847671508789 -1.475450754165649 -3.03863000869751 -1.69188129901886 -2.9676833152771 -1.844198107719421 C -2.956599473953247 -1.815756678581238 -2.946203470230103 -1.788741827011108 -2.936857938766479 -1.764455080032349 C -2.790300130844116 -1.3836350440979 -2.663223743438721 -1.053454875946045 -2.37529444694519 -0.8981814980506897 C -2.366870641708374 -0.8364700078964233 -2.390506744384766 -0.7090055346488953 -2.413617849349976 -0.6503351330757141 L -2.781937837600708 0.2843248844146729 L -1.814207792282104 0.01461489591747522 C -1.805587768554688 0.01222489587962627 -0.9127478003501892 -0.232755109667778 -0.09744782000780106 -0.232755109667778 C 0.3101921677589417 -0.232755109667778 0.6291521787643433 -0.1688750982284546 0.800672173500061 -0.05286510288715363 C 1.254772186279297 0.2542848885059357 1.197102189064026 1.343264937400818 1.098032236099243 1.822514891624451 L 1.077362179756165 1.922504901885986 L 1.097372174263 2.023454904556274 C 1.212352156639099 2.593484878540039 1.501832127571106 2.713144779205322 1.724432229995728 2.713144779205322 C 2.159932136535645 2.713144779205322 2.321972131729126 2.242034912109375 2.375222206115723 2.087224960327148 L 2.422422170639038 1.949994921684265 L 2.388822078704834 1.808824896812439 C 2.276942253112793 1.33166491985321 2.187132120132446 0.2468449026346207 2.624892234802246 -0.05570510402321815 C 2.720562219619751 -0.1218251064419746 2.962612152099609 -0.232755109667778 3.50867223739624 -0.232755109667778 C 4.326722145080566 -0.232755109667778 5.220442295074463 0.01233489532023668 5.229372024536133 0.0148048959672451 L 6.08425235748291 0.2517549097537994 L 5.846862316131592 -0.5927351117134094 C 5.821012496948242 -0.701578676700592 5.830587863922119 -0.849051296710968 5.85770845413208 -0.8807801604270935 C 5.857707977294922 -0.880777895450592 5.857708930969238 -0.8807765245437622 5.857711791992188 -0.8807765245437622 C 5.857803821563721 -0.8807765245437622 5.859523773193359 -0.8820038437843323 5.863412380218506 -0.8838651180267334 C 6.185237407684326 -1.037698149681091 6.316143035888672 -1.404871106147766 6.453187465667725 -1.794861912727356 C 6.522482395172119 -1.644701480865479 6.607643604278564 -1.440291285514832 6.70925235748291 -1.162965059280396 C 7.919363021850586 2.13992714881897 9.455033302307129 7.551125526428223 9.352033615112305 9.491315841674805 Z" stroke="none"/>
          <path d="M 6.370598793029785 -0.6282391548156738 C 6.367716789245605 -0.6256270408630371 6.364814281463623 -0.6230206489562988 6.361902236938477 -0.6204304695129395 L 6.870992183685303 0.9838557243347168 L 5.097012042999268 0.4969758987426758 C 5.088642120361328 0.4946756362915039 4.25133228302002 0.2672257423400879 3.50867223739624 0.2672457695007324 C 3.052858352661133 0.2672457695007324 2.911911964416504 0.353905200958252 2.912562847137451 0.3529152870178223 C 2.789520502090454 0.4752349853515625 2.749699831008911 1.148629188537598 2.875232219696045 1.693036079406738 L 2.942442178726196 1.975385665893555 L 2.848042249679565 2.249835968017578 C 2.574192047119141 3.046015739440918 2.085862159729004 3.213145732879639 1.724432229995728 3.213145732879639 C 1.513962268829346 3.213145732879639 0.811392068862915 3.134485721588135 0.6072421073913574 2.12229585647583 L 0.5657920837402344 1.923795700073242 L 0.6082022190093994 1.722195625305176 C 0.7318122386932373 1.112545967102051 0.6409921646118164 0.4427657127380371 0.5205521583557129 0.3613057136535645 C 0.5191621780395508 0.3603658676147461 0.3759722709655762 0.2672257423400879 -0.09741783142089844 0.2672457695007324 C -0.8411979675292969 0.267265796661377 -1.672927856445312 0.4943256378173828 -1.680007934570312 0.4962759017944336 L -3.403148651123047 0.976447582244873 C -3.761318683624268 2.160865306854248 -4.147134304046631 3.55546236038208 -4.467517375946045 4.912156105041504 C -4.694155216217041 5.871866226196289 -4.850540637969971 6.648555755615234 -4.957000255584717 7.275748252868652 C -4.305807590484619 6.394811153411865 -3.437869071960449 5.531398773193359 -2.269657611846924 5.135146141052246 C -0.6535477638244629 4.586956024169922 0.5280921459197998 4.353065967559814 1.681472063064575 4.353065967559814 C 2.832272052764893 4.353065967559814 4.027302265167236 4.586276054382324 5.677371978759766 5.132875919342041 C 6.990484237670898 5.567850112915039 7.94188117980957 6.55066967010498 8.65592098236084 7.519355297088623 C 8.537528991699219 6.858161926269531 8.354135513305664 6.012211322784424 8.074782371520996 4.932886123657227 C 7.531220436096191 2.832746505737305 6.846565246582031 0.7105021476745605 6.370598793029785 -0.6282391548156738 M -2.93391752243042 -2.640768527984619 C -2.57979154586792 -2.640768527984619 -2.418977737426758 -1.476817607879639 -2.131577968597412 -1.334973812103271 C -1.691917896270752 -1.117984294891357 -1.948437690734863 -0.4670243263244629 -1.948437690734863 -0.4670243263244629 C -1.948437213897705 -0.4670233726501465 0.1968019008636475 -1.064924716949463 1.080792188644409 -0.4670243263244629 C 1.96477222442627 0.1308860778808594 1.587502241134644 1.924585819244385 1.587502241134644 1.924585819244385 C 1.587502241134644 1.924585819244385 1.645702123641968 2.213145732879639 1.724432229995728 2.213145732879639 C 1.803162217140198 2.213145732879639 1.902412176132202 1.924585819244385 1.902412176132202 1.924585819244385 C 1.902412176132202 1.924585819244385 1.475482225418091 0.1308860778808594 2.340612173080444 -0.4670243263244629 C 3.205732107162476 -1.06492280960083 5.362922191619873 -0.4670243263244629 5.362922191619873 -0.4670243263244629 C 5.362922191619873 -0.4670243263244629 5.193832397460938 -1.117984294891357 5.647782325744629 -1.334973812103271 C 6.10173225402832 -1.551964282989502 6.14320182800293 -4.16135835647583 7.178731918334961 -1.334973812103271 C 8.214262008666992 1.491405963897705 10.24387168884277 8.116266250610352 9.789912223815918 9.970545768737793 C 9.33596134185791 11.82483291625977 8.297500610351562 7.054244995117188 5.362922191619873 6.082145690917969 C 2.428331851959229 5.110045433044434 0.9174215793609619 5.110045433044434 -1.948437690734863 6.082145690917969 C -4.814289569854736 7.054246425628662 -5.660837650299072 11.82482051849365 -6.100497722625732 9.970545768737793 C -6.540168285369873 8.116266250610352 -4.699307918548584 1.491405963897705 -3.707077980041504 -1.334973812103271 C -3.363455295562744 -2.313787937164307 -3.121528148651123 -2.640768527984619 -2.93391752243042 -2.640768527984619 Z" stroke="none" fill="#f0f"/>
        </g>
      </g>
      <g id="Controller-4" data-name="Controller" transform="translate(6.167 2.641)" fill="#fff">
        <path d="M 9.352033615112305 9.491315841674805 C 9.271783828735352 9.367142677307129 9.188234329223633 9.233154296875 9.111612319946289 9.110275268554688 C 8.387752532958984 7.949394702911377 7.293832302093506 6.19505500793457 5.52015209197998 5.607504844665527 C 3.902482271194458 5.07164478302002 2.790332078933716 4.85307502746582 1.681472182273865 4.85307502746582 C 0.5859021544456482 4.85307502746582 -0.5477077960968018 5.079034805297852 -2.109047889709473 5.608644962310791 C -3.879297733306885 6.209115028381348 -4.933857917785645 8.06944465637207 -5.56392765045166 9.180954933166504 C -5.59691858291626 9.239152908325195 -5.631439685821533 9.300049781799316 -5.666335582733154 9.361069679260254 C -5.686350345611572 8.452714920043945 -5.437617301940918 6.844568252563477 -4.954137802124023 4.797235012054443 C -4.420627593994141 2.538044929504395 -3.706437826156616 0.1726648956537247 -3.235307931900024 -1.169355154037476 C -3.127847671508789 -1.475450754165649 -3.03863000869751 -1.69188129901886 -2.9676833152771 -1.844198107719421 C -2.956599473953247 -1.815756678581238 -2.946203470230103 -1.788741827011108 -2.936857938766479 -1.764455080032349 C -2.790300130844116 -1.3836350440979 -2.663223743438721 -1.053454875946045 -2.37529444694519 -0.8981814980506897 C -2.366870641708374 -0.8364700078964233 -2.390506744384766 -0.7090055346488953 -2.413617849349976 -0.6503351330757141 L -2.781937837600708 0.2843248844146729 L -1.814207792282104 0.01461489591747522 C -1.805587768554688 0.01222489587962627 -0.9127478003501892 -0.232755109667778 -0.09744782000780106 -0.232755109667778 C 0.3101921677589417 -0.232755109667778 0.6291521787643433 -0.1688750982284546 0.800672173500061 -0.05286510288715363 C 1.254772186279297 0.2542848885059357 1.197102189064026 1.343264937400818 1.098032236099243 1.822514891624451 L 1.077362179756165 1.922504901885986 L 1.097372174263 2.023454904556274 C 1.212352156639099 2.593484878540039 1.501832127571106 2.713144779205322 1.724432229995728 2.713144779205322 C 2.159932136535645 2.713144779205322 2.321972131729126 2.242034912109375 2.375222206115723 2.087224960327148 L 2.422422170639038 1.949994921684265 L 2.388822078704834 1.808824896812439 C 2.276942253112793 1.33166491985321 2.187132120132446 0.2468449026346207 2.624892234802246 -0.05570510402321815 C 2.720562219619751 -0.1218251064419746 2.962612152099609 -0.232755109667778 3.50867223739624 -0.232755109667778 C 4.326722145080566 -0.232755109667778 5.220442295074463 0.01233489532023668 5.229372024536133 0.0148048959672451 L 6.08425235748291 0.2517549097537994 L 5.846862316131592 -0.5927351117134094 C 5.821012496948242 -0.701578676700592 5.830587863922119 -0.849051296710968 5.85770845413208 -0.8807801604270935 C 5.857707977294922 -0.880777895450592 5.857708930969238 -0.8807765245437622 5.857711791992188 -0.8807765245437622 C 5.857803821563721 -0.8807765245437622 5.859523773193359 -0.8820038437843323 5.863412380218506 -0.8838651180267334 C 6.185237407684326 -1.037698149681091 6.316143035888672 -1.404871106147766 6.453187465667725 -1.794861912727356 C 6.522482395172119 -1.644701480865479 6.607643604278564 -1.440291285514832 6.70925235748291 -1.162965059280396 C 7.919363021850586 2.13992714881897 9.455033302307129 7.551125526428223 9.352033615112305 9.491315841674805 Z" stroke="none"/>
        <path d="M 6.370598793029785 -0.6282391548156738 C 6.367716789245605 -0.6256270408630371 6.364814281463623 -0.6230206489562988 6.361902236938477 -0.6204304695129395 L 6.870992183685303 0.9838557243347168 L 5.097012042999268 0.4969758987426758 C 5.088642120361328 0.4946756362915039 4.25133228302002 0.2672257423400879 3.50867223739624 0.2672457695007324 C 3.052858352661133 0.2672457695007324 2.911911964416504 0.353905200958252 2.912562847137451 0.3529152870178223 C 2.789520502090454 0.4752349853515625 2.749699831008911 1.148629188537598 2.875232219696045 1.693036079406738 L 2.942442178726196 1.975385665893555 L 2.848042249679565 2.249835968017578 C 2.574192047119141 3.046015739440918 2.085862159729004 3.213145732879639 1.724432229995728 3.213145732879639 C 1.513962268829346 3.213145732879639 0.811392068862915 3.134485721588135 0.6072421073913574 2.12229585647583 L 0.5657920837402344 1.923795700073242 L 0.6082022190093994 1.722195625305176 C 0.7318122386932373 1.112545967102051 0.6409921646118164 0.4427657127380371 0.5205521583557129 0.3613057136535645 C 0.5191621780395508 0.3603658676147461 0.3759722709655762 0.2672257423400879 -0.09741783142089844 0.2672457695007324 C -0.8411979675292969 0.267265796661377 -1.672927856445312 0.4943256378173828 -1.680007934570312 0.4962759017944336 L -3.403148651123047 0.976447582244873 C -3.761318683624268 2.160865306854248 -4.147134304046631 3.55546236038208 -4.467517375946045 4.912156105041504 C -4.694155216217041 5.871866226196289 -4.850540637969971 6.648555755615234 -4.957000255584717 7.275748252868652 C -4.305807590484619 6.394811153411865 -3.437869071960449 5.531398773193359 -2.269657611846924 5.135146141052246 C -0.6535477638244629 4.586956024169922 0.5280921459197998 4.353065967559814 1.681472063064575 4.353065967559814 C 2.832272052764893 4.353065967559814 4.027302265167236 4.586276054382324 5.677371978759766 5.132875919342041 C 6.990484237670898 5.567850112915039 7.94188117980957 6.55066967010498 8.65592098236084 7.519355297088623 C 8.537528991699219 6.858161926269531 8.354135513305664 6.012211322784424 8.074782371520996 4.932886123657227 C 7.531220436096191 2.832746505737305 6.846565246582031 0.7105021476745605 6.370598793029785 -0.6282391548156738 M -2.93391752243042 -2.640768527984619 C -2.57979154586792 -2.640768527984619 -2.418977737426758 -1.476817607879639 -2.131577968597412 -1.334973812103271 C -1.691917896270752 -1.117984294891357 -1.948437690734863 -0.4670243263244629 -1.948437690734863 -0.4670243263244629 C -1.948437213897705 -0.4670233726501465 0.1968019008636475 -1.064924716949463 1.080792188644409 -0.4670243263244629 C 1.96477222442627 0.1308860778808594 1.587502241134644 1.924585819244385 1.587502241134644 1.924585819244385 C 1.587502241134644 1.924585819244385 1.645702123641968 2.213145732879639 1.724432229995728 2.213145732879639 C 1.803162217140198 2.213145732879639 1.902412176132202 1.924585819244385 1.902412176132202 1.924585819244385 C 1.902412176132202 1.924585819244385 1.475482225418091 0.1308860778808594 2.340612173080444 -0.4670243263244629 C 3.205732107162476 -1.06492280960083 5.362922191619873 -0.4670243263244629 5.362922191619873 -0.4670243263244629 C 5.362922191619873 -0.4670243263244629 5.193832397460938 -1.117984294891357 5.647782325744629 -1.334973812103271 C 6.10173225402832 -1.551964282989502 6.14320182800293 -4.16135835647583 7.178731918334961 -1.334973812103271 C 8.214262008666992 1.491405963897705 10.24387168884277 8.116266250610352 9.789912223815918 9.970545768737793 C 9.33596134185791 11.82483291625977 8.297500610351562 7.054244995117188 5.362922191619873 6.082145690917969 C 2.428331851959229 5.110045433044434 0.9174215793609619 5.110045433044434 -1.948437690734863 6.082145690917969 C -4.814289569854736 7.054246425628662 -5.660837650299072 11.82482051849365 -6.100497722625732 9.970545768737793 C -6.540168285369873 8.116266250610352 -4.699307918548584 1.491405963897705 -3.707077980041504 -1.334973812103271 C -3.363455295562744 -2.313787937164307 -3.121528148651123 -2.640768527984619 -2.93391752243042 -2.640768527984619 Z" stroke="none"/>
      </g>
      <g transform="matrix(1, 0, 0, 1, -3.12, -6)" filter="url(#Controller-2)">
        <g id="Controller-5" data-name="Controller" transform="translate(9.28 8.64)" fill="#fff">
          <path d="M 9.352033615112305 9.491315841674805 C 9.271783828735352 9.367142677307129 9.188234329223633 9.233154296875 9.111612319946289 9.110275268554688 C 8.387752532958984 7.949394702911377 7.293832302093506 6.19505500793457 5.52015209197998 5.607504844665527 C 3.902482271194458 5.07164478302002 2.790332078933716 4.85307502746582 1.681472182273865 4.85307502746582 C 0.5859021544456482 4.85307502746582 -0.5477077960968018 5.079034805297852 -2.109047889709473 5.608644962310791 C -3.879297733306885 6.209115028381348 -4.933857917785645 8.06944465637207 -5.56392765045166 9.180954933166504 C -5.59691858291626 9.239152908325195 -5.631439685821533 9.300049781799316 -5.666335582733154 9.361069679260254 C -5.686350345611572 8.452714920043945 -5.437617301940918 6.844568252563477 -4.954137802124023 4.797235012054443 C -4.420627593994141 2.538044929504395 -3.706437826156616 0.1726648956537247 -3.235307931900024 -1.169355154037476 C -3.127847671508789 -1.475450754165649 -3.03863000869751 -1.69188129901886 -2.9676833152771 -1.844198107719421 C -2.956599473953247 -1.815756678581238 -2.946203470230103 -1.788741827011108 -2.936857938766479 -1.764455080032349 C -2.790300130844116 -1.3836350440979 -2.663223743438721 -1.053454875946045 -2.37529444694519 -0.8981814980506897 C -2.366870641708374 -0.8364700078964233 -2.390506744384766 -0.7090055346488953 -2.413617849349976 -0.6503351330757141 L -2.781937837600708 0.2843248844146729 L -1.814207792282104 0.01461489591747522 C -1.805587768554688 0.01222489587962627 -0.9127478003501892 -0.232755109667778 -0.09744782000780106 -0.232755109667778 C 0.3101921677589417 -0.232755109667778 0.6291521787643433 -0.1688750982284546 0.800672173500061 -0.05286510288715363 C 1.254772186279297 0.2542848885059357 1.197102189064026 1.343264937400818 1.098032236099243 1.822514891624451 L 1.077362179756165 1.922504901885986 L 1.097372174263 2.023454904556274 C 1.212352156639099 2.593484878540039 1.501832127571106 2.713144779205322 1.724432229995728 2.713144779205322 C 2.159932136535645 2.713144779205322 2.321972131729126 2.242034912109375 2.375222206115723 2.087224960327148 L 2.422422170639038 1.949994921684265 L 2.388822078704834 1.808824896812439 C 2.276942253112793 1.33166491985321 2.187132120132446 0.2468449026346207 2.624892234802246 -0.05570510402321815 C 2.720562219619751 -0.1218251064419746 2.962612152099609 -0.232755109667778 3.50867223739624 -0.232755109667778 C 4.326722145080566 -0.232755109667778 5.220442295074463 0.01233489532023668 5.229372024536133 0.0148048959672451 L 6.08425235748291 0.2517549097537994 L 5.846862316131592 -0.5927351117134094 C 5.821012496948242 -0.701578676700592 5.830587863922119 -0.849051296710968 5.85770845413208 -0.8807801604270935 C 5.857707977294922 -0.880777895450592 5.857708930969238 -0.8807765245437622 5.857711791992188 -0.8807765245437622 C 5.857803821563721 -0.8807765245437622 5.859523773193359 -0.8820038437843323 5.863412380218506 -0.8838651180267334 C 6.185237407684326 -1.037698149681091 6.316143035888672 -1.404871106147766 6.453187465667725 -1.794861912727356 C 6.522482395172119 -1.644701480865479 6.607643604278564 -1.440291285514832 6.70925235748291 -1.162965059280396 C 7.919363021850586 2.13992714881897 9.455033302307129 7.551125526428223 9.352033615112305 9.491315841674805 Z" stroke="none"/>
          <path d="M 6.370598793029785 -0.6282391548156738 C 6.367716789245605 -0.6256270408630371 6.364814281463623 -0.6230206489562988 6.361902236938477 -0.6204304695129395 L 6.870992183685303 0.9838557243347168 L 5.097012042999268 0.4969758987426758 C 5.088642120361328 0.4946756362915039 4.25133228302002 0.2672257423400879 3.50867223739624 0.2672457695007324 C 3.052858352661133 0.2672457695007324 2.911911964416504 0.353905200958252 2.912562847137451 0.3529152870178223 C 2.789520502090454 0.4752349853515625 2.749699831008911 1.148629188537598 2.875232219696045 1.693036079406738 L 2.942442178726196 1.975385665893555 L 2.848042249679565 2.249835968017578 C 2.574192047119141 3.046015739440918 2.085862159729004 3.213145732879639 1.724432229995728 3.213145732879639 C 1.513962268829346 3.213145732879639 0.811392068862915 3.134485721588135 0.6072421073913574 2.12229585647583 L 0.5657920837402344 1.923795700073242 L 0.6082022190093994 1.722195625305176 C 0.7318122386932373 1.112545967102051 0.6409921646118164 0.4427657127380371 0.5205521583557129 0.3613057136535645 C 0.5191621780395508 0.3603658676147461 0.3759722709655762 0.2672257423400879 -0.09741783142089844 0.2672457695007324 C -0.8411979675292969 0.267265796661377 -1.672927856445312 0.4943256378173828 -1.680007934570312 0.4962759017944336 L -3.403148651123047 0.976447582244873 C -3.761318683624268 2.160865306854248 -4.147134304046631 3.55546236038208 -4.467517375946045 4.912156105041504 C -4.694155216217041 5.871866226196289 -4.850540637969971 6.648555755615234 -4.957000255584717 7.275748252868652 C -4.305807590484619 6.394811153411865 -3.437869071960449 5.531398773193359 -2.269657611846924 5.135146141052246 C -0.6535477638244629 4.586956024169922 0.5280921459197998 4.353065967559814 1.681472063064575 4.353065967559814 C 2.832272052764893 4.353065967559814 4.027302265167236 4.586276054382324 5.677371978759766 5.132875919342041 C 6.990484237670898 5.567850112915039 7.94188117980957 6.55066967010498 8.65592098236084 7.519355297088623 C 8.537528991699219 6.858161926269531 8.354135513305664 6.012211322784424 8.074782371520996 4.932886123657227 C 7.531220436096191 2.832746505737305 6.846565246582031 0.7105021476745605 6.370598793029785 -0.6282391548156738 M -2.93391752243042 -2.640768527984619 C -2.57979154586792 -2.640768527984619 -2.418977737426758 -1.476817607879639 -2.131577968597412 -1.334973812103271 C -1.691917896270752 -1.117984294891357 -1.948437690734863 -0.4670243263244629 -1.948437690734863 -0.4670243263244629 C -1.948437213897705 -0.4670233726501465 0.1968019008636475 -1.064924716949463 1.080792188644409 -0.4670243263244629 C 1.96477222442627 0.1308860778808594 1.587502241134644 1.924585819244385 1.587502241134644 1.924585819244385 C 1.587502241134644 1.924585819244385 1.645702123641968 2.213145732879639 1.724432229995728 2.213145732879639 C 1.803162217140198 2.213145732879639 1.902412176132202 1.924585819244385 1.902412176132202 1.924585819244385 C 1.902412176132202 1.924585819244385 1.475482225418091 0.1308860778808594 2.340612173080444 -0.4670243263244629 C 3.205732107162476 -1.06492280960083 5.362922191619873 -0.4670243263244629 5.362922191619873 -0.4670243263244629 C 5.362922191619873 -0.4670243263244629 5.193832397460938 -1.117984294891357 5.647782325744629 -1.334973812103271 C 6.10173225402832 -1.551964282989502 6.14320182800293 -4.16135835647583 7.178731918334961 -1.334973812103271 C 8.214262008666992 1.491405963897705 10.24387168884277 8.116266250610352 9.789912223815918 9.970545768737793 C 9.33596134185791 11.82483291625977 8.297500610351562 7.054244995117188 5.362922191619873 6.082145690917969 C 2.428331851959229 5.110045433044434 0.9174215793609619 5.110045433044434 -1.948437690734863 6.082145690917969 C -4.814289569854736 7.054246425628662 -5.660837650299072 11.82482051849365 -6.100497722625732 9.970545768737793 C -6.540168285369873 8.116266250610352 -4.699307918548584 1.491405963897705 -3.707077980041504 -1.334973812103271 C -3.363455295562744 -2.313787937164307 -3.121528148651123 -2.640768527984619 -2.93391752243042 -2.640768527984619 Z" stroke="none"/>
        </g>
      </g>
      <g id="Controller-6" data-name="Controller" transform="translate(6.167 2.641)" fill="none">
        <path d="M 9.352033615112305 9.491315841674805 C 9.271783828735352 9.367142677307129 9.188234329223633 9.233154296875 9.111612319946289 9.110275268554688 C 8.387752532958984 7.949394702911377 7.293832302093506 6.19505500793457 5.52015209197998 5.607504844665527 C 3.902482271194458 5.07164478302002 2.790332078933716 4.85307502746582 1.681472182273865 4.85307502746582 C 0.5859021544456482 4.85307502746582 -0.5477077960968018 5.079034805297852 -2.109047889709473 5.608644962310791 C -3.879297733306885 6.209115028381348 -4.933857917785645 8.06944465637207 -5.56392765045166 9.180954933166504 C -5.59691858291626 9.239152908325195 -5.631439685821533 9.300049781799316 -5.666335582733154 9.361069679260254 C -5.686350345611572 8.452714920043945 -5.437617301940918 6.844568252563477 -4.954137802124023 4.797235012054443 C -4.420627593994141 2.538044929504395 -3.706437826156616 0.1726648956537247 -3.235307931900024 -1.169355154037476 C -3.127847671508789 -1.475450754165649 -3.03863000869751 -1.69188129901886 -2.9676833152771 -1.844198107719421 C -2.956599473953247 -1.815756678581238 -2.946203470230103 -1.788741827011108 -2.936857938766479 -1.764455080032349 C -2.790300130844116 -1.3836350440979 -2.663223743438721 -1.053454875946045 -2.37529444694519 -0.8981814980506897 C -2.366870641708374 -0.8364700078964233 -2.390506744384766 -0.7090055346488953 -2.413617849349976 -0.6503351330757141 L -2.781937837600708 0.2843248844146729 L -1.814207792282104 0.01461489591747522 C -1.805587768554688 0.01222489587962627 -0.9127478003501892 -0.232755109667778 -0.09744782000780106 -0.232755109667778 C 0.3101921677589417 -0.232755109667778 0.6291521787643433 -0.1688750982284546 0.800672173500061 -0.05286510288715363 C 1.254772186279297 0.2542848885059357 1.197102189064026 1.343264937400818 1.098032236099243 1.822514891624451 L 1.077362179756165 1.922504901885986 L 1.097372174263 2.023454904556274 C 1.212352156639099 2.593484878540039 1.501832127571106 2.713144779205322 1.724432229995728 2.713144779205322 C 2.159932136535645 2.713144779205322 2.321972131729126 2.242034912109375 2.375222206115723 2.087224960327148 L 2.422422170639038 1.949994921684265 L 2.388822078704834 1.808824896812439 C 2.276942253112793 1.33166491985321 2.187132120132446 0.2468449026346207 2.624892234802246 -0.05570510402321815 C 2.720562219619751 -0.1218251064419746 2.962612152099609 -0.232755109667778 3.50867223739624 -0.232755109667778 C 4.326722145080566 -0.232755109667778 5.220442295074463 0.01233489532023668 5.229372024536133 0.0148048959672451 L 6.08425235748291 0.2517549097537994 L 5.846862316131592 -0.5927351117134094 C 5.821012496948242 -0.701578676700592 5.830587863922119 -0.849051296710968 5.85770845413208 -0.8807801604270935 C 5.857707977294922 -0.880777895450592 5.857708930969238 -0.8807765245437622 5.857711791992188 -0.8807765245437622 C 5.857803821563721 -0.8807765245437622 5.859523773193359 -0.8820038437843323 5.863412380218506 -0.8838651180267334 C 6.185237407684326 -1.037698149681091 6.316143035888672 -1.404871106147766 6.453187465667725 -1.794861912727356 C 6.522482395172119 -1.644701480865479 6.607643604278564 -1.440291285514832 6.70925235748291 -1.162965059280396 C 7.919363021850586 2.13992714881897 9.455033302307129 7.551125526428223 9.352033615112305 9.491315841674805 Z" stroke="none"/>
        <path d="M 6.370598793029785 -0.6282391548156738 C 6.367716789245605 -0.6256270408630371 6.364814281463623 -0.6230206489562988 6.361902236938477 -0.6204304695129395 L 6.870992183685303 0.9838557243347168 L 5.097012042999268 0.4969758987426758 C 5.088642120361328 0.4946756362915039 4.25133228302002 0.2672257423400879 3.50867223739624 0.2672457695007324 C 3.052858352661133 0.2672457695007324 2.911911964416504 0.353905200958252 2.912562847137451 0.3529152870178223 C 2.789520502090454 0.4752349853515625 2.749699831008911 1.148629188537598 2.875232219696045 1.693036079406738 L 2.942442178726196 1.975385665893555 L 2.848042249679565 2.249835968017578 C 2.574192047119141 3.046015739440918 2.085862159729004 3.213145732879639 1.724432229995728 3.213145732879639 C 1.513962268829346 3.213145732879639 0.811392068862915 3.134485721588135 0.6072421073913574 2.12229585647583 L 0.5657920837402344 1.923795700073242 L 0.6082022190093994 1.722195625305176 C 0.7318122386932373 1.112545967102051 0.6409921646118164 0.4427657127380371 0.5205521583557129 0.3613057136535645 C 0.5191621780395508 0.3603658676147461 0.3759722709655762 0.2672257423400879 -0.09741783142089844 0.2672457695007324 C -0.8411979675292969 0.267265796661377 -1.672927856445312 0.4943256378173828 -1.680007934570312 0.4962759017944336 L -3.403148651123047 0.976447582244873 C -3.761318683624268 2.160865306854248 -4.147134304046631 3.55546236038208 -4.467517375946045 4.912156105041504 C -4.694155216217041 5.871866226196289 -4.850540637969971 6.648555755615234 -4.957000255584717 7.275748252868652 C -4.305807590484619 6.394811153411865 -3.437869071960449 5.531398773193359 -2.269657611846924 5.135146141052246 C -0.6535477638244629 4.586956024169922 0.5280921459197998 4.353065967559814 1.681472063064575 4.353065967559814 C 2.832272052764893 4.353065967559814 4.027302265167236 4.586276054382324 5.677371978759766 5.132875919342041 C 6.990484237670898 5.567850112915039 7.94188117980957 6.55066967010498 8.65592098236084 7.519355297088623 C 8.537528991699219 6.858161926269531 8.354135513305664 6.012211322784424 8.074782371520996 4.932886123657227 C 7.531220436096191 2.832746505737305 6.846565246582031 0.7105021476745605 6.370598793029785 -0.6282391548156738 M -2.93391752243042 -2.640768527984619 C -2.57979154586792 -2.640768527984619 -2.418977737426758 -1.476817607879639 -2.131577968597412 -1.334973812103271 C -1.691917896270752 -1.117984294891357 -1.948437690734863 -0.4670243263244629 -1.948437690734863 -0.4670243263244629 C -1.948437213897705 -0.4670233726501465 0.1968019008636475 -1.064924716949463 1.080792188644409 -0.4670243263244629 C 1.96477222442627 0.1308860778808594 1.587502241134644 1.924585819244385 1.587502241134644 1.924585819244385 C 1.587502241134644 1.924585819244385 1.645702123641968 2.213145732879639 1.724432229995728 2.213145732879639 C 1.803162217140198 2.213145732879639 1.902412176132202 1.924585819244385 1.902412176132202 1.924585819244385 C 1.902412176132202 1.924585819244385 1.475482225418091 0.1308860778808594 2.340612173080444 -0.4670243263244629 C 3.205732107162476 -1.06492280960083 5.362922191619873 -0.4670243263244629 5.362922191619873 -0.4670243263244629 C 5.362922191619873 -0.4670243263244629 5.193832397460938 -1.117984294891357 5.647782325744629 -1.334973812103271 C 6.10173225402832 -1.551964282989502 6.14320182800293 -4.16135835647583 7.178731918334961 -1.334973812103271 C 8.214262008666992 1.491405963897705 10.24387168884277 8.116266250610352 9.789912223815918 9.970545768737793 C 9.33596134185791 11.82483291625977 8.297500610351562 7.054244995117188 5.362922191619873 6.082145690917969 C 2.428331851959229 5.110045433044434 0.9174215793609619 5.110045433044434 -1.948437690734863 6.082145690917969 C -4.814289569854736 7.054246425628662 -5.660837650299072 11.82482051849365 -6.100497722625732 9.970545768737793 C -6.540168285369873 8.116266250610352 -4.699307918548584 1.491405963897705 -3.707077980041504 -1.334973812103271 C -3.363455295562744 -2.313787937164307 -3.121528148651123 -2.640768527984619 -2.93391752243042 -2.640768527984619 Z" stroke="none" fill="#f0f"/>
      </g>
    </g>
    <g transform="matrix(1, 0, 0, 1, -3.12, -6)" filter="url(#Left_Analog)">
      <g id="Left_Analog-2" data-name="Left Analog" transform="translate(6 9.64)" fill="#00e5ff" stroke="#00e5ff" stroke-width="1">
        <circle cx="1.5" cy="1.5" r="1.5" stroke="none"/>
        <circle cx="1.5" cy="1.5" r="1" fill="none"/>
      </g>
    </g>
    <g transform="matrix(1, 0, 0, 1, -3.12, -6)" filter="url(#Right_Analog)">
      <g id="Right_Analog-2" data-name="Right Analog" transform="translate(13 9.64)" fill="#00e5ff" stroke="#00e5ff" stroke-width="1">
        <circle cx="1.5" cy="1.5" r="1.5" stroke="none"/>
        <circle cx="1.5" cy="1.5" r="1" fill="none"/>
      </g>
    </g>
    <g transform="matrix(1, 0, 0, 1, -3.12, -6)" filter="url(#Left_Button)">
      <g id="Left_Button-2" data-name="Left Button" transform="translate(7 10.64)" fill="#06c0d5" stroke="#06c0d5" stroke-width="1">
        <circle cx="0.5" cy="0.5" r="0.5" stroke="none"/>
        <circle cx="0.5" cy="0.5" fill="none"/>
      </g>
    </g>
    <g transform="matrix(1, 0, 0, 1, -3.12, -6)" filter="url(#Right_Button)">
      <g id="Right_Button-2" data-name="Right Button" transform="translate(14 10.64)" fill="#04d2e9" stroke="#06c0d5" stroke-width="1">
        <circle cx="0.5" cy="0.5" r="0.5" stroke="none"/>
        <circle cx="0.5" cy="0.5" fill="none"/>
      </g>
    </g>
  </g>
</svg>
