<svg xmlns="http://www.w3.org/2000/svg" xmlns:xlink="http://www.w3.org/1999/xlink" width="16.827" height="20.775" viewBox="0 0 16.827 20.775">
  <defs>
    <filter id="Right_Scroll" x="0" y="0" width="16.827" height="20.775" filterUnits="userSpaceOnUse">
      <feOffset dy="-3" input="SourceAlpha"/>
      <feGaussianBlur stdDeviation="1" result="blur"/>
      <feFlood flood-opacity="0.776"/>
      <feComposite operator="in" in2="blur"/>
    </filter>
    <filter id="Right_Scroll-2" x="0" y="0" width="16.827" height="20.775" filterUnits="userSpaceOnUse">
      <feOffset input="SourceAlpha"/>
      <feGaussianBlur stdDeviation="1.5" result="blur-2"/>
      <feFlood flood-color="#f0f" result="color"/>
      <feComposite operator="out" in="SourceGraphic" in2="blur-2"/>
      <feComposite operator="in" in="color"/>
      <feComposite operator="in" in2="SourceGraphic"/>
    </filter>
  </defs>
  <g id="Right_Scroll-3" data-name="Right Scroll" transform="translate(3.405 6.419)">
    <g data-type="innerShadowGroup">
      <g transform="matrix(1, 0, 0, 1, -3.4, -6.42)" filter="url(#Right_Scroll)">
        <path id="Right_Scroll-4" data-name="Right Scroll" d="M1148.4,613.367a13.114,13.114,0,0,1,2.6,6.249,9.752,9.752,0,0,1-2.6,7.718l9.573-7.718Z" transform="translate(-1144.99 -606.95)" fill="#fff" stroke="#f0f" stroke-width="1"/>
      </g>
      <path id="Right_Scroll-5" data-name="Right Scroll" d="M1148.4,613.367a13.114,13.114,0,0,1,2.6,6.249,9.752,9.752,0,0,1-2.6,7.718l9.573-7.718Z" transform="translate(-1148.396 -613.367)" fill="#fff"/>
      <g transform="matrix(1, 0, 0, 1, -3.4, -6.42)" filter="url(#Right_Scroll-2)">
        <path id="Right_Scroll-6" data-name="Right Scroll" d="M1148.4,613.367a13.114,13.114,0,0,1,2.6,6.249,9.752,9.752,0,0,1-2.6,7.718l9.573-7.718Z" transform="translate(-1144.99 -606.95)" fill="#fff"/>
      </g>
      <path id="Right_Scroll-7" data-name="Right Scroll" d="M1148.4,613.367a13.114,13.114,0,0,1,2.6,6.249,9.752,9.752,0,0,1-2.6,7.718l9.573-7.718Z" transform="translate(-1148.396 -613.367)" fill="none" stroke="#f0f" stroke-width="1"/>
    </g>
  </g>
</svg>
