<svg xmlns="http://www.w3.org/2000/svg" xmlns:xlink="http://www.w3.org/1999/xlink" width="12.811" height="14.228" viewBox="0 0 12.811 14.228">
  <defs>
    <filter id="Home" x="0" y="0" width="12.811" height="14.228" filterUnits="userSpaceOnUse">
      <feOffset dy="-3" input="SourceAlpha"/>
      <feGaussianBlur stdDeviation="1" result="blur"/>
      <feFlood flood-opacity="0.776"/>
      <feComposite operator="in" in2="blur"/>
    </filter>
    <filter id="Home-2" x="0" y="0" width="12.811" height="14.228" filterUnits="userSpaceOnUse">
      <feOffset input="SourceAlpha"/>
      <feGaussianBlur stdDeviation="1.5" result="blur-2"/>
      <feFlood flood-color="#f0f" result="color"/>
      <feComposite operator="out" in="SourceGraphic" in2="blur-2"/>
      <feComposite operator="in" in="color"/>
      <feComposite operator="in" in2="SourceGraphic"/>
    </filter>
  </defs>
  <g id="Home_Icon" data-name="Home Icon" transform="translate(3 6)">
    <g data-type="innerShadowGroup">
      <g transform="matrix(1, 0, 0, 1, -3, -6)" filter="url(#Home)">
        <g id="Home-3" data-name="Home" transform="translate(2.28 4.77)" fill="#fff">
          <path d="M 7.014666557312012 8.96187686920166 L 1.232125878334045 8.96187686920166 C 1.233412504196167 8.564135551452637 1.230018258094788 7.982666015625 1.225226521492004 7.255386829376221 C 1.220326900482178 6.511672496795654 1.21528434753418 5.745948791503906 1.220423460006714 5.383024215698242 L 3.469135761260986 1.931753158569336 C 3.530853986740112 1.848560690879822 3.767562389373779 1.734216570854187 4.112346649169922 1.734216570854187 C 4.453506469726562 1.734216570854187 4.678316593170166 1.844396591186523 4.728976249694824 1.922626614570618 L 4.73064661026001 1.925196647644043 L 4.732346534729004 1.927756547927856 L 7.026278018951416 5.376426219940186 C 7.015191555023193 6.067884922027588 6.996298789978027 7.881688594818115 7.014666557312012 8.96187686920166 Z" stroke="none"/>
          <path d="M 4.112346649169922 2.234216690063477 C 3.987405776977539 2.234216690063477 3.891294479370117 2.257330894470215 3.841621398925781 2.275994300842285 L 1.718981742858887 5.533772468566895 C 1.716532707214355 5.93364143371582 1.721089363098145 6.625186920166016 1.725216388702393 7.252096652984619 C 1.728327751159668 7.724013328552246 1.730815887451172 8.128153800964355 1.731868743896484 8.46187686920166 L 6.508652210235596 8.46187686920166 C 6.50151252746582 7.442578792572021 6.515527248382568 6.14116907119751 6.524157524108887 5.524344921112061 L 4.35900354385376 2.269277572631836 C 4.311610698699951 2.253198623657227 4.224419116973877 2.234216690063477 4.112346649169922 2.234216690063477 M 4.112348556518555 1.234217643737793 C 4.542011260986328 1.234217643737793 4.968472957611084 1.37260913848877 5.148656368255615 1.650836944580078 L 7.528926372528076 5.229306697845459 C 7.517746448516846 5.799976825714111 7.485296249389648 8.522926330566406 7.528926372528076 9.46187686920166 L 0.7238163948059082 9.46187686920166 C 0.7512264251708984 9.004146575927734 0.7025465965270996 5.811716556549072 0.7238163948059082 5.229306697845459 L 3.05540657043457 1.650836944580078 C 3.2470703125 1.373577117919922 3.681320190429688 1.234217643737793 4.112348556518555 1.234217643737793 Z" stroke="none" fill="#f0f"/>
        </g>
      </g>
      <g id="Home-4" data-name="Home" transform="translate(-0.718 -1.234)" fill="#fff">
        <path d="M 7.014666557312012 8.96187686920166 L 1.232125878334045 8.96187686920166 C 1.233412504196167 8.564135551452637 1.230018258094788 7.982666015625 1.225226521492004 7.255386829376221 C 1.220326900482178 6.511672496795654 1.21528434753418 5.745948791503906 1.220423460006714 5.383024215698242 L 3.469135761260986 1.931753158569336 C 3.530853986740112 1.848560690879822 3.767562389373779 1.734216570854187 4.112346649169922 1.734216570854187 C 4.453506469726562 1.734216570854187 4.678316593170166 1.844396591186523 4.728976249694824 1.922626614570618 L 4.73064661026001 1.925196647644043 L 4.732346534729004 1.927756547927856 L 7.026278018951416 5.376426219940186 C 7.015191555023193 6.067884922027588 6.996298789978027 7.881688594818115 7.014666557312012 8.96187686920166 Z" stroke="none"/>
        <path d="M 4.112346649169922 2.234216690063477 C 3.987405776977539 2.234216690063477 3.891294479370117 2.257330894470215 3.841621398925781 2.275994300842285 L 1.718981742858887 5.533772468566895 C 1.716532707214355 5.93364143371582 1.721089363098145 6.625186920166016 1.725216388702393 7.252096652984619 C 1.728327751159668 7.724013328552246 1.730815887451172 8.128153800964355 1.731868743896484 8.46187686920166 L 6.508652210235596 8.46187686920166 C 6.50151252746582 7.442578792572021 6.515527248382568 6.14116907119751 6.524157524108887 5.524344921112061 L 4.35900354385376 2.269277572631836 C 4.311610698699951 2.253198623657227 4.224419116973877 2.234216690063477 4.112346649169922 2.234216690063477 M 4.112348556518555 1.234217643737793 C 4.542011260986328 1.234217643737793 4.968472957611084 1.37260913848877 5.148656368255615 1.650836944580078 L 7.528926372528076 5.229306697845459 C 7.517746448516846 5.799976825714111 7.485296249389648 8.522926330566406 7.528926372528076 9.46187686920166 L 0.7238163948059082 9.46187686920166 C 0.7512264251708984 9.004146575927734 0.7025465965270996 5.811716556549072 0.7238163948059082 5.229306697845459 L 3.05540657043457 1.650836944580078 C 3.2470703125 1.373577117919922 3.681320190429688 1.234217643737793 4.112348556518555 1.234217643737793 Z" stroke="none"/>
      </g>
      <g transform="matrix(1, 0, 0, 1, -3, -6)" filter="url(#Home-2)">
        <g id="Home-5" data-name="Home" transform="translate(2.28 4.77)" fill="#fff">
          <path d="M 7.014666557312012 8.96187686920166 L 1.232125878334045 8.96187686920166 C 1.233412504196167 8.564135551452637 1.230018258094788 7.982666015625 1.225226521492004 7.255386829376221 C 1.220326900482178 6.511672496795654 1.21528434753418 5.745948791503906 1.220423460006714 5.383024215698242 L 3.469135761260986 1.931753158569336 C 3.530853986740112 1.848560690879822 3.767562389373779 1.734216570854187 4.112346649169922 1.734216570854187 C 4.453506469726562 1.734216570854187 4.678316593170166 1.844396591186523 4.728976249694824 1.922626614570618 L 4.73064661026001 1.925196647644043 L 4.732346534729004 1.927756547927856 L 7.026278018951416 5.376426219940186 C 7.015191555023193 6.067884922027588 6.996298789978027 7.881688594818115 7.014666557312012 8.96187686920166 Z" stroke="none"/>
          <path d="M 4.112346649169922 2.234216690063477 C 3.987405776977539 2.234216690063477 3.891294479370117 2.257330894470215 3.841621398925781 2.275994300842285 L 1.718981742858887 5.533772468566895 C 1.716532707214355 5.93364143371582 1.721089363098145 6.625186920166016 1.725216388702393 7.252096652984619 C 1.728327751159668 7.724013328552246 1.730815887451172 8.128153800964355 1.731868743896484 8.46187686920166 L 6.508652210235596 8.46187686920166 C 6.50151252746582 7.442578792572021 6.515527248382568 6.14116907119751 6.524157524108887 5.524344921112061 L 4.35900354385376 2.269277572631836 C 4.311610698699951 2.253198623657227 4.224419116973877 2.234216690063477 4.112346649169922 2.234216690063477 M 4.112348556518555 1.234217643737793 C 4.542011260986328 1.234217643737793 4.968472957611084 1.37260913848877 5.148656368255615 1.650836944580078 L 7.528926372528076 5.229306697845459 C 7.517746448516846 5.799976825714111 7.485296249389648 8.522926330566406 7.528926372528076 9.46187686920166 L 0.7238163948059082 9.46187686920166 C 0.7512264251708984 9.004146575927734 0.7025465965270996 5.811716556549072 0.7238163948059082 5.229306697845459 L 3.05540657043457 1.650836944580078 C 3.2470703125 1.373577117919922 3.681320190429688 1.234217643737793 4.112348556518555 1.234217643737793 Z" stroke="none"/>
        </g>
      </g>
      <g id="Home-6" data-name="Home" transform="translate(-0.718 -1.234)" fill="none">
        <path d="M 7.014666557312012 8.96187686920166 L 1.232125878334045 8.96187686920166 C 1.233412504196167 8.564135551452637 1.230018258094788 7.982666015625 1.225226521492004 7.255386829376221 C 1.220326900482178 6.511672496795654 1.21528434753418 5.745948791503906 1.220423460006714 5.383024215698242 L 3.469135761260986 1.931753158569336 C 3.530853986740112 1.848560690879822 3.767562389373779 1.734216570854187 4.112346649169922 1.734216570854187 C 4.453506469726562 1.734216570854187 4.678316593170166 1.844396591186523 4.728976249694824 1.922626614570618 L 4.73064661026001 1.925196647644043 L 4.732346534729004 1.927756547927856 L 7.026278018951416 5.376426219940186 C 7.015191555023193 6.067884922027588 6.996298789978027 7.881688594818115 7.014666557312012 8.96187686920166 Z" stroke="none"/>
        <path d="M 4.112346649169922 2.234216690063477 C 3.987405776977539 2.234216690063477 3.891294479370117 2.257330894470215 3.841621398925781 2.275994300842285 L 1.718981742858887 5.533772468566895 C 1.716532707214355 5.93364143371582 1.721089363098145 6.625186920166016 1.725216388702393 7.252096652984619 C 1.728327751159668 7.724013328552246 1.730815887451172 8.128153800964355 1.731868743896484 8.46187686920166 L 6.508652210235596 8.46187686920166 C 6.50151252746582 7.442578792572021 6.515527248382568 6.14116907119751 6.524157524108887 5.524344921112061 L 4.35900354385376 2.269277572631836 C 4.311610698699951 2.253198623657227 4.224419116973877 2.234216690063477 4.112346649169922 2.234216690063477 M 4.112348556518555 1.234217643737793 C 4.542011260986328 1.234217643737793 4.968472957611084 1.37260913848877 5.148656368255615 1.650836944580078 L 7.528926372528076 5.229306697845459 C 7.517746448516846 5.799976825714111 7.485296249389648 8.522926330566406 7.528926372528076 9.46187686920166 L 0.7238163948059082 9.46187686920166 C 0.7512264251708984 9.004146575927734 0.7025465965270996 5.811716556549072 0.7238163948059082 5.229306697845459 L 3.05540657043457 1.650836944580078 C 3.2470703125 1.373577117919922 3.681320190429688 1.234217643737793 4.112348556518555 1.234217643737793 Z" stroke="none" fill="#f0f"/>
      </g>
    </g>
    <line id="Door" y1="2" transform="translate(3.405 5.54)" fill="none" stroke="#f0f" stroke-width="1"/>
    <line id="Left_Window" data-name="Left Window" y1="1" transform="translate(1.85 4.783)" fill="none" stroke="#f0f" stroke-width="1"/>
    <line id="Right_Window" data-name="Right Window" y1="1" transform="translate(4.96 4.783)" fill="none" stroke="#f0f" stroke-width="1"/>
  </g>
</svg>
