<svg xmlns="http://www.w3.org/2000/svg" xmlns:xlink="http://www.w3.org/1999/xlink" width="23.524" height="17" viewBox="0 0 23.524 17">
  <defs>
    <filter id="Envelope" x="0" y="0" width="23.524" height="17" filterUnits="userSpaceOnUse">
      <feOffset dy="-3" input="SourceAlpha"/>
      <feGaussianBlur stdDeviation="1" result="blur"/>
      <feFlood flood-opacity="0.78"/>
      <feComposite operator="in" in2="blur"/>
    </filter>
    <filter id="Envelope-2" x="0" y="0" width="23.524" height="17" filterUnits="userSpaceOnUse">
      <feOffset dy="1" input="SourceAlpha"/>
      <feGaussianBlur stdDeviation="1.5" result="blur-2"/>
      <feFlood flood-color="#f0f" flood-opacity="0.89" result="color"/>
      <feComposite operator="out" in="SourceGraphic" in2="blur-2"/>
      <feComposite operator="in" in="color"/>
      <feComposite operator="in" in2="SourceGraphic"/>
    </filter>
    <filter id="Lid" x="3" y="6" width="17.524" height="7.716" filterUnits="userSpaceOnUse">
      <feOffset dy="1" input="SourceAlpha"/>
      <feGaussianBlur stdDeviation="1.5" result="blur-3"/>
      <feFlood flood-color="#f0f" flood-opacity="0.419" result="color-2"/>
      <feComposite operator="out" in="SourceGraphic" in2="blur-3"/>
      <feComposite operator="in" in="color-2"/>
      <feComposite operator="in" in2="SourceGraphic"/>
    </filter>
  </defs>
  <g id="Inbox_Icon" data-name="Inbox Icon" transform="translate(3 6)">
    <g data-type="innerShadowGroup">
      <g transform="matrix(1, 0, 0, 1, -3, -6)" filter="url(#Envelope)">
        <g id="Envelope-3" data-name="Envelope" transform="translate(3 6)" fill="rgba(255,255,255,0.89)" stroke="#f0f" stroke-width="1">
          <rect width="17.524" height="11" rx="3" stroke="none"/>
          <rect x="0.5" y="0.5" width="16.524" height="10" rx="2.5" fill="none"/>
        </g>
      </g>
      <rect id="Envelope-4" data-name="Envelope" width="17.524" height="11" rx="3" fill="rgba(255,255,255,0.89)"/>
      <g transform="matrix(1, 0, 0, 1, -3, -6)" filter="url(#Envelope-2)">
        <rect id="Envelope-5" data-name="Envelope" width="17.524" height="11" rx="3" transform="translate(3 6)" fill="#fff"/>
      </g>
      <g id="Envelope-6" data-name="Envelope" fill="none" stroke="#f0f" stroke-width="1">
        <rect width="17.524" height="11" rx="3" stroke="none"/>
        <rect x="0.5" y="0.5" width="16.524" height="10" rx="2.5" fill="none"/>
      </g>
    </g>
    <g data-type="innerShadowGroup">
      <g id="Lid-2" data-name="Lid" transform="translate(17.524 7.716) rotate(180)" fill="rgba(255,255,255,0.89)">
        <path d="M 15.51499080657959 7.215792655944824 L 2.00869083404541 7.215792655944824 C 1.146170854568481 7.215792655944824 0.6839808225631714 6.608092784881592 0.5502707958221436 6.087692737579346 C 0.4170308113098145 5.569172859191895 0.5284508466720581 4.816752910614014 1.280950784683228 4.402712821960449 L 8.034100532531738 0.6869127154350281 C 8.256330490112305 0.5646327137947083 8.507980346679688 0.5000026822090149 8.7618408203125 0.5000026822090149 C 9.015701293945312 0.5000026822090149 9.267351150512695 0.5646327137947083 9.489570617675781 0.6869127154350281 L 16.24273109436035 4.402712821960449 C 16.99523162841797 4.816752910614014 17.10665130615234 5.569172859191895 16.97341156005859 6.087692737579346 C 16.83970069885254 6.608092784881592 16.37751007080078 7.215792655944824 15.51499080657959 7.215792655944824 Z" stroke="none"/>
        <path d="M 8.7618408203125 1.000002861022949 C 8.592020988464355 1.000002861022949 8.423720359802246 1.043212890625 8.275131225585938 1.124972820281982 L 1.521980285644531 4.84077262878418 C 0.8912410736083984 5.187822818756104 0.9894199371337891 5.78768253326416 1.034540176391602 5.963262557983398 C 1.079900741577148 6.139792442321777 1.284200668334961 6.715792655944824 2.00869083404541 6.715792655944824 L 15.51499080657959 6.715792655944824 C 16.23948097229004 6.715792655944824 16.44378089904785 6.139792442321777 16.4891414642334 5.963262557983398 C 16.53426170349121 5.78768253326416 16.6324405670166 5.187822818756104 16.00170135498047 4.84077262878418 L 9.248520851135254 1.12496280670166 C 9.099950790405273 1.043212890625 8.931660652160645 1.000002861022949 8.7618408203125 1.000002861022949 M 8.761839866638184 0 C 9.095476150512695 0 9.429110527038574 0.08294773101806641 9.730610847473145 0.248842716217041 L 16.4837703704834 3.964642763137817 C 18.29837989807129 4.963092803955078 17.58746147155762 7.715792655944824 15.51499080657959 7.715792655944824 L 2.00869083404541 7.715792655944824 C -0.06377983093261719 7.715792655944824 -0.7746982574462891 4.963092803955078 1.039911270141602 3.964642763137817 L 7.793061256408691 0.248842716217041 C 8.094565391540527 0.08294773101806641 8.428203582763672 0 8.761839866638184 0 Z" stroke="none"/>
      </g>
      <g transform="matrix(1, 0, 0, 1, -3, -6)" filter="url(#Lid)">
        <g id="Lid-3" data-name="Lid" transform="translate(20.52 13.72) rotate(180)" fill="#fff">
          <path d="M 15.51499080657959 7.215792655944824 L 2.00869083404541 7.215792655944824 C 1.146170854568481 7.215792655944824 0.6839808225631714 6.608092784881592 0.5502707958221436 6.087692737579346 C 0.4170308113098145 5.569172859191895 0.5284508466720581 4.816752910614014 1.280950784683228 4.402712821960449 L 8.034100532531738 0.6869127154350281 C 8.256330490112305 0.5646327137947083 8.507980346679688 0.5000026822090149 8.7618408203125 0.5000026822090149 C 9.015701293945312 0.5000026822090149 9.267351150512695 0.5646327137947083 9.489570617675781 0.6869127154350281 L 16.24273109436035 4.402712821960449 C 16.99523162841797 4.816752910614014 17.10665130615234 5.569172859191895 16.97341156005859 6.087692737579346 C 16.83970069885254 6.608092784881592 16.37751007080078 7.215792655944824 15.51499080657959 7.215792655944824 Z" stroke="none"/>
          <path d="M 8.7618408203125 1.000002861022949 C 8.592020988464355 1.000002861022949 8.423720359802246 1.043212890625 8.275131225585938 1.124972820281982 L 1.521980285644531 4.84077262878418 C 0.8912410736083984 5.187822818756104 0.9894199371337891 5.78768253326416 1.034540176391602 5.963262557983398 C 1.079900741577148 6.139792442321777 1.284200668334961 6.715792655944824 2.00869083404541 6.715792655944824 L 15.51499080657959 6.715792655944824 C 16.23948097229004 6.715792655944824 16.44378089904785 6.139792442321777 16.4891414642334 5.963262557983398 C 16.53426170349121 5.78768253326416 16.6324405670166 5.187822818756104 16.00170135498047 4.84077262878418 L 9.248520851135254 1.12496280670166 C 9.099950790405273 1.043212890625 8.931660652160645 1.000002861022949 8.7618408203125 1.000002861022949 M 8.761839866638184 0 C 9.095476150512695 0 9.429110527038574 0.08294773101806641 9.730610847473145 0.248842716217041 L 16.4837703704834 3.964642763137817 C 18.29837989807129 4.963092803955078 17.58746147155762 7.715792655944824 15.51499080657959 7.715792655944824 L 2.00869083404541 7.715792655944824 C -0.06377983093261719 7.715792655944824 -0.7746982574462891 4.963092803955078 1.039911270141602 3.964642763137817 L 7.793061256408691 0.248842716217041 C 8.094565391540527 0.08294773101806641 8.428203582763672 0 8.761839866638184 0 Z" stroke="none"/>
        </g>
      </g>
      <g id="Lid-4" data-name="Lid" transform="translate(17.524 7.716) rotate(180)" fill="none">
        <path d="M 15.51499080657959 7.215792655944824 L 2.00869083404541 7.215792655944824 C 1.146170854568481 7.215792655944824 0.6839808225631714 6.608092784881592 0.5502707958221436 6.087692737579346 C 0.4170308113098145 5.569172859191895 0.5284508466720581 4.816752910614014 1.280950784683228 4.402712821960449 L 8.034100532531738 0.6869127154350281 C 8.256330490112305 0.5646327137947083 8.507980346679688 0.5000026822090149 8.7618408203125 0.5000026822090149 C 9.015701293945312 0.5000026822090149 9.267351150512695 0.5646327137947083 9.489570617675781 0.6869127154350281 L 16.24273109436035 4.402712821960449 C 16.99523162841797 4.816752910614014 17.10665130615234 5.569172859191895 16.97341156005859 6.087692737579346 C 16.83970069885254 6.608092784881592 16.37751007080078 7.215792655944824 15.51499080657959 7.215792655944824 Z" stroke="none"/>
        <path d="M 8.7618408203125 1.000002861022949 C 8.592020988464355 1.000002861022949 8.423720359802246 1.043212890625 8.275131225585938 1.124972820281982 L 1.521980285644531 4.84077262878418 C 0.8912410736083984 5.187822818756104 0.9894199371337891 5.78768253326416 1.034540176391602 5.963262557983398 C 1.079900741577148 6.139792442321777 1.284200668334961 6.715792655944824 2.00869083404541 6.715792655944824 L 15.51499080657959 6.715792655944824 C 16.23948097229004 6.715792655944824 16.44378089904785 6.139792442321777 16.4891414642334 5.963262557983398 C 16.53426170349121 5.78768253326416 16.6324405670166 5.187822818756104 16.00170135498047 4.84077262878418 L 9.248520851135254 1.12496280670166 C 9.099950790405273 1.043212890625 8.931660652160645 1.000002861022949 8.7618408203125 1.000002861022949 M 8.761839866638184 0 C 9.095476150512695 0 9.429110527038574 0.08294773101806641 9.730610847473145 0.248842716217041 L 16.4837703704834 3.964642763137817 C 18.29837989807129 4.963092803955078 17.58746147155762 7.715792655944824 15.51499080657959 7.715792655944824 L 2.00869083404541 7.715792655944824 C -0.06377983093261719 7.715792655944824 -0.7746982574462891 4.963092803955078 1.039911270141602 3.964642763137817 L 7.793061256408691 0.248842716217041 C 8.094565391540527 0.08294773101806641 8.428203582763672 0 8.761839866638184 0 Z" stroke="none" fill="#f0f"/>
      </g>
    </g>
  </g>
</svg>
