<svg xmlns="http://www.w3.org/2000/svg" xmlns:xlink="http://www.w3.org/1999/xlink" width="25.107" height="25.252" viewBox="0 0 25.107 25.252">
  <defs>
    <filter id="Like_Icon" x="0" y="0" width="25.107" height="25.252" filterUnits="userSpaceOnUse">
      <feOffset dy="-3" input="SourceAlpha"/>
      <feGaussianBlur stdDeviation="1" result="blur"/>
      <feFlood flood-opacity="0.776"/>
      <feComposite operator="in" in2="blur"/>
    </filter>
    <filter id="Like_Icon-2" x="0" y="0" width="25.107" height="25.252" filterUnits="userSpaceOnUse">
      <feOffset input="SourceAlpha"/>
      <feGaussianBlur stdDeviation="2.5" result="blur-2"/>
      <feFlood flood-color="#00e5ff" result="color"/>
      <feComposite operator="out" in="SourceGraphic" in2="blur-2"/>
      <feComposite operator="in" in="color"/>
      <feComposite operator="in" in2="SourceGraphic"/>
    </filter>
  </defs>
  <g id="Like_Icon-3" data-name="Like Icon" transform="translate(3 6)">
    <g data-type="innerShadowGroup">
      <g transform="matrix(1, 0, 0, 1, -3, -6)" filter="url(#Like_Icon)">
        <g id="Like_Icon-4" data-name="Like Icon" transform="translate(10.86 10.34) rotate(43)" fill="#fff">
          <path d="M 4.040145397186279 9.730287551879883 C 3.004645586013794 9.730287551879883 1.826915502548218 9.145597457885742 0.8897355198860168 8.166236877441406 C -0.1205873563885689 7.11044979095459 -0.6856731176376343 5.790765762329102 -0.706895112991333 4.44216251373291 C -0.6934376358985901 4.401697635650635 -0.6748653650283813 4.345908641815186 -0.6519244909286499 4.276987075805664 C -0.4035508334636688 3.530746459960938 -0.1954883635044098 2.903368234634399 -0.02116989530622959 2.375659465789795 C -0.01085491944104433 2.547681093215942 0.00068560621002689 2.720772743225098 0.01358552183955908 2.892787218093872 C 0.1910355240106583 5.259006977081299 0.4885755181312561 5.863367080688477 0.9111255407333374 6.071537017822266 L 0.9137455224990845 6.072827339172363 L 0.9163855314254761 6.074087142944336 L 1.018035531044006 6.122696876525879 L 1.132485508918762 6.123426914215088 C 1.133224725723267 6.123429298400879 1.133971691131592 6.123430252075195 1.134708881378174 6.123430252075195 C 1.598489046096802 6.123430252075195 1.656615257263184 5.723175048828125 1.744555473327637 5.117796897888184 C 1.798125505447388 4.748977184295654 1.865695476531982 4.225437164306641 1.943935513496399 3.619217157363892 C 2.124505519866943 2.220227003097534 2.371795415878296 0.3042570948600769 2.656445503234863 -1.330012917518616 C 2.803789138793945 -2.17592191696167 2.935479640960693 -2.793954849243164 3.048217535018921 -3.245053052902222 C 3.424564123153687 -1.495887756347656 3.627027273178101 0.7628371715545654 3.79735541343689 2.662986993789673 C 4.075965404510498 5.771137237548828 4.162305355072021 6.342226982116699 4.622035503387451 6.565587043762207 L 4.624765396118164 6.566916942596436 L 4.627515316009521 6.568207263946533 L 4.728695392608643 6.615857124328613 L 4.843125343322754 6.616466999053955 C 5.316535472869873 6.616466999053955 5.373775482177734 6.139297008514404 5.407965660095215 5.854197025299072 C 5.432255744934082 5.651707172393799 5.45904541015625 5.360377311706543 5.489855289459229 4.963557243347168 C 5.546875476837158 4.229387283325195 5.61106538772583 3.217787027359009 5.679025650024414 2.146807193756104 C 5.785569190979004 0.4677523970603943 5.945716857910156 -2.056068420410156 6.096583366394043 -3.421163320541382 C 6.098951816558838 -3.412261247634888 6.101185321807861 -3.403853893280029 6.103265285491943 -3.396022796630859 C 6.415365695953369 -2.246392965316772 6.605135440826416 -0.1379628926515579 6.772565364837646 1.722257137298584 C 6.994425296783447 4.187297344207764 7.093895435333252 5.081957340240479 7.33857536315918 5.441717147827148 C 7.451115608215332 5.605067253112793 7.61892557144165 5.69733715057373 7.800685405731201 5.69733715057373 C 8.352065086364746 5.69733715057373 8.415615081787109 5.074986934661865 8.471685409545898 4.525897026062012 C 8.517765045166016 4.074717044830322 8.554045677185059 3.468747138977051 8.592445373535156 2.827187061309814 C 8.630577087402344 2.190330743789673 8.689133644104004 1.212248563766479 8.771230697631836 0.4861013889312744 C 8.873478889465332 0.701660692691803 8.987776756286621 0.9369856715202332 9.109675407409668 1.187957048416138 C 9.620845794677734 2.240387201309204 10.39333534240723 3.830826997756958 10.39333534240723 4.36342716217041 C 10.39333534240723 6.10064697265625 8.928175926208496 7.457537174224854 8.054805755615234 8.111746788024902 C 6.76239538192749 9.07984733581543 5.149025440216064 9.730287551879883 4.040145397186279 9.730287551879883 Z M 0.7388493418693542 -0.445178747177124 L -0.02324694022536278 -0.5329795479774475 C -0.04871081933379173 -0.5717103481292725 -0.06859368830919266 -0.6132857799530029 -0.08238207548856735 -0.6559749245643616 L 0.823375940322876 -0.5514901280403137 C 0.8003626465797424 -0.5130797624588013 0.772013783454895 -0.477087527513504 0.7388493418693542 -0.445178747177124 Z" stroke="none"/>
          <path d="M 2.997480869293213 -0.3283014297485352 C 2.777998924255371 1.062846183776855 2.585954666137695 2.550816535949707 2.439765453338623 3.683516979217529 C 2.361265659332275 4.291717052459717 2.293465614318848 4.816977024078369 2.239335536956787 5.189667224884033 C 2.208585739135742 5.401417255401611 2.184025287628174 5.552176952362061 2.162045478820801 5.664107322692871 C 1.992085456848145 6.529947280883789 1.386385917663574 6.623427391052246 1.133865356445312 6.623427391052246 L 0.9033355712890625 6.623006820678711 L 0.6901655197143555 6.520057201385498 C 0.3962774276733398 6.375277519226074 0.1734037399291992 6.132810592651367 0.0007343292236328125 5.729067802429199 C 0.2340545654296875 6.485722541809082 0.6587238311767578 7.20164680480957 1.250975608825684 7.820547103881836 C 2.083095550537109 8.690107345581055 3.151835441589355 9.230287551879883 4.040145397186279 9.230287551879883 C 5.033665657043457 9.230287551879883 6.561285495758057 8.605767250061035 7.755045413970947 7.711566925048828 C 9.113955497741699 6.693647384643555 9.893325805664062 5.473297119140625 9.893355369567871 4.366086959838867 C 9.882081985473633 4.054911613464355 9.492460250854492 3.162106275558472 9.121243476867676 2.369298458099365 C 9.110198974609375 2.546002864837646 9.100302696228027 2.711315393447876 9.091565132141113 2.857257127761841 C 9.052835464477539 3.504157066345215 9.01624584197998 4.115177154541016 8.96910572052002 4.576766967773438 C 8.91126537322998 5.143126964569092 8.803605079650879 6.19733715057373 7.800685405731201 6.19733715057373 C 7.451995849609375 6.19733715057373 7.134115219116211 6.026237010955811 6.928565502166748 5.727917194366455 L 6.925135612487793 5.722907066345215 C 6.619045257568359 5.272857189178467 6.522725582122803 4.524187088012695 6.274575233459473 1.767077207565308 C 6.261137008666992 1.617763996124268 6.247405529022217 1.465197801589966 6.233365058898926 1.310582637786865 C 6.213682174682617 1.616596221923828 6.19512939453125 1.908944129943848 6.178025245666504 2.178467035293579 C 6.109945297241211 3.251267194747925 6.045645713806152 4.264567375183105 5.98835563659668 5.002266883850098 C 5.956995487213135 5.406116962432861 5.929535865783691 5.704267024993896 5.90440559387207 5.913747310638428 C 5.808675765991211 6.711817264556885 5.451605319976807 7.116466999053955 4.843125343322754 7.116466999053955 L 4.616995334625244 7.115857124328613 L 4.403525352478027 7.015316963195801 C 3.652795314788818 6.650567054748535 3.577925682067871 5.815317153930664 3.299355506896973 2.707627058029175 C 3.216501235961914 1.783304214477539 3.121390342712402 0.7221980094909668 2.997480869293213 -0.3283014297485352 M 3.135635375976562 -4.809693336486816 C 4.305995464324951 -1.544003009796143 4.286585330963135 5.84671688079834 4.840535640716553 6.115857124328613 C 5.039535045623779 6.209603309631348 5.43894100189209 -4.590777397155762 5.838132858276367 -4.591266632080078 C 5.838742256164551 -4.591267585754395 5.839325428009033 -4.591242790222168 5.839935302734375 -4.591193199157715 C 6.24638557434082 -4.591193199157715 6.311835289001465 -4.558242797851562 6.58650541305542 -3.524413108825684 C 7.206425666809082 -1.240952968597412 7.347955703735352 4.566427230834961 7.752015590667725 5.160527229309082 C 8.153120994567871 5.742708206176758 8.028219223022461 -0.7736620903015137 8.636772155761719 -0.7745304107666016 C 8.718986511230469 -0.7746477127075195 8.814468383789062 -0.6558480262756348 8.926565170288086 -0.3845629692077637 C 9.397445678710938 0.7551169395446777 10.89332580566406 3.438086986541748 10.89332580566406 4.36342716217041 C 10.89332580566406 7.603607177734375 6.407685279846191 10.23028755187988 4.040145397186279 10.23028755187988 C 1.672605514526367 10.23028755187988 -1.207524299621582 7.603607177734375 -1.207524299621582 4.36342716217041 C -1.207524299621582 4.360286235809326 0.2987861633300781 -0.1461877822875977 0.3918390274047852 -0.5431742668151855 C 0.3928070068359375 0.6267237663269043 0.4650440216064453 5.29439640045166 1.132085800170898 5.623007297515869 C 1.285123825073242 5.696242809295654 2.14554500579834 -3.884491920471191 3.135635375976562 -4.809693336486816 Z M 0.394291877746582 -0.8076052665710449 C 0.3953952789306641 -0.8075580596923828 0.3964328765869141 -0.7330961227416992 0.3963356018066406 -0.5682330131530762 C 0.3963108062744141 -0.5641684532165527 0.394780158996582 -0.5557222366333008 0.3918390274047852 -0.5431742668151855 C 0.3916997909545898 -0.7116899490356445 0.3930387496948242 -0.8076586723327637 0.394291877746582 -0.8076052665710449 Z" stroke="none" fill="#f0f"/>
        </g>
      </g>
      <g id="Like_Icon-5" data-name="Like Icon" transform="translate(7.86 4.341) rotate(43)" fill="#fff">
        <path d="M 4.040145397186279 9.730287551879883 C 3.004645586013794 9.730287551879883 1.826915502548218 9.145597457885742 0.8897355198860168 8.166236877441406 C -0.1205873563885689 7.11044979095459 -0.6856731176376343 5.790765762329102 -0.706895112991333 4.44216251373291 C -0.6934376358985901 4.401697635650635 -0.6748653650283813 4.345908641815186 -0.6519244909286499 4.276987075805664 C -0.4035508334636688 3.530746459960938 -0.1954883635044098 2.903368234634399 -0.02116989530622959 2.375659465789795 C -0.01085491944104433 2.547681093215942 0.00068560621002689 2.720772743225098 0.01358552183955908 2.892787218093872 C 0.1910355240106583 5.259006977081299 0.4885755181312561 5.863367080688477 0.9111255407333374 6.071537017822266 L 0.9137455224990845 6.072827339172363 L 0.9163855314254761 6.074087142944336 L 1.018035531044006 6.122696876525879 L 1.132485508918762 6.123426914215088 C 1.133224725723267 6.123429298400879 1.133971691131592 6.123430252075195 1.134708881378174 6.123430252075195 C 1.598489046096802 6.123430252075195 1.656615257263184 5.723175048828125 1.744555473327637 5.117796897888184 C 1.798125505447388 4.748977184295654 1.865695476531982 4.225437164306641 1.943935513496399 3.619217157363892 C 2.124505519866943 2.220227003097534 2.371795415878296 0.3042570948600769 2.656445503234863 -1.330012917518616 C 2.803789138793945 -2.17592191696167 2.935479640960693 -2.793954849243164 3.048217535018921 -3.245053052902222 C 3.424564123153687 -1.495887756347656 3.627027273178101 0.7628371715545654 3.79735541343689 2.662986993789673 C 4.075965404510498 5.771137237548828 4.162305355072021 6.342226982116699 4.622035503387451 6.565587043762207 L 4.624765396118164 6.566916942596436 L 4.627515316009521 6.568207263946533 L 4.728695392608643 6.615857124328613 L 4.843125343322754 6.616466999053955 C 5.316535472869873 6.616466999053955 5.373775482177734 6.139297008514404 5.407965660095215 5.854197025299072 C 5.432255744934082 5.651707172393799 5.45904541015625 5.360377311706543 5.489855289459229 4.963557243347168 C 5.546875476837158 4.229387283325195 5.61106538772583 3.217787027359009 5.679025650024414 2.146807193756104 C 5.785569190979004 0.4677523970603943 5.945716857910156 -2.056068420410156 6.096583366394043 -3.421163320541382 C 6.098951816558838 -3.412261247634888 6.101185321807861 -3.403853893280029 6.103265285491943 -3.396022796630859 C 6.415365695953369 -2.246392965316772 6.605135440826416 -0.1379628926515579 6.772565364837646 1.722257137298584 C 6.994425296783447 4.187297344207764 7.093895435333252 5.081957340240479 7.33857536315918 5.441717147827148 C 7.451115608215332 5.605067253112793 7.61892557144165 5.69733715057373 7.800685405731201 5.69733715057373 C 8.352065086364746 5.69733715057373 8.415615081787109 5.074986934661865 8.471685409545898 4.525897026062012 C 8.517765045166016 4.074717044830322 8.554045677185059 3.468747138977051 8.592445373535156 2.827187061309814 C 8.630577087402344 2.190330743789673 8.689133644104004 1.212248563766479 8.771230697631836 0.4861013889312744 C 8.873478889465332 0.701660692691803 8.987776756286621 0.9369856715202332 9.109675407409668 1.187957048416138 C 9.620845794677734 2.240387201309204 10.39333534240723 3.830826997756958 10.39333534240723 4.36342716217041 C 10.39333534240723 6.10064697265625 8.928175926208496 7.457537174224854 8.054805755615234 8.111746788024902 C 6.76239538192749 9.07984733581543 5.149025440216064 9.730287551879883 4.040145397186279 9.730287551879883 Z M 0.7388493418693542 -0.445178747177124 L -0.02324694022536278 -0.5329795479774475 C -0.04871081933379173 -0.5717103481292725 -0.06859368830919266 -0.6132857799530029 -0.08238207548856735 -0.6559749245643616 L 0.823375940322876 -0.5514901280403137 C 0.8003626465797424 -0.5130797624588013 0.772013783454895 -0.477087527513504 0.7388493418693542 -0.445178747177124 Z" stroke="none"/>
        <path d="M 2.997480869293213 -0.3283014297485352 C 2.777998924255371 1.062846183776855 2.585954666137695 2.550816535949707 2.439765453338623 3.683516979217529 C 2.361265659332275 4.291717052459717 2.293465614318848 4.816977024078369 2.239335536956787 5.189667224884033 C 2.208585739135742 5.401417255401611 2.184025287628174 5.552176952362061 2.162045478820801 5.664107322692871 C 1.992085456848145 6.529947280883789 1.386385917663574 6.623427391052246 1.133865356445312 6.623427391052246 L 0.9033355712890625 6.623006820678711 L 0.6901655197143555 6.520057201385498 C 0.3962774276733398 6.375277519226074 0.1734037399291992 6.132810592651367 0.0007343292236328125 5.729067802429199 C 0.2340545654296875 6.485722541809082 0.6587238311767578 7.20164680480957 1.250975608825684 7.820547103881836 C 2.083095550537109 8.690107345581055 3.151835441589355 9.230287551879883 4.040145397186279 9.230287551879883 C 5.033665657043457 9.230287551879883 6.561285495758057 8.605767250061035 7.755045413970947 7.711566925048828 C 9.113955497741699 6.693647384643555 9.893325805664062 5.473297119140625 9.893355369567871 4.366086959838867 C 9.882081985473633 4.054911613464355 9.492460250854492 3.162106275558472 9.121243476867676 2.369298458099365 C 9.110198974609375 2.546002864837646 9.100302696228027 2.711315393447876 9.091565132141113 2.857257127761841 C 9.052835464477539 3.504157066345215 9.01624584197998 4.115177154541016 8.96910572052002 4.576766967773438 C 8.91126537322998 5.143126964569092 8.803605079650879 6.19733715057373 7.800685405731201 6.19733715057373 C 7.451995849609375 6.19733715057373 7.134115219116211 6.026237010955811 6.928565502166748 5.727917194366455 L 6.925135612487793 5.722907066345215 C 6.619045257568359 5.272857189178467 6.522725582122803 4.524187088012695 6.274575233459473 1.767077207565308 C 6.261137008666992 1.617763996124268 6.247405529022217 1.465197801589966 6.233365058898926 1.310582637786865 C 6.213682174682617 1.616596221923828 6.19512939453125 1.908944129943848 6.178025245666504 2.178467035293579 C 6.109945297241211 3.251267194747925 6.045645713806152 4.264567375183105 5.98835563659668 5.002266883850098 C 5.956995487213135 5.406116962432861 5.929535865783691 5.704267024993896 5.90440559387207 5.913747310638428 C 5.808675765991211 6.711817264556885 5.451605319976807 7.116466999053955 4.843125343322754 7.116466999053955 L 4.616995334625244 7.115857124328613 L 4.403525352478027 7.015316963195801 C 3.652795314788818 6.650567054748535 3.577925682067871 5.815317153930664 3.299355506896973 2.707627058029175 C 3.216501235961914 1.783304214477539 3.121390342712402 0.7221980094909668 2.997480869293213 -0.3283014297485352 M 3.135635375976562 -4.809693336486816 C 4.305995464324951 -1.544003009796143 4.286585330963135 5.84671688079834 4.840535640716553 6.115857124328613 C 5.039535045623779 6.209603309631348 5.43894100189209 -4.590777397155762 5.838132858276367 -4.591266632080078 C 5.838742256164551 -4.591267585754395 5.839325428009033 -4.591242790222168 5.839935302734375 -4.591193199157715 C 6.24638557434082 -4.591193199157715 6.311835289001465 -4.558242797851562 6.58650541305542 -3.524413108825684 C 7.206425666809082 -1.240952968597412 7.347955703735352 4.566427230834961 7.752015590667725 5.160527229309082 C 8.153120994567871 5.742708206176758 8.028219223022461 -0.7736620903015137 8.636772155761719 -0.7745304107666016 C 8.718986511230469 -0.7746477127075195 8.814468383789062 -0.6558480262756348 8.926565170288086 -0.3845629692077637 C 9.397445678710938 0.7551169395446777 10.89332580566406 3.438086986541748 10.89332580566406 4.36342716217041 C 10.89332580566406 7.603607177734375 6.407685279846191 10.23028755187988 4.040145397186279 10.23028755187988 C 1.672605514526367 10.23028755187988 -1.207524299621582 7.603607177734375 -1.207524299621582 4.36342716217041 C -1.207524299621582 4.360286235809326 0.2987861633300781 -0.1461877822875977 0.3918390274047852 -0.5431742668151855 C 0.3928070068359375 0.6267237663269043 0.4650440216064453 5.29439640045166 1.132085800170898 5.623007297515869 C 1.285123825073242 5.696242809295654 2.14554500579834 -3.884491920471191 3.135635375976562 -4.809693336486816 Z M 0.394291877746582 -0.8076052665710449 C 0.3953952789306641 -0.8075580596923828 0.3964328765869141 -0.7330961227416992 0.3963356018066406 -0.5682330131530762 C 0.3963108062744141 -0.5641684532165527 0.394780158996582 -0.5557222366333008 0.3918390274047852 -0.5431742668151855 C 0.3916997909545898 -0.7116899490356445 0.3930387496948242 -0.8076586723327637 0.394291877746582 -0.8076052665710449 Z" stroke="none"/>
      </g>
      <g transform="matrix(1, 0, 0, 1, -3, -6)" filter="url(#Like_Icon-2)">
        <g id="Like_Icon-6" data-name="Like Icon" transform="translate(10.86 10.34) rotate(43)" fill="#fff">
          <path d="M 4.040145397186279 9.730287551879883 C 3.004645586013794 9.730287551879883 1.826915502548218 9.145597457885742 0.8897355198860168 8.166236877441406 C -0.1205873563885689 7.11044979095459 -0.6856731176376343 5.790765762329102 -0.706895112991333 4.44216251373291 C -0.6934376358985901 4.401697635650635 -0.6748653650283813 4.345908641815186 -0.6519244909286499 4.276987075805664 C -0.4035508334636688 3.530746459960938 -0.1954883635044098 2.903368234634399 -0.02116989530622959 2.375659465789795 C -0.01085491944104433 2.547681093215942 0.00068560621002689 2.720772743225098 0.01358552183955908 2.892787218093872 C 0.1910355240106583 5.259006977081299 0.4885755181312561 5.863367080688477 0.9111255407333374 6.071537017822266 L 0.9137455224990845 6.072827339172363 L 0.9163855314254761 6.074087142944336 L 1.018035531044006 6.122696876525879 L 1.132485508918762 6.123426914215088 C 1.133224725723267 6.123429298400879 1.133971691131592 6.123430252075195 1.134708881378174 6.123430252075195 C 1.598489046096802 6.123430252075195 1.656615257263184 5.723175048828125 1.744555473327637 5.117796897888184 C 1.798125505447388 4.748977184295654 1.865695476531982 4.225437164306641 1.943935513496399 3.619217157363892 C 2.124505519866943 2.220227003097534 2.371795415878296 0.3042570948600769 2.656445503234863 -1.330012917518616 C 2.803789138793945 -2.17592191696167 2.935479640960693 -2.793954849243164 3.048217535018921 -3.245053052902222 C 3.424564123153687 -1.495887756347656 3.627027273178101 0.7628371715545654 3.79735541343689 2.662986993789673 C 4.075965404510498 5.771137237548828 4.162305355072021 6.342226982116699 4.622035503387451 6.565587043762207 L 4.624765396118164 6.566916942596436 L 4.627515316009521 6.568207263946533 L 4.728695392608643 6.615857124328613 L 4.843125343322754 6.616466999053955 C 5.316535472869873 6.616466999053955 5.373775482177734 6.139297008514404 5.407965660095215 5.854197025299072 C 5.432255744934082 5.651707172393799 5.45904541015625 5.360377311706543 5.489855289459229 4.963557243347168 C 5.546875476837158 4.229387283325195 5.61106538772583 3.217787027359009 5.679025650024414 2.146807193756104 C 5.785569190979004 0.4677523970603943 5.945716857910156 -2.056068420410156 6.096583366394043 -3.421163320541382 C 6.098951816558838 -3.412261247634888 6.101185321807861 -3.403853893280029 6.103265285491943 -3.396022796630859 C 6.415365695953369 -2.246392965316772 6.605135440826416 -0.1379628926515579 6.772565364837646 1.722257137298584 C 6.994425296783447 4.187297344207764 7.093895435333252 5.081957340240479 7.33857536315918 5.441717147827148 C 7.451115608215332 5.605067253112793 7.61892557144165 5.69733715057373 7.800685405731201 5.69733715057373 C 8.352065086364746 5.69733715057373 8.415615081787109 5.074986934661865 8.471685409545898 4.525897026062012 C 8.517765045166016 4.074717044830322 8.554045677185059 3.468747138977051 8.592445373535156 2.827187061309814 C 8.630577087402344 2.190330743789673 8.689133644104004 1.212248563766479 8.771230697631836 0.4861013889312744 C 8.873478889465332 0.701660692691803 8.987776756286621 0.9369856715202332 9.109675407409668 1.187957048416138 C 9.620845794677734 2.240387201309204 10.39333534240723 3.830826997756958 10.39333534240723 4.36342716217041 C 10.39333534240723 6.10064697265625 8.928175926208496 7.457537174224854 8.054805755615234 8.111746788024902 C 6.76239538192749 9.07984733581543 5.149025440216064 9.730287551879883 4.040145397186279 9.730287551879883 Z M 0.7388493418693542 -0.445178747177124 L -0.02324694022536278 -0.5329795479774475 C -0.04871081933379173 -0.5717103481292725 -0.06859368830919266 -0.6132857799530029 -0.08238207548856735 -0.6559749245643616 L 0.823375940322876 -0.5514901280403137 C 0.8003626465797424 -0.5130797624588013 0.772013783454895 -0.477087527513504 0.7388493418693542 -0.445178747177124 Z" stroke="none"/>
          <path d="M 2.997480869293213 -0.3283014297485352 C 2.777998924255371 1.062846183776855 2.585954666137695 2.550816535949707 2.439765453338623 3.683516979217529 C 2.361265659332275 4.291717052459717 2.293465614318848 4.816977024078369 2.239335536956787 5.189667224884033 C 2.208585739135742 5.401417255401611 2.184025287628174 5.552176952362061 2.162045478820801 5.664107322692871 C 1.992085456848145 6.529947280883789 1.386385917663574 6.623427391052246 1.133865356445312 6.623427391052246 L 0.9033355712890625 6.623006820678711 L 0.6901655197143555 6.520057201385498 C 0.3962774276733398 6.375277519226074 0.1734037399291992 6.132810592651367 0.0007343292236328125 5.729067802429199 C 0.2340545654296875 6.485722541809082 0.6587238311767578 7.20164680480957 1.250975608825684 7.820547103881836 C 2.083095550537109 8.690107345581055 3.151835441589355 9.230287551879883 4.040145397186279 9.230287551879883 C 5.033665657043457 9.230287551879883 6.561285495758057 8.605767250061035 7.755045413970947 7.711566925048828 C 9.113955497741699 6.693647384643555 9.893325805664062 5.473297119140625 9.893355369567871 4.366086959838867 C 9.882081985473633 4.054911613464355 9.492460250854492 3.162106275558472 9.121243476867676 2.369298458099365 C 9.110198974609375 2.546002864837646 9.100302696228027 2.711315393447876 9.091565132141113 2.857257127761841 C 9.052835464477539 3.504157066345215 9.01624584197998 4.115177154541016 8.96910572052002 4.576766967773438 C 8.91126537322998 5.143126964569092 8.803605079650879 6.19733715057373 7.800685405731201 6.19733715057373 C 7.451995849609375 6.19733715057373 7.134115219116211 6.026237010955811 6.928565502166748 5.727917194366455 L 6.925135612487793 5.722907066345215 C 6.619045257568359 5.272857189178467 6.522725582122803 4.524187088012695 6.274575233459473 1.767077207565308 C 6.261137008666992 1.617763996124268 6.247405529022217 1.465197801589966 6.233365058898926 1.310582637786865 C 6.213682174682617 1.616596221923828 6.19512939453125 1.908944129943848 6.178025245666504 2.178467035293579 C 6.109945297241211 3.251267194747925 6.045645713806152 4.264567375183105 5.98835563659668 5.002266883850098 C 5.956995487213135 5.406116962432861 5.929535865783691 5.704267024993896 5.90440559387207 5.913747310638428 C 5.808675765991211 6.711817264556885 5.451605319976807 7.116466999053955 4.843125343322754 7.116466999053955 L 4.616995334625244 7.115857124328613 L 4.403525352478027 7.015316963195801 C 3.652795314788818 6.650567054748535 3.577925682067871 5.815317153930664 3.299355506896973 2.707627058029175 C 3.216501235961914 1.783304214477539 3.121390342712402 0.7221980094909668 2.997480869293213 -0.3283014297485352 M 3.135635375976562 -4.809693336486816 C 4.305995464324951 -1.544003009796143 4.286585330963135 5.84671688079834 4.840535640716553 6.115857124328613 C 5.039535045623779 6.209603309631348 5.43894100189209 -4.590777397155762 5.838132858276367 -4.591266632080078 C 5.838742256164551 -4.591267585754395 5.839325428009033 -4.591242790222168 5.839935302734375 -4.591193199157715 C 6.24638557434082 -4.591193199157715 6.311835289001465 -4.558242797851562 6.58650541305542 -3.524413108825684 C 7.206425666809082 -1.240952968597412 7.347955703735352 4.566427230834961 7.752015590667725 5.160527229309082 C 8.153120994567871 5.742708206176758 8.028219223022461 -0.7736620903015137 8.636772155761719 -0.7745304107666016 C 8.718986511230469 -0.7746477127075195 8.814468383789062 -0.6558480262756348 8.926565170288086 -0.3845629692077637 C 9.397445678710938 0.7551169395446777 10.89332580566406 3.438086986541748 10.89332580566406 4.36342716217041 C 10.89332580566406 7.603607177734375 6.407685279846191 10.23028755187988 4.040145397186279 10.23028755187988 C 1.672605514526367 10.23028755187988 -1.207524299621582 7.603607177734375 -1.207524299621582 4.36342716217041 C -1.207524299621582 4.360286235809326 0.2987861633300781 -0.1461877822875977 0.3918390274047852 -0.5431742668151855 C 0.3928070068359375 0.6267237663269043 0.4650440216064453 5.29439640045166 1.132085800170898 5.623007297515869 C 1.285123825073242 5.696242809295654 2.14554500579834 -3.884491920471191 3.135635375976562 -4.809693336486816 Z M 0.394291877746582 -0.8076052665710449 C 0.3953952789306641 -0.8075580596923828 0.3964328765869141 -0.7330961227416992 0.3963356018066406 -0.5682330131530762 C 0.3963108062744141 -0.5641684532165527 0.394780158996582 -0.5557222366333008 0.3918390274047852 -0.5431742668151855 C 0.3916997909545898 -0.7116899490356445 0.3930387496948242 -0.8076586723327637 0.394291877746582 -0.8076052665710449 Z" stroke="none"/>
        </g>
      </g>
      <g id="Like_Icon-7" data-name="Like Icon" transform="translate(7.86 4.341) rotate(43)" fill="none">
        <path d="M 4.040145397186279 9.730287551879883 C 3.004645586013794 9.730287551879883 1.826915502548218 9.145597457885742 0.8897355198860168 8.166236877441406 C -0.1205873563885689 7.11044979095459 -0.6856731176376343 5.790765762329102 -0.706895112991333 4.44216251373291 C -0.6934376358985901 4.401697635650635 -0.6748653650283813 4.345908641815186 -0.6519244909286499 4.276987075805664 C -0.4035508334636688 3.530746459960938 -0.1954883635044098 2.903368234634399 -0.02116989530622959 2.375659465789795 C -0.01085491944104433 2.547681093215942 0.00068560621002689 2.720772743225098 0.01358552183955908 2.892787218093872 C 0.1910355240106583 5.259006977081299 0.4885755181312561 5.863367080688477 0.9111255407333374 6.071537017822266 L 0.9137455224990845 6.072827339172363 L 0.9163855314254761 6.074087142944336 L 1.018035531044006 6.122696876525879 L 1.132485508918762 6.123426914215088 C 1.133224725723267 6.123429298400879 1.133971691131592 6.123430252075195 1.134708881378174 6.123430252075195 C 1.598489046096802 6.123430252075195 1.656615257263184 5.723175048828125 1.744555473327637 5.117796897888184 C 1.798125505447388 4.748977184295654 1.865695476531982 4.225437164306641 1.943935513496399 3.619217157363892 C 2.124505519866943 2.220227003097534 2.371795415878296 0.3042570948600769 2.656445503234863 -1.330012917518616 C 2.803789138793945 -2.17592191696167 2.935479640960693 -2.793954849243164 3.048217535018921 -3.245053052902222 C 3.424564123153687 -1.495887756347656 3.627027273178101 0.7628371715545654 3.79735541343689 2.662986993789673 C 4.075965404510498 5.771137237548828 4.162305355072021 6.342226982116699 4.622035503387451 6.565587043762207 L 4.624765396118164 6.566916942596436 L 4.627515316009521 6.568207263946533 L 4.728695392608643 6.615857124328613 L 4.843125343322754 6.616466999053955 C 5.316535472869873 6.616466999053955 5.373775482177734 6.139297008514404 5.407965660095215 5.854197025299072 C 5.432255744934082 5.651707172393799 5.45904541015625 5.360377311706543 5.489855289459229 4.963557243347168 C 5.546875476837158 4.229387283325195 5.61106538772583 3.217787027359009 5.679025650024414 2.146807193756104 C 5.785569190979004 0.4677523970603943 5.945716857910156 -2.056068420410156 6.096583366394043 -3.421163320541382 C 6.098951816558838 -3.412261247634888 6.101185321807861 -3.403853893280029 6.103265285491943 -3.396022796630859 C 6.415365695953369 -2.246392965316772 6.605135440826416 -0.1379628926515579 6.772565364837646 1.722257137298584 C 6.994425296783447 4.187297344207764 7.093895435333252 5.081957340240479 7.33857536315918 5.441717147827148 C 7.451115608215332 5.605067253112793 7.61892557144165 5.69733715057373 7.800685405731201 5.69733715057373 C 8.352065086364746 5.69733715057373 8.415615081787109 5.074986934661865 8.471685409545898 4.525897026062012 C 8.517765045166016 4.074717044830322 8.554045677185059 3.468747138977051 8.592445373535156 2.827187061309814 C 8.630577087402344 2.190330743789673 8.689133644104004 1.212248563766479 8.771230697631836 0.4861013889312744 C 8.873478889465332 0.701660692691803 8.987776756286621 0.9369856715202332 9.109675407409668 1.187957048416138 C 9.620845794677734 2.240387201309204 10.39333534240723 3.830826997756958 10.39333534240723 4.36342716217041 C 10.39333534240723 6.10064697265625 8.928175926208496 7.457537174224854 8.054805755615234 8.111746788024902 C 6.76239538192749 9.07984733581543 5.149025440216064 9.730287551879883 4.040145397186279 9.730287551879883 Z M 0.7388493418693542 -0.445178747177124 L -0.02324694022536278 -0.5329795479774475 C -0.04871081933379173 -0.5717103481292725 -0.06859368830919266 -0.6132857799530029 -0.08238207548856735 -0.6559749245643616 L 0.823375940322876 -0.5514901280403137 C 0.8003626465797424 -0.5130797624588013 0.772013783454895 -0.477087527513504 0.7388493418693542 -0.445178747177124 Z" stroke="none"/>
        <path d="M 2.997480869293213 -0.3283014297485352 C 2.777998924255371 1.062846183776855 2.585954666137695 2.550816535949707 2.439765453338623 3.683516979217529 C 2.361265659332275 4.291717052459717 2.293465614318848 4.816977024078369 2.239335536956787 5.189667224884033 C 2.208585739135742 5.401417255401611 2.184025287628174 5.552176952362061 2.162045478820801 5.664107322692871 C 1.992085456848145 6.529947280883789 1.386385917663574 6.623427391052246 1.133865356445312 6.623427391052246 L 0.9033355712890625 6.623006820678711 L 0.6901655197143555 6.520057201385498 C 0.3962774276733398 6.375277519226074 0.1734037399291992 6.132810592651367 0.0007343292236328125 5.729067802429199 C 0.2340545654296875 6.485722541809082 0.6587238311767578 7.20164680480957 1.250975608825684 7.820547103881836 C 2.083095550537109 8.690107345581055 3.151835441589355 9.230287551879883 4.040145397186279 9.230287551879883 C 5.033665657043457 9.230287551879883 6.561285495758057 8.605767250061035 7.755045413970947 7.711566925048828 C 9.113955497741699 6.693647384643555 9.893325805664062 5.473297119140625 9.893355369567871 4.366086959838867 C 9.882081985473633 4.054911613464355 9.492460250854492 3.162106275558472 9.121243476867676 2.369298458099365 C 9.110198974609375 2.546002864837646 9.100302696228027 2.711315393447876 9.091565132141113 2.857257127761841 C 9.052835464477539 3.504157066345215 9.01624584197998 4.115177154541016 8.96910572052002 4.576766967773438 C 8.91126537322998 5.143126964569092 8.803605079650879 6.19733715057373 7.800685405731201 6.19733715057373 C 7.451995849609375 6.19733715057373 7.134115219116211 6.026237010955811 6.928565502166748 5.727917194366455 L 6.925135612487793 5.722907066345215 C 6.619045257568359 5.272857189178467 6.522725582122803 4.524187088012695 6.274575233459473 1.767077207565308 C 6.261137008666992 1.617763996124268 6.247405529022217 1.465197801589966 6.233365058898926 1.310582637786865 C 6.213682174682617 1.616596221923828 6.19512939453125 1.908944129943848 6.178025245666504 2.178467035293579 C 6.109945297241211 3.251267194747925 6.045645713806152 4.264567375183105 5.98835563659668 5.002266883850098 C 5.956995487213135 5.406116962432861 5.929535865783691 5.704267024993896 5.90440559387207 5.913747310638428 C 5.808675765991211 6.711817264556885 5.451605319976807 7.116466999053955 4.843125343322754 7.116466999053955 L 4.616995334625244 7.115857124328613 L 4.403525352478027 7.015316963195801 C 3.652795314788818 6.650567054748535 3.577925682067871 5.815317153930664 3.299355506896973 2.707627058029175 C 3.216501235961914 1.783304214477539 3.121390342712402 0.7221980094909668 2.997480869293213 -0.3283014297485352 M 3.135635375976562 -4.809693336486816 C 4.305995464324951 -1.544003009796143 4.286585330963135 5.84671688079834 4.840535640716553 6.115857124328613 C 5.039535045623779 6.209603309631348 5.43894100189209 -4.590777397155762 5.838132858276367 -4.591266632080078 C 5.838742256164551 -4.591267585754395 5.839325428009033 -4.591242790222168 5.839935302734375 -4.591193199157715 C 6.24638557434082 -4.591193199157715 6.311835289001465 -4.558242797851562 6.58650541305542 -3.524413108825684 C 7.206425666809082 -1.240952968597412 7.347955703735352 4.566427230834961 7.752015590667725 5.160527229309082 C 8.153120994567871 5.742708206176758 8.028219223022461 -0.7736620903015137 8.636772155761719 -0.7745304107666016 C 8.718986511230469 -0.7746477127075195 8.814468383789062 -0.6558480262756348 8.926565170288086 -0.3845629692077637 C 9.397445678710938 0.7551169395446777 10.89332580566406 3.438086986541748 10.89332580566406 4.36342716217041 C 10.89332580566406 7.603607177734375 6.407685279846191 10.23028755187988 4.040145397186279 10.23028755187988 C 1.672605514526367 10.23028755187988 -1.207524299621582 7.603607177734375 -1.207524299621582 4.36342716217041 C -1.207524299621582 4.360286235809326 0.2987861633300781 -0.1461877822875977 0.3918390274047852 -0.5431742668151855 C 0.3928070068359375 0.6267237663269043 0.4650440216064453 5.29439640045166 1.132085800170898 5.623007297515869 C 1.285123825073242 5.696242809295654 2.14554500579834 -3.884491920471191 3.135635375976562 -4.809693336486816 Z M 0.394291877746582 -0.8076052665710449 C 0.3953952789306641 -0.8075580596923828 0.3964328765869141 -0.7330961227416992 0.3963356018066406 -0.5682330131530762 C 0.3963108062744141 -0.5641684532165527 0.394780158996582 -0.5557222366333008 0.3918390274047852 -0.5431742668151855 C 0.3916997909545898 -0.7116899490356445 0.3930387496948242 -0.8076586723327637 0.394291877746582 -0.8076052665710449 Z" stroke="none" fill="#f0f"/>
      </g>
    </g>
  </g>
</svg>
