<svg xmlns="http://www.w3.org/2000/svg" xmlns:xlink="http://www.w3.org/1999/xlink" width="15.791" height="20.011" viewBox="0 0 15.791 20.011">
  <defs>
    <filter id="Login_Icon" x="0" y="0" width="15.791" height="20.011" filterUnits="userSpaceOnUse">
      <feOffset dy="-3" input="SourceAlpha"/>
      <feGaussianBlur stdDeviation="1" result="blur"/>
      <feFlood flood-opacity="0.78"/>
      <feComposite operator="in" in2="blur"/>
    </filter>
    <filter id="Login_Icon-2" x="0" y="0" width="15.791" height="20.011" filterUnits="userSpaceOnUse">
      <feOffset input="SourceAlpha"/>
      <feGaussianBlur stdDeviation="1" result="blur-2"/>
      <feFlood flood-color="#f0f" result="color"/>
      <feComposite operator="out" in="SourceGraphic" in2="blur-2"/>
      <feComposite operator="in" in="color"/>
      <feComposite operator="in" in2="SourceGraphic"/>
    </filter>
  </defs>
  <g id="Login_Icon-3" data-name="Login Icon" transform="translate(3 6)">
    <g data-type="innerShadowGroup">
      <g transform="matrix(1, 0, 0, 1, -3, -6)" filter="url(#Login_Icon)">
        <g id="Login_Icon-4" data-name="Login Icon" transform="translate(3.62 8.47) rotate(-10)" fill="#fff">
          <path d="M 2.228892803192139 7.812850952148438 C 3.149040460586548 5.985347747802734 3.190539598464966 5.61149787902832 3.207988500595093 5.454240798950195 C 3.246918439865112 5.103390693664551 3.120348453521729 4.879220962524414 3.007308483123779 4.752951145172119 C 2.861963510513306 4.590588569641113 2.660072326660156 4.494311809539795 2.405644416809082 4.465679168701172 L 4.94710111618042 1.861011743545532 C 4.461947441101074 2.907138824462891 4.42960262298584 3.34294056892395 4.472648620605469 3.605230808258057 C 4.540431976318359 4.018262386322021 4.791549682617188 4.308075904846191 5.153292179107666 4.412583827972412 L 2.228892803192139 7.812850952148438 Z" stroke="none"/>
          <path d="M 3.965661287307739 3.582822799682617 L 3.262166023254395 4.303815364837646 C 3.306946277618408 4.342551231384277 3.345989227294922 4.381647109985352 3.379838466644287 4.419460773468018 C 3.596153020858765 4.661091327667236 3.712109804153442 4.975058078765869 3.7148756980896 5.318257331848145 L 4.393109321594238 4.529659271240234 C 4.180803298950195 4.314877033233643 4.03521203994751 4.027215003967285 3.979248523712158 3.686201095581055 C 3.973814964294434 3.653091907501221 3.969186067581177 3.618764400482178 3.965661287307739 3.582822799682617 M 7.263088226318359 -1.22852897644043 C 7.263088226318359 -1.22852897644043 4.812488555908203 2.588521003723145 4.966048240661621 3.524260997772217 C 5.119608402252197 4.460000038146973 6.527658462524414 3.581369876861572 6.527658462524414 3.581370830535889 L -0.4085917472839355 11.64631080627441 C -0.4085917472839355 11.64631080627441 2.605138301849365 6.353661060333252 2.711038589477539 5.399110794067383 C 2.816949367523193 4.444560527801514 0.8622584342956543 5.331501007080078 0.8622584342956543 5.331501007080078 L 7.263088226318359 -1.22852897644043 Z" stroke="none" fill="#f0f"/>
        </g>
      </g>
      <g id="Login_Icon-5" data-name="Login Icon" transform="translate(0.616 2.471) rotate(-10)" fill="#fff">
        <path d="M 2.228892803192139 7.812850952148438 C 3.149040460586548 5.985347747802734 3.190539598464966 5.61149787902832 3.207988500595093 5.454240798950195 C 3.246918439865112 5.103390693664551 3.120348453521729 4.879220962524414 3.007308483123779 4.752951145172119 C 2.861963510513306 4.590588569641113 2.660072326660156 4.494311809539795 2.405644416809082 4.465679168701172 L 4.94710111618042 1.861011743545532 C 4.461947441101074 2.907138824462891 4.42960262298584 3.34294056892395 4.472648620605469 3.605230808258057 C 4.540431976318359 4.018262386322021 4.791549682617188 4.308075904846191 5.153292179107666 4.412583827972412 L 2.228892803192139 7.812850952148438 Z" stroke="none"/>
        <path d="M 3.965661287307739 3.582822799682617 L 3.262166023254395 4.303815364837646 C 3.306946277618408 4.342551231384277 3.345989227294922 4.381647109985352 3.379838466644287 4.419460773468018 C 3.596153020858765 4.661091327667236 3.712109804153442 4.975058078765869 3.7148756980896 5.318257331848145 L 4.393109321594238 4.529659271240234 C 4.180803298950195 4.314877033233643 4.03521203994751 4.027215003967285 3.979248523712158 3.686201095581055 C 3.973814964294434 3.653091907501221 3.969186067581177 3.618764400482178 3.965661287307739 3.582822799682617 M 7.263088226318359 -1.22852897644043 C 7.263088226318359 -1.22852897644043 4.812488555908203 2.588521003723145 4.966048240661621 3.524260997772217 C 5.119608402252197 4.460000038146973 6.527658462524414 3.581369876861572 6.527658462524414 3.581370830535889 L -0.4085917472839355 11.64631080627441 C -0.4085917472839355 11.64631080627441 2.605138301849365 6.353661060333252 2.711038589477539 5.399110794067383 C 2.816949367523193 4.444560527801514 0.8622584342956543 5.331501007080078 0.8622584342956543 5.331501007080078 L 7.263088226318359 -1.22852897644043 Z" stroke="none"/>
      </g>
      <g transform="matrix(1, 0, 0, 1, -3, -6)" filter="url(#Login_Icon-2)">
        <g id="Login_Icon-6" data-name="Login Icon" transform="translate(3.62 8.47) rotate(-10)" fill="#fff">
          <path d="M 2.228892803192139 7.812850952148438 C 3.149040460586548 5.985347747802734 3.190539598464966 5.61149787902832 3.207988500595093 5.454240798950195 C 3.246918439865112 5.103390693664551 3.120348453521729 4.879220962524414 3.007308483123779 4.752951145172119 C 2.861963510513306 4.590588569641113 2.660072326660156 4.494311809539795 2.405644416809082 4.465679168701172 L 4.94710111618042 1.861011743545532 C 4.461947441101074 2.907138824462891 4.42960262298584 3.34294056892395 4.472648620605469 3.605230808258057 C 4.540431976318359 4.018262386322021 4.791549682617188 4.308075904846191 5.153292179107666 4.412583827972412 L 2.228892803192139 7.812850952148438 Z" stroke="none"/>
          <path d="M 3.965661287307739 3.582822799682617 L 3.262166023254395 4.303815364837646 C 3.306946277618408 4.342551231384277 3.345989227294922 4.381647109985352 3.379838466644287 4.419460773468018 C 3.596153020858765 4.661091327667236 3.712109804153442 4.975058078765869 3.7148756980896 5.318257331848145 L 4.393109321594238 4.529659271240234 C 4.180803298950195 4.314877033233643 4.03521203994751 4.027215003967285 3.979248523712158 3.686201095581055 C 3.973814964294434 3.653091907501221 3.969186067581177 3.618764400482178 3.965661287307739 3.582822799682617 M 7.263088226318359 -1.22852897644043 C 7.263088226318359 -1.22852897644043 4.812488555908203 2.588521003723145 4.966048240661621 3.524260997772217 C 5.119608402252197 4.460000038146973 6.527658462524414 3.581369876861572 6.527658462524414 3.581370830535889 L -0.4085917472839355 11.64631080627441 C -0.4085917472839355 11.64631080627441 2.605138301849365 6.353661060333252 2.711038589477539 5.399110794067383 C 2.816949367523193 4.444560527801514 0.8622584342956543 5.331501007080078 0.8622584342956543 5.331501007080078 L 7.263088226318359 -1.22852897644043 Z" stroke="none"/>
        </g>
      </g>
      <g id="Login_Icon-7" data-name="Login Icon" transform="translate(0.616 2.471) rotate(-10)" fill="none">
        <path d="M 2.228892803192139 7.812850952148438 C 3.149040460586548 5.985347747802734 3.190539598464966 5.61149787902832 3.207988500595093 5.454240798950195 C 3.246918439865112 5.103390693664551 3.120348453521729 4.879220962524414 3.007308483123779 4.752951145172119 C 2.861963510513306 4.590588569641113 2.660072326660156 4.494311809539795 2.405644416809082 4.465679168701172 L 4.94710111618042 1.861011743545532 C 4.461947441101074 2.907138824462891 4.42960262298584 3.34294056892395 4.472648620605469 3.605230808258057 C 4.540431976318359 4.018262386322021 4.791549682617188 4.308075904846191 5.153292179107666 4.412583827972412 L 2.228892803192139 7.812850952148438 Z" stroke="none"/>
        <path d="M 3.965661287307739 3.582822799682617 L 3.262166023254395 4.303815364837646 C 3.306946277618408 4.342551231384277 3.345989227294922 4.381647109985352 3.379838466644287 4.419460773468018 C 3.596153020858765 4.661091327667236 3.712109804153442 4.975058078765869 3.7148756980896 5.318257331848145 L 4.393109321594238 4.529659271240234 C 4.180803298950195 4.314877033233643 4.03521203994751 4.027215003967285 3.979248523712158 3.686201095581055 C 3.973814964294434 3.653091907501221 3.969186067581177 3.618764400482178 3.965661287307739 3.582822799682617 M 7.263088226318359 -1.22852897644043 C 7.263088226318359 -1.22852897644043 4.812488555908203 2.588521003723145 4.966048240661621 3.524260997772217 C 5.119608402252197 4.460000038146973 6.527658462524414 3.581369876861572 6.527658462524414 3.581370830535889 L -0.4085917472839355 11.64631080627441 C -0.4085917472839355 11.64631080627441 2.605138301849365 6.353661060333252 2.711038589477539 5.399110794067383 C 2.816949367523193 4.444560527801514 0.8622584342956543 5.331501007080078 0.8622584342956543 5.331501007080078 L 7.263088226318359 -1.22852897644043 Z" stroke="none" fill="#f0f"/>
      </g>
    </g>
  </g>
</svg>
