<svg xmlns="http://www.w3.org/2000/svg" xmlns:xlink="http://www.w3.org/1999/xlink" width="24" height="21" viewBox="0 0 24 21">
  <defs>
    <filter id="BigScreen" x="0" y="0" width="22" height="17" filterUnits="userSpaceOnUse">
      <feOffset dy="-3" input="SourceAlpha"/>
      <feGaussianBlur stdDeviation="1" result="blur"/>
      <feFlood flood-opacity="0.78"/>
      <feComposite operator="in" in2="blur"/>
    </filter>
    <filter id="BigScreen-2" x="0" y="0" width="22" height="17" filterUnits="userSpaceOnUse">
      <feOffset dy="-3" input="SourceAlpha"/>
      <feGaussianBlur stdDeviation="2.5" result="blur-2"/>
      <feFlood flood-color="#ff00f7" flood-opacity="0.161" result="color"/>
      <feComposite operator="out" in="SourceGraphic" in2="blur-2"/>
      <feComposite operator="in" in="color"/>
      <feComposite operator="in" in2="SourceGraphic"/>
    </filter>
    <filter id="LittleScreen" x="7" y="8" width="17" height="13" filterUnits="userSpaceOnUse">
      <feOffset dy="-1" input="SourceAlpha"/>
      <feGaussianBlur stdDeviation="1" result="blur-3"/>
      <feFlood flood-opacity="0.78"/>
      <feComposite operator="in" in2="blur-3"/>
    </filter>
    <filter id="LittleScreen-2" x="7" y="8" width="17" height="13" filterUnits="userSpaceOnUse">
      <feOffset dy="-2" input="SourceAlpha"/>
      <feGaussianBlur stdDeviation="1" result="blur-4"/>
      <feFlood flood-color="#00edff" flood-opacity="0.231" result="color-2"/>
      <feComposite operator="out" in="SourceGraphic" in2="blur-4"/>
      <feComposite operator="in" in="color-2"/>
      <feComposite operator="in" in2="SourceGraphic"/>
    </filter>
  </defs>
  <g id="Pip_Icon" data-name="Pip Icon" transform="translate(3 6)">
    <g data-type="innerShadowGroup">
      <g transform="matrix(1, 0, 0, 1, -3, -6)" filter="url(#BigScreen)">
        <g id="BigScreen-3" data-name="BigScreen" transform="translate(3 6)" fill="#fff" stroke="#f0f" stroke-width="1">
          <rect width="16" height="11" rx="3" stroke="none"/>
          <rect x="0.5" y="0.5" width="15" height="10" rx="2.5" fill="none"/>
        </g>
      </g>
      <rect id="BigScreen-4" data-name="BigScreen" width="16" height="11" rx="3" fill="#fff"/>
      <g transform="matrix(1, 0, 0, 1, -3, -6)" filter="url(#BigScreen-2)">
        <rect id="BigScreen-5" data-name="BigScreen" width="16" height="11" rx="3" transform="translate(3 6)" fill="#fff"/>
      </g>
      <g id="BigScreen-6" data-name="BigScreen" fill="none" stroke="#f0f" stroke-width="1">
        <rect width="16" height="11" rx="3" stroke="none"/>
        <rect x="0.5" y="0.5" width="15" height="10" rx="2.5" fill="none"/>
      </g>
    </g>
    <g data-type="innerShadowGroup">
      <g transform="matrix(1, 0, 0, 1, -3, -6)" filter="url(#LittleScreen)">
        <g id="LittleScreen-3" data-name="LittleScreen" transform="translate(10 12)" fill="#fff" stroke="#00e5ff" stroke-width="1">
          <rect width="11" height="7" rx="2" stroke="none"/>
          <rect x="0.5" y="0.5" width="10" height="6" rx="1.5" fill="none"/>
        </g>
      </g>
      <rect id="LittleScreen-4" data-name="LittleScreen" width="11" height="7" rx="2" transform="translate(7 6)" fill="#fff"/>
      <g transform="matrix(1, 0, 0, 1, -3, -6)" filter="url(#LittleScreen-2)">
        <rect id="LittleScreen-5" data-name="LittleScreen" width="11" height="7" rx="2" transform="translate(10 12)" fill="#fff"/>
      </g>
      <g id="LittleScreen-6" data-name="LittleScreen" transform="translate(7 6)" fill="none" stroke="#00e5ff" stroke-width="1">
        <rect width="11" height="7" rx="2" stroke="none"/>
        <rect x="0.5" y="0.5" width="10" height="6" rx="1.5" fill="none"/>
      </g>
    </g>
    <g id="Arrow" transform="translate(-106 -559)">
      <line id="Arrow_Stalk" data-name="Arrow Stalk" x2="4" y2="4.5" transform="translate(108.5 560.5)" fill="none" stroke="#00e5ff" stroke-width="1"/>
      <path id="Arrow_Left" data-name="Arrow Left" d="M0,3.361V0" transform="translate(112.5 562.131)" fill="none" stroke="#00e5ff" stroke-width="1"/>
      <line id="Arrow_Right" data-name="Arrow Right" x1="2.83" transform="translate(109.67 565)" fill="none" stroke="#00e5ff" stroke-width="1"/>
    </g>
  </g>
</svg>
