<svg xmlns="http://www.w3.org/2000/svg" xmlns:xlink="http://www.w3.org/1999/xlink" width="27.354" height="28.245" viewBox="0 0 27.354 28.245">
  <defs>
    <filter id="Play_Icon" x="4.059" y="0" width="19.237" height="22.694" filterUnits="userSpaceOnUse">
      <feOffset dy="-3" input="SourceAlpha"/>
      <feGaussianBlur stdDeviation="1" result="blur"/>
      <feFlood flood-opacity="0.78"/>
      <feComposite operator="in" in2="blur"/>
    </filter>
    <filter id="Play_Icon-2" x="4.059" y="0" width="19.237" height="22.694" filterUnits="userSpaceOnUse">
      <feOffset input="SourceAlpha"/>
      <feGaussianBlur stdDeviation="1.5" result="blur-2"/>
      <feFlood flood-color="#f0f" result="color"/>
      <feComposite operator="out" in="SourceGraphic" in2="blur-2"/>
      <feComposite operator="in" in="color"/>
      <feComposite operator="in" in2="SourceGraphic"/>
    </filter>
  </defs>
  <g id="Play_Icon-3" data-name="Play Icon" transform="translate(27.354 10.467) rotate(121)">
    <g data-type="innerShadowGroup">
      <g transform="matrix(-0.52, -0.86, 0.86, -0.52, 5.12, 28.84)" filter="url(#Play_Icon)">
        <g id="Play_Icon-4" data-name="Play Icon" transform="translate(20.3 6.23) rotate(91)" fill="#fff">
          <path d="M 12.82866764068604 12.45102691650391 L 3.641848087310791 12.45102691650391 C 3.086088180541992 12.45102691650391 2.594588041305542 12.16020679473877 2.327068090438843 11.67306709289551 C 2.059548139572144 11.18593692779541 2.077867984771729 10.61513710021973 2.376078128814697 10.14615631103516 L 6.969488143920898 2.922416687011719 C 7.246268272399902 2.487156629562378 7.719448089599609 2.227296590805054 8.235258102416992 2.227296590805054 C 8.751068115234375 2.227296590805054 9.224258422851562 2.487156629562378 9.501038551330566 2.922416687011719 L 14.09443855285645 10.14615631103516 C 14.3926477432251 10.61513710021973 14.41096782684326 11.18593692779541 14.14344787597656 11.67306709289551 C 13.87592792510986 12.16020679473877 13.38442802429199 12.45102691650391 12.82866764068604 12.45102691650391 Z" stroke="none"/>
          <path d="M 8.235258102416992 2.727286338806152 C 7.886258125305176 2.727286338806152 7.57868766784668 2.896196365356445 7.39141845703125 3.190706253051758 L 2.798007965087891 10.41444683074951 C 2.511447906494141 10.8651065826416 2.679688453674316 11.27645683288574 2.765328407287598 11.43238639831543 C 2.850968360900879 11.5883264541626 3.10779857635498 11.95102691650391 3.641848564147949 11.95102691650391 L 12.82866859436035 11.95102691650391 C 13.36271858215332 11.95102691650391 13.61954784393311 11.5883264541626 13.70518779754639 11.43238639831543 C 13.79082775115967 11.27645683288574 13.95906829833984 10.8651065826416 13.67250823974609 10.41444683074951 L 9.079118728637695 3.190716743469238 C 8.891838073730469 2.896196365356445 8.584258079528809 2.727286338806152 8.235258102416992 2.727286338806152 M 8.235259056091309 1.727292060852051 C 8.882656097412109 1.727292060852051 9.53005313873291 2.036236763000488 9.922958374023438 2.65412712097168 L 14.51635837554932 9.877866744995117 C 15.36301803588867 11.20934677124023 14.40653800964355 12.95102691650391 12.82866859436035 12.95102691650391 L 3.641848564147949 12.95102691650391 C 2.06397819519043 12.95102691650391 1.107498168945312 11.20934677124023 1.954157829284668 9.877866744995117 L 6.547568321228027 2.65412712097168 C 6.940467834472656 2.036236763000488 7.587862968444824 1.727292060852051 8.235259056091309 1.727292060852051 Z" stroke="none" fill="#f0f"/>
        </g>
      </g>
      <g id="Play_Icon-5" data-name="Play Icon" transform="translate(0 8.235) rotate(-30)" fill="#fff">
        <path d="M 12.82866764068604 12.45102691650391 L 3.641848087310791 12.45102691650391 C 3.086088180541992 12.45102691650391 2.594588041305542 12.16020679473877 2.327068090438843 11.67306709289551 C 2.059548139572144 11.18593692779541 2.077867984771729 10.61513710021973 2.376078128814697 10.14615631103516 L 6.969488143920898 2.922416687011719 C 7.246268272399902 2.487156629562378 7.719448089599609 2.227296590805054 8.235258102416992 2.227296590805054 C 8.751068115234375 2.227296590805054 9.224258422851562 2.487156629562378 9.501038551330566 2.922416687011719 L 14.09443855285645 10.14615631103516 C 14.3926477432251 10.61513710021973 14.41096782684326 11.18593692779541 14.14344787597656 11.67306709289551 C 13.87592792510986 12.16020679473877 13.38442802429199 12.45102691650391 12.82866764068604 12.45102691650391 Z" stroke="none"/>
        <path d="M 8.235258102416992 2.727286338806152 C 7.886258125305176 2.727286338806152 7.57868766784668 2.896196365356445 7.39141845703125 3.190706253051758 L 2.798007965087891 10.41444683074951 C 2.511447906494141 10.8651065826416 2.679688453674316 11.27645683288574 2.765328407287598 11.43238639831543 C 2.850968360900879 11.5883264541626 3.10779857635498 11.95102691650391 3.641848564147949 11.95102691650391 L 12.82866859436035 11.95102691650391 C 13.36271858215332 11.95102691650391 13.61954784393311 11.5883264541626 13.70518779754639 11.43238639831543 C 13.79082775115967 11.27645683288574 13.95906829833984 10.8651065826416 13.67250823974609 10.41444683074951 L 9.079118728637695 3.190716743469238 C 8.891838073730469 2.896196365356445 8.584258079528809 2.727286338806152 8.235258102416992 2.727286338806152 M 8.235259056091309 1.727292060852051 C 8.882656097412109 1.727292060852051 9.53005313873291 2.036236763000488 9.922958374023438 2.65412712097168 L 14.51635837554932 9.877866744995117 C 15.36301803588867 11.20934677124023 14.40653800964355 12.95102691650391 12.82866859436035 12.95102691650391 L 3.641848564147949 12.95102691650391 C 2.06397819519043 12.95102691650391 1.107498168945312 11.20934677124023 1.954157829284668 9.877866744995117 L 6.547568321228027 2.65412712097168 C 6.940467834472656 2.036236763000488 7.587862968444824 1.727292060852051 8.235259056091309 1.727292060852051 Z" stroke="none"/>
      </g>
      <g transform="matrix(-0.52, -0.86, 0.86, -0.52, 5.12, 28.84)" filter="url(#Play_Icon-2)">
        <g id="Play_Icon-6" data-name="Play Icon" transform="translate(20.3 6.23) rotate(91)" fill="#fff">
          <path d="M 12.82866764068604 12.45102691650391 L 3.641848087310791 12.45102691650391 C 3.086088180541992 12.45102691650391 2.594588041305542 12.16020679473877 2.327068090438843 11.67306709289551 C 2.059548139572144 11.18593692779541 2.077867984771729 10.61513710021973 2.376078128814697 10.14615631103516 L 6.969488143920898 2.922416687011719 C 7.246268272399902 2.487156629562378 7.719448089599609 2.227296590805054 8.235258102416992 2.227296590805054 C 8.751068115234375 2.227296590805054 9.224258422851562 2.487156629562378 9.501038551330566 2.922416687011719 L 14.09443855285645 10.14615631103516 C 14.3926477432251 10.61513710021973 14.41096782684326 11.18593692779541 14.14344787597656 11.67306709289551 C 13.87592792510986 12.16020679473877 13.38442802429199 12.45102691650391 12.82866764068604 12.45102691650391 Z" stroke="none"/>
          <path d="M 8.235258102416992 2.727286338806152 C 7.886258125305176 2.727286338806152 7.57868766784668 2.896196365356445 7.39141845703125 3.190706253051758 L 2.798007965087891 10.41444683074951 C 2.511447906494141 10.8651065826416 2.679688453674316 11.27645683288574 2.765328407287598 11.43238639831543 C 2.850968360900879 11.5883264541626 3.10779857635498 11.95102691650391 3.641848564147949 11.95102691650391 L 12.82866859436035 11.95102691650391 C 13.36271858215332 11.95102691650391 13.61954784393311 11.5883264541626 13.70518779754639 11.43238639831543 C 13.79082775115967 11.27645683288574 13.95906829833984 10.8651065826416 13.67250823974609 10.41444683074951 L 9.079118728637695 3.190716743469238 C 8.891838073730469 2.896196365356445 8.584258079528809 2.727286338806152 8.235258102416992 2.727286338806152 M 8.235259056091309 1.727292060852051 C 8.882656097412109 1.727292060852051 9.53005313873291 2.036236763000488 9.922958374023438 2.65412712097168 L 14.51635837554932 9.877866744995117 C 15.36301803588867 11.20934677124023 14.40653800964355 12.95102691650391 12.82866859436035 12.95102691650391 L 3.641848564147949 12.95102691650391 C 2.06397819519043 12.95102691650391 1.107498168945312 11.20934677124023 1.954157829284668 9.877866744995117 L 6.547568321228027 2.65412712097168 C 6.940467834472656 2.036236763000488 7.587862968444824 1.727292060852051 8.235259056091309 1.727292060852051 Z" stroke="none"/>
        </g>
      </g>
      <g id="Play_Icon-7" data-name="Play Icon" transform="translate(0 8.235) rotate(-30)" fill="none">
        <path d="M 12.82866764068604 12.45102691650391 L 3.641848087310791 12.45102691650391 C 3.086088180541992 12.45102691650391 2.594588041305542 12.16020679473877 2.327068090438843 11.67306709289551 C 2.059548139572144 11.18593692779541 2.077867984771729 10.61513710021973 2.376078128814697 10.14615631103516 L 6.969488143920898 2.922416687011719 C 7.246268272399902 2.487156629562378 7.719448089599609 2.227296590805054 8.235258102416992 2.227296590805054 C 8.751068115234375 2.227296590805054 9.224258422851562 2.487156629562378 9.501038551330566 2.922416687011719 L 14.09443855285645 10.14615631103516 C 14.3926477432251 10.61513710021973 14.41096782684326 11.18593692779541 14.14344787597656 11.67306709289551 C 13.87592792510986 12.16020679473877 13.38442802429199 12.45102691650391 12.82866764068604 12.45102691650391 Z" stroke="none"/>
        <path d="M 8.235258102416992 2.727286338806152 C 7.886258125305176 2.727286338806152 7.57868766784668 2.896196365356445 7.39141845703125 3.190706253051758 L 2.798007965087891 10.41444683074951 C 2.511447906494141 10.8651065826416 2.679688453674316 11.27645683288574 2.765328407287598 11.43238639831543 C 2.850968360900879 11.5883264541626 3.10779857635498 11.95102691650391 3.641848564147949 11.95102691650391 L 12.82866859436035 11.95102691650391 C 13.36271858215332 11.95102691650391 13.61954784393311 11.5883264541626 13.70518779754639 11.43238639831543 C 13.79082775115967 11.27645683288574 13.95906829833984 10.8651065826416 13.67250823974609 10.41444683074951 L 9.079118728637695 3.190716743469238 C 8.891838073730469 2.896196365356445 8.584258079528809 2.727286338806152 8.235258102416992 2.727286338806152 M 8.235259056091309 1.727292060852051 C 8.882656097412109 1.727292060852051 9.53005313873291 2.036236763000488 9.922958374023438 2.65412712097168 L 14.51635837554932 9.877866744995117 C 15.36301803588867 11.20934677124023 14.40653800964355 12.95102691650391 12.82866859436035 12.95102691650391 L 3.641848564147949 12.95102691650391 C 2.06397819519043 12.95102691650391 1.107498168945312 11.20934677124023 1.954157829284668 9.877866744995117 L 6.547568321228027 2.65412712097168 C 6.940467834472656 2.036236763000488 7.587862968444824 1.727292060852051 8.235259056091309 1.727292060852051 Z" stroke="none" fill="#f0f"/>
      </g>
    </g>
  </g>
</svg>
