<svg xmlns="http://www.w3.org/2000/svg" xmlns:xlink="http://www.w3.org/1999/xlink" width="15.608" height="18.463" viewBox="0 0 15.608 18.463">
  <defs>
    <filter id="Paper" x="0" y="0.343" width="15" height="18" filterUnits="userSpaceOnUse">
      <feOffset dy="-3" input="SourceAlpha"/>
      <feGaussianBlur stdDeviation="1" result="blur"/>
      <feFlood flood-opacity="0.776"/>
      <feComposite operator="in" in2="blur"/>
    </filter>
    <filter id="Paper-2" x="0" y="0.343" width="15" height="18" filterUnits="userSpaceOnUse">
      <feOffset input="SourceAlpha"/>
      <feGaussianBlur stdDeviation="1" result="blur-2"/>
      <feFlood flood-color="#f0f" result="color"/>
      <feComposite operator="out" in="SourceGraphic" in2="blur-2"/>
      <feComposite operator="in" in="color"/>
      <feComposite operator="in" in2="SourceGraphic"/>
    </filter>
    <filter id="Pencil" x="4.638" y="0" width="10.969" height="18.463" filterUnits="userSpaceOnUse">
      <feOffset dy="-3" input="SourceAlpha"/>
      <feGaussianBlur stdDeviation="1" result="blur-3"/>
      <feFlood flood-opacity="0.78"/>
      <feComposite operator="in" in2="blur-3"/>
    </filter>
    <filter id="Pencil-2" x="4.638" y="0" width="10.969" height="18.463" filterUnits="userSpaceOnUse">
      <feOffset input="SourceAlpha"/>
      <feGaussianBlur stdDeviation="1" result="blur-4"/>
      <feFlood flood-color="#00e5ff" result="color-2"/>
      <feComposite operator="out" in="SourceGraphic" in2="blur-4"/>
      <feComposite operator="in" in="color-2"/>
      <feComposite operator="in" in2="SourceGraphic"/>
    </filter>
  </defs>
  <g id="Make_a_Post_Icon" data-name="Make a Post Icon" transform="translate(3 6.343)">
    <g data-type="innerShadowGroup">
      <g transform="matrix(1, 0, 0, 1, -3, -6.34)" filter="url(#Paper)">
        <g id="Paper-3" data-name="Paper" transform="translate(3 6.34)" fill="#fff" stroke="#f0f" stroke-width="1">
          <rect width="9" height="12" stroke="none"/>
          <rect x="0.5" y="0.5" width="8" height="11" fill="none"/>
        </g>
      </g>
      <rect id="Paper-4" data-name="Paper" width="9" height="12" fill="#fff"/>
      <g transform="matrix(1, 0, 0, 1, -3, -6.34)" filter="url(#Paper-2)">
        <rect id="Paper-5" data-name="Paper" width="9" height="12" transform="translate(3 6.34)" fill="#fff"/>
      </g>
      <g id="Paper-6" data-name="Paper" fill="none" stroke="#f0f" stroke-width="1">
        <rect width="9" height="12" stroke="none"/>
        <rect x="0.5" y="0.5" width="8" height="11" fill="none"/>
      </g>
    </g>
    <g data-type="innerShadowGroup">
      <g transform="matrix(1, 0, 0, 1, -3, -6.34)" filter="url(#Pencil)">
        <path id="Pencil-3" data-name="Pencil" d="M1151.458,623.97l-.312-2.5,1.874-8.033,2.008,1.2-2.008,7.587Z" transform="translate(-1143 -606.66)" fill="#fff" stroke="#00e5ff" stroke-width="1"/>
      </g>
      <path id="Pencil-4" data-name="Pencil" d="M1151.458,623.97l-.312-2.5,1.874-8.033,2.008,1.2-2.008,7.587Z" transform="translate(-1146 -613)" fill="#fff"/>
      <g transform="matrix(1, 0, 0, 1, -3, -6.34)" filter="url(#Pencil-2)">
        <path id="Pencil-5" data-name="Pencil" d="M1151.458,623.97l-.312-2.5,1.874-8.033,2.008,1.2-2.008,7.587Z" transform="translate(-1143 -606.66)" fill="#fff"/>
      </g>
      <path id="Pencil-6" data-name="Pencil" d="M1151.458,623.97l-.312-2.5,1.874-8.033,2.008,1.2-2.008,7.587Z" transform="translate(-1146 -613)" fill="none" stroke="#00e5ff" stroke-width="1"/>
    </g>
  </g>
</svg>
