<svg xmlns="http://www.w3.org/2000/svg" xmlns:xlink="http://www.w3.org/1999/xlink" width="13.516" height="18.991" viewBox="0 0 13.516 18.991">
  <defs>
    <filter id="Head" x="1.516" y="0" width="10" height="10" filterUnits="userSpaceOnUse">
      <feOffset dy="-3" input="SourceAlpha"/>
      <feGaussianBlur stdDeviation="1" result="blur"/>
      <feFlood flood-opacity="0.78"/>
      <feComposite operator="in" in2="blur"/>
    </filter>
    <filter id="Head-2" x="1.516" y="0" width="10" height="10" filterUnits="userSpaceOnUse">
      <feOffset input="SourceAlpha"/>
      <feGaussianBlur stdDeviation="1" result="blur-2"/>
      <feFlood flood-color="#f0f" result="color"/>
      <feComposite operator="out" in="SourceGraphic" in2="blur-2"/>
      <feComposite operator="in" in="color"/>
      <feComposite operator="in" in2="SourceGraphic"/>
    </filter>
    <filter id="Body" x="0" y="7.413" width="13.516" height="11.579" filterUnits="userSpaceOnUse">
      <feOffset input="SourceAlpha"/>
      <feGaussianBlur stdDeviation="1" result="blur-3"/>
      <feFlood flood-opacity="0.78"/>
      <feComposite operator="in" in2="blur-3"/>
    </filter>
    <filter id="Body-2" x="0" y="7.413" width="13.516" height="11.579" filterUnits="userSpaceOnUse">
      <feOffset dy="1" input="SourceAlpha"/>
      <feGaussianBlur stdDeviation="1" result="blur-4"/>
      <feFlood flood-color="#f0f" result="color-2"/>
      <feComposite operator="out" in="SourceGraphic" in2="blur-4"/>
      <feComposite operator="in" in="color-2"/>
      <feComposite operator="in" in2="SourceGraphic"/>
    </filter>
  </defs>
  <g id="Profile_Icon" data-name="Profile Icon" transform="translate(3 6)">
    <g data-type="innerShadowGroup">
      <g transform="matrix(1, 0, 0, 1, -3, -6)" filter="url(#Head)">
        <g id="Head-3" data-name="Head" transform="translate(4.52 6)" fill="#fff" stroke="#f0f" stroke-width="1">
          <circle cx="2" cy="2" r="2" stroke="none"/>
          <circle cx="2" cy="2" r="1.5" fill="none"/>
        </g>
      </g>
      <circle id="Head-4" data-name="Head" cx="2" cy="2" r="2" transform="translate(1.516)" fill="#fff"/>
      <g transform="matrix(1, 0, 0, 1, -3, -6)" filter="url(#Head-2)">
        <circle id="Head-5" data-name="Head" cx="2" cy="2" r="2" transform="translate(4.52 6)" fill="#fff"/>
      </g>
      <g id="Head-6" data-name="Head" transform="translate(1.516)" fill="none" stroke="#f0f" stroke-width="1">
        <circle cx="2" cy="2" r="2" stroke="none"/>
        <circle cx="2" cy="2" r="1.5" fill="none"/>
      </g>
    </g>
    <g data-type="innerShadowGroup">
      <g transform="matrix(1, 0, 0, 1, -3, -6)" filter="url(#Body)">
        <g id="Body-3" data-name="Body" transform="translate(3 10.41)" fill="#fff">
          <path d="M 7.015743732452393 5.078737735748291 L 0.5000035166740417 5.078737735748291 L 0.5000035166740417 3.984807729721069 C 0.5000035166740417 2.063277721405029 1.808223485946655 0.4999976754188538 3.416253566741943 0.4999976754188538 L 4.099493503570557 0.4999976754188538 C 5.707523345947266 0.4999976754188538 7.015743732452393 2.063277721405029 7.015743732452393 3.984807729721069 L 7.015743732452393 5.078737735748291 Z" stroke="none"/>
          <path d="M 3.416253566741943 0.999997615814209 C 2.083933353424072 0.999997615814209 1.000003337860107 2.338977575302124 1.000003337860107 3.984807729721069 L 1.000003337860107 4.578737735748291 L 6.515743255615234 4.578737735748291 L 6.515743255615234 3.984807729721069 C 6.515743255615234 2.338977575302124 5.43181324005127 0.999997615814209 4.099493503570557 0.999997615814209 L 3.416253566741943 0.999997615814209 M 3.416253566741943 -2.384185791015625e-06 L 4.099493503570557 -2.384185791015625e-06 C 5.98624324798584 -2.384185791015625e-06 7.515743732452393 1.7840576171875 7.515743732452393 3.984807729721069 L 7.515743732452393 5.578737735748291 L 3.337860107421875e-06 5.578737735748291 L 3.337860107421875e-06 3.984807729721069 C 3.337860107421875e-06 1.7840576171875 1.529503345489502 -2.384185791015625e-06 3.416253566741943 -2.384185791015625e-06 Z" stroke="none" fill="#f0f"/>
        </g>
      </g>
      <g id="Body-4" data-name="Body" transform="translate(0 4.413)" fill="#fff">
        <path d="M 7.015743732452393 5.078737735748291 L 0.5000035166740417 5.078737735748291 L 0.5000035166740417 3.984807729721069 C 0.5000035166740417 2.063277721405029 1.808223485946655 0.4999976754188538 3.416253566741943 0.4999976754188538 L 4.099493503570557 0.4999976754188538 C 5.707523345947266 0.4999976754188538 7.015743732452393 2.063277721405029 7.015743732452393 3.984807729721069 L 7.015743732452393 5.078737735748291 Z" stroke="none"/>
        <path d="M 3.416253566741943 0.999997615814209 C 2.083933353424072 0.999997615814209 1.000003337860107 2.338977575302124 1.000003337860107 3.984807729721069 L 1.000003337860107 4.578737735748291 L 6.515743255615234 4.578737735748291 L 6.515743255615234 3.984807729721069 C 6.515743255615234 2.338977575302124 5.43181324005127 0.999997615814209 4.099493503570557 0.999997615814209 L 3.416253566741943 0.999997615814209 M 3.416253566741943 -2.384185791015625e-06 L 4.099493503570557 -2.384185791015625e-06 C 5.98624324798584 -2.384185791015625e-06 7.515743732452393 1.7840576171875 7.515743732452393 3.984807729721069 L 7.515743732452393 5.578737735748291 L 3.337860107421875e-06 5.578737735748291 L 3.337860107421875e-06 3.984807729721069 C 3.337860107421875e-06 1.7840576171875 1.529503345489502 -2.384185791015625e-06 3.416253566741943 -2.384185791015625e-06 Z" stroke="none"/>
      </g>
      <g transform="matrix(1, 0, 0, 1, -3, -6)" filter="url(#Body-2)">
        <g id="Body-5" data-name="Body" transform="translate(3 10.41)" fill="#fff">
          <path d="M 7.015743732452393 5.078737735748291 L 0.5000035166740417 5.078737735748291 L 0.5000035166740417 3.984807729721069 C 0.5000035166740417 2.063277721405029 1.808223485946655 0.4999976754188538 3.416253566741943 0.4999976754188538 L 4.099493503570557 0.4999976754188538 C 5.707523345947266 0.4999976754188538 7.015743732452393 2.063277721405029 7.015743732452393 3.984807729721069 L 7.015743732452393 5.078737735748291 Z" stroke="none"/>
          <path d="M 3.416253566741943 0.999997615814209 C 2.083933353424072 0.999997615814209 1.000003337860107 2.338977575302124 1.000003337860107 3.984807729721069 L 1.000003337860107 4.578737735748291 L 6.515743255615234 4.578737735748291 L 6.515743255615234 3.984807729721069 C 6.515743255615234 2.338977575302124 5.43181324005127 0.999997615814209 4.099493503570557 0.999997615814209 L 3.416253566741943 0.999997615814209 M 3.416253566741943 -2.384185791015625e-06 L 4.099493503570557 -2.384185791015625e-06 C 5.98624324798584 -2.384185791015625e-06 7.515743732452393 1.7840576171875 7.515743732452393 3.984807729721069 L 7.515743732452393 5.578737735748291 L 3.337860107421875e-06 5.578737735748291 L 3.337860107421875e-06 3.984807729721069 C 3.337860107421875e-06 1.7840576171875 1.529503345489502 -2.384185791015625e-06 3.416253566741943 -2.384185791015625e-06 Z" stroke="none"/>
        </g>
      </g>
      <g id="Body-6" data-name="Body" transform="translate(0 4.413)" fill="none">
        <path d="M 7.015743732452393 5.078737735748291 L 0.5000035166740417 5.078737735748291 L 0.5000035166740417 3.984807729721069 C 0.5000035166740417 2.063277721405029 1.808223485946655 0.4999976754188538 3.416253566741943 0.4999976754188538 L 4.099493503570557 0.4999976754188538 C 5.707523345947266 0.4999976754188538 7.015743732452393 2.063277721405029 7.015743732452393 3.984807729721069 L 7.015743732452393 5.078737735748291 Z" stroke="none"/>
        <path d="M 3.416253566741943 0.999997615814209 C 2.083933353424072 0.999997615814209 1.000003337860107 2.338977575302124 1.000003337860107 3.984807729721069 L 1.000003337860107 4.578737735748291 L 6.515743255615234 4.578737735748291 L 6.515743255615234 3.984807729721069 C 6.515743255615234 2.338977575302124 5.43181324005127 0.999997615814209 4.099493503570557 0.999997615814209 L 3.416253566741943 0.999997615814209 M 3.416253566741943 -2.384185791015625e-06 L 4.099493503570557 -2.384185791015625e-06 C 5.98624324798584 -2.384185791015625e-06 7.515743732452393 1.7840576171875 7.515743732452393 3.984807729721069 L 7.515743732452393 5.578737735748291 L 3.337860107421875e-06 5.578737735748291 L 3.337860107421875e-06 3.984807729721069 C 3.337860107421875e-06 1.7840576171875 1.529503345489502 -2.384185791015625e-06 3.416253566741943 -2.384185791015625e-06 Z" stroke="none" fill="#f0f"/>
      </g>
    </g>
  </g>
</svg>
