<svg xmlns="http://www.w3.org/2000/svg" xmlns:xlink="http://www.w3.org/1999/xlink" width="16.929" height="13.548" viewBox="0 0 16.929 13.548">
  <defs>
    <filter id="Record" x="0" y="0" width="16.929" height="13.548" filterUnits="userSpaceOnUse">
      <feOffset dy="-3" input="SourceAlpha"/>
      <feGaussianBlur stdDeviation="1" result="blur"/>
      <feFlood flood-opacity="0.776"/>
      <feComposite operator="in" in2="blur"/>
    </filter>
    <filter id="Record-2" x="0" y="0" width="16.929" height="13.548" filterUnits="userSpaceOnUse">
      <feOffset input="SourceAlpha"/>
      <feGaussianBlur stdDeviation="2" result="blur-2"/>
      <feFlood flood-color="#f0f" result="color"/>
      <feComposite operator="out" in="SourceGraphic" in2="blur-2"/>
      <feComposite operator="in" in="color"/>
      <feComposite operator="in" in2="SourceGraphic"/>
    </filter>
  </defs>
  <g id="Record-3" data-name="Record" transform="translate(3 6)">
    <g data-type="innerShadowGroup">
      <g transform="matrix(1, 0, 0, 1, -3, -6)" filter="url(#Record)">
        <g id="Record-4" data-name="Record" transform="translate(3 6)" fill="#fff">
          <path d="M 8.997140884399414 7.047895431518555 L 0.7938611507415771 7.047895431518555 C 0.6740410923957825 7.047895431518555 0.5000011324882507 6.841715335845947 0.5000011324882507 6.518635272979736 L 0.5000011324882507 1.029255390167236 C 0.5000011324882507 0.7061753273010254 0.6740410923957825 0.4999953210353851 0.7938611507415771 0.4999953210353851 L 8.997140884399414 0.4999953210353851 C 9.291010856628418 0.4999953210353851 9.291010856628418 0.5833853483200073 9.291010856628418 0.7495353221893311 L 9.291010856628418 1.570005297660828 L 9.291010856628418 2.640425443649292 L 10.11190128326416 1.953445315361023 L 10.22817420959473 1.85614025592804 L 10.31652736663818 2.376643180847168 L 10.4293212890625 3.272462368011475 L 10.4293212890625 4.251611709594727 L 10.31667995452881 5.042952537536621 L 10.20344161987305 5.771134853363037 L 10.07425117492676 5.68232536315918 L 9.291010856628418 5.143895149230957 L 9.291010856628418 6.09435510635376 L 9.291010856628418 6.750735282897949 C 9.291010856628418 6.952075481414795 9.247040748596191 7.047895431518555 8.997140884399414 7.047895431518555 Z" stroke="none"/>
          <path d="M 1.001190185546875 0.999995231628418 C 1.000435829162598 1.009044647216797 1.000000953674316 1.018794059753418 1.000000953674316 1.029255390167236 L 1.000000953674316 6.518635272979736 C 1.000000953674316 6.529096603393555 1.000435829162598 6.538846015930176 1.001190185546875 6.547895431518555 L 8.791010856628418 6.547895431518555 L 8.791010856628418 4.193435668945312 L 9.830817222595215 4.908227920532227 L 9.9293212890625 4.216207981109619 L 9.9293212890625 3.303878784179688 L 9.867166519165039 2.81024694442749 L 8.791010856628418 3.710845232009888 L 8.791010856628418 0.999995231628418 L 1.001190185546875 0.999995231628418 M 0.7938613891601562 -4.76837158203125e-06 L 8.997140884399414 -4.76837158203125e-06 C 9.435581207275391 -4.76837158203125e-06 9.791010856628418 0.1810951232910156 9.791010856628418 0.7495355606079102 L 9.791010856628418 1.570005416870117 L 10.57534122467041 0.9136252403259277 L 10.81125068664551 2.303415298461914 L 10.9293212890625 3.241135120391846 L 10.9293212890625 4.287015438079834 L 10.81125068664551 5.116495132446289 L 10.57534122467041 6.633525371551514 L 9.791010856628418 6.094355583190918 L 9.791010856628418 6.750735282897949 C 9.791010856628418 7.319175243377686 9.435581207275391 7.547895431518555 8.997140884399414 7.547895431518555 L 0.7938613891601562 7.547895431518555 C 0.3554210662841797 7.547895431518555 9.5367431640625e-07 7.087075233459473 9.5367431640625e-07 6.518635272979736 L 9.5367431640625e-07 1.029255390167236 C 9.5367431640625e-07 0.4608154296875 0.3554210662841797 -4.76837158203125e-06 0.7938613891601562 -4.76837158203125e-06 Z" stroke="none" fill="#f0f"/>
        </g>
      </g>
      <g id="Record-5" data-name="Record" fill="#fff">
        <path d="M 8.997140884399414 7.047895431518555 L 0.7938611507415771 7.047895431518555 C 0.6740410923957825 7.047895431518555 0.5000011324882507 6.841715335845947 0.5000011324882507 6.518635272979736 L 0.5000011324882507 1.029255390167236 C 0.5000011324882507 0.7061753273010254 0.6740410923957825 0.4999953210353851 0.7938611507415771 0.4999953210353851 L 8.997140884399414 0.4999953210353851 C 9.291010856628418 0.4999953210353851 9.291010856628418 0.5833853483200073 9.291010856628418 0.7495353221893311 L 9.291010856628418 1.570005297660828 L 9.291010856628418 2.640425443649292 L 10.11190128326416 1.953445315361023 L 10.22817420959473 1.85614025592804 L 10.31652736663818 2.376643180847168 L 10.4293212890625 3.272462368011475 L 10.4293212890625 4.251611709594727 L 10.31667995452881 5.042952537536621 L 10.20344161987305 5.771134853363037 L 10.07425117492676 5.68232536315918 L 9.291010856628418 5.143895149230957 L 9.291010856628418 6.09435510635376 L 9.291010856628418 6.750735282897949 C 9.291010856628418 6.952075481414795 9.247040748596191 7.047895431518555 8.997140884399414 7.047895431518555 Z" stroke="none"/>
        <path d="M 1.001190185546875 0.999995231628418 C 1.000435829162598 1.009044647216797 1.000000953674316 1.018794059753418 1.000000953674316 1.029255390167236 L 1.000000953674316 6.518635272979736 C 1.000000953674316 6.529096603393555 1.000435829162598 6.538846015930176 1.001190185546875 6.547895431518555 L 8.791010856628418 6.547895431518555 L 8.791010856628418 4.193435668945312 L 9.830817222595215 4.908227920532227 L 9.9293212890625 4.216207981109619 L 9.9293212890625 3.303878784179688 L 9.867166519165039 2.81024694442749 L 8.791010856628418 3.710845232009888 L 8.791010856628418 0.999995231628418 L 1.001190185546875 0.999995231628418 M 0.7938613891601562 -4.76837158203125e-06 L 8.997140884399414 -4.76837158203125e-06 C 9.435581207275391 -4.76837158203125e-06 9.791010856628418 0.1810951232910156 9.791010856628418 0.7495355606079102 L 9.791010856628418 1.570005416870117 L 10.57534122467041 0.9136252403259277 L 10.81125068664551 2.303415298461914 L 10.9293212890625 3.241135120391846 L 10.9293212890625 4.287015438079834 L 10.81125068664551 5.116495132446289 L 10.57534122467041 6.633525371551514 L 9.791010856628418 6.094355583190918 L 9.791010856628418 6.750735282897949 C 9.791010856628418 7.319175243377686 9.435581207275391 7.547895431518555 8.997140884399414 7.547895431518555 L 0.7938613891601562 7.547895431518555 C 0.3554210662841797 7.547895431518555 9.5367431640625e-07 7.087075233459473 9.5367431640625e-07 6.518635272979736 L 9.5367431640625e-07 1.029255390167236 C 9.5367431640625e-07 0.4608154296875 0.3554210662841797 -4.76837158203125e-06 0.7938613891601562 -4.76837158203125e-06 Z" stroke="none"/>
      </g>
      <g transform="matrix(1, 0, 0, 1, -3, -6)" filter="url(#Record-2)">
        <g id="Record-6" data-name="Record" transform="translate(3 6)" fill="#fff">
          <path d="M 8.997140884399414 7.047895431518555 L 0.7938611507415771 7.047895431518555 C 0.6740410923957825 7.047895431518555 0.5000011324882507 6.841715335845947 0.5000011324882507 6.518635272979736 L 0.5000011324882507 1.029255390167236 C 0.5000011324882507 0.7061753273010254 0.6740410923957825 0.4999953210353851 0.7938611507415771 0.4999953210353851 L 8.997140884399414 0.4999953210353851 C 9.291010856628418 0.4999953210353851 9.291010856628418 0.5833853483200073 9.291010856628418 0.7495353221893311 L 9.291010856628418 1.570005297660828 L 9.291010856628418 2.640425443649292 L 10.11190128326416 1.953445315361023 L 10.22817420959473 1.85614025592804 L 10.31652736663818 2.376643180847168 L 10.4293212890625 3.272462368011475 L 10.4293212890625 4.251611709594727 L 10.31667995452881 5.042952537536621 L 10.20344161987305 5.771134853363037 L 10.07425117492676 5.68232536315918 L 9.291010856628418 5.143895149230957 L 9.291010856628418 6.09435510635376 L 9.291010856628418 6.750735282897949 C 9.291010856628418 6.952075481414795 9.247040748596191 7.047895431518555 8.997140884399414 7.047895431518555 Z" stroke="none"/>
          <path d="M 1.001190185546875 0.999995231628418 C 1.000435829162598 1.009044647216797 1.000000953674316 1.018794059753418 1.000000953674316 1.029255390167236 L 1.000000953674316 6.518635272979736 C 1.000000953674316 6.529096603393555 1.000435829162598 6.538846015930176 1.001190185546875 6.547895431518555 L 8.791010856628418 6.547895431518555 L 8.791010856628418 4.193435668945312 L 9.830817222595215 4.908227920532227 L 9.9293212890625 4.216207981109619 L 9.9293212890625 3.303878784179688 L 9.867166519165039 2.81024694442749 L 8.791010856628418 3.710845232009888 L 8.791010856628418 0.999995231628418 L 1.001190185546875 0.999995231628418 M 0.7938613891601562 -4.76837158203125e-06 L 8.997140884399414 -4.76837158203125e-06 C 9.435581207275391 -4.76837158203125e-06 9.791010856628418 0.1810951232910156 9.791010856628418 0.7495355606079102 L 9.791010856628418 1.570005416870117 L 10.57534122467041 0.9136252403259277 L 10.81125068664551 2.303415298461914 L 10.9293212890625 3.241135120391846 L 10.9293212890625 4.287015438079834 L 10.81125068664551 5.116495132446289 L 10.57534122467041 6.633525371551514 L 9.791010856628418 6.094355583190918 L 9.791010856628418 6.750735282897949 C 9.791010856628418 7.319175243377686 9.435581207275391 7.547895431518555 8.997140884399414 7.547895431518555 L 0.7938613891601562 7.547895431518555 C 0.3554210662841797 7.547895431518555 9.5367431640625e-07 7.087075233459473 9.5367431640625e-07 6.518635272979736 L 9.5367431640625e-07 1.029255390167236 C 9.5367431640625e-07 0.4608154296875 0.3554210662841797 -4.76837158203125e-06 0.7938613891601562 -4.76837158203125e-06 Z" stroke="none"/>
        </g>
      </g>
      <g id="Record-7" data-name="Record" fill="none">
        <path d="M 8.997140884399414 7.047895431518555 L 0.7938611507415771 7.047895431518555 C 0.6740410923957825 7.047895431518555 0.5000011324882507 6.841715335845947 0.5000011324882507 6.518635272979736 L 0.5000011324882507 1.029255390167236 C 0.5000011324882507 0.7061753273010254 0.6740410923957825 0.4999953210353851 0.7938611507415771 0.4999953210353851 L 8.997140884399414 0.4999953210353851 C 9.291010856628418 0.4999953210353851 9.291010856628418 0.5833853483200073 9.291010856628418 0.7495353221893311 L 9.291010856628418 1.570005297660828 L 9.291010856628418 2.640425443649292 L 10.11190128326416 1.953445315361023 L 10.22817420959473 1.85614025592804 L 10.31652736663818 2.376643180847168 L 10.4293212890625 3.272462368011475 L 10.4293212890625 4.251611709594727 L 10.31667995452881 5.042952537536621 L 10.20344161987305 5.771134853363037 L 10.07425117492676 5.68232536315918 L 9.291010856628418 5.143895149230957 L 9.291010856628418 6.09435510635376 L 9.291010856628418 6.750735282897949 C 9.291010856628418 6.952075481414795 9.247040748596191 7.047895431518555 8.997140884399414 7.047895431518555 Z" stroke="none"/>
        <path d="M 1.001190185546875 0.999995231628418 C 1.000435829162598 1.009044647216797 1.000000953674316 1.018794059753418 1.000000953674316 1.029255390167236 L 1.000000953674316 6.518635272979736 C 1.000000953674316 6.529096603393555 1.000435829162598 6.538846015930176 1.001190185546875 6.547895431518555 L 8.791010856628418 6.547895431518555 L 8.791010856628418 4.193435668945312 L 9.830817222595215 4.908227920532227 L 9.9293212890625 4.216207981109619 L 9.9293212890625 3.303878784179688 L 9.867166519165039 2.81024694442749 L 8.791010856628418 3.710845232009888 L 8.791010856628418 0.999995231628418 L 1.001190185546875 0.999995231628418 M 0.7938613891601562 -4.76837158203125e-06 L 8.997140884399414 -4.76837158203125e-06 C 9.435581207275391 -4.76837158203125e-06 9.791010856628418 0.1810951232910156 9.791010856628418 0.7495355606079102 L 9.791010856628418 1.570005416870117 L 10.57534122467041 0.9136252403259277 L 10.81125068664551 2.303415298461914 L 10.9293212890625 3.241135120391846 L 10.9293212890625 4.287015438079834 L 10.81125068664551 5.116495132446289 L 10.57534122467041 6.633525371551514 L 9.791010856628418 6.094355583190918 L 9.791010856628418 6.750735282897949 C 9.791010856628418 7.319175243377686 9.435581207275391 7.547895431518555 8.997140884399414 7.547895431518555 L 0.7938613891601562 7.547895431518555 C 0.3554210662841797 7.547895431518555 9.5367431640625e-07 7.087075233459473 9.5367431640625e-07 6.518635272979736 L 9.5367431640625e-07 1.029255390167236 C 9.5367431640625e-07 0.4608154296875 0.3554210662841797 -4.76837158203125e-06 0.7938613891601562 -4.76837158203125e-06 Z" stroke="none" fill="#f0f"/>
      </g>
    </g>
  </g>
</svg>
