<svg xmlns="http://www.w3.org/2000/svg" xmlns:xlink="http://www.w3.org/1999/xlink" width="27" height="20" viewBox="0 0 27 20">
  <defs>
    <filter id="Back" x="2.278" y="2" width="22.722" height="18" filterUnits="userSpaceOnUse">
      <feOffset dy="-3" input="SourceAlpha"/>
      <feGaussianBlur stdDeviation="1" result="blur"/>
      <feFlood flood-opacity="0.776"/>
      <feComposite operator="in" in2="blur"/>
    </filter>
    <filter id="Back-2" x="2.278" y="2" width="22.722" height="18" filterUnits="userSpaceOnUse">
      <feOffset input="SourceAlpha"/>
      <feGaussianBlur stdDeviation="1.5" result="blur-2"/>
      <feFlood flood-color="#f0f" result="color"/>
      <feComposite operator="out" in="SourceGraphic" in2="blur-2"/>
      <feComposite operator="in" in="color"/>
      <feComposite operator="in" in2="SourceGraphic"/>
    </filter>
    <filter id="Roll" x="0" y="0" width="24.938" height="13" filterUnits="userSpaceOnUse">
      <feOffset dy="-3" input="SourceAlpha"/>
      <feGaussianBlur stdDeviation="1" result="blur-3"/>
      <feFlood flood-opacity="0.78"/>
      <feComposite operator="in" in2="blur-3"/>
    </filter>
    <filter id="Roll-2" x="0" y="0" width="24.938" height="13" filterUnits="userSpaceOnUse">
      <feOffset input="SourceAlpha"/>
      <feGaussianBlur stdDeviation="2.5" result="blur-4"/>
      <feFlood flood-color="#f0f" result="color-2"/>
      <feComposite operator="out" in="SourceGraphic" in2="blur-4"/>
      <feComposite operator="in" in="color-2"/>
      <feComposite operator="in" in2="SourceGraphic"/>
    </filter>
    <filter id="Roll_Side" x="15" y="2" width="12" height="13" filterUnits="userSpaceOnUse">
      <feOffset dx="2" dy="-1" input="SourceAlpha"/>
      <feGaussianBlur stdDeviation="1" result="blur-5"/>
      <feFlood flood-opacity="0.776"/>
      <feComposite operator="in" in2="blur-5"/>
    </filter>
    <filter id="Roll_Side-2" x="15" y="2" width="12" height="13" filterUnits="userSpaceOnUse">
      <feOffset input="SourceAlpha"/>
      <feGaussianBlur stdDeviation="1.5" result="blur-6"/>
      <feFlood flood-color="#f0f" result="color-3"/>
      <feComposite operator="out" in="SourceGraphic" in2="blur-6"/>
      <feComposite operator="in" in="color-3"/>
      <feComposite operator="in" in2="SourceGraphic"/>
    </filter>
  </defs>
  <g id="Roll_Icon" data-name="Roll Icon" transform="translate(3 6)">
    <g id="Roll_Side-3" data-name="Roll Side" transform="translate(13)" fill="#fff" stroke="#f0f" stroke-width="1">
      <ellipse cx="3" cy="3.5" rx="3" ry="3.5" stroke="none"/>
      <ellipse cx="3" cy="3.5" rx="2.5" ry="3" fill="none"/>
    </g>
    <g data-type="innerShadowGroup">
      <g transform="matrix(1, 0, 0, 1, -3, -6)" filter="url(#Back)">
        <g id="Back-3" data-name="Back" transform="translate(5.28 8)" fill="#fff">
          <path d="M 16.22155952453613 11.5 L 0.4999988079071045 11.5 L 0.4999988079071045 0.5 L 16.22155952453613 0.5 L 16.22155952453613 11.5 Z" stroke="none"/>
          <path d="M 15.72155857086182 11 L 15.72155857086182 1 L 0.9999988079071045 1 L 0.9999988079071045 11 L 15.72155857086182 11 M 16.72155952453613 12 L -1.191406227007974e-06 12 L -1.191406227007974e-06 -8.881784197001252e-16 L 16.72155952453613 -8.881784197001252e-16 L 16.72155952453613 12 Z" stroke="none" fill="#f0f"/>
        </g>
      </g>
      <g id="Back-4" data-name="Back" transform="translate(2.278 2)" fill="#fff">
        <path d="M 16.22155952453613 11.5 L 0.4999988079071045 11.5 L 0.4999988079071045 0.5 L 16.22155952453613 0.5 L 16.22155952453613 11.5 Z" stroke="none"/>
        <path d="M 15.72155857086182 11 L 15.72155857086182 1 L 0.9999988079071045 1 L 0.9999988079071045 11 L 15.72155857086182 11 M 16.72155952453613 12 L -1.191406227007974e-06 12 L -1.191406227007974e-06 -8.881784197001252e-16 L 16.72155952453613 -8.881784197001252e-16 L 16.72155952453613 12 Z" stroke="none"/>
      </g>
      <g transform="matrix(1, 0, 0, 1, -3, -6)" filter="url(#Back-2)">
        <g id="Back-5" data-name="Back" transform="translate(5.28 8)" fill="#fff">
          <path d="M 16.22155952453613 11.5 L 0.4999988079071045 11.5 L 0.4999988079071045 0.5 L 16.22155952453613 0.5 L 16.22155952453613 11.5 Z" stroke="none"/>
          <path d="M 15.72155857086182 11 L 15.72155857086182 1 L 0.9999988079071045 1 L 0.9999988079071045 11 L 15.72155857086182 11 M 16.72155952453613 12 L -1.191406227007974e-06 12 L -1.191406227007974e-06 -8.881784197001252e-16 L 16.72155952453613 -8.881784197001252e-16 L 16.72155952453613 12 Z" stroke="none"/>
        </g>
      </g>
      <g id="Back-6" data-name="Back" transform="translate(2.278 2)" fill="none">
        <path d="M 16.22155952453613 11.5 L 0.4999988079071045 11.5 L 0.4999988079071045 0.5 L 16.22155952453613 0.5 L 16.22155952453613 11.5 Z" stroke="none"/>
        <path d="M 15.72155857086182 11 L 15.72155857086182 1 L 0.9999988079071045 1 L 0.9999988079071045 11 L 15.72155857086182 11 M 16.72155952453613 12 L -1.191406227007974e-06 12 L -1.191406227007974e-06 -8.881784197001252e-16 L 16.72155952453613 -8.881784197001252e-16 L 16.72155952453613 12 Z" stroke="none" fill="#f0f"/>
      </g>
    </g>
    <g data-type="innerShadowGroup">
      <g transform="matrix(1, 0, 0, 1, -3, -6)" filter="url(#Roll)">
        <g id="Roll-3" data-name="Roll" transform="translate(5.84 6)" fill="#fff">
          <path d="M 13.42154407501221 6.5 L -0.2610541880130768 6.5 L -1.369112133979797 5.986487865447998 L -1.758876442909241 5.525979518890381 L -2.157104015350342 4.74375581741333 L -2.34375 3.843944311141968 L -2.34375 2.945806264877319 L -1.768406510353088 1.595325946807861 L -0.7429566383361816 0.7905300259590149 L -0.2377598583698273 0.5 L 13.46560668945312 0.5 L 14.47804737091064 0.8071128726005554 L 15.11096572875977 1.626072764396667 L 15.47925281524658 2.367376089096069 L 15.58704090118408 3.97896933555603 L 14.8339376449585 5.792562007904053 L 13.42154407501221 6.5 Z" stroke="none"/>
          <path d="M 13.30333805084229 6 L 14.44356060028076 5.428886890411377 L 15.08034229278564 3.895416736602783 L 14.98704147338867 2.500431776046753 L 14.68513679504395 1.892747640609741 L 14.18007183074951 1.239221811294556 L 13.39144325256348 1 L -0.1042297035455704 1 L -0.4625433087348938 1.20606005191803 L -1.358723044395447 1.909401774406433 L -1.84375 3.047885894775391 L -1.84375 3.792628526687622 L -1.681131482124329 4.576604843139648 L -1.339660167694092 5.247344493865967 L -1.058754205703735 5.579236030578613 L -0.1508283913135529 6 L 13.30333805084229 6 M 13.53977012634277 7 L -0.3712800145149231 7 L -1.67946994304657 6.393740177154541 L -2.178080081939697 5.804629802703857 L -2.633080005645752 4.910890102386475 L -2.84375 3.895260095596313 L -2.84375 2.84375 L -2.178080081939697 1.28125 L -1.023360013961792 0.375 L -0.3712800145149231 -4.440892098500626e-16 L 13.53977012634277 -4.440892098500626e-16 L 14.77600955963135 0.375 L 15.53676986694336 1.359380006790161 L 15.97148036956787 2.234380006790161 L 16.09375 4.0625 L 15.22430992126465 6.15625 L 13.53977012634277 7 Z" stroke="none" fill="#f0f"/>
        </g>
      </g>
      <g id="Roll-4" data-name="Roll" transform="translate(2.844)" fill="#fff">
        <path d="M 13.42154407501221 6.5 L -0.2610541880130768 6.5 L -1.369112133979797 5.986487865447998 L -1.758876442909241 5.525979518890381 L -2.157104015350342 4.74375581741333 L -2.34375 3.843944311141968 L -2.34375 2.945806264877319 L -1.768406510353088 1.595325946807861 L -0.7429566383361816 0.7905300259590149 L -0.2377598583698273 0.5 L 13.46560668945312 0.5 L 14.47804737091064 0.8071128726005554 L 15.11096572875977 1.626072764396667 L 15.47925281524658 2.367376089096069 L 15.58704090118408 3.97896933555603 L 14.8339376449585 5.792562007904053 L 13.42154407501221 6.5 Z" stroke="none"/>
        <path d="M 13.30333805084229 6 L 14.44356060028076 5.428886890411377 L 15.08034229278564 3.895416736602783 L 14.98704147338867 2.500431776046753 L 14.68513679504395 1.892747640609741 L 14.18007183074951 1.239221811294556 L 13.39144325256348 1 L -0.1042297035455704 1 L -0.4625433087348938 1.20606005191803 L -1.358723044395447 1.909401774406433 L -1.84375 3.047885894775391 L -1.84375 3.792628526687622 L -1.681131482124329 4.576604843139648 L -1.339660167694092 5.247344493865967 L -1.058754205703735 5.579236030578613 L -0.1508283913135529 6 L 13.30333805084229 6 M 13.53977012634277 7 L -0.3712800145149231 7 L -1.67946994304657 6.393740177154541 L -2.178080081939697 5.804629802703857 L -2.633080005645752 4.910890102386475 L -2.84375 3.895260095596313 L -2.84375 2.84375 L -2.178080081939697 1.28125 L -1.023360013961792 0.375 L -0.3712800145149231 -4.440892098500626e-16 L 13.53977012634277 -4.440892098500626e-16 L 14.77600955963135 0.375 L 15.53676986694336 1.359380006790161 L 15.97148036956787 2.234380006790161 L 16.09375 4.0625 L 15.22430992126465 6.15625 L 13.53977012634277 7 Z" stroke="none"/>
      </g>
      <g transform="matrix(1, 0, 0, 1, -3, -6)" filter="url(#Roll-2)">
        <g id="Roll-5" data-name="Roll" transform="translate(5.84 6)" fill="#fff">
          <path d="M 13.42154407501221 6.5 L -0.2610541880130768 6.5 L -1.369112133979797 5.986487865447998 L -1.758876442909241 5.525979518890381 L -2.157104015350342 4.74375581741333 L -2.34375 3.843944311141968 L -2.34375 2.945806264877319 L -1.768406510353088 1.595325946807861 L -0.7429566383361816 0.7905300259590149 L -0.2377598583698273 0.5 L 13.46560668945312 0.5 L 14.47804737091064 0.8071128726005554 L 15.11096572875977 1.626072764396667 L 15.47925281524658 2.367376089096069 L 15.58704090118408 3.97896933555603 L 14.8339376449585 5.792562007904053 L 13.42154407501221 6.5 Z" stroke="none"/>
          <path d="M 13.30333805084229 6 L 14.44356060028076 5.428886890411377 L 15.08034229278564 3.895416736602783 L 14.98704147338867 2.500431776046753 L 14.68513679504395 1.892747640609741 L 14.18007183074951 1.239221811294556 L 13.39144325256348 1 L -0.1042297035455704 1 L -0.4625433087348938 1.20606005191803 L -1.358723044395447 1.909401774406433 L -1.84375 3.047885894775391 L -1.84375 3.792628526687622 L -1.681131482124329 4.576604843139648 L -1.339660167694092 5.247344493865967 L -1.058754205703735 5.579236030578613 L -0.1508283913135529 6 L 13.30333805084229 6 M 13.53977012634277 7 L -0.3712800145149231 7 L -1.67946994304657 6.393740177154541 L -2.178080081939697 5.804629802703857 L -2.633080005645752 4.910890102386475 L -2.84375 3.895260095596313 L -2.84375 2.84375 L -2.178080081939697 1.28125 L -1.023360013961792 0.375 L -0.3712800145149231 -4.440892098500626e-16 L 13.53977012634277 -4.440892098500626e-16 L 14.77600955963135 0.375 L 15.53676986694336 1.359380006790161 L 15.97148036956787 2.234380006790161 L 16.09375 4.0625 L 15.22430992126465 6.15625 L 13.53977012634277 7 Z" stroke="none"/>
        </g>
      </g>
      <g id="Roll-6" data-name="Roll" transform="translate(2.844)" fill="none">
        <path d="M 13.42154407501221 6.5 L -0.2610541880130768 6.5 L -1.369112133979797 5.986487865447998 L -1.758876442909241 5.525979518890381 L -2.157104015350342 4.74375581741333 L -2.34375 3.843944311141968 L -2.34375 2.945806264877319 L -1.768406510353088 1.595325946807861 L -0.7429566383361816 0.7905300259590149 L -0.2377598583698273 0.5 L 13.46560668945312 0.5 L 14.47804737091064 0.8071128726005554 L 15.11096572875977 1.626072764396667 L 15.47925281524658 2.367376089096069 L 15.58704090118408 3.97896933555603 L 14.8339376449585 5.792562007904053 L 13.42154407501221 6.5 Z" stroke="none"/>
        <path d="M 13.30333805084229 6 L 14.44356060028076 5.428886890411377 L 15.08034229278564 3.895416736602783 L 14.98704147338867 2.500431776046753 L 14.68513679504395 1.892747640609741 L 14.18007183074951 1.239221811294556 L 13.39144325256348 1 L -0.1042297035455704 1 L -0.4625433087348938 1.20606005191803 L -1.358723044395447 1.909401774406433 L -1.84375 3.047885894775391 L -1.84375 3.792628526687622 L -1.681131482124329 4.576604843139648 L -1.339660167694092 5.247344493865967 L -1.058754205703735 5.579236030578613 L -0.1508283913135529 6 L 13.30333805084229 6 M 13.53977012634277 7 L -0.3712800145149231 7 L -1.67946994304657 6.393740177154541 L -2.178080081939697 5.804629802703857 L -2.633080005645752 4.910890102386475 L -2.84375 3.895260095596313 L -2.84375 2.84375 L -2.178080081939697 1.28125 L -1.023360013961792 0.375 L -0.3712800145149231 -4.440892098500626e-16 L 13.53977012634277 -4.440892098500626e-16 L 14.77600955963135 0.375 L 15.53676986694336 1.359380006790161 L 15.97148036956787 2.234380006790161 L 16.09375 4.0625 L 15.22430992126465 6.15625 L 13.53977012634277 7 Z" stroke="none" fill="#f0f"/>
      </g>
    </g>
    <line id="Sentence_5" data-name="Sentence 5" x2="12" transform="translate(4.5 11.5)" fill="none" stroke="#f0f" stroke-width="1"/>
    <path id="Sentence_4" data-name="Sentence 4" d="M.907,0H12.814" transform="translate(3.686 9.8)" fill="none" stroke="#f0f" stroke-width="1"/>
    <line id="Sentence_6" data-name="Sentence 6" x2="12" transform="translate(4.5 8.1)" fill="none" stroke="#f0f" stroke-width="1"/>
    <g data-type="innerShadowGroup">
      <g transform="matrix(1, 0, 0, 1, -3, -6)" filter="url(#Roll_Side)">
        <g id="Roll_Side-4" data-name="Roll Side" transform="translate(16 6)" fill="#fff" stroke="#f0f" stroke-width="1">
          <ellipse cx="3" cy="3.5" rx="3" ry="3.5" stroke="none"/>
          <ellipse cx="3" cy="3.5" rx="2.5" ry="3" fill="none"/>
        </g>
      </g>
      <ellipse id="Roll_Side-5" data-name="Roll Side" cx="3" cy="3.5" rx="3" ry="3.5" transform="translate(13)" fill="#fff"/>
      <g transform="matrix(1, 0, 0, 1, -3, -6)" filter="url(#Roll_Side-2)">
        <ellipse id="Roll_Side-6" data-name="Roll Side" cx="3" cy="3.5" rx="3" ry="3.5" transform="translate(16 6)" fill="#fff"/>
      </g>
      <g id="Roll_Side-7" data-name="Roll Side" transform="translate(13)" fill="none" stroke="#f0f" stroke-width="1">
        <ellipse cx="3" cy="3.5" rx="3" ry="3.5" stroke="none"/>
        <ellipse cx="3" cy="3.5" rx="2.5" ry="3" fill="none"/>
      </g>
    </g>
    <g id="Ellipse_2" data-name="Ellipse 2" transform="translate(15 2)" fill="#fff" stroke="#f0f" stroke-width="1">
      <ellipse cx="1" cy="1.5" rx="1" ry="1.5" stroke="none"/>
      <ellipse cx="1" cy="1.5" rx="0.5" ry="1" fill="none"/>
    </g>
  </g>
</svg>
