<svg xmlns="http://www.w3.org/2000/svg" xmlns:xlink="http://www.w3.org/1999/xlink" width="21.025" height="17" viewBox="0 0 21.025 17">
  <defs>
    <filter id="Paper_Plane_Outline" x="0" y="0" width="21.025" height="17" filterUnits="userSpaceOnUse">
      <feOffset dy="-3" input="SourceAlpha"/>
      <feGaussianBlur stdDeviation="1" result="blur"/>
      <feFlood flood-opacity="0.78"/>
      <feComposite operator="in" in2="blur"/>
    </filter>
    <filter id="Paper_Plane_Outline-2" x="0" y="0" width="21.025" height="17" filterUnits="userSpaceOnUse">
      <feOffset dy="1" input="SourceAlpha"/>
      <feGaussianBlur stdDeviation="0.5" result="blur-2"/>
      <feFlood flood-color="#f0f" result="color"/>
      <feComposite operator="out" in="SourceGraphic" in2="blur-2"/>
      <feComposite operator="in" in="color"/>
      <feComposite operator="in" in2="SourceGraphic"/>
    </filter>
    <filter id="Paper_Plane_Spine">
      <feOffset dy="1" input="SourceAlpha"/>
      <feGaussianBlur stdDeviation="3" result="blur-3"/>
      <feFlood flood-color="#f0f" result="color-2"/>
      <feComposite operator="out" in="SourceGraphic" in2="blur-3"/>
      <feComposite operator="in" in="color-2"/>
      <feComposite operator="in" in2="SourceGraphic"/>
    </filter>
  </defs>
  <g id="Send_Icon" data-name="Send Icon" transform="translate(3 6)">
    <g data-type="innerShadowGroup">
      <g transform="matrix(1, 0, 0, 1, -3, -6)" filter="url(#Paper_Plane_Outline)">
        <g id="Paper_Plane_Outline-3" data-name="Paper Plane Outline" transform="translate(18.03 6) rotate(90)" fill="#fff">
          <path d="M 10.3936595916748 14.52533149719238 C 10.27144241333008 14.5243034362793 10.13605308532715 14.5167350769043 10.0048189163208 14.5093994140625 C 9.884214401245117 14.50265884399414 9.769376754760742 14.49623584747314 9.663397789001465 14.49456787109375 L 5.69999885559082 13.70963954925537 L 5.651888847351074 13.70010948181152 L 5.602858543395996 13.70010948181152 C 5.418988704681396 13.70010948181152 4.97446870803833 13.76531982421875 4.066668510437012 13.90100002288818 C 2.958756685256958 14.06657600402832 1.48089599609375 14.28744220733643 0.6603339910507202 14.32852554321289 L 5.229038715362549 0.6524195671081543 C 5.277498722076416 0.5073495507240295 5.458358764648438 0.4999995827674866 5.494128704071045 0.4999995827674866 C 5.529898643493652 0.4999995827674866 5.710758686065674 0.5073495507240295 5.759218692779541 0.652409553527832 L 10.3936595916748 14.52533149719238 Z" stroke="none"/>
          <path d="M 5.494132041931152 1.436907768249512 L 1.375651359558105 13.76532459259033 C 2.184506416320801 13.67673397064209 3.221625804901123 13.52172660827637 3.992758750915527 13.40647983551025 C 5.036318778991699 13.25051975250244 5.391438484191895 13.20009994506836 5.602858543395996 13.20009994506836 L 5.700928688049316 13.20009994506836 L 9.687540054321289 13.98963260650635 L 5.494132041931152 1.436907768249512 M 5.494128704071045 1.9073486328125e-06 C 5.808786392211914 1.9073486328125e-06 6.123443603515625 0.1646642684936523 6.233458518981934 0.4939899444580078 L 10.98514842987061 14.71787929534912 C 11.13372898101807 15.16261959075928 10.12931823730469 14.99414920806885 9.612268447875977 14.99414920806885 L 5.602858543395996 14.20009994506836 C 5.085809230804443 14.20009994506836 -0.1454734802246094 15.16261959075928 0.003108978271484375 14.71787929534912 L 4.754798889160156 0.4939899444580078 C 4.864813804626465 0.1646642684936523 5.179471015930176 1.9073486328125e-06 5.494128704071045 1.9073486328125e-06 Z" stroke="none" fill="#f0f"/>
        </g>
      </g>
      <g id="Paper_Plane_Outline-4" data-name="Paper Plane Outline" transform="translate(15.025) rotate(90)" fill="#fff">
        <path d="M 10.3936595916748 14.52533149719238 C 10.27144241333008 14.5243034362793 10.13605308532715 14.5167350769043 10.0048189163208 14.5093994140625 C 9.884214401245117 14.50265884399414 9.769376754760742 14.49623584747314 9.663397789001465 14.49456787109375 L 5.69999885559082 13.70963954925537 L 5.651888847351074 13.70010948181152 L 5.602858543395996 13.70010948181152 C 5.418988704681396 13.70010948181152 4.97446870803833 13.76531982421875 4.066668510437012 13.90100002288818 C 2.958756685256958 14.06657600402832 1.48089599609375 14.28744220733643 0.6603339910507202 14.32852554321289 L 5.229038715362549 0.6524195671081543 C 5.277498722076416 0.5073495507240295 5.458358764648438 0.4999995827674866 5.494128704071045 0.4999995827674866 C 5.529898643493652 0.4999995827674866 5.710758686065674 0.5073495507240295 5.759218692779541 0.652409553527832 L 10.3936595916748 14.52533149719238 Z" stroke="none"/>
        <path d="M 5.494132041931152 1.436907768249512 L 1.375651359558105 13.76532459259033 C 2.184506416320801 13.67673397064209 3.221625804901123 13.52172660827637 3.992758750915527 13.40647983551025 C 5.036318778991699 13.25051975250244 5.391438484191895 13.20009994506836 5.602858543395996 13.20009994506836 L 5.700928688049316 13.20009994506836 L 9.687540054321289 13.98963260650635 L 5.494132041931152 1.436907768249512 M 5.494128704071045 1.9073486328125e-06 C 5.808786392211914 1.9073486328125e-06 6.123443603515625 0.1646642684936523 6.233458518981934 0.4939899444580078 L 10.98514842987061 14.71787929534912 C 11.13372898101807 15.16261959075928 10.12931823730469 14.99414920806885 9.612268447875977 14.99414920806885 L 5.602858543395996 14.20009994506836 C 5.085809230804443 14.20009994506836 -0.1454734802246094 15.16261959075928 0.003108978271484375 14.71787929534912 L 4.754798889160156 0.4939899444580078 C 4.864813804626465 0.1646642684936523 5.179471015930176 1.9073486328125e-06 5.494128704071045 1.9073486328125e-06 Z" stroke="none"/>
      </g>
      <g transform="matrix(1, 0, 0, 1, -3, -6)" filter="url(#Paper_Plane_Outline-2)">
        <g id="Paper_Plane_Outline-5" data-name="Paper Plane Outline" transform="translate(18.03 6) rotate(90)" fill="#fff">
          <path d="M 10.3936595916748 14.52533149719238 C 10.27144241333008 14.5243034362793 10.13605308532715 14.5167350769043 10.0048189163208 14.5093994140625 C 9.884214401245117 14.50265884399414 9.769376754760742 14.49623584747314 9.663397789001465 14.49456787109375 L 5.69999885559082 13.70963954925537 L 5.651888847351074 13.70010948181152 L 5.602858543395996 13.70010948181152 C 5.418988704681396 13.70010948181152 4.97446870803833 13.76531982421875 4.066668510437012 13.90100002288818 C 2.958756685256958 14.06657600402832 1.48089599609375 14.28744220733643 0.6603339910507202 14.32852554321289 L 5.229038715362549 0.6524195671081543 C 5.277498722076416 0.5073495507240295 5.458358764648438 0.4999995827674866 5.494128704071045 0.4999995827674866 C 5.529898643493652 0.4999995827674866 5.710758686065674 0.5073495507240295 5.759218692779541 0.652409553527832 L 10.3936595916748 14.52533149719238 Z" stroke="none"/>
          <path d="M 5.494132041931152 1.436907768249512 L 1.375651359558105 13.76532459259033 C 2.184506416320801 13.67673397064209 3.221625804901123 13.52172660827637 3.992758750915527 13.40647983551025 C 5.036318778991699 13.25051975250244 5.391438484191895 13.20009994506836 5.602858543395996 13.20009994506836 L 5.700928688049316 13.20009994506836 L 9.687540054321289 13.98963260650635 L 5.494132041931152 1.436907768249512 M 5.494128704071045 1.9073486328125e-06 C 5.808786392211914 1.9073486328125e-06 6.123443603515625 0.1646642684936523 6.233458518981934 0.4939899444580078 L 10.98514842987061 14.71787929534912 C 11.13372898101807 15.16261959075928 10.12931823730469 14.99414920806885 9.612268447875977 14.99414920806885 L 5.602858543395996 14.20009994506836 C 5.085809230804443 14.20009994506836 -0.1454734802246094 15.16261959075928 0.003108978271484375 14.71787929534912 L 4.754798889160156 0.4939899444580078 C 4.864813804626465 0.1646642684936523 5.179471015930176 1.9073486328125e-06 5.494128704071045 1.9073486328125e-06 Z" stroke="none"/>
        </g>
      </g>
      <g id="Paper_Plane_Outline-6" data-name="Paper Plane Outline" transform="translate(15.025) rotate(90)" fill="none">
        <path d="M 10.3936595916748 14.52533149719238 C 10.27144241333008 14.5243034362793 10.13605308532715 14.5167350769043 10.0048189163208 14.5093994140625 C 9.884214401245117 14.50265884399414 9.769376754760742 14.49623584747314 9.663397789001465 14.49456787109375 L 5.69999885559082 13.70963954925537 L 5.651888847351074 13.70010948181152 L 5.602858543395996 13.70010948181152 C 5.418988704681396 13.70010948181152 4.97446870803833 13.76531982421875 4.066668510437012 13.90100002288818 C 2.958756685256958 14.06657600402832 1.48089599609375 14.28744220733643 0.6603339910507202 14.32852554321289 L 5.229038715362549 0.6524195671081543 C 5.277498722076416 0.5073495507240295 5.458358764648438 0.4999995827674866 5.494128704071045 0.4999995827674866 C 5.529898643493652 0.4999995827674866 5.710758686065674 0.5073495507240295 5.759218692779541 0.652409553527832 L 10.3936595916748 14.52533149719238 Z" stroke="none"/>
        <path d="M 5.494132041931152 1.436907768249512 L 1.375651359558105 13.76532459259033 C 2.184506416320801 13.67673397064209 3.221625804901123 13.52172660827637 3.992758750915527 13.40647983551025 C 5.036318778991699 13.25051975250244 5.391438484191895 13.20009994506836 5.602858543395996 13.20009994506836 L 5.700928688049316 13.20009994506836 L 9.687540054321289 13.98963260650635 L 5.494132041931152 1.436907768249512 M 5.494128704071045 1.9073486328125e-06 C 5.808786392211914 1.9073486328125e-06 6.123443603515625 0.1646642684936523 6.233458518981934 0.4939899444580078 L 10.98514842987061 14.71787929534912 C 11.13372898101807 15.16261959075928 10.12931823730469 14.99414920806885 9.612268447875977 14.99414920806885 L 5.602858543395996 14.20009994506836 C 5.085809230804443 14.20009994506836 -0.1454734802246094 15.16261959075928 0.003108978271484375 14.71787929534912 L 4.754798889160156 0.4939899444580078 C 4.864813804626465 0.1646642684936523 5.179471015930176 1.9073486328125e-06 5.494128704071045 1.9073486328125e-06 Z" stroke="none" fill="#f0f"/>
      </g>
    </g>
    <g data-type="innerShadowGroup">
      <g transform="matrix(1, 0, 0, 1, -3, -6)" filter="url(#Paper_Plane_Spine)">
        <path id="Paper_Plane_Spine-2" data-name="Paper Plane Spine" d="M-1.523.113,11.016,0" transform="translate(6.23 11.5)" fill="#fff"/>
      </g>
      <path id="Paper_Plane_Spine-3" data-name="Paper Plane Spine" d="M-1.523.113,11.016,0" transform="translate(3.229 5.501)" fill="none" stroke="#f0f" stroke-width="1"/>
    </g>
  </g>
</svg>
