<svg xmlns="http://www.w3.org/2000/svg" xmlns:xlink="http://www.w3.org/1999/xlink" width="20.484" height="20.471" viewBox="0 0 20.484 20.471">
  <defs>
    <filter id="Forward_To_Live_Triangle" x="0" y="0" width="16.951" height="20.471" filterUnits="userSpaceOnUse">
      <feOffset dy="-3" input="SourceAlpha"/>
      <feGaussianBlur stdDeviation="1" result="blur"/>
      <feFlood flood-opacity="0.78"/>
      <feComposite operator="in" in2="blur"/>
    </filter>
    <filter id="Forward_To_Live_Triangle-2" x="0" y="0" width="16.951" height="20.471" filterUnits="userSpaceOnUse">
      <feOffset input="SourceAlpha"/>
      <feGaussianBlur stdDeviation="1" result="blur-2"/>
      <feFlood flood-color="#f0f" result="color"/>
      <feComposite operator="out" in="SourceGraphic" in2="blur-2"/>
      <feComposite operator="in" in="color"/>
      <feComposite operator="in" in2="SourceGraphic"/>
    </filter>
    <filter id="Forward_Stop" x="10.484" y="1.349" width="10" height="18" filterUnits="userSpaceOnUse">
      <feOffset dy="-3" input="SourceAlpha"/>
      <feGaussianBlur stdDeviation="1" result="blur-3"/>
      <feFlood flood-opacity="0.78"/>
      <feComposite operator="in" in2="blur-3"/>
    </filter>
    <filter id="Forward_Stop-2" x="10.484" y="1.349" width="10" height="18" filterUnits="userSpaceOnUse">
      <feOffset input="SourceAlpha"/>
      <feGaussianBlur stdDeviation="1" result="blur-4"/>
      <feFlood flood-color="#f0f" result="color-2"/>
      <feComposite operator="out" in="SourceGraphic" in2="blur-4"/>
      <feComposite operator="in" in="color-2"/>
      <feComposite operator="in" in2="SourceGraphic"/>
    </filter>
  </defs>
  <g id="To_Live_Icon" data-name="To Live Icon" transform="translate(3 6)">
    <g data-type="innerShadowGroup">
      <g transform="matrix(1, 0, 0, 1, -3, -6)" filter="url(#Forward_To_Live_Triangle)">
        <g id="Forward_To_Live_Triangle-3" data-name="Forward To Live Triangle" transform="matrix(0, 1, -1, 0, 13.95, 6)" fill="#fff">
          <path d="M 10.75203800201416 10.45102691650391 L 3.718478202819824 10.45102691650391 C 3.15716814994812 10.45102691650391 2.663318157196045 10.15589618682861 2.397438049316406 9.661556243896484 C 2.131548166275024 9.167216300964355 2.157538175582886 8.592486381530762 2.466958045959473 8.124156951904297 L 5.983737945556641 2.801286458969116 C 6.266377925872803 2.373506546020508 6.722537994384766 2.128156423568726 7.235258102416992 2.128156423568726 C 7.747978210449219 2.128156423568726 8.204137802124023 2.373506546020508 8.486778259277344 2.801286458969116 L 12.00355815887451 8.124156951904297 C 12.31297779083252 8.592486381530762 12.33896827697754 9.167216300964355 12.07307815551758 9.661556243896484 C 11.8071985244751 10.15589618682861 11.31334781646729 10.45102691650391 10.75203800201416 10.45102691650391 Z" stroke="none"/>
          <path d="M 7.235258102416992 2.628156661987305 C 6.893438339233398 2.628156661987305 6.589338302612305 2.791726112365723 6.400908470153809 3.076906204223633 L 2.884128570556641 8.399776458740234 C 2.586797714233398 8.849806785583496 2.752668380737305 9.26646614074707 2.837787628173828 9.424716949462891 C 2.922898292541504 9.582956314086914 3.179098129272461 9.951026916503906 3.718478202819824 9.951026916503906 L 10.75203800201416 9.951026916503906 C 11.29141807556152 9.951026916503906 11.54761791229248 9.582956314086914 11.63272857666016 9.424716949462891 C 11.71784782409668 9.26646614074707 11.88371849060059 8.849806785583496 11.58638763427734 8.399776458740234 L 8.069608688354492 3.076916694641113 C 7.88117790222168 2.791726112365723 7.577077865600586 2.628156661987305 7.235258102416992 2.628156661987305 M 7.235258102416992 1.628156661987305 C 7.87194299697876 1.628156661987305 8.508627891540527 1.927326202392578 8.903947830200195 2.525666236877441 L 12.42072868347168 7.848536491394043 C 13.29920768737793 9.178176879882812 12.34567832946777 10.95102691650391 10.75203800201416 10.95102691650391 L 3.718478202819824 10.95102691650391 C 2.124837875366211 10.95102691650391 1.171308517456055 9.178176879882812 2.049788475036621 7.848536491394043 L 5.566568374633789 2.525666236877441 C 5.961888313293457 1.927326202392578 6.598573207855225 1.628156661987305 7.235258102416992 1.628156661987305 Z" stroke="none" fill="#f0f"/>
        </g>
      </g>
      <g id="Forward_To_Live_Triangle-4" data-name="Forward To Live Triangle" transform="matrix(0, 1, -1, 0, 10.951, 0)" fill="#fff">
        <path d="M 10.75203800201416 10.45102691650391 L 3.718478202819824 10.45102691650391 C 3.15716814994812 10.45102691650391 2.663318157196045 10.15589618682861 2.397438049316406 9.661556243896484 C 2.131548166275024 9.167216300964355 2.157538175582886 8.592486381530762 2.466958045959473 8.124156951904297 L 5.983737945556641 2.801286458969116 C 6.266377925872803 2.373506546020508 6.722537994384766 2.128156423568726 7.235258102416992 2.128156423568726 C 7.747978210449219 2.128156423568726 8.204137802124023 2.373506546020508 8.486778259277344 2.801286458969116 L 12.00355815887451 8.124156951904297 C 12.31297779083252 8.592486381530762 12.33896827697754 9.167216300964355 12.07307815551758 9.661556243896484 C 11.8071985244751 10.15589618682861 11.31334781646729 10.45102691650391 10.75203800201416 10.45102691650391 Z" stroke="none"/>
        <path d="M 7.235258102416992 2.628156661987305 C 6.893438339233398 2.628156661987305 6.589338302612305 2.791726112365723 6.400908470153809 3.076906204223633 L 2.884128570556641 8.399776458740234 C 2.586797714233398 8.849806785583496 2.752668380737305 9.26646614074707 2.837787628173828 9.424716949462891 C 2.922898292541504 9.582956314086914 3.179098129272461 9.951026916503906 3.718478202819824 9.951026916503906 L 10.75203800201416 9.951026916503906 C 11.29141807556152 9.951026916503906 11.54761791229248 9.582956314086914 11.63272857666016 9.424716949462891 C 11.71784782409668 9.26646614074707 11.88371849060059 8.849806785583496 11.58638763427734 8.399776458740234 L 8.069608688354492 3.076916694641113 C 7.88117790222168 2.791726112365723 7.577077865600586 2.628156661987305 7.235258102416992 2.628156661987305 M 7.235258102416992 1.628156661987305 C 7.87194299697876 1.628156661987305 8.508627891540527 1.927326202392578 8.903947830200195 2.525666236877441 L 12.42072868347168 7.848536491394043 C 13.29920768737793 9.178176879882812 12.34567832946777 10.95102691650391 10.75203800201416 10.95102691650391 L 3.718478202819824 10.95102691650391 C 2.124837875366211 10.95102691650391 1.171308517456055 9.178176879882812 2.049788475036621 7.848536491394043 L 5.566568374633789 2.525666236877441 C 5.961888313293457 1.927326202392578 6.598573207855225 1.628156661987305 7.235258102416992 1.628156661987305 Z" stroke="none"/>
      </g>
      <g transform="matrix(1, 0, 0, 1, -3, -6)" filter="url(#Forward_To_Live_Triangle-2)">
        <g id="Forward_To_Live_Triangle-5" data-name="Forward To Live Triangle" transform="matrix(0, 1, -1, 0, 13.95, 6)" fill="#fff">
          <path d="M 10.75203800201416 10.45102691650391 L 3.718478202819824 10.45102691650391 C 3.15716814994812 10.45102691650391 2.663318157196045 10.15589618682861 2.397438049316406 9.661556243896484 C 2.131548166275024 9.167216300964355 2.157538175582886 8.592486381530762 2.466958045959473 8.124156951904297 L 5.983737945556641 2.801286458969116 C 6.266377925872803 2.373506546020508 6.722537994384766 2.128156423568726 7.235258102416992 2.128156423568726 C 7.747978210449219 2.128156423568726 8.204137802124023 2.373506546020508 8.486778259277344 2.801286458969116 L 12.00355815887451 8.124156951904297 C 12.31297779083252 8.592486381530762 12.33896827697754 9.167216300964355 12.07307815551758 9.661556243896484 C 11.8071985244751 10.15589618682861 11.31334781646729 10.45102691650391 10.75203800201416 10.45102691650391 Z" stroke="none"/>
          <path d="M 7.235258102416992 2.628156661987305 C 6.893438339233398 2.628156661987305 6.589338302612305 2.791726112365723 6.400908470153809 3.076906204223633 L 2.884128570556641 8.399776458740234 C 2.586797714233398 8.849806785583496 2.752668380737305 9.26646614074707 2.837787628173828 9.424716949462891 C 2.922898292541504 9.582956314086914 3.179098129272461 9.951026916503906 3.718478202819824 9.951026916503906 L 10.75203800201416 9.951026916503906 C 11.29141807556152 9.951026916503906 11.54761791229248 9.582956314086914 11.63272857666016 9.424716949462891 C 11.71784782409668 9.26646614074707 11.88371849060059 8.849806785583496 11.58638763427734 8.399776458740234 L 8.069608688354492 3.076916694641113 C 7.88117790222168 2.791726112365723 7.577077865600586 2.628156661987305 7.235258102416992 2.628156661987305 M 7.235258102416992 1.628156661987305 C 7.87194299697876 1.628156661987305 8.508627891540527 1.927326202392578 8.903947830200195 2.525666236877441 L 12.42072868347168 7.848536491394043 C 13.29920768737793 9.178176879882812 12.34567832946777 10.95102691650391 10.75203800201416 10.95102691650391 L 3.718478202819824 10.95102691650391 C 2.124837875366211 10.95102691650391 1.171308517456055 9.178176879882812 2.049788475036621 7.848536491394043 L 5.566568374633789 2.525666236877441 C 5.961888313293457 1.927326202392578 6.598573207855225 1.628156661987305 7.235258102416992 1.628156661987305 Z" stroke="none"/>
        </g>
      </g>
      <g id="Forward_To_Live_Triangle-6" data-name="Forward To Live Triangle" transform="matrix(0, 1, -1, 0, 10.951, 0)" fill="none">
        <path d="M 10.75203800201416 10.45102691650391 L 3.718478202819824 10.45102691650391 C 3.15716814994812 10.45102691650391 2.663318157196045 10.15589618682861 2.397438049316406 9.661556243896484 C 2.131548166275024 9.167216300964355 2.157538175582886 8.592486381530762 2.466958045959473 8.124156951904297 L 5.983737945556641 2.801286458969116 C 6.266377925872803 2.373506546020508 6.722537994384766 2.128156423568726 7.235258102416992 2.128156423568726 C 7.747978210449219 2.128156423568726 8.204137802124023 2.373506546020508 8.486778259277344 2.801286458969116 L 12.00355815887451 8.124156951904297 C 12.31297779083252 8.592486381530762 12.33896827697754 9.167216300964355 12.07307815551758 9.661556243896484 C 11.8071985244751 10.15589618682861 11.31334781646729 10.45102691650391 10.75203800201416 10.45102691650391 Z" stroke="none"/>
        <path d="M 7.235258102416992 2.628156661987305 C 6.893438339233398 2.628156661987305 6.589338302612305 2.791726112365723 6.400908470153809 3.076906204223633 L 2.884128570556641 8.399776458740234 C 2.586797714233398 8.849806785583496 2.752668380737305 9.26646614074707 2.837787628173828 9.424716949462891 C 2.922898292541504 9.582956314086914 3.179098129272461 9.951026916503906 3.718478202819824 9.951026916503906 L 10.75203800201416 9.951026916503906 C 11.29141807556152 9.951026916503906 11.54761791229248 9.582956314086914 11.63272857666016 9.424716949462891 C 11.71784782409668 9.26646614074707 11.88371849060059 8.849806785583496 11.58638763427734 8.399776458740234 L 8.069608688354492 3.076916694641113 C 7.88117790222168 2.791726112365723 7.577077865600586 2.628156661987305 7.235258102416992 2.628156661987305 M 7.235258102416992 1.628156661987305 C 7.87194299697876 1.628156661987305 8.508627891540527 1.927326202392578 8.903947830200195 2.525666236877441 L 12.42072868347168 7.848536491394043 C 13.29920768737793 9.178176879882812 12.34567832946777 10.95102691650391 10.75203800201416 10.95102691650391 L 3.718478202819824 10.95102691650391 C 2.124837875366211 10.95102691650391 1.171308517456055 9.178176879882812 2.049788475036621 7.848536491394043 L 5.566568374633789 2.525666236877441 C 5.961888313293457 1.927326202392578 6.598573207855225 1.628156661987305 7.235258102416992 1.628156661987305 Z" stroke="none" fill="#f0f"/>
      </g>
    </g>
    <g data-type="innerShadowGroup">
      <g transform="matrix(1, 0, 0, 1, -3, -6)" filter="url(#Forward_Stop)">
        <g id="Forward_Stop-3" data-name="Forward Stop" transform="translate(13.48 7.35)" fill="#fff" stroke="#f0f" stroke-width="1">
          <rect width="4" height="12" rx="2" stroke="none"/>
          <rect x="0.5" y="0.5" width="3" height="11" rx="1.5" fill="none"/>
        </g>
      </g>
      <rect id="Forward_Stop-4" data-name="Forward Stop" width="4" height="12" rx="2" transform="translate(10.484 1.349)" fill="#fff"/>
      <g transform="matrix(1, 0, 0, 1, -3, -6)" filter="url(#Forward_Stop-2)">
        <rect id="Forward_Stop-5" data-name="Forward Stop" width="4" height="12" rx="2" transform="translate(13.48 7.35)" fill="#fff"/>
      </g>
      <g id="Forward_Stop-6" data-name="Forward Stop" transform="translate(10.484 1.349)" fill="none" stroke="#f0f" stroke-width="1">
        <rect width="4" height="12" rx="2" stroke="none"/>
        <rect x="0.5" y="0.5" width="3" height="11" rx="1.5" fill="none"/>
      </g>
    </g>
  </g>
</svg>
