<svg xmlns="http://www.w3.org/2000/svg" xmlns:xlink="http://www.w3.org/1999/xlink" width="16" height="16" viewBox="0 0 16 16">
  <defs>
    <filter id="Path_2" x="0" y="0" width="16" height="16" filterUnits="userSpaceOnUse">
      <feOffset dy="-3" input="SourceAlpha"/>
      <feGaussianBlur stdDeviation="1" result="blur"/>
      <feFlood flood-opacity="0.776"/>
      <feComposite operator="in" in2="blur"/>
    </filter>
    <filter id="Path_2-2" x="0" y="0" width="16" height="16" filterUnits="userSpaceOnUse">
      <feOffset input="SourceAlpha"/>
      <feGaussianBlur stdDeviation="1.5" result="blur-2"/>
      <feFlood flood-color="#f0f" result="color"/>
      <feComposite operator="out" in="SourceGraphic" in2="blur-2"/>
      <feComposite operator="in" in="color"/>
      <feComposite operator="in" in2="SourceGraphic"/>
    </filter>
  </defs>
  <g data-type="innerShadowGroup">
    <g transform="matrix(1, 0, 0, 1, 0, 0)" filter="url(#Path_2)">
      <g id="Path_2-3" data-name="Path 2" transform="translate(3 6)" fill="#fff">
        <path d="M 8 9.5 L 2 9.5 C 1.172899961471558 9.5 0.5 8.827099800109863 0.5 8 L 0.5 2 C 0.5 1.172899961471558 1.172899961471558 0.5 2 0.5 L 8 0.5 C 8.827099800109863 0.5 9.5 1.172899961471558 9.5 2 L 9.5 8 C 9.5 8.827099800109863 8.827099800109863 9.5 8 9.5 Z" stroke="none"/>
        <path d="M 2 1 C 1.448599815368652 1 1 1.448599815368652 1 2 L 1 8 C 1 8.551400184631348 1.448599815368652 9 2 9 L 8 9 C 8.551400184631348 9 9 8.551400184631348 9 8 L 9 2 C 9 1.448599815368652 8.551400184631348 1 8 1 L 2 1 M 2 0 L 8 0 C 9.104570388793945 0 10 0.8954296112060547 10 2 L 10 8 C 10 9.104570388793945 9.104570388793945 10 8 10 L 2 10 C 0.8954296112060547 10 0 9.104570388793945 0 8 L 0 2 C 0 0.8954296112060547 0.8954296112060547 0 2 0 Z" stroke="none" fill="#f0f"/>
      </g>
    </g>
    <g id="Path_2-4" data-name="Path 2" transform="translate(3 6)" fill="#fff">
      <path d="M 8 9.5 L 2 9.5 C 1.172899961471558 9.5 0.5 8.827099800109863 0.5 8 L 0.5 2 C 0.5 1.172899961471558 1.172899961471558 0.5 2 0.5 L 8 0.5 C 8.827099800109863 0.5 9.5 1.172899961471558 9.5 2 L 9.5 8 C 9.5 8.827099800109863 8.827099800109863 9.5 8 9.5 Z" stroke="none"/>
      <path d="M 2 1 C 1.448599815368652 1 1 1.448599815368652 1 2 L 1 8 C 1 8.551400184631348 1.448599815368652 9 2 9 L 8 9 C 8.551400184631348 9 9 8.551400184631348 9 8 L 9 2 C 9 1.448599815368652 8.551400184631348 1 8 1 L 2 1 M 2 0 L 8 0 C 9.104570388793945 0 10 0.8954296112060547 10 2 L 10 8 C 10 9.104570388793945 9.104570388793945 10 8 10 L 2 10 C 0.8954296112060547 10 0 9.104570388793945 0 8 L 0 2 C 0 0.8954296112060547 0.8954296112060547 0 2 0 Z" stroke="none"/>
    </g>
    <g transform="matrix(1, 0, 0, 1, 0, 0)" filter="url(#Path_2-2)">
      <g id="Path_2-5" data-name="Path 2" transform="translate(3 6)" fill="#fff">
        <path d="M 8 9.5 L 2 9.5 C 1.172899961471558 9.5 0.5 8.827099800109863 0.5 8 L 0.5 2 C 0.5 1.172899961471558 1.172899961471558 0.5 2 0.5 L 8 0.5 C 8.827099800109863 0.5 9.5 1.172899961471558 9.5 2 L 9.5 8 C 9.5 8.827099800109863 8.827099800109863 9.5 8 9.5 Z" stroke="none"/>
        <path d="M 2 1 C 1.448599815368652 1 1 1.448599815368652 1 2 L 1 8 C 1 8.551400184631348 1.448599815368652 9 2 9 L 8 9 C 8.551400184631348 9 9 8.551400184631348 9 8 L 9 2 C 9 1.448599815368652 8.551400184631348 1 8 1 L 2 1 M 2 0 L 8 0 C 9.104570388793945 0 10 0.8954296112060547 10 2 L 10 8 C 10 9.104570388793945 9.104570388793945 10 8 10 L 2 10 C 0.8954296112060547 10 0 9.104570388793945 0 8 L 0 2 C 0 0.8954296112060547 0.8954296112060547 0 2 0 Z" stroke="none"/>
      </g>
    </g>
    <g id="Path_2-6" data-name="Path 2" transform="translate(3 6)" fill="none">
      <path d="M 8 9.5 L 2 9.5 C 1.172899961471558 9.5 0.5 8.827099800109863 0.5 8 L 0.5 2 C 0.5 1.172899961471558 1.172899961471558 0.5 2 0.5 L 8 0.5 C 8.827099800109863 0.5 9.5 1.172899961471558 9.5 2 L 9.5 8 C 9.5 8.827099800109863 8.827099800109863 9.5 8 9.5 Z" stroke="none"/>
      <path d="M 2 1 C 1.448599815368652 1 1 1.448599815368652 1 2 L 1 8 C 1 8.551400184631348 1.448599815368652 9 2 9 L 8 9 C 8.551400184631348 9 9 8.551400184631348 9 8 L 9 2 C 9 1.448599815368652 8.551400184631348 1 8 1 L 2 1 M 2 0 L 8 0 C 9.104570388793945 0 10 0.8954296112060547 10 2 L 10 8 C 10 9.104570388793945 9.104570388793945 10 8 10 L 2 10 C 0.8954296112060547 10 0 9.104570388793945 0 8 L 0 2 C 0 0.8954296112060547 0.8954296112060547 0 2 0 Z" stroke="none" fill="#f0f"/>
    </g>
  </g>
</svg>
