<svg xmlns="http://www.w3.org/2000/svg" xmlns:xlink="http://www.w3.org/1999/xlink" width="18.133" height="18.554" viewBox="0 0 18.133 18.554">
  <defs>
    <filter id="Subscribe_Star_Icon" x="0" y="0" width="18.133" height="18.554" filterUnits="userSpaceOnUse">
      <feOffset dy="-3" input="SourceAlpha"/>
      <feGaussianBlur stdDeviation="1" result="blur"/>
      <feFlood flood-opacity="0.78"/>
      <feComposite operator="in" in2="blur"/>
    </filter>
    <filter id="Subscribe_Star_Icon-2" x="0" y="0" width="18.133" height="18.554" filterUnits="userSpaceOnUse">
      <feOffset input="SourceAlpha"/>
      <feGaussianBlur stdDeviation="1" result="blur-2"/>
      <feFlood flood-color="#f0f" result="color"/>
      <feComposite operator="out" in="SourceGraphic" in2="blur-2"/>
      <feComposite operator="in" in="color"/>
      <feComposite operator="in" in2="SourceGraphic"/>
    </filter>
  </defs>
  <g id="Subscribe_Star_Icon-3" data-name="Subscribe Star Icon" transform="translate(4.211 7.373)">
    <g data-type="innerShadowGroup">
      <g transform="matrix(1, 0, 0, 1, -4.21, -7.37)" filter="url(#Subscribe_Star_Icon)">
        <path id="Subscribe_Star_Icon-4" data-name="Subscribe Star Icon" d="M1178.167,602.622l1.454-3.645,1.469,3.594,3.176-.055-2.354,2.824,1.012,3.508-3.158-1.547h0l-3.392,1.512,1.076-3.4-2.651-2.847Z" transform="translate(-1190.78 -549.91) rotate(-2)" fill="#fff" stroke="#f0f" stroke-width="1"/>
      </g>
      <path id="Subscribe_Star_Icon-5" data-name="Subscribe Star Icon" d="M1178.167,602.622l1.454-3.645,1.469,3.594,3.176-.055-2.354,2.824,1.012,3.508-3.158-1.547h0l-3.392,1.512,1.076-3.4-2.651-2.847Z" transform="translate(-1194.987 -557.281) rotate(-2)" fill="#fff"/>
      <g transform="matrix(1, 0, 0, 1, -4.21, -7.37)" filter="url(#Subscribe_Star_Icon-2)">
        <path id="Subscribe_Star_Icon-6" data-name="Subscribe Star Icon" d="M1178.167,602.622l1.454-3.645,1.469,3.594,3.176-.055-2.354,2.824,1.012,3.508-3.158-1.547h0l-3.392,1.512,1.076-3.4-2.651-2.847Z" transform="translate(-1190.78 -549.91) rotate(-2)" fill="#fff"/>
      </g>
      <path id="Subscribe_Star_Icon-7" data-name="Subscribe Star Icon" d="M1178.167,602.622l1.454-3.645,1.469,3.594,3.176-.055-2.354,2.824,1.012,3.508-3.158-1.547h0l-3.392,1.512,1.076-3.4-2.651-2.847Z" transform="translate(-1194.987 -557.281) rotate(-2)" fill="none" stroke="#f0f" stroke-width="1"/>
    </g>
  </g>
</svg>
