<svg xmlns="http://www.w3.org/2000/svg" xmlns:xlink="http://www.w3.org/1999/xlink" width="36.291" height="25.175" viewBox="0 0 36.291 25.175">
  <defs>
    <filter id="Flag" x="13.368" y="0" width="22.923" height="21.813" filterUnits="userSpaceOnUse">
      <feOffset dy="-3" input="SourceAlpha"/>
      <feGaussianBlur stdDeviation="1" result="blur"/>
      <feFlood flood-opacity="0.776"/>
      <feComposite operator="in" in2="blur"/>
    </filter>
    <filter id="Flag-2" x="13.368" y="0" width="22.923" height="21.813" filterUnits="userSpaceOnUse">
      <feOffset input="SourceAlpha"/>
      <feGaussianBlur stdDeviation="2.5" result="blur-2"/>
      <feFlood flood-color="#f0f" result="color"/>
      <feComposite operator="out" in="SourceGraphic" in2="blur-2"/>
      <feComposite operator="in" in="color"/>
      <feComposite operator="in" in2="SourceGraphic"/>
    </filter>
    <filter id="FlagPole" x="8" y="0.858" width="17.448" height="24.317" filterUnits="userSpaceOnUse">
      <feOffset dy="-3" input="SourceAlpha"/>
      <feGaussianBlur stdDeviation="1" result="blur-3"/>
      <feFlood flood-opacity="0.776"/>
      <feComposite operator="in" in2="blur-3"/>
    </filter>
    <filter id="FlagPole-2" x="8" y="0.858" width="17.448" height="24.317" filterUnits="userSpaceOnUse">
      <feOffset input="SourceAlpha"/>
      <feGaussianBlur stdDeviation="1.5" result="blur-4"/>
      <feFlood flood-color="#f0f" result="color-2"/>
      <feComposite operator="out" in="SourceGraphic" in2="blur-4"/>
      <feComposite operator="in" in="color-2"/>
      <feComposite operator="in" in2="SourceGraphic"/>
    </filter>
    <filter id="Flag-3" x="0" y="0" width="22.923" height="21.813" filterUnits="userSpaceOnUse">
      <feOffset dy="-3" input="SourceAlpha"/>
      <feGaussianBlur stdDeviation="1" result="blur-5"/>
      <feFlood flood-opacity="0.776"/>
      <feComposite operator="in" in2="blur-5"/>
    </filter>
    <filter id="Flag-4" x="0" y="0" width="22.923" height="21.813" filterUnits="userSpaceOnUse">
      <feOffset input="SourceAlpha"/>
      <feGaussianBlur stdDeviation="2.5" result="blur-6"/>
      <feFlood flood-color="#f0f" result="color-3"/>
      <feComposite operator="out" in="SourceGraphic" in2="blur-6"/>
      <feComposite operator="in" in="color-3"/>
      <feComposite operator="in" in2="SourceGraphic"/>
    </filter>
    <filter id="FlagPole-3" x="10.843" y="0.858" width="17.448" height="24.317" filterUnits="userSpaceOnUse">
      <feOffset dy="-3" input="SourceAlpha"/>
      <feGaussianBlur stdDeviation="1" result="blur-7"/>
      <feFlood flood-opacity="0.776"/>
      <feComposite operator="in" in2="blur-7"/>
    </filter>
    <filter id="FlagPole-4" x="10.843" y="0.858" width="17.448" height="24.317" filterUnits="userSpaceOnUse">
      <feOffset input="SourceAlpha"/>
      <feGaussianBlur stdDeviation="1.5" result="blur-8"/>
      <feFlood flood-color="#f0f" result="color-4"/>
      <feComposite operator="out" in="SourceGraphic" in2="blur-8"/>
      <feComposite operator="in" in="color-4"/>
      <feComposite operator="in" in2="SourceGraphic"/>
    </filter>
  </defs>
  <g id="Flags" transform="translate(3 6)">
    <g id="Flag-5" data-name="Flag" transform="translate(-7.704 -1.471)">
      <g data-type="innerShadowGroup">
        <g transform="matrix(1, 0, 0, 1, 4.7, -4.53)" filter="url(#Flag)">
          <g id="Flag-6" data-name="Flag" transform="matrix(-0.88, -0.47, 0.47, -0.88, 28.24, 21.81)" fill="#fff">
            <path d="M 1.104312658309937 9.953797340393066 C 0.9882175326347351 9.138723373413086 0.8021917343139648 7.743896961212158 0.6678206920623779 6.305293083190918 C 0.2833571135997772 2.189037561416626 0.6706951260566711 1.525926828384399 0.7323806881904602 1.448578596115112 C 1.430768728256226 0.9292404651641846 1.744979858398438 0.8022151589393616 2.485474586486816 0.507225513458252 C 2.585618019104004 0.5134972929954529 2.685849905014038 0.5170477032661438 2.783720731735229 0.5205128788948059 C 3.196660757064819 0.5351428985595703 3.586700677871704 0.5489628911018372 3.829290628433228 0.7537829279899597 L 4.632370948791504 1.431842923164368 L 4.64551305770874 0.7195745706558228 C 4.841853618621826 0.803974986076355 5.098793029785156 0.9309508800506592 5.32235050201416 1.041432857513428 C 5.899770736694336 1.32679295539856 6.618390560150146 1.681932926177979 7.463790893554688 1.970602869987488 L 7.484590530395508 1.977712869644165 L 7.505950927734375 1.982962846755981 C 8.254731178283691 2.167122840881348 9.074601173400879 2.26049280166626 9.942800521850586 2.260462999343872 C 11.19647979736328 2.260431528091431 12.28913593292236 2.068597793579102 12.94499111175537 1.92077648639679 L 12.94499111175537 8.497768402099609 C 12.49379920959473 8.777570724487305 11.38175487518311 9.390933036804199 10.30460071563721 9.390933036804199 C 10.11486053466797 9.390933036804199 9.93346118927002 9.371342658996582 9.765440940856934 9.332722663879395 C 9.020820617675781 9.161362648010254 8.287651062011719 8.832292556762695 7.578620910644531 8.514062881469727 C 6.620180606842041 8.083892822265625 5.714900493621826 7.677572727203369 4.833140850067139 7.677572727203369 C 4.613720893859863 7.677572727203369 4.41787052154541 7.81453275680542 4.345770835876465 8.018383026123047 C 4.234158992767334 8.333959579467773 4.371630191802979 8.531001091003418 4.9074387550354 8.982369422912598 C 3.160729885101318 9.055679321289062 1.845682978630066 9.574446678161621 1.104312658309937 9.953797340393066 Z" stroke="none"/>
            <path d="M 1.507563233375549 9.220437049865723 C 2.12104606628418 8.96630859375 2.923113107681274 8.711407661437988 3.883356809616089 8.575010299682617 C 3.782425165176392 8.355430603027344 3.776374340057373 8.128777503967285 3.874380826950073 7.851663112640381 C 4.016980648040771 7.44847297668457 4.402280807495117 7.177572727203369 4.833140850067139 7.177572727203369 C 5.821960926055908 7.177572727203369 6.774690628051758 7.605183124542236 7.783360481262207 8.057903289794922 C 8.470370292663574 8.366252899169922 9.180780410766602 8.685102462768555 9.877460479736328 8.845433235168457 C 10.00879096984863 8.875622749328613 10.15251064300537 8.890933036804199 10.30460071563721 8.890933036804199 C 11.06285285949707 8.890933036804199 11.91158962249756 8.513368606567383 12.44499111175537 8.21428394317627 L 12.44499111175537 2.531103610992432 C 11.77881145477295 2.650724649429321 10.90545463562012 2.76043963432312 9.942811012268066 2.760462999343872 C 9.034420967102051 2.760482788085938 8.174370765686035 2.662252902984619 7.38654088973999 2.468492984771729 L 7.343830585479736 2.457992792129517 L 7.302220821380615 2.443782806396484 C 6.440951347351074 2.149697542190552 5.716305255889893 1.793811202049255 5.131106853485107 1.50464940071106 L 5.112880706787109 2.49193286895752 L 3.506720781326294 1.135822892189026 C 3.396230697631836 1.042532920837402 3.04680061340332 1.030152916908264 2.766020774841309 1.020202875137329 C 2.701122045516968 1.017902851104736 2.635229349136353 1.015568256378174 2.568395376205444 1.012445449829102 C 1.961516141891479 1.254834175109863 1.678121447563171 1.378408670425415 1.13200056552887 1.775315523147583 C 1.052449941635132 2.021391868591309 0.8505839705467224 3.034468412399292 1.188510656356812 6.498073101043701 C 1.286723256111145 7.504770755767822 1.407424330711365 8.475560188293457 1.507563233375549 9.220437049865723 M 0.7182506918907166 10.76106262207031 C 0.7182506918907166 10.76106262207031 -0.6791892647743225 1.876642942428589 0.4243807196617126 1.05452287197113 C 1.216740727424622 0.4642429053783417 1.579910755157471 0.3301429152488708 2.407640695571899 2.906341478592367e-06 C 2.982830762863159 0.05154290795326233 3.6711106300354 -0.03415709361433983 4.151850700378418 0.3717429041862488 C 4.165870666503906 -0.3880974054336548 5.545150279998779 0.7871129512786865 7.625360488891602 1.497432947158813 C 10.47638988494873 2.198632717132568 13.44499206542969 1.275953054428101 13.44499111175537 1.275952935218811 L 13.44499111175537 8.768073081970215 C 13.44499015808105 8.768073081970215 11.41215515136719 10.22429847717285 9.653420448303223 9.820013046264648 C 7.861280918121338 9.407583236694336 6.222100734710693 8.177573204040527 4.833140850067139 8.177573204040527 C 4.654730796813965 8.177573204040527 5.969660758972168 9.189812660217285 5.947490692138672 9.189812660217285 C 5.828946113586426 9.177521705627441 5.928270816802979 9.132488250732422 5.92840051651001 9.492672920227051 C 2.722638607025146 9.290705680847168 0.7182507514953613 10.76106357574463 0.7182506918907166 10.76106262207031 Z" stroke="none" fill="#f0f"/>
          </g>
        </g>
        <g id="Flag-7" data-name="Flag" transform="matrix(-0.883, -0.469, 0.469, -0.883, 32.943, 17.284)" fill="#fff">
          <path d="M 1.104312658309937 9.953797340393066 C 0.9882175326347351 9.138723373413086 0.8021917343139648 7.743896961212158 0.6678206920623779 6.305293083190918 C 0.2833571135997772 2.189037561416626 0.6706951260566711 1.525926828384399 0.7323806881904602 1.448578596115112 C 1.430768728256226 0.9292404651641846 1.744979858398438 0.8022151589393616 2.485474586486816 0.507225513458252 C 2.585618019104004 0.5134972929954529 2.685849905014038 0.5170477032661438 2.783720731735229 0.5205128788948059 C 3.196660757064819 0.5351428985595703 3.586700677871704 0.5489628911018372 3.829290628433228 0.7537829279899597 L 4.632370948791504 1.431842923164368 L 4.64551305770874 0.7195745706558228 C 4.841853618621826 0.803974986076355 5.098793029785156 0.9309508800506592 5.32235050201416 1.041432857513428 C 5.899770736694336 1.32679295539856 6.618390560150146 1.681932926177979 7.463790893554688 1.970602869987488 L 7.484590530395508 1.977712869644165 L 7.505950927734375 1.982962846755981 C 8.254731178283691 2.167122840881348 9.074601173400879 2.26049280166626 9.942800521850586 2.260462999343872 C 11.19647979736328 2.260431528091431 12.28913593292236 2.068597793579102 12.94499111175537 1.92077648639679 L 12.94499111175537 8.497768402099609 C 12.49379920959473 8.777570724487305 11.38175487518311 9.390933036804199 10.30460071563721 9.390933036804199 C 10.11486053466797 9.390933036804199 9.93346118927002 9.371342658996582 9.765440940856934 9.332722663879395 C 9.020820617675781 9.161362648010254 8.287651062011719 8.832292556762695 7.578620910644531 8.514062881469727 C 6.620180606842041 8.083892822265625 5.714900493621826 7.677572727203369 4.833140850067139 7.677572727203369 C 4.613720893859863 7.677572727203369 4.41787052154541 7.81453275680542 4.345770835876465 8.018383026123047 C 4.234158992767334 8.333959579467773 4.371630191802979 8.531001091003418 4.9074387550354 8.982369422912598 C 3.160729885101318 9.055679321289062 1.845682978630066 9.574446678161621 1.104312658309937 9.953797340393066 Z" stroke="none"/>
          <path d="M 1.507563233375549 9.220437049865723 C 2.12104606628418 8.96630859375 2.923113107681274 8.711407661437988 3.883356809616089 8.575010299682617 C 3.782425165176392 8.355430603027344 3.776374340057373 8.128777503967285 3.874380826950073 7.851663112640381 C 4.016980648040771 7.44847297668457 4.402280807495117 7.177572727203369 4.833140850067139 7.177572727203369 C 5.821960926055908 7.177572727203369 6.774690628051758 7.605183124542236 7.783360481262207 8.057903289794922 C 8.470370292663574 8.366252899169922 9.180780410766602 8.685102462768555 9.877460479736328 8.845433235168457 C 10.00879096984863 8.875622749328613 10.15251064300537 8.890933036804199 10.30460071563721 8.890933036804199 C 11.06285285949707 8.890933036804199 11.91158962249756 8.513368606567383 12.44499111175537 8.21428394317627 L 12.44499111175537 2.531103610992432 C 11.77881145477295 2.650724649429321 10.90545463562012 2.76043963432312 9.942811012268066 2.760462999343872 C 9.034420967102051 2.760482788085938 8.174370765686035 2.662252902984619 7.38654088973999 2.468492984771729 L 7.343830585479736 2.457992792129517 L 7.302220821380615 2.443782806396484 C 6.440951347351074 2.149697542190552 5.716305255889893 1.793811202049255 5.131106853485107 1.50464940071106 L 5.112880706787109 2.49193286895752 L 3.506720781326294 1.135822892189026 C 3.396230697631836 1.042532920837402 3.04680061340332 1.030152916908264 2.766020774841309 1.020202875137329 C 2.701122045516968 1.017902851104736 2.635229349136353 1.015568256378174 2.568395376205444 1.012445449829102 C 1.961516141891479 1.254834175109863 1.678121447563171 1.378408670425415 1.13200056552887 1.775315523147583 C 1.052449941635132 2.021391868591309 0.8505839705467224 3.034468412399292 1.188510656356812 6.498073101043701 C 1.286723256111145 7.504770755767822 1.407424330711365 8.475560188293457 1.507563233375549 9.220437049865723 M 0.7182506918907166 10.76106262207031 C 0.7182506918907166 10.76106262207031 -0.6791892647743225 1.876642942428589 0.4243807196617126 1.05452287197113 C 1.216740727424622 0.4642429053783417 1.579910755157471 0.3301429152488708 2.407640695571899 2.906341478592367e-06 C 2.982830762863159 0.05154290795326233 3.6711106300354 -0.03415709361433983 4.151850700378418 0.3717429041862488 C 4.165870666503906 -0.3880974054336548 5.545150279998779 0.7871129512786865 7.625360488891602 1.497432947158813 C 10.47638988494873 2.198632717132568 13.44499206542969 1.275953054428101 13.44499111175537 1.275952935218811 L 13.44499111175537 8.768073081970215 C 13.44499015808105 8.768073081970215 11.41215515136719 10.22429847717285 9.653420448303223 9.820013046264648 C 7.861280918121338 9.407583236694336 6.222100734710693 8.177573204040527 4.833140850067139 8.177573204040527 C 4.654730796813965 8.177573204040527 5.969660758972168 9.189812660217285 5.947490692138672 9.189812660217285 C 5.828946113586426 9.177521705627441 5.928270816802979 9.132488250732422 5.92840051651001 9.492672920227051 C 2.722638607025146 9.290705680847168 0.7182507514953613 10.76106357574463 0.7182506918907166 10.76106262207031 Z" stroke="none"/>
        </g>
        <g transform="matrix(1, 0, 0, 1, 4.7, -4.53)" filter="url(#Flag-2)">
          <g id="Flag-8" data-name="Flag" transform="matrix(-0.88, -0.47, 0.47, -0.88, 28.24, 21.81)" fill="#fff">
            <path d="M 1.104312658309937 9.953797340393066 C 0.9882175326347351 9.138723373413086 0.8021917343139648 7.743896961212158 0.6678206920623779 6.305293083190918 C 0.2833571135997772 2.189037561416626 0.6706951260566711 1.525926828384399 0.7323806881904602 1.448578596115112 C 1.430768728256226 0.9292404651641846 1.744979858398438 0.8022151589393616 2.485474586486816 0.507225513458252 C 2.585618019104004 0.5134972929954529 2.685849905014038 0.5170477032661438 2.783720731735229 0.5205128788948059 C 3.196660757064819 0.5351428985595703 3.586700677871704 0.5489628911018372 3.829290628433228 0.7537829279899597 L 4.632370948791504 1.431842923164368 L 4.64551305770874 0.7195745706558228 C 4.841853618621826 0.803974986076355 5.098793029785156 0.9309508800506592 5.32235050201416 1.041432857513428 C 5.899770736694336 1.32679295539856 6.618390560150146 1.681932926177979 7.463790893554688 1.970602869987488 L 7.484590530395508 1.977712869644165 L 7.505950927734375 1.982962846755981 C 8.254731178283691 2.167122840881348 9.074601173400879 2.26049280166626 9.942800521850586 2.260462999343872 C 11.19647979736328 2.260431528091431 12.28913593292236 2.068597793579102 12.94499111175537 1.92077648639679 L 12.94499111175537 8.497768402099609 C 12.49379920959473 8.777570724487305 11.38175487518311 9.390933036804199 10.30460071563721 9.390933036804199 C 10.11486053466797 9.390933036804199 9.93346118927002 9.371342658996582 9.765440940856934 9.332722663879395 C 9.020820617675781 9.161362648010254 8.287651062011719 8.832292556762695 7.578620910644531 8.514062881469727 C 6.620180606842041 8.083892822265625 5.714900493621826 7.677572727203369 4.833140850067139 7.677572727203369 C 4.613720893859863 7.677572727203369 4.41787052154541 7.81453275680542 4.345770835876465 8.018383026123047 C 4.234158992767334 8.333959579467773 4.371630191802979 8.531001091003418 4.9074387550354 8.982369422912598 C 3.160729885101318 9.055679321289062 1.845682978630066 9.574446678161621 1.104312658309937 9.953797340393066 Z" stroke="none"/>
            <path d="M 1.507563233375549 9.220437049865723 C 2.12104606628418 8.96630859375 2.923113107681274 8.711407661437988 3.883356809616089 8.575010299682617 C 3.782425165176392 8.355430603027344 3.776374340057373 8.128777503967285 3.874380826950073 7.851663112640381 C 4.016980648040771 7.44847297668457 4.402280807495117 7.177572727203369 4.833140850067139 7.177572727203369 C 5.821960926055908 7.177572727203369 6.774690628051758 7.605183124542236 7.783360481262207 8.057903289794922 C 8.470370292663574 8.366252899169922 9.180780410766602 8.685102462768555 9.877460479736328 8.845433235168457 C 10.00879096984863 8.875622749328613 10.15251064300537 8.890933036804199 10.30460071563721 8.890933036804199 C 11.06285285949707 8.890933036804199 11.91158962249756 8.513368606567383 12.44499111175537 8.21428394317627 L 12.44499111175537 2.531103610992432 C 11.77881145477295 2.650724649429321 10.90545463562012 2.76043963432312 9.942811012268066 2.760462999343872 C 9.034420967102051 2.760482788085938 8.174370765686035 2.662252902984619 7.38654088973999 2.468492984771729 L 7.343830585479736 2.457992792129517 L 7.302220821380615 2.443782806396484 C 6.440951347351074 2.149697542190552 5.716305255889893 1.793811202049255 5.131106853485107 1.50464940071106 L 5.112880706787109 2.49193286895752 L 3.506720781326294 1.135822892189026 C 3.396230697631836 1.042532920837402 3.04680061340332 1.030152916908264 2.766020774841309 1.020202875137329 C 2.701122045516968 1.017902851104736 2.635229349136353 1.015568256378174 2.568395376205444 1.012445449829102 C 1.961516141891479 1.254834175109863 1.678121447563171 1.378408670425415 1.13200056552887 1.775315523147583 C 1.052449941635132 2.021391868591309 0.8505839705467224 3.034468412399292 1.188510656356812 6.498073101043701 C 1.286723256111145 7.504770755767822 1.407424330711365 8.475560188293457 1.507563233375549 9.220437049865723 M 0.7182506918907166 10.76106262207031 C 0.7182506918907166 10.76106262207031 -0.6791892647743225 1.876642942428589 0.4243807196617126 1.05452287197113 C 1.216740727424622 0.4642429053783417 1.579910755157471 0.3301429152488708 2.407640695571899 2.906341478592367e-06 C 2.982830762863159 0.05154290795326233 3.6711106300354 -0.03415709361433983 4.151850700378418 0.3717429041862488 C 4.165870666503906 -0.3880974054336548 5.545150279998779 0.7871129512786865 7.625360488891602 1.497432947158813 C 10.47638988494873 2.198632717132568 13.44499206542969 1.275953054428101 13.44499111175537 1.275952935218811 L 13.44499111175537 8.768073081970215 C 13.44499015808105 8.768073081970215 11.41215515136719 10.22429847717285 9.653420448303223 9.820013046264648 C 7.861280918121338 9.407583236694336 6.222100734710693 8.177573204040527 4.833140850067139 8.177573204040527 C 4.654730796813965 8.177573204040527 5.969660758972168 9.189812660217285 5.947490692138672 9.189812660217285 C 5.828946113586426 9.177521705627441 5.928270816802979 9.132488250732422 5.92840051651001 9.492672920227051 C 2.722638607025146 9.290705680847168 0.7182507514953613 10.76106357574463 0.7182506918907166 10.76106262207031 Z" stroke="none"/>
          </g>
        </g>
        <g id="Flag-9" data-name="Flag" transform="matrix(-0.883, -0.469, 0.469, -0.883, 32.943, 17.284)" fill="none">
          <path d="M 1.104312658309937 9.953797340393066 C 0.9882175326347351 9.138723373413086 0.8021917343139648 7.743896961212158 0.6678206920623779 6.305293083190918 C 0.2833571135997772 2.189037561416626 0.6706951260566711 1.525926828384399 0.7323806881904602 1.448578596115112 C 1.430768728256226 0.9292404651641846 1.744979858398438 0.8022151589393616 2.485474586486816 0.507225513458252 C 2.585618019104004 0.5134972929954529 2.685849905014038 0.5170477032661438 2.783720731735229 0.5205128788948059 C 3.196660757064819 0.5351428985595703 3.586700677871704 0.5489628911018372 3.829290628433228 0.7537829279899597 L 4.632370948791504 1.431842923164368 L 4.64551305770874 0.7195745706558228 C 4.841853618621826 0.803974986076355 5.098793029785156 0.9309508800506592 5.32235050201416 1.041432857513428 C 5.899770736694336 1.32679295539856 6.618390560150146 1.681932926177979 7.463790893554688 1.970602869987488 L 7.484590530395508 1.977712869644165 L 7.505950927734375 1.982962846755981 C 8.254731178283691 2.167122840881348 9.074601173400879 2.26049280166626 9.942800521850586 2.260462999343872 C 11.19647979736328 2.260431528091431 12.28913593292236 2.068597793579102 12.94499111175537 1.92077648639679 L 12.94499111175537 8.497768402099609 C 12.49379920959473 8.777570724487305 11.38175487518311 9.390933036804199 10.30460071563721 9.390933036804199 C 10.11486053466797 9.390933036804199 9.93346118927002 9.371342658996582 9.765440940856934 9.332722663879395 C 9.020820617675781 9.161362648010254 8.287651062011719 8.832292556762695 7.578620910644531 8.514062881469727 C 6.620180606842041 8.083892822265625 5.714900493621826 7.677572727203369 4.833140850067139 7.677572727203369 C 4.613720893859863 7.677572727203369 4.41787052154541 7.81453275680542 4.345770835876465 8.018383026123047 C 4.234158992767334 8.333959579467773 4.371630191802979 8.531001091003418 4.9074387550354 8.982369422912598 C 3.160729885101318 9.055679321289062 1.845682978630066 9.574446678161621 1.104312658309937 9.953797340393066 Z" stroke="none"/>
          <path d="M 1.507563233375549 9.220437049865723 C 2.12104606628418 8.96630859375 2.923113107681274 8.711407661437988 3.883356809616089 8.575010299682617 C 3.782425165176392 8.355430603027344 3.776374340057373 8.128777503967285 3.874380826950073 7.851663112640381 C 4.016980648040771 7.44847297668457 4.402280807495117 7.177572727203369 4.833140850067139 7.177572727203369 C 5.821960926055908 7.177572727203369 6.774690628051758 7.605183124542236 7.783360481262207 8.057903289794922 C 8.470370292663574 8.366252899169922 9.180780410766602 8.685102462768555 9.877460479736328 8.845433235168457 C 10.00879096984863 8.875622749328613 10.15251064300537 8.890933036804199 10.30460071563721 8.890933036804199 C 11.06285285949707 8.890933036804199 11.91158962249756 8.513368606567383 12.44499111175537 8.21428394317627 L 12.44499111175537 2.531103610992432 C 11.77881145477295 2.650724649429321 10.90545463562012 2.76043963432312 9.942811012268066 2.760462999343872 C 9.034420967102051 2.760482788085938 8.174370765686035 2.662252902984619 7.38654088973999 2.468492984771729 L 7.343830585479736 2.457992792129517 L 7.302220821380615 2.443782806396484 C 6.440951347351074 2.149697542190552 5.716305255889893 1.793811202049255 5.131106853485107 1.50464940071106 L 5.112880706787109 2.49193286895752 L 3.506720781326294 1.135822892189026 C 3.396230697631836 1.042532920837402 3.04680061340332 1.030152916908264 2.766020774841309 1.020202875137329 C 2.701122045516968 1.017902851104736 2.635229349136353 1.015568256378174 2.568395376205444 1.012445449829102 C 1.961516141891479 1.254834175109863 1.678121447563171 1.378408670425415 1.13200056552887 1.775315523147583 C 1.052449941635132 2.021391868591309 0.8505839705467224 3.034468412399292 1.188510656356812 6.498073101043701 C 1.286723256111145 7.504770755767822 1.407424330711365 8.475560188293457 1.507563233375549 9.220437049865723 M 0.7182506918907166 10.76106262207031 C 0.7182506918907166 10.76106262207031 -0.6791892647743225 1.876642942428589 0.4243807196617126 1.05452287197113 C 1.216740727424622 0.4642429053783417 1.579910755157471 0.3301429152488708 2.407640695571899 2.906341478592367e-06 C 2.982830762863159 0.05154290795326233 3.6711106300354 -0.03415709361433983 4.151850700378418 0.3717429041862488 C 4.165870666503906 -0.3880974054336548 5.545150279998779 0.7871129512786865 7.625360488891602 1.497432947158813 C 10.47638988494873 2.198632717132568 13.44499206542969 1.275953054428101 13.44499111175537 1.275952935218811 L 13.44499111175537 8.768073081970215 C 13.44499015808105 8.768073081970215 11.41215515136719 10.22429847717285 9.653420448303223 9.820013046264648 C 7.861280918121338 9.407583236694336 6.222100734710693 8.177573204040527 4.833140850067139 8.177573204040527 C 4.654730796813965 8.177573204040527 5.969660758972168 9.189812660217285 5.947490692138672 9.189812660217285 C 5.828946113586426 9.177521705627441 5.928270816802979 9.132488250732422 5.92840051651001 9.492672920227051 C 2.722638607025146 9.290705680847168 0.7182507514953613 10.76106357574463 0.7182506918907166 10.76106262207031 Z" stroke="none" fill="#f0f"/>
        </g>
      </g>
      <g data-type="innerShadowGroup">
        <g transform="matrix(1, 0, 0, 1, 4.7, -4.53)" filter="url(#FlagPole)">
          <g id="FlagPole-5" data-name="FlagPole" transform="matrix(-0.88, -0.47, 0.47, -0.88, 12.7, 24.74)" fill="#fff">
            <path d="M -0.1191558986902237 18.7487735748291 C -0.1858658939599991 18.7487735748291 -0.2279058992862701 18.71982192993164 -0.2514159083366394 18.69553184509277 C -0.2772158980369568 18.66888236999512 -0.3074358999729156 18.62079238891602 -0.304905891418457 18.54303169250488 L 0.2729941010475159 0.7509726285934448 C 0.2778340876102448 0.6016826629638672 0.4075841009616852 0.4663326442241669 0.5506440997123718 0.4613126516342163 L 1.199064135551453 0.4385626316070557 L 1.20738410949707 0.4384226500988007 C 1.274074077606201 0.4384226500988007 1.316104054450989 0.4673726558685303 1.339614152908325 0.4916626513004303 C 1.365414142608643 0.5183126330375671 1.395644068717957 0.5664026141166687 1.39311408996582 0.6441526412963867 L 0.8152140974998474 18.43622207641602 C 0.8103740811347961 18.58550262451172 0.6806241273880005 18.72085189819336 0.5375640988349915 18.72587203979492 L -0.1108658984303474 18.74863243103027 L -0.1191558986902237 18.7487735748291 Z" stroke="none"/>
            <path d="M 0.8829236030578613 0.9499607086181641 L 0.7666549682617188 0.9540424346923828 L 0.2052842974662781 18.23722457885742 L 0.3215526938438416 18.2331428527832 L 0.8829236030578613 0.9499607086181641 M 1.207361578941345 -0.06159210205078125 C 1.601234197616577 -0.06159210205078125 1.905969381332397 0.25640869140625 1.892853975296021 0.6603717803955078 L 1.314954042434692 18.45244216918945 C 1.301553964614868 18.86517333984375 0.9613540172576904 19.21131324768066 0.5550940036773682 19.22556304931641 L -0.09332597255706787 19.24832344055176 C -0.4995843172073364 19.2625732421875 -0.8180460929870605 18.93954277038574 -0.8046460151672363 18.52681350708008 L -0.2267459630966187 0.7347335815429688 C -0.213346004486084 0.3220119476318359 0.1268540024757385 -0.02412796020507812 0.533113956451416 -0.03837776184082031 L 1.181533932685852 -0.06113815307617188 C 1.190163016319275 -0.06143951416015625 1.198814034461975 -0.06159210205078125 1.207361578941345 -0.06159210205078125 Z" stroke="none" fill="#f0f"/>
          </g>
        </g>
        <g id="FlagPole-6" data-name="FlagPole" transform="matrix(-0.883, -0.469, 0.469, -0.883, 17.404, 20.213)" fill="#fff">
          <path d="M -0.1191558986902237 18.7487735748291 C -0.1858658939599991 18.7487735748291 -0.2279058992862701 18.71982192993164 -0.2514159083366394 18.69553184509277 C -0.2772158980369568 18.66888236999512 -0.3074358999729156 18.62079238891602 -0.304905891418457 18.54303169250488 L 0.2729941010475159 0.7509726285934448 C 0.2778340876102448 0.6016826629638672 0.4075841009616852 0.4663326442241669 0.5506440997123718 0.4613126516342163 L 1.199064135551453 0.4385626316070557 L 1.20738410949707 0.4384226500988007 C 1.274074077606201 0.4384226500988007 1.316104054450989 0.4673726558685303 1.339614152908325 0.4916626513004303 C 1.365414142608643 0.5183126330375671 1.395644068717957 0.5664026141166687 1.39311408996582 0.6441526412963867 L 0.8152140974998474 18.43622207641602 C 0.8103740811347961 18.58550262451172 0.6806241273880005 18.72085189819336 0.5375640988349915 18.72587203979492 L -0.1108658984303474 18.74863243103027 L -0.1191558986902237 18.7487735748291 Z" stroke="none"/>
          <path d="M 0.8829236030578613 0.9499607086181641 L 0.7666549682617188 0.9540424346923828 L 0.2052842974662781 18.23722457885742 L 0.3215526938438416 18.2331428527832 L 0.8829236030578613 0.9499607086181641 M 1.207361578941345 -0.06159210205078125 C 1.601234197616577 -0.06159210205078125 1.905969381332397 0.25640869140625 1.892853975296021 0.6603717803955078 L 1.314954042434692 18.45244216918945 C 1.301553964614868 18.86517333984375 0.9613540172576904 19.21131324768066 0.5550940036773682 19.22556304931641 L -0.09332597255706787 19.24832344055176 C -0.4995843172073364 19.2625732421875 -0.8180460929870605 18.93954277038574 -0.8046460151672363 18.52681350708008 L -0.2267459630966187 0.7347335815429688 C -0.213346004486084 0.3220119476318359 0.1268540024757385 -0.02412796020507812 0.533113956451416 -0.03837776184082031 L 1.181533932685852 -0.06113815307617188 C 1.190163016319275 -0.06143951416015625 1.198814034461975 -0.06159210205078125 1.207361578941345 -0.06159210205078125 Z" stroke="none"/>
        </g>
        <g transform="matrix(1, 0, 0, 1, 4.7, -4.53)" filter="url(#FlagPole-2)">
          <g id="FlagPole-7" data-name="FlagPole" transform="matrix(-0.88, -0.47, 0.47, -0.88, 12.7, 24.74)" fill="#fff">
            <path d="M -0.1191558986902237 18.7487735748291 C -0.1858658939599991 18.7487735748291 -0.2279058992862701 18.71982192993164 -0.2514159083366394 18.69553184509277 C -0.2772158980369568 18.66888236999512 -0.3074358999729156 18.62079238891602 -0.304905891418457 18.54303169250488 L 0.2729941010475159 0.7509726285934448 C 0.2778340876102448 0.6016826629638672 0.4075841009616852 0.4663326442241669 0.5506440997123718 0.4613126516342163 L 1.199064135551453 0.4385626316070557 L 1.20738410949707 0.4384226500988007 C 1.274074077606201 0.4384226500988007 1.316104054450989 0.4673726558685303 1.339614152908325 0.4916626513004303 C 1.365414142608643 0.5183126330375671 1.395644068717957 0.5664026141166687 1.39311408996582 0.6441526412963867 L 0.8152140974998474 18.43622207641602 C 0.8103740811347961 18.58550262451172 0.6806241273880005 18.72085189819336 0.5375640988349915 18.72587203979492 L -0.1108658984303474 18.74863243103027 L -0.1191558986902237 18.7487735748291 Z" stroke="none"/>
            <path d="M 0.8829236030578613 0.9499607086181641 L 0.7666549682617188 0.9540424346923828 L 0.2052842974662781 18.23722457885742 L 0.3215526938438416 18.2331428527832 L 0.8829236030578613 0.9499607086181641 M 1.207361578941345 -0.06159210205078125 C 1.601234197616577 -0.06159210205078125 1.905969381332397 0.25640869140625 1.892853975296021 0.6603717803955078 L 1.314954042434692 18.45244216918945 C 1.301553964614868 18.86517333984375 0.9613540172576904 19.21131324768066 0.5550940036773682 19.22556304931641 L -0.09332597255706787 19.24832344055176 C -0.4995843172073364 19.2625732421875 -0.8180460929870605 18.93954277038574 -0.8046460151672363 18.52681350708008 L -0.2267459630966187 0.7347335815429688 C -0.213346004486084 0.3220119476318359 0.1268540024757385 -0.02412796020507812 0.533113956451416 -0.03837776184082031 L 1.181533932685852 -0.06113815307617188 C 1.190163016319275 -0.06143951416015625 1.198814034461975 -0.06159210205078125 1.207361578941345 -0.06159210205078125 Z" stroke="none"/>
          </g>
        </g>
        <g id="FlagPole-8" data-name="FlagPole" transform="matrix(-0.883, -0.469, 0.469, -0.883, 17.404, 20.213)" fill="none">
          <path d="M -0.1191558986902237 18.7487735748291 C -0.1858658939599991 18.7487735748291 -0.2279058992862701 18.71982192993164 -0.2514159083366394 18.69553184509277 C -0.2772158980369568 18.66888236999512 -0.3074358999729156 18.62079238891602 -0.304905891418457 18.54303169250488 L 0.2729941010475159 0.7509726285934448 C 0.2778340876102448 0.6016826629638672 0.4075841009616852 0.4663326442241669 0.5506440997123718 0.4613126516342163 L 1.199064135551453 0.4385626316070557 L 1.20738410949707 0.4384226500988007 C 1.274074077606201 0.4384226500988007 1.316104054450989 0.4673726558685303 1.339614152908325 0.4916626513004303 C 1.365414142608643 0.5183126330375671 1.395644068717957 0.5664026141166687 1.39311408996582 0.6441526412963867 L 0.8152140974998474 18.43622207641602 C 0.8103740811347961 18.58550262451172 0.6806241273880005 18.72085189819336 0.5375640988349915 18.72587203979492 L -0.1108658984303474 18.74863243103027 L -0.1191558986902237 18.7487735748291 Z" stroke="none"/>
          <path d="M 0.8829236030578613 0.9499607086181641 L 0.7666549682617188 0.9540424346923828 L 0.2052842974662781 18.23722457885742 L 0.3215526938438416 18.2331428527832 L 0.8829236030578613 0.9499607086181641 M 1.207361578941345 -0.06159210205078125 C 1.601234197616577 -0.06159210205078125 1.905969381332397 0.25640869140625 1.892853975296021 0.6603717803955078 L 1.314954042434692 18.45244216918945 C 1.301553964614868 18.86517333984375 0.9613540172576904 19.21131324768066 0.5550940036773682 19.22556304931641 L -0.09332597255706787 19.24832344055176 C -0.4995843172073364 19.2625732421875 -0.8180460929870605 18.93954277038574 -0.8046460151672363 18.52681350708008 L -0.2267459630966187 0.7347335815429688 C -0.213346004486084 0.3220119476318359 0.1268540024757385 -0.02412796020507812 0.533113956451416 -0.03837776184082031 L 1.181533932685852 -0.06113815307617188 C 1.190163016319275 -0.06143951416015625 1.198814034461975 -0.06159210205078125 1.207361578941345 -0.06159210205078125 Z" stroke="none" fill="#f0f"/>
        </g>
      </g>
      <line id="Flag_Front" data-name="Flag Front" x1="4" y2="7" transform="translate(29.147 7.565)" fill="none" stroke="#f0f" stroke-linecap="round" stroke-width="1"/>
      <line id="Flag_Back" data-name="Flag Back" x1="0.609" y2="1" transform="translate(31.931 6.565)" fill="none" stroke="#f0f" stroke-width="1"/>
    </g>
    <g id="Flag-10" data-name="Flag" transform="translate(0 0)">
      <g data-type="innerShadowGroup">
        <g transform="matrix(1, 0, 0, 1, -3, -6)" filter="url(#Flag-3)">
          <g id="Flag-11" data-name="Flag" transform="matrix(0.88, -0.47, 0.47, 0.88, 3, 12.31)" fill="#fff">
            <path d="M 2.485474586486816 10.25386524200439 C 1.744891166687012 9.958836555480957 1.430795311927795 9.83187198638916 0.7323738932609558 9.312511444091797 C 0.6706887483596802 9.235171318054199 0.283361405134201 8.572043418884277 0.6678249835968018 4.455787658691406 C 0.8021960258483887 3.017177104949951 0.9882256984710693 1.622351050376892 1.104323744773865 0.807275652885437 C 1.845691323280334 1.186629295349121 3.160727024078369 1.705400705337524 4.907434940338135 1.778710603713989 C 4.371704578399658 2.230027437210083 4.234171867370605 2.427138090133667 4.345775127410889 2.742697954177856 C 4.417874813079834 2.946547746658325 4.613725185394287 3.083507776260376 4.833145141601562 3.083507776260376 C 5.71490478515625 3.083507776260376 6.620194911956787 2.677187919616699 7.578635215759277 2.247017860412598 C 8.287665367126465 1.928777813911438 9.020834922790527 1.599717855453491 9.765575408935547 1.428317785263062 C 9.933474540710449 1.389727830886841 10.11486530303955 1.370137810707092 10.30460453033447 1.370137810707092 C 11.38158988952637 1.370137810707092 12.49342918395996 1.983291268348694 12.94499492645264 2.263322830200195 L 12.94499492645264 8.840291976928711 C 12.28913593292236 8.692458152770996 11.19647693634033 8.500617980957031 9.942785263061523 8.500617980957031 C 9.074504852294922 8.500617980957031 8.254634857177734 8.593977928161621 7.505955219268799 8.778118133544922 L 7.484594821929932 8.783368110656738 L 7.463795185089111 8.790477752685547 C 6.618364810943604 9.079157829284668 5.899714946746826 9.434308052062988 5.322275161743164 9.719667434692383 C 5.099103450775146 9.829961776733398 4.842689037322998 9.956681251525879 4.645570278167725 10.04110240936279 L 4.632494926452637 9.332468032836914 L 3.829294919967651 10.00730800628662 C 3.586704969406128 10.21212768554688 3.196665048599243 10.22594738006592 2.783725023269653 10.24057769775391 C 2.685847282409668 10.24404335021973 2.585615634918213 10.24759387969971 2.485474586486816 10.25386524200439 Z" stroke="none"/>
            <path d="M 1.507576942443848 1.540635108947754 C 1.407436370849609 2.285513877868652 1.28673267364502 3.256309986114502 1.188514709472656 4.263007640838623 C 0.8505878448486328 7.726621150970459 1.052452087402344 8.73969841003418 1.13199520111084 8.985776901245117 C 1.678107261657715 9.382682800292969 1.961516380310059 9.506258010864258 2.568394660949707 9.748645782470703 C 2.635227203369141 9.745522499084473 2.70112133026123 9.74318790435791 2.76601505279541 9.740887641906738 C 3.046794891357422 9.730937957763672 3.396235466003418 9.718557357788086 3.506725311279297 9.62526798248291 L 5.112884998321533 8.269157409667969 L 5.131111145019531 9.256436347961426 C 5.716309547424316 8.967265129089355 6.440955638885498 8.611392974853516 7.302225112915039 8.31729793548584 L 7.34383487701416 8.303088188171387 L 7.38652515411377 8.292587280273438 C 8.17425537109375 8.098848342895508 9.034305572509766 8.000607490539551 9.942794799804688 8.000607490539551 C 10.90545272827148 8.000607490539551 11.77880668640137 8.110321044921875 12.44499492645264 8.229949951171875 L 12.44499492645264 2.546919822692871 C 11.91069507598877 2.247291564941406 11.06249809265137 1.87013053894043 10.30465507507324 1.870138168334961 C 10.15250492095947 1.870147705078125 10.00877475738525 1.885457992553711 9.877704620361328 1.915587425231934 C 9.180785179138184 2.075967788696289 8.470375061035156 2.394818305969238 7.783355236053467 2.703177452087402 C 6.774694919586182 3.155897617340088 5.821965217590332 3.583508014678955 4.833145141601562 3.583508014678955 C 4.402284622192383 3.583508014678955 4.016984939575195 3.312607765197754 3.874384880065918 2.909418106079102 C 3.776378631591797 2.632299423217773 3.782426834106445 2.405654907226562 3.883364677429199 2.186068534851074 C 2.923123359680176 2.049670219421387 2.121058464050293 1.794765472412109 1.507576942443848 1.540635108947754 M 0.7182645797729492 7.62939453125e-06 C 0.7182645797729492 7.62939453125e-06 2.722640037536621 1.470378875732422 5.928404808044434 1.268407821655273 C 5.928275108337402 1.62859058380127 5.828968048095703 1.583547592163086 5.947504997253418 1.571257591247559 C 5.969665050506592 1.571257591247559 4.65473461151123 2.583507537841797 4.833145141601562 2.583507537841797 C 6.222105026245117 2.583507537841797 7.861285209655762 1.353487968444824 9.653434753417969 0.9410581588745117 C 11.41216564178467 0.5367641448974609 13.44499492645264 1.992998123168945 13.44499492645264 1.992998123168945 L 13.44499492645264 9.485127449035645 C 13.44499492645264 9.485128402709961 10.47639656066895 8.562438011169434 7.625364780426025 9.26364803314209 C 5.54515552520752 9.973967552185059 4.165873527526855 11.14918804168701 4.15185546875 10.38934803009033 C 3.671114921569824 10.79524803161621 2.98282527923584 10.709547996521 2.407645225524902 10.76108741760254 C 1.579915046691895 10.43094825744629 1.216734886169434 10.29684829711914 0.4243745803833008 9.706567764282227 C -0.6791849136352539 8.884448051452637 0.7182645797729492 7.62939453125e-06 0.7182645797729492 7.62939453125e-06 Z" stroke="none" fill="#f0f"/>
          </g>
        </g>
        <g id="Flag-12" data-name="Flag" transform="matrix(0.883, -0.469, 0.469, 0.883, 0, 6.312)" fill="#fff">
          <path d="M 2.485474586486816 10.25386524200439 C 1.744891166687012 9.958836555480957 1.430795311927795 9.83187198638916 0.7323738932609558 9.312511444091797 C 0.6706887483596802 9.235171318054199 0.283361405134201 8.572043418884277 0.6678249835968018 4.455787658691406 C 0.8021960258483887 3.017177104949951 0.9882256984710693 1.622351050376892 1.104323744773865 0.807275652885437 C 1.845691323280334 1.186629295349121 3.160727024078369 1.705400705337524 4.907434940338135 1.778710603713989 C 4.371704578399658 2.230027437210083 4.234171867370605 2.427138090133667 4.345775127410889 2.742697954177856 C 4.417874813079834 2.946547746658325 4.613725185394287 3.083507776260376 4.833145141601562 3.083507776260376 C 5.71490478515625 3.083507776260376 6.620194911956787 2.677187919616699 7.578635215759277 2.247017860412598 C 8.287665367126465 1.928777813911438 9.020834922790527 1.599717855453491 9.765575408935547 1.428317785263062 C 9.933474540710449 1.389727830886841 10.11486530303955 1.370137810707092 10.30460453033447 1.370137810707092 C 11.38158988952637 1.370137810707092 12.49342918395996 1.983291268348694 12.94499492645264 2.263322830200195 L 12.94499492645264 8.840291976928711 C 12.28913593292236 8.692458152770996 11.19647693634033 8.500617980957031 9.942785263061523 8.500617980957031 C 9.074504852294922 8.500617980957031 8.254634857177734 8.593977928161621 7.505955219268799 8.778118133544922 L 7.484594821929932 8.783368110656738 L 7.463795185089111 8.790477752685547 C 6.618364810943604 9.079157829284668 5.899714946746826 9.434308052062988 5.322275161743164 9.719667434692383 C 5.099103450775146 9.829961776733398 4.842689037322998 9.956681251525879 4.645570278167725 10.04110240936279 L 4.632494926452637 9.332468032836914 L 3.829294919967651 10.00730800628662 C 3.586704969406128 10.21212768554688 3.196665048599243 10.22594738006592 2.783725023269653 10.24057769775391 C 2.685847282409668 10.24404335021973 2.585615634918213 10.24759387969971 2.485474586486816 10.25386524200439 Z" stroke="none"/>
          <path d="M 1.507576942443848 1.540635108947754 C 1.407436370849609 2.285513877868652 1.28673267364502 3.256309986114502 1.188514709472656 4.263007640838623 C 0.8505878448486328 7.726621150970459 1.052452087402344 8.73969841003418 1.13199520111084 8.985776901245117 C 1.678107261657715 9.382682800292969 1.961516380310059 9.506258010864258 2.568394660949707 9.748645782470703 C 2.635227203369141 9.745522499084473 2.70112133026123 9.74318790435791 2.76601505279541 9.740887641906738 C 3.046794891357422 9.730937957763672 3.396235466003418 9.718557357788086 3.506725311279297 9.62526798248291 L 5.112884998321533 8.269157409667969 L 5.131111145019531 9.256436347961426 C 5.716309547424316 8.967265129089355 6.440955638885498 8.611392974853516 7.302225112915039 8.31729793548584 L 7.34383487701416 8.303088188171387 L 7.38652515411377 8.292587280273438 C 8.17425537109375 8.098848342895508 9.034305572509766 8.000607490539551 9.942794799804688 8.000607490539551 C 10.90545272827148 8.000607490539551 11.77880668640137 8.110321044921875 12.44499492645264 8.229949951171875 L 12.44499492645264 2.546919822692871 C 11.91069507598877 2.247291564941406 11.06249809265137 1.87013053894043 10.30465507507324 1.870138168334961 C 10.15250492095947 1.870147705078125 10.00877475738525 1.885457992553711 9.877704620361328 1.915587425231934 C 9.180785179138184 2.075967788696289 8.470375061035156 2.394818305969238 7.783355236053467 2.703177452087402 C 6.774694919586182 3.155897617340088 5.821965217590332 3.583508014678955 4.833145141601562 3.583508014678955 C 4.402284622192383 3.583508014678955 4.016984939575195 3.312607765197754 3.874384880065918 2.909418106079102 C 3.776378631591797 2.632299423217773 3.782426834106445 2.405654907226562 3.883364677429199 2.186068534851074 C 2.923123359680176 2.049670219421387 2.121058464050293 1.794765472412109 1.507576942443848 1.540635108947754 M 0.7182645797729492 7.62939453125e-06 C 0.7182645797729492 7.62939453125e-06 2.722640037536621 1.470378875732422 5.928404808044434 1.268407821655273 C 5.928275108337402 1.62859058380127 5.828968048095703 1.583547592163086 5.947504997253418 1.571257591247559 C 5.969665050506592 1.571257591247559 4.65473461151123 2.583507537841797 4.833145141601562 2.583507537841797 C 6.222105026245117 2.583507537841797 7.861285209655762 1.353487968444824 9.653434753417969 0.9410581588745117 C 11.41216564178467 0.5367641448974609 13.44499492645264 1.992998123168945 13.44499492645264 1.992998123168945 L 13.44499492645264 9.485127449035645 C 13.44499492645264 9.485128402709961 10.47639656066895 8.562438011169434 7.625364780426025 9.26364803314209 C 5.54515552520752 9.973967552185059 4.165873527526855 11.14918804168701 4.15185546875 10.38934803009033 C 3.671114921569824 10.79524803161621 2.98282527923584 10.709547996521 2.407645225524902 10.76108741760254 C 1.579915046691895 10.43094825744629 1.216734886169434 10.29684829711914 0.4243745803833008 9.706567764282227 C -0.6791849136352539 8.884448051452637 0.7182645797729492 7.62939453125e-06 0.7182645797729492 7.62939453125e-06 Z" stroke="none"/>
        </g>
        <g transform="matrix(1, 0, 0, 1, -3, -6)" filter="url(#Flag-4)">
          <g id="Flag-13" data-name="Flag" transform="matrix(0.88, -0.47, 0.47, 0.88, 3, 12.31)" fill="#fff">
            <path d="M 2.485474586486816 10.25386524200439 C 1.744891166687012 9.958836555480957 1.430795311927795 9.83187198638916 0.7323738932609558 9.312511444091797 C 0.6706887483596802 9.235171318054199 0.283361405134201 8.572043418884277 0.6678249835968018 4.455787658691406 C 0.8021960258483887 3.017177104949951 0.9882256984710693 1.622351050376892 1.104323744773865 0.807275652885437 C 1.845691323280334 1.186629295349121 3.160727024078369 1.705400705337524 4.907434940338135 1.778710603713989 C 4.371704578399658 2.230027437210083 4.234171867370605 2.427138090133667 4.345775127410889 2.742697954177856 C 4.417874813079834 2.946547746658325 4.613725185394287 3.083507776260376 4.833145141601562 3.083507776260376 C 5.71490478515625 3.083507776260376 6.620194911956787 2.677187919616699 7.578635215759277 2.247017860412598 C 8.287665367126465 1.928777813911438 9.020834922790527 1.599717855453491 9.765575408935547 1.428317785263062 C 9.933474540710449 1.389727830886841 10.11486530303955 1.370137810707092 10.30460453033447 1.370137810707092 C 11.38158988952637 1.370137810707092 12.49342918395996 1.983291268348694 12.94499492645264 2.263322830200195 L 12.94499492645264 8.840291976928711 C 12.28913593292236 8.692458152770996 11.19647693634033 8.500617980957031 9.942785263061523 8.500617980957031 C 9.074504852294922 8.500617980957031 8.254634857177734 8.593977928161621 7.505955219268799 8.778118133544922 L 7.484594821929932 8.783368110656738 L 7.463795185089111 8.790477752685547 C 6.618364810943604 9.079157829284668 5.899714946746826 9.434308052062988 5.322275161743164 9.719667434692383 C 5.099103450775146 9.829961776733398 4.842689037322998 9.956681251525879 4.645570278167725 10.04110240936279 L 4.632494926452637 9.332468032836914 L 3.829294919967651 10.00730800628662 C 3.586704969406128 10.21212768554688 3.196665048599243 10.22594738006592 2.783725023269653 10.24057769775391 C 2.685847282409668 10.24404335021973 2.585615634918213 10.24759387969971 2.485474586486816 10.25386524200439 Z" stroke="none"/>
            <path d="M 1.507576942443848 1.540635108947754 C 1.407436370849609 2.285513877868652 1.28673267364502 3.256309986114502 1.188514709472656 4.263007640838623 C 0.8505878448486328 7.726621150970459 1.052452087402344 8.73969841003418 1.13199520111084 8.985776901245117 C 1.678107261657715 9.382682800292969 1.961516380310059 9.506258010864258 2.568394660949707 9.748645782470703 C 2.635227203369141 9.745522499084473 2.70112133026123 9.74318790435791 2.76601505279541 9.740887641906738 C 3.046794891357422 9.730937957763672 3.396235466003418 9.718557357788086 3.506725311279297 9.62526798248291 L 5.112884998321533 8.269157409667969 L 5.131111145019531 9.256436347961426 C 5.716309547424316 8.967265129089355 6.440955638885498 8.611392974853516 7.302225112915039 8.31729793548584 L 7.34383487701416 8.303088188171387 L 7.38652515411377 8.292587280273438 C 8.17425537109375 8.098848342895508 9.034305572509766 8.000607490539551 9.942794799804688 8.000607490539551 C 10.90545272827148 8.000607490539551 11.77880668640137 8.110321044921875 12.44499492645264 8.229949951171875 L 12.44499492645264 2.546919822692871 C 11.91069507598877 2.247291564941406 11.06249809265137 1.87013053894043 10.30465507507324 1.870138168334961 C 10.15250492095947 1.870147705078125 10.00877475738525 1.885457992553711 9.877704620361328 1.915587425231934 C 9.180785179138184 2.075967788696289 8.470375061035156 2.394818305969238 7.783355236053467 2.703177452087402 C 6.774694919586182 3.155897617340088 5.821965217590332 3.583508014678955 4.833145141601562 3.583508014678955 C 4.402284622192383 3.583508014678955 4.016984939575195 3.312607765197754 3.874384880065918 2.909418106079102 C 3.776378631591797 2.632299423217773 3.782426834106445 2.405654907226562 3.883364677429199 2.186068534851074 C 2.923123359680176 2.049670219421387 2.121058464050293 1.794765472412109 1.507576942443848 1.540635108947754 M 0.7182645797729492 7.62939453125e-06 C 0.7182645797729492 7.62939453125e-06 2.722640037536621 1.470378875732422 5.928404808044434 1.268407821655273 C 5.928275108337402 1.62859058380127 5.828968048095703 1.583547592163086 5.947504997253418 1.571257591247559 C 5.969665050506592 1.571257591247559 4.65473461151123 2.583507537841797 4.833145141601562 2.583507537841797 C 6.222105026245117 2.583507537841797 7.861285209655762 1.353487968444824 9.653434753417969 0.9410581588745117 C 11.41216564178467 0.5367641448974609 13.44499492645264 1.992998123168945 13.44499492645264 1.992998123168945 L 13.44499492645264 9.485127449035645 C 13.44499492645264 9.485128402709961 10.47639656066895 8.562438011169434 7.625364780426025 9.26364803314209 C 5.54515552520752 9.973967552185059 4.165873527526855 11.14918804168701 4.15185546875 10.38934803009033 C 3.671114921569824 10.79524803161621 2.98282527923584 10.709547996521 2.407645225524902 10.76108741760254 C 1.579915046691895 10.43094825744629 1.216734886169434 10.29684829711914 0.4243745803833008 9.706567764282227 C -0.6791849136352539 8.884448051452637 0.7182645797729492 7.62939453125e-06 0.7182645797729492 7.62939453125e-06 Z" stroke="none"/>
          </g>
        </g>
        <g id="Flag-14" data-name="Flag" transform="matrix(0.883, -0.469, 0.469, 0.883, 0, 6.312)" fill="none">
          <path d="M 2.485474586486816 10.25386524200439 C 1.744891166687012 9.958836555480957 1.430795311927795 9.83187198638916 0.7323738932609558 9.312511444091797 C 0.6706887483596802 9.235171318054199 0.283361405134201 8.572043418884277 0.6678249835968018 4.455787658691406 C 0.8021960258483887 3.017177104949951 0.9882256984710693 1.622351050376892 1.104323744773865 0.807275652885437 C 1.845691323280334 1.186629295349121 3.160727024078369 1.705400705337524 4.907434940338135 1.778710603713989 C 4.371704578399658 2.230027437210083 4.234171867370605 2.427138090133667 4.345775127410889 2.742697954177856 C 4.417874813079834 2.946547746658325 4.613725185394287 3.083507776260376 4.833145141601562 3.083507776260376 C 5.71490478515625 3.083507776260376 6.620194911956787 2.677187919616699 7.578635215759277 2.247017860412598 C 8.287665367126465 1.928777813911438 9.020834922790527 1.599717855453491 9.765575408935547 1.428317785263062 C 9.933474540710449 1.389727830886841 10.11486530303955 1.370137810707092 10.30460453033447 1.370137810707092 C 11.38158988952637 1.370137810707092 12.49342918395996 1.983291268348694 12.94499492645264 2.263322830200195 L 12.94499492645264 8.840291976928711 C 12.28913593292236 8.692458152770996 11.19647693634033 8.500617980957031 9.942785263061523 8.500617980957031 C 9.074504852294922 8.500617980957031 8.254634857177734 8.593977928161621 7.505955219268799 8.778118133544922 L 7.484594821929932 8.783368110656738 L 7.463795185089111 8.790477752685547 C 6.618364810943604 9.079157829284668 5.899714946746826 9.434308052062988 5.322275161743164 9.719667434692383 C 5.099103450775146 9.829961776733398 4.842689037322998 9.956681251525879 4.645570278167725 10.04110240936279 L 4.632494926452637 9.332468032836914 L 3.829294919967651 10.00730800628662 C 3.586704969406128 10.21212768554688 3.196665048599243 10.22594738006592 2.783725023269653 10.24057769775391 C 2.685847282409668 10.24404335021973 2.585615634918213 10.24759387969971 2.485474586486816 10.25386524200439 Z" stroke="none"/>
          <path d="M 1.507576942443848 1.540635108947754 C 1.407436370849609 2.285513877868652 1.28673267364502 3.256309986114502 1.188514709472656 4.263007640838623 C 0.8505878448486328 7.726621150970459 1.052452087402344 8.73969841003418 1.13199520111084 8.985776901245117 C 1.678107261657715 9.382682800292969 1.961516380310059 9.506258010864258 2.568394660949707 9.748645782470703 C 2.635227203369141 9.745522499084473 2.70112133026123 9.74318790435791 2.76601505279541 9.740887641906738 C 3.046794891357422 9.730937957763672 3.396235466003418 9.718557357788086 3.506725311279297 9.62526798248291 L 5.112884998321533 8.269157409667969 L 5.131111145019531 9.256436347961426 C 5.716309547424316 8.967265129089355 6.440955638885498 8.611392974853516 7.302225112915039 8.31729793548584 L 7.34383487701416 8.303088188171387 L 7.38652515411377 8.292587280273438 C 8.17425537109375 8.098848342895508 9.034305572509766 8.000607490539551 9.942794799804688 8.000607490539551 C 10.90545272827148 8.000607490539551 11.77880668640137 8.110321044921875 12.44499492645264 8.229949951171875 L 12.44499492645264 2.546919822692871 C 11.91069507598877 2.247291564941406 11.06249809265137 1.87013053894043 10.30465507507324 1.870138168334961 C 10.15250492095947 1.870147705078125 10.00877475738525 1.885457992553711 9.877704620361328 1.915587425231934 C 9.180785179138184 2.075967788696289 8.470375061035156 2.394818305969238 7.783355236053467 2.703177452087402 C 6.774694919586182 3.155897617340088 5.821965217590332 3.583508014678955 4.833145141601562 3.583508014678955 C 4.402284622192383 3.583508014678955 4.016984939575195 3.312607765197754 3.874384880065918 2.909418106079102 C 3.776378631591797 2.632299423217773 3.782426834106445 2.405654907226562 3.883364677429199 2.186068534851074 C 2.923123359680176 2.049670219421387 2.121058464050293 1.794765472412109 1.507576942443848 1.540635108947754 M 0.7182645797729492 7.62939453125e-06 C 0.7182645797729492 7.62939453125e-06 2.722640037536621 1.470378875732422 5.928404808044434 1.268407821655273 C 5.928275108337402 1.62859058380127 5.828968048095703 1.583547592163086 5.947504997253418 1.571257591247559 C 5.969665050506592 1.571257591247559 4.65473461151123 2.583507537841797 4.833145141601562 2.583507537841797 C 6.222105026245117 2.583507537841797 7.861285209655762 1.353487968444824 9.653434753417969 0.9410581588745117 C 11.41216564178467 0.5367641448974609 13.44499492645264 1.992998123168945 13.44499492645264 1.992998123168945 L 13.44499492645264 9.485127449035645 C 13.44499492645264 9.485128402709961 10.47639656066895 8.562438011169434 7.625364780426025 9.26364803314209 C 5.54515552520752 9.973967552185059 4.165873527526855 11.14918804168701 4.15185546875 10.38934803009033 C 3.671114921569824 10.79524803161621 2.98282527923584 10.709547996521 2.407645225524902 10.76108741760254 C 1.579915046691895 10.43094825744629 1.216734886169434 10.29684829711914 0.4243745803833008 9.706567764282227 C -0.6791849136352539 8.884448051452637 0.7182645797729492 7.62939453125e-06 0.7182645797729492 7.62939453125e-06 Z" stroke="none" fill="#f0f"/>
        </g>
      </g>
      <g data-type="innerShadowGroup">
        <g transform="matrix(1, 0, 0, 1, -3, -6)" filter="url(#FlagPole-3)">
          <g id="FlagPole-9" data-name="FlagPole" transform="matrix(0.88, -0.47, 0.47, 0.88, 13.84, 8.12)" fill="#fff">
            <path d="M 2.012497186660767 18.81038475036621 C 2.012485027313232 18.81038475036621 2.012474775314331 18.81038475036621 2.012462615966797 18.81038475036621 L 2.004122495651245 18.81024551391602 L 1.355692625045776 18.78749465942383 C 1.212632536888123 18.78247451782227 1.082892537117004 18.64711570739746 1.07804262638092 18.49782562255859 L 0.5001626014709473 0.7057352066040039 C 0.4976325929164886 0.6279752254486084 0.5278525948524475 0.5798952579498291 0.5536425709724426 0.5532452464103699 C 0.5771625638008118 0.5289552211761475 0.6191926002502441 0.5000052452087402 0.6859025955200195 0.5000052452087402 L 0.6942026019096375 0.5001452565193176 L 1.342632532119751 0.5228952169418335 C 1.485682606697083 0.5279152393341064 1.615432620048523 0.6632752418518066 1.620282530784607 0.8125652074813843 L 2.19816255569458 18.60466575622559 C 2.200692653656006 18.68242454528809 2.170472621917725 18.73051452636719 2.144672632217407 18.75716590881348 C 2.121166944503784 18.78144073486328 2.079155921936035 18.81038475036621 2.012497186660767 18.81038475036621 Z" stroke="none"/>
            <path d="M 1.6879723072052 18.2988395690918 L 1.126620888710022 1.015631198883057 L 1.010352492332458 1.011551737785339 L 1.571704268455505 18.29475975036621 L 1.6879723072052 18.2988395690918 M 2.012419462203979 19.31038856506348 C 2.003872156143188 19.31038856506348 1.995221376419067 19.31023788452148 1.986592531204224 19.30993461608887 L 1.338162541389465 19.28718566894531 C 0.9319126009941101 19.27293586730957 0.5917125940322876 18.92679595947266 0.5783025622367859 18.51406478881836 L 0.0004225785960443318 0.7219652533531189 C -0.01298742182552814 0.3092352151870728 0.3054816722869873 -0.01379476487636566 0.7117325663566589 0.0004552362079266459 L 1.360162615776062 0.0232052356004715 C 1.766412615776062 0.03746523708105087 2.106612682342529 0.3836052417755127 2.120022535324097 0.7963252067565918 L 2.697902679443359 18.58843612670898 C 2.711027860641479 18.99238967895508 2.406283140182495 19.31042289733887 2.012419462203979 19.31038856506348 Z" stroke="none" fill="#f0f"/>
          </g>
        </g>
        <g id="FlagPole-10" data-name="FlagPole" transform="matrix(0.883, -0.469, 0.469, 0.883, 10.843, 2.125)" fill="#fff">
          <path d="M 2.012497186660767 18.81038475036621 C 2.012485027313232 18.81038475036621 2.012474775314331 18.81038475036621 2.012462615966797 18.81038475036621 L 2.004122495651245 18.81024551391602 L 1.355692625045776 18.78749465942383 C 1.212632536888123 18.78247451782227 1.082892537117004 18.64711570739746 1.07804262638092 18.49782562255859 L 0.5001626014709473 0.7057352066040039 C 0.4976325929164886 0.6279752254486084 0.5278525948524475 0.5798952579498291 0.5536425709724426 0.5532452464103699 C 0.5771625638008118 0.5289552211761475 0.6191926002502441 0.5000052452087402 0.6859025955200195 0.5000052452087402 L 0.6942026019096375 0.5001452565193176 L 1.342632532119751 0.5228952169418335 C 1.485682606697083 0.5279152393341064 1.615432620048523 0.6632752418518066 1.620282530784607 0.8125652074813843 L 2.19816255569458 18.60466575622559 C 2.200692653656006 18.68242454528809 2.170472621917725 18.73051452636719 2.144672632217407 18.75716590881348 C 2.121166944503784 18.78144073486328 2.079155921936035 18.81038475036621 2.012497186660767 18.81038475036621 Z" stroke="none"/>
          <path d="M 1.6879723072052 18.2988395690918 L 1.126620888710022 1.015631198883057 L 1.010352492332458 1.011551737785339 L 1.571704268455505 18.29475975036621 L 1.6879723072052 18.2988395690918 M 2.012419462203979 19.31038856506348 C 2.003872156143188 19.31038856506348 1.995221376419067 19.31023788452148 1.986592531204224 19.30993461608887 L 1.338162541389465 19.28718566894531 C 0.9319126009941101 19.27293586730957 0.5917125940322876 18.92679595947266 0.5783025622367859 18.51406478881836 L 0.0004225785960443318 0.7219652533531189 C -0.01298742182552814 0.3092352151870728 0.3054816722869873 -0.01379476487636566 0.7117325663566589 0.0004552362079266459 L 1.360162615776062 0.0232052356004715 C 1.766412615776062 0.03746523708105087 2.106612682342529 0.3836052417755127 2.120022535324097 0.7963252067565918 L 2.697902679443359 18.58843612670898 C 2.711027860641479 18.99238967895508 2.406283140182495 19.31042289733887 2.012419462203979 19.31038856506348 Z" stroke="none"/>
        </g>
        <g transform="matrix(1, 0, 0, 1, -3, -6)" filter="url(#FlagPole-4)">
          <g id="FlagPole-11" data-name="FlagPole" transform="matrix(0.88, -0.47, 0.47, 0.88, 13.84, 8.12)" fill="#fff">
            <path d="M 2.012497186660767 18.81038475036621 C 2.012485027313232 18.81038475036621 2.012474775314331 18.81038475036621 2.012462615966797 18.81038475036621 L 2.004122495651245 18.81024551391602 L 1.355692625045776 18.78749465942383 C 1.212632536888123 18.78247451782227 1.082892537117004 18.64711570739746 1.07804262638092 18.49782562255859 L 0.5001626014709473 0.7057352066040039 C 0.4976325929164886 0.6279752254486084 0.5278525948524475 0.5798952579498291 0.5536425709724426 0.5532452464103699 C 0.5771625638008118 0.5289552211761475 0.6191926002502441 0.5000052452087402 0.6859025955200195 0.5000052452087402 L 0.6942026019096375 0.5001452565193176 L 1.342632532119751 0.5228952169418335 C 1.485682606697083 0.5279152393341064 1.615432620048523 0.6632752418518066 1.620282530784607 0.8125652074813843 L 2.19816255569458 18.60466575622559 C 2.200692653656006 18.68242454528809 2.170472621917725 18.73051452636719 2.144672632217407 18.75716590881348 C 2.121166944503784 18.78144073486328 2.079155921936035 18.81038475036621 2.012497186660767 18.81038475036621 Z" stroke="none"/>
            <path d="M 1.6879723072052 18.2988395690918 L 1.126620888710022 1.015631198883057 L 1.010352492332458 1.011551737785339 L 1.571704268455505 18.29475975036621 L 1.6879723072052 18.2988395690918 M 2.012419462203979 19.31038856506348 C 2.003872156143188 19.31038856506348 1.995221376419067 19.31023788452148 1.986592531204224 19.30993461608887 L 1.338162541389465 19.28718566894531 C 0.9319126009941101 19.27293586730957 0.5917125940322876 18.92679595947266 0.5783025622367859 18.51406478881836 L 0.0004225785960443318 0.7219652533531189 C -0.01298742182552814 0.3092352151870728 0.3054816722869873 -0.01379476487636566 0.7117325663566589 0.0004552362079266459 L 1.360162615776062 0.0232052356004715 C 1.766412615776062 0.03746523708105087 2.106612682342529 0.3836052417755127 2.120022535324097 0.7963252067565918 L 2.697902679443359 18.58843612670898 C 2.711027860641479 18.99238967895508 2.406283140182495 19.31042289733887 2.012419462203979 19.31038856506348 Z" stroke="none"/>
          </g>
        </g>
        <g id="FlagPole-12" data-name="FlagPole" transform="matrix(0.883, -0.469, 0.469, 0.883, 10.843, 2.125)" fill="none">
          <path d="M 2.012497186660767 18.81038475036621 C 2.012485027313232 18.81038475036621 2.012474775314331 18.81038475036621 2.012462615966797 18.81038475036621 L 2.004122495651245 18.81024551391602 L 1.355692625045776 18.78749465942383 C 1.212632536888123 18.78247451782227 1.082892537117004 18.64711570739746 1.07804262638092 18.49782562255859 L 0.5001626014709473 0.7057352066040039 C 0.4976325929164886 0.6279752254486084 0.5278525948524475 0.5798952579498291 0.5536425709724426 0.5532452464103699 C 0.5771625638008118 0.5289552211761475 0.6191926002502441 0.5000052452087402 0.6859025955200195 0.5000052452087402 L 0.6942026019096375 0.5001452565193176 L 1.342632532119751 0.5228952169418335 C 1.485682606697083 0.5279152393341064 1.615432620048523 0.6632752418518066 1.620282530784607 0.8125652074813843 L 2.19816255569458 18.60466575622559 C 2.200692653656006 18.68242454528809 2.170472621917725 18.73051452636719 2.144672632217407 18.75716590881348 C 2.121166944503784 18.78144073486328 2.079155921936035 18.81038475036621 2.012497186660767 18.81038475036621 Z" stroke="none"/>
          <path d="M 1.6879723072052 18.2988395690918 L 1.126620888710022 1.015631198883057 L 1.010352492332458 1.011551737785339 L 1.571704268455505 18.29475975036621 L 1.6879723072052 18.2988395690918 M 2.012419462203979 19.31038856506348 C 2.003872156143188 19.31038856506348 1.995221376419067 19.31023788452148 1.986592531204224 19.30993461608887 L 1.338162541389465 19.28718566894531 C 0.9319126009941101 19.27293586730957 0.5917125940322876 18.92679595947266 0.5783025622367859 18.51406478881836 L 0.0004225785960443318 0.7219652533531189 C -0.01298742182552814 0.3092352151870728 0.3054816722869873 -0.01379476487636566 0.7117325663566589 0.0004552362079266459 L 1.360162615776062 0.0232052356004715 C 1.766412615776062 0.03746523708105087 2.106612682342529 0.3836052417755127 2.120022535324097 0.7963252067565918 L 2.697902679443359 18.58843612670898 C 2.711027860641479 18.99238967895508 2.406283140182495 19.31042289733887 2.012419462203979 19.31038856506348 Z" stroke="none" fill="#f0f"/>
        </g>
      </g>
      <line id="Flag_Front-2" data-name="Flag Front" x2="4" y2="7" transform="translate(4.847 6.094)" fill="none" stroke="#f0f" stroke-linecap="round" stroke-width="1"/>
      <line id="Flag_Back-2" data-name="Flag Back" x2="0.609" y2="1" transform="translate(5.455 5.094)" fill="none" stroke="#f0f" stroke-width="1"/>
    </g>
  </g>
</svg>
