<svg xmlns="http://www.w3.org/2000/svg" xmlns:xlink="http://www.w3.org/1999/xlink" width="17.815" height="17.505" viewBox="0 0 17.815 17.505">
  <defs>
    <filter id="Follow_Icon" x="0" y="0.738" width="17.815" height="16.305" filterUnits="userSpaceOnUse">
      <feOffset dy="-3" input="SourceAlpha"/>
      <feGaussianBlur stdDeviation="1" result="blur"/>
      <feFlood flood-opacity="0.78"/>
      <feComposite operator="in" in2="blur"/>
    </filter>
    <filter id="Follow_Icon-2" x="0" y="0.738" width="17.815" height="16.305" filterUnits="userSpaceOnUse">
      <feOffset input="SourceAlpha"/>
      <feGaussianBlur stdDeviation="1.5" result="blur-2"/>
      <feFlood flood-color="#f0f" result="color"/>
      <feComposite operator="out" in="SourceGraphic" in2="blur-2"/>
      <feComposite operator="in" in="color"/>
      <feComposite operator="in" in2="SourceGraphic"/>
    </filter>
    <filter id="Unfollow_Strike" x="2.172" y="0" width="14.908" height="17.505" filterUnits="userSpaceOnUse">
      <feOffset dy="-3" input="SourceAlpha"/>
      <feGaussianBlur stdDeviation="1" result="blur-3"/>
      <feFlood flood-color="#00e5ff" flood-opacity="0.78"/>
      <feComposite operator="in" in2="blur-3"/>
    </filter>
    <filter id="Unfollow_Strike-2" x="2.172" y="0" width="14.908" height="17.505" filterUnits="userSpaceOnUse">
      <feOffset input="SourceAlpha"/>
      <feGaussianBlur stdDeviation="1" result="blur-4"/>
      <feFlood flood-color="#00e5ff" result="color-2"/>
      <feComposite operator="out" in="SourceGraphic" in2="blur-4"/>
      <feComposite operator="in" in="color-2"/>
      <feComposite operator="in" in2="SourceGraphic"/>
    </filter>
  </defs>
  <g id="Unfollow_Icon" data-name="Unfollow Icon" transform="translate(3 6.286)">
    <g data-type="innerShadowGroup">
      <g transform="matrix(1, 0, 0, 1, -3, -6.29)" filter="url(#Follow_Icon)">
        <g id="Follow_Icon-3" data-name="Follow Icon" transform="translate(14.82 17.04) rotate(180)" fill="#fff">
          <path d="M 8.566401481628418 9.802835464477539 L 7.408012866973877 9.72987174987793 L 6.853607177734375 9.527451515197754 L 6.257857322692871 9.090177536010742 L 5.934197425842285 8.852607727050781 L 5.63233757019043 9.117338180541992 L 5.171350002288818 9.521615982055664 L 4.425192832946777 9.729520797729492 L 3.472704887390137 9.802286148071289 L 2.194607257843018 9.608004570007324 L 1.050510883331299 8.956932067871094 L 0.6588069200515747 8.470193862915039 C 0.5872228145599365 8.281164169311523 0.5180285573005676 8.043709754943848 0.5029065012931824 7.909845352172852 C 0.8245851993560791 7.254625797271729 3.355470895767212 3.363288879394531 4.929227352142334 0.9829679131507874 L 4.941947460174561 0.9637278914451599 L 4.952847480773926 0.9433978796005249 L 5.113344192504883 0.6439386606216431 L 5.315459728240967 0.5675832629203796 L 5.725619316101074 0.5069310665130615 L 6.032005310058594 0.5648332238197327 L 6.340817928314209 0.6753418445587158 L 6.692089557647705 1.027158379554749 C 7.019515037536621 1.508960604667664 9.868727684020996 5.696390628814697 10.90927696228027 7.053117752075195 C 11.40207767486572 7.695659637451172 11.32414150238037 8.308490753173828 11.28477478027344 8.420625686645508 L 11.22535705566406 8.524197578430176 L 11.22535705566406 8.535294532775879 L 10.84857177734375 8.962814331054688 L 9.856048583984375 9.61002254486084 L 8.566401481628418 9.802835464477539 Z" stroke="none"/>
          <path d="M 5.715461730957031 1.01386833190918 L 5.462296485900879 1.051305770874023 L 5.371747493743896 1.220248222351074 L 5.346317291259766 1.25871753692627 C 3.507745742797852 4.039575576782227 1.506056785583496 7.140946865081787 1.028532981872559 7.988686561584473 C 1.047016143798828 8.058671951293945 1.072630882263184 8.141796112060547 1.100468635559082 8.221504211425781 L 1.380437850952148 8.569398880004883 L 2.361353874206543 9.127609252929688 L 3.491499900817871 9.29940128326416 L 4.338198661804199 9.23471736907959 L 4.927343368530273 9.070561408996582 L 5.90637731552124 8.211967468261719 L 7.091992378234863 9.082196235656738 L 7.511623382568359 9.235407829284668 L 8.544872283935547 9.30048942565918 L 9.674285888671875 9.131632804870605 L 10.51845169067383 8.581165313720703 L 10.64127731323242 8.441801071166992 C 10.65230941772461 8.240443229675293 10.69138431549072 8.021868705749512 10.74659729003906 7.785008430480957 C 10.70198726654053 7.655856132507324 10.6293420791626 7.509709358215332 10.51252746582031 7.35739803314209 C 9.487638473510742 6.021087169647217 6.736695766448975 1.982015609741211 6.30501651763916 1.347133636474609 L 6.066463947296143 1.108211517333984 L 5.900599956512451 1.048856735229492 L 5.715461730957031 1.01386833190918 M 5.735747337341309 -1.9073486328125e-06 L 6.163507461547852 0.08083820343017578 L 6.615177154541016 0.2424678802490234 L 7.079197406768799 0.7072076797485352 C 7.079197406768799 0.7072076797485352 10.22118759155273 5.334347724914551 11.30602741241455 6.748827934265137 C 11.95783233642578 7.598690032958984 11.84042167663574 8.456846237182617 11.72535705566406 8.657427787780762 L 11.72535705566406 7.991268157958984 C 11.57351684570312 8.633684158325195 11.64891242980957 8.790687561035156 11.72535705566406 8.657427787780762 L 11.72535705566406 8.724178314208984 L 11.17867755889893 9.344468116760254 L 10.03782749176025 10.08839797973633 L 8.58787727355957 10.30517768859863 L 7.304447174072266 10.22433757781982 L 6.615177154541016 9.972678184509277 L 5.962007522583008 9.493257522583008 L 5.415337562561035 9.972678184509277 L 4.512147426605225 10.22433757781982 L 3.453957557678223 10.30517768859863 L 2.027847290039062 10.08839797973633 L 0.7205772399902344 9.344468116760254 L 0.2213973999023438 8.724178314208984 C 0.2213973999023438 8.724178314208984 -0.01627254486083984 8.143087387084961 0.0008869171142578125 7.823818206787109 C 0.01804733276367188 7.504548072814941 4.512147426605225 0.7072076797485352 4.512147426605225 0.7072076797485352 L 4.761227130889893 0.2424678802490234 L 5.189067363739014 0.08083820343017578 L 5.735747337341309 -1.9073486328125e-06 Z" stroke="none" fill="#f0f"/>
        </g>
      </g>
      <g id="Follow_Icon-4" data-name="Follow Icon" transform="translate(11.815 10.758) rotate(180)" fill="#fff">
        <path d="M 8.566401481628418 9.802835464477539 L 7.408012866973877 9.72987174987793 L 6.853607177734375 9.527451515197754 L 6.257857322692871 9.090177536010742 L 5.934197425842285 8.852607727050781 L 5.63233757019043 9.117338180541992 L 5.171350002288818 9.521615982055664 L 4.425192832946777 9.729520797729492 L 3.472704887390137 9.802286148071289 L 2.194607257843018 9.608004570007324 L 1.050510883331299 8.956932067871094 L 0.6588069200515747 8.470193862915039 C 0.5872228145599365 8.281164169311523 0.5180285573005676 8.043709754943848 0.5029065012931824 7.909845352172852 C 0.8245851993560791 7.254625797271729 3.355470895767212 3.363288879394531 4.929227352142334 0.9829679131507874 L 4.941947460174561 0.9637278914451599 L 4.952847480773926 0.9433978796005249 L 5.113344192504883 0.6439386606216431 L 5.315459728240967 0.5675832629203796 L 5.725619316101074 0.5069310665130615 L 6.032005310058594 0.5648332238197327 L 6.340817928314209 0.6753418445587158 L 6.692089557647705 1.027158379554749 C 7.019515037536621 1.508960604667664 9.868727684020996 5.696390628814697 10.90927696228027 7.053117752075195 C 11.40207767486572 7.695659637451172 11.32414150238037 8.308490753173828 11.28477478027344 8.420625686645508 L 11.22535705566406 8.524197578430176 L 11.22535705566406 8.535294532775879 L 10.84857177734375 8.962814331054688 L 9.856048583984375 9.61002254486084 L 8.566401481628418 9.802835464477539 Z" stroke="none"/>
        <path d="M 5.715461730957031 1.01386833190918 L 5.462296485900879 1.051305770874023 L 5.371747493743896 1.220248222351074 L 5.346317291259766 1.25871753692627 C 3.507745742797852 4.039575576782227 1.506056785583496 7.140946865081787 1.028532981872559 7.988686561584473 C 1.047016143798828 8.058671951293945 1.072630882263184 8.141796112060547 1.100468635559082 8.221504211425781 L 1.380437850952148 8.569398880004883 L 2.361353874206543 9.127609252929688 L 3.491499900817871 9.29940128326416 L 4.338198661804199 9.23471736907959 L 4.927343368530273 9.070561408996582 L 5.90637731552124 8.211967468261719 L 7.091992378234863 9.082196235656738 L 7.511623382568359 9.235407829284668 L 8.544872283935547 9.30048942565918 L 9.674285888671875 9.131632804870605 L 10.51845169067383 8.581165313720703 L 10.64127731323242 8.441801071166992 C 10.65230941772461 8.240443229675293 10.69138431549072 8.021868705749512 10.74659729003906 7.785008430480957 C 10.70198726654053 7.655856132507324 10.6293420791626 7.509709358215332 10.51252746582031 7.35739803314209 C 9.487638473510742 6.021087169647217 6.736695766448975 1.982015609741211 6.30501651763916 1.347133636474609 L 6.066463947296143 1.108211517333984 L 5.900599956512451 1.048856735229492 L 5.715461730957031 1.01386833190918 M 5.735747337341309 -1.9073486328125e-06 L 6.163507461547852 0.08083820343017578 L 6.615177154541016 0.2424678802490234 L 7.079197406768799 0.7072076797485352 C 7.079197406768799 0.7072076797485352 10.22118759155273 5.334347724914551 11.30602741241455 6.748827934265137 C 11.95783233642578 7.598690032958984 11.84042167663574 8.456846237182617 11.72535705566406 8.657427787780762 L 11.72535705566406 7.991268157958984 C 11.57351684570312 8.633684158325195 11.64891242980957 8.790687561035156 11.72535705566406 8.657427787780762 L 11.72535705566406 8.724178314208984 L 11.17867755889893 9.344468116760254 L 10.03782749176025 10.08839797973633 L 8.58787727355957 10.30517768859863 L 7.304447174072266 10.22433757781982 L 6.615177154541016 9.972678184509277 L 5.962007522583008 9.493257522583008 L 5.415337562561035 9.972678184509277 L 4.512147426605225 10.22433757781982 L 3.453957557678223 10.30517768859863 L 2.027847290039062 10.08839797973633 L 0.7205772399902344 9.344468116760254 L 0.2213973999023438 8.724178314208984 C 0.2213973999023438 8.724178314208984 -0.01627254486083984 8.143087387084961 0.0008869171142578125 7.823818206787109 C 0.01804733276367188 7.504548072814941 4.512147426605225 0.7072076797485352 4.512147426605225 0.7072076797485352 L 4.761227130889893 0.2424678802490234 L 5.189067363739014 0.08083820343017578 L 5.735747337341309 -1.9073486328125e-06 Z" stroke="none"/>
      </g>
      <g transform="matrix(1, 0, 0, 1, -3, -6.29)" filter="url(#Follow_Icon-2)">
        <g id="Follow_Icon-5" data-name="Follow Icon" transform="translate(14.82 17.04) rotate(180)" fill="#fff">
          <path d="M 8.566401481628418 9.802835464477539 L 7.408012866973877 9.72987174987793 L 6.853607177734375 9.527451515197754 L 6.257857322692871 9.090177536010742 L 5.934197425842285 8.852607727050781 L 5.63233757019043 9.117338180541992 L 5.171350002288818 9.521615982055664 L 4.425192832946777 9.729520797729492 L 3.472704887390137 9.802286148071289 L 2.194607257843018 9.608004570007324 L 1.050510883331299 8.956932067871094 L 0.6588069200515747 8.470193862915039 C 0.5872228145599365 8.281164169311523 0.5180285573005676 8.043709754943848 0.5029065012931824 7.909845352172852 C 0.8245851993560791 7.254625797271729 3.355470895767212 3.363288879394531 4.929227352142334 0.9829679131507874 L 4.941947460174561 0.9637278914451599 L 4.952847480773926 0.9433978796005249 L 5.113344192504883 0.6439386606216431 L 5.315459728240967 0.5675832629203796 L 5.725619316101074 0.5069310665130615 L 6.032005310058594 0.5648332238197327 L 6.340817928314209 0.6753418445587158 L 6.692089557647705 1.027158379554749 C 7.019515037536621 1.508960604667664 9.868727684020996 5.696390628814697 10.90927696228027 7.053117752075195 C 11.40207767486572 7.695659637451172 11.32414150238037 8.308490753173828 11.28477478027344 8.420625686645508 L 11.22535705566406 8.524197578430176 L 11.22535705566406 8.535294532775879 L 10.84857177734375 8.962814331054688 L 9.856048583984375 9.61002254486084 L 8.566401481628418 9.802835464477539 Z" stroke="none"/>
          <path d="M 5.715461730957031 1.01386833190918 L 5.462296485900879 1.051305770874023 L 5.371747493743896 1.220248222351074 L 5.346317291259766 1.25871753692627 C 3.507745742797852 4.039575576782227 1.506056785583496 7.140946865081787 1.028532981872559 7.988686561584473 C 1.047016143798828 8.058671951293945 1.072630882263184 8.141796112060547 1.100468635559082 8.221504211425781 L 1.380437850952148 8.569398880004883 L 2.361353874206543 9.127609252929688 L 3.491499900817871 9.29940128326416 L 4.338198661804199 9.23471736907959 L 4.927343368530273 9.070561408996582 L 5.90637731552124 8.211967468261719 L 7.091992378234863 9.082196235656738 L 7.511623382568359 9.235407829284668 L 8.544872283935547 9.30048942565918 L 9.674285888671875 9.131632804870605 L 10.51845169067383 8.581165313720703 L 10.64127731323242 8.441801071166992 C 10.65230941772461 8.240443229675293 10.69138431549072 8.021868705749512 10.74659729003906 7.785008430480957 C 10.70198726654053 7.655856132507324 10.6293420791626 7.509709358215332 10.51252746582031 7.35739803314209 C 9.487638473510742 6.021087169647217 6.736695766448975 1.982015609741211 6.30501651763916 1.347133636474609 L 6.066463947296143 1.108211517333984 L 5.900599956512451 1.048856735229492 L 5.715461730957031 1.01386833190918 M 5.735747337341309 -1.9073486328125e-06 L 6.163507461547852 0.08083820343017578 L 6.615177154541016 0.2424678802490234 L 7.079197406768799 0.7072076797485352 C 7.079197406768799 0.7072076797485352 10.22118759155273 5.334347724914551 11.30602741241455 6.748827934265137 C 11.95783233642578 7.598690032958984 11.84042167663574 8.456846237182617 11.72535705566406 8.657427787780762 L 11.72535705566406 7.991268157958984 C 11.57351684570312 8.633684158325195 11.64891242980957 8.790687561035156 11.72535705566406 8.657427787780762 L 11.72535705566406 8.724178314208984 L 11.17867755889893 9.344468116760254 L 10.03782749176025 10.08839797973633 L 8.58787727355957 10.30517768859863 L 7.304447174072266 10.22433757781982 L 6.615177154541016 9.972678184509277 L 5.962007522583008 9.493257522583008 L 5.415337562561035 9.972678184509277 L 4.512147426605225 10.22433757781982 L 3.453957557678223 10.30517768859863 L 2.027847290039062 10.08839797973633 L 0.7205772399902344 9.344468116760254 L 0.2213973999023438 8.724178314208984 C 0.2213973999023438 8.724178314208984 -0.01627254486083984 8.143087387084961 0.0008869171142578125 7.823818206787109 C 0.01804733276367188 7.504548072814941 4.512147426605225 0.7072076797485352 4.512147426605225 0.7072076797485352 L 4.761227130889893 0.2424678802490234 L 5.189067363739014 0.08083820343017578 L 5.735747337341309 -1.9073486328125e-06 Z" stroke="none"/>
        </g>
      </g>
      <g id="Follow_Icon-6" data-name="Follow Icon" transform="translate(11.815 10.758) rotate(180)" fill="none">
        <path d="M 8.566401481628418 9.802835464477539 L 7.408012866973877 9.72987174987793 L 6.853607177734375 9.527451515197754 L 6.257857322692871 9.090177536010742 L 5.934197425842285 8.852607727050781 L 5.63233757019043 9.117338180541992 L 5.171350002288818 9.521615982055664 L 4.425192832946777 9.729520797729492 L 3.472704887390137 9.802286148071289 L 2.194607257843018 9.608004570007324 L 1.050510883331299 8.956932067871094 L 0.6588069200515747 8.470193862915039 C 0.5872228145599365 8.281164169311523 0.5180285573005676 8.043709754943848 0.5029065012931824 7.909845352172852 C 0.8245851993560791 7.254625797271729 3.355470895767212 3.363288879394531 4.929227352142334 0.9829679131507874 L 4.941947460174561 0.9637278914451599 L 4.952847480773926 0.9433978796005249 L 5.113344192504883 0.6439386606216431 L 5.315459728240967 0.5675832629203796 L 5.725619316101074 0.5069310665130615 L 6.032005310058594 0.5648332238197327 L 6.340817928314209 0.6753418445587158 L 6.692089557647705 1.027158379554749 C 7.019515037536621 1.508960604667664 9.868727684020996 5.696390628814697 10.90927696228027 7.053117752075195 C 11.40207767486572 7.695659637451172 11.32414150238037 8.308490753173828 11.28477478027344 8.420625686645508 L 11.22535705566406 8.524197578430176 L 11.22535705566406 8.535294532775879 L 10.84857177734375 8.962814331054688 L 9.856048583984375 9.61002254486084 L 8.566401481628418 9.802835464477539 Z" stroke="none"/>
        <path d="M 5.715461730957031 1.01386833190918 L 5.462296485900879 1.051305770874023 L 5.371747493743896 1.220248222351074 L 5.346317291259766 1.25871753692627 C 3.507745742797852 4.039575576782227 1.506056785583496 7.140946865081787 1.028532981872559 7.988686561584473 C 1.047016143798828 8.058671951293945 1.072630882263184 8.141796112060547 1.100468635559082 8.221504211425781 L 1.380437850952148 8.569398880004883 L 2.361353874206543 9.127609252929688 L 3.491499900817871 9.29940128326416 L 4.338198661804199 9.23471736907959 L 4.927343368530273 9.070561408996582 L 5.90637731552124 8.211967468261719 L 7.091992378234863 9.082196235656738 L 7.511623382568359 9.235407829284668 L 8.544872283935547 9.30048942565918 L 9.674285888671875 9.131632804870605 L 10.51845169067383 8.581165313720703 L 10.64127731323242 8.441801071166992 C 10.65230941772461 8.240443229675293 10.69138431549072 8.021868705749512 10.74659729003906 7.785008430480957 C 10.70198726654053 7.655856132507324 10.6293420791626 7.509709358215332 10.51252746582031 7.35739803314209 C 9.487638473510742 6.021087169647217 6.736695766448975 1.982015609741211 6.30501651763916 1.347133636474609 L 6.066463947296143 1.108211517333984 L 5.900599956512451 1.048856735229492 L 5.715461730957031 1.01386833190918 M 5.735747337341309 -1.9073486328125e-06 L 6.163507461547852 0.08083820343017578 L 6.615177154541016 0.2424678802490234 L 7.079197406768799 0.7072076797485352 C 7.079197406768799 0.7072076797485352 10.22118759155273 5.334347724914551 11.30602741241455 6.748827934265137 C 11.95783233642578 7.598690032958984 11.84042167663574 8.456846237182617 11.72535705566406 8.657427787780762 L 11.72535705566406 7.991268157958984 C 11.57351684570312 8.633684158325195 11.64891242980957 8.790687561035156 11.72535705566406 8.657427787780762 L 11.72535705566406 8.724178314208984 L 11.17867755889893 9.344468116760254 L 10.03782749176025 10.08839797973633 L 8.58787727355957 10.30517768859863 L 7.304447174072266 10.22433757781982 L 6.615177154541016 9.972678184509277 L 5.962007522583008 9.493257522583008 L 5.415337562561035 9.972678184509277 L 4.512147426605225 10.22433757781982 L 3.453957557678223 10.30517768859863 L 2.027847290039062 10.08839797973633 L 0.7205772399902344 9.344468116760254 L 0.2213973999023438 8.724178314208984 C 0.2213973999023438 8.724178314208984 -0.01627254486083984 8.143087387084961 0.0008869171142578125 7.823818206787109 C 0.01804733276367188 7.504548072814941 4.512147426605225 0.7072076797485352 4.512147426605225 0.7072076797485352 L 4.761227130889893 0.2424678802490234 L 5.189067363739014 0.08083820343017578 L 5.735747337341309 -1.9073486328125e-06 Z" stroke="none" fill="#f0f"/>
      </g>
    </g>
    <g data-type="innerShadowGroup">
      <g transform="matrix(1, 0, 0, 1, -3, -6.29)" filter="url(#Unfollow_Strike)">
        <path id="Unfollow_Strike-3" data-name="Unfollow Strike" d="M1196.261,600.92l3.394-5.511.443-.233.922-.466,3.247-4.657-1.955,6.055-2.214.932Z" transform="translate(-1190.66 -583.77)" fill="none" stroke="#00e5ff" stroke-width="1"/>
      </g>
      <g transform="matrix(1, 0, 0, 1, -3, -6.29)" filter="url(#Unfollow_Strike-2)">
        <path id="Unfollow_Strike-4" data-name="Unfollow Strike" d="M1196.261,600.92l3.394-5.511.443-.233.922-.466,3.247-4.657-1.955,6.055-2.214.932Z" transform="translate(-1190.66 -583.77)" fill="#fff"/>
      </g>
      <path id="Unfollow_Strike-5" data-name="Unfollow Strike" d="M1196.261,600.92l3.394-5.511.443-.233.922-.466,3.247-4.657-1.955,6.055-2.214.932Z" transform="translate(-1193.664 -590.053)" fill="none" stroke="#00e5ff" stroke-width="1"/>
    </g>
  </g>
</svg>
