<svg xmlns="http://www.w3.org/2000/svg" xmlns:xlink="http://www.w3.org/1999/xlink" width="20.073" height="17.302" viewBox="0 0 20.073 17.302">
  <defs>
    <filter id="Vol_Horn" x="0" y="0" width="15.541" height="17.302" filterUnits="userSpaceOnUse">
      <feOffset dy="-3" input="SourceAlpha"/>
      <feGaussianBlur stdDeviation="1" result="blur"/>
      <feFlood flood-opacity="0.78"/>
      <feComposite operator="in" in2="blur"/>
    </filter>
    <filter id="Vol_Horn-2" x="0" y="0" width="15.541" height="17.302" filterUnits="userSpaceOnUse">
      <feOffset dy="3" input="SourceAlpha"/>
      <feGaussianBlur stdDeviation="1" result="blur-2"/>
      <feFlood flood-color="#f0f" result="color"/>
      <feComposite operator="out" in="SourceGraphic" in2="blur-2"/>
      <feComposite operator="in" in="color"/>
      <feComposite operator="in" in2="SourceGraphic"/>
    </filter>
    <filter id="Vol_Path_1" x="8.267" y="0.036" width="8.529" height="16.742" filterUnits="userSpaceOnUse">
      <feOffset dy="-3" input="SourceAlpha"/>
      <feGaussianBlur stdDeviation="1" result="blur-3"/>
      <feFlood flood-opacity="0.78"/>
      <feComposite operator="in" in2="blur-3"/>
      <feComposite in="SourceGraphic"/>
    </filter>
    <filter id="Vol_Path_2" x="10.435" y="0.786" width="8.165" height="15.41" filterUnits="userSpaceOnUse">
      <feOffset dy="-3" input="SourceAlpha"/>
      <feGaussianBlur stdDeviation="1" result="blur-4"/>
      <feFlood flood-opacity="0.78"/>
      <feComposite operator="in" in2="blur-4"/>
      <feComposite in="SourceGraphic"/>
    </filter>
    <filter id="Vol_Path_3" x="12.114" y="1.691" width="7.959" height="13.67" filterUnits="userSpaceOnUse">
      <feOffset dy="-3" input="SourceAlpha"/>
      <feGaussianBlur stdDeviation="1" result="blur-5"/>
      <feFlood flood-opacity="0.78"/>
      <feComposite operator="in" in2="blur-5"/>
      <feComposite in="SourceGraphic"/>
    </filter>
  </defs>
  <g id="Volume_Icon" data-name="Volume Icon" transform="translate(3 6)">
    <g data-type="innerShadowGroup">
      <g transform="matrix(1, 0, 0, 1, -3, -6)" filter="url(#Vol_Horn)">
        <g id="Vol_Horn-3" data-name="Vol Horn" transform="matrix(0.03, 1, -1, 0.03, 12.16, 6)" fill="#fff">
          <path d="M 6.683871746063232 8.645973205566406 L 5.800341606140137 8.615121841430664 L 3.629481554031372 8.539311408996582 L 3.703301668167114 6.425381660461426 L 3.710311651229858 6.224391460418701 L 3.576201677322388 6.074511528015137 L 0.5772532820701599 2.723107814788818 L 0.5187844038009644 2.385595321655273 L 0.7712491750717163 1.824007511138916 L 1.114045977592468 1.453426241874695 L 2.197633028030396 0.9242174625396729 L 3.497727632522583 0.6124231219291687 L 5.286277294158936 0.5010274052619934 L 7.393014430999756 0.6399458050727844 L 8.540162086486816 0.9773515462875366 L 8.878021240234375 1.079261541366577 L 9.183431625366211 1.173961758613586 L 10.18751430511475 1.848527431488037 L 10.41573715209961 2.265844345092773 L 10.46345710754395 2.405521392822266 L 10.294508934021 2.953986167907715 L 6.911861896514893 6.18809175491333 L 6.764801502227783 6.328701496124268 L 6.757691860198975 6.532041549682617 L 6.683871746063232 8.645973205566406 Z" stroke="none"/>
          <path d="M 6.20163106918335 8.12883472442627 L 6.272201538085938 6.107911586761475 L 9.854947090148926 2.682488441467285 L 9.93376636505127 2.426614284515381 L 9.807378768920898 2.195508480072021 L 8.965387344360352 1.629839181900024 L 8.729514122009277 1.556713700294495 L 8.395800590515137 1.456066608428955 L 7.304946899414062 1.135218024253845 L 5.285468578338623 1.002053499221802 L 3.572120189666748 1.108765482902527 L 2.367663383483887 1.397623538970947 L 1.417526841163635 1.861656904220581 L 1.193784117698669 2.103534460067749 L 1.037564396858215 2.451033115386963 L 1.045442581176758 2.496510028839111 L 4.217031478881836 6.040841579437256 L 4.146621227264404 8.057071685791016 L 6.20163106918335 8.12883472442627 M 7.166121482849121 9.163121223449707 L 3.112331628799438 9.021561622619629 L 3.203601598739624 6.407931327819824 L 0.1090616583824158 2.949701547622681 L 1.658630367273872e-06 2.320151567459106 L 0.3487216532230377 1.544451594352722 L 0.81052166223526 1.045221567153931 L 2.027591705322266 0.450821578502655 L 3.423321723937988 0.1160915642976761 L 5.287241458892822 1.565399202263507e-06 L 7.481051445007324 0.1446615606546402 L 9.022401809692383 0.6005615592002869 L 9.40144157409668 0.7180715799331665 L 10.56764125823975 1.501551508903503 L 10.87502193450928 2.063611507415771 L 10.98910140991211 2.397521495819092 L 10.73405170440674 3.225501537322998 L 7.257391452789307 6.549491405487061 L 7.166121482849121 9.163121223449707 Z" stroke="none" fill="#f0f"/>
        </g>
      </g>
      <g id="Vol_Horn-4" data-name="Vol Horn" transform="matrix(0.035, 0.999, -0.999, 0.035, 9.158, 0)" fill="#fff">
        <path d="M 6.683871746063232 8.645973205566406 L 5.800341606140137 8.615121841430664 L 3.629481554031372 8.539311408996582 L 3.703301668167114 6.425381660461426 L 3.710311651229858 6.224391460418701 L 3.576201677322388 6.074511528015137 L 0.5772532820701599 2.723107814788818 L 0.5187844038009644 2.385595321655273 L 0.7712491750717163 1.824007511138916 L 1.114045977592468 1.453426241874695 L 2.197633028030396 0.9242174625396729 L 3.497727632522583 0.6124231219291687 L 5.286277294158936 0.5010274052619934 L 7.393014430999756 0.6399458050727844 L 8.540162086486816 0.9773515462875366 L 8.878021240234375 1.079261541366577 L 9.183431625366211 1.173961758613586 L 10.18751430511475 1.848527431488037 L 10.41573715209961 2.265844345092773 L 10.46345710754395 2.405521392822266 L 10.294508934021 2.953986167907715 L 6.911861896514893 6.18809175491333 L 6.764801502227783 6.328701496124268 L 6.757691860198975 6.532041549682617 L 6.683871746063232 8.645973205566406 Z" stroke="none"/>
        <path d="M 6.20163106918335 8.12883472442627 L 6.272201538085938 6.107911586761475 L 9.854947090148926 2.682488441467285 L 9.93376636505127 2.426614284515381 L 9.807378768920898 2.195508480072021 L 8.965387344360352 1.629839181900024 L 8.729514122009277 1.556713700294495 L 8.395800590515137 1.456066608428955 L 7.304946899414062 1.135218024253845 L 5.285468578338623 1.002053499221802 L 3.572120189666748 1.108765482902527 L 2.367663383483887 1.397623538970947 L 1.417526841163635 1.861656904220581 L 1.193784117698669 2.103534460067749 L 1.037564396858215 2.451033115386963 L 1.045442581176758 2.496510028839111 L 4.217031478881836 6.040841579437256 L 4.146621227264404 8.057071685791016 L 6.20163106918335 8.12883472442627 M 7.166121482849121 9.163121223449707 L 3.112331628799438 9.021561622619629 L 3.203601598739624 6.407931327819824 L 0.1090616583824158 2.949701547622681 L 1.658630367273872e-06 2.320151567459106 L 0.3487216532230377 1.544451594352722 L 0.81052166223526 1.045221567153931 L 2.027591705322266 0.450821578502655 L 3.423321723937988 0.1160915642976761 L 5.287241458892822 1.565399202263507e-06 L 7.481051445007324 0.1446615606546402 L 9.022401809692383 0.6005615592002869 L 9.40144157409668 0.7180715799331665 L 10.56764125823975 1.501551508903503 L 10.87502193450928 2.063611507415771 L 10.98910140991211 2.397521495819092 L 10.73405170440674 3.225501537322998 L 7.257391452789307 6.549491405487061 L 7.166121482849121 9.163121223449707 Z" stroke="none"/>
      </g>
      <g transform="matrix(1, 0, 0, 1, -3, -6)" filter="url(#Vol_Horn-2)">
        <g id="Vol_Horn-5" data-name="Vol Horn" transform="matrix(0.03, 1, -1, 0.03, 12.16, 6)" fill="#fff">
          <path d="M 6.683871746063232 8.645973205566406 L 5.800341606140137 8.615121841430664 L 3.629481554031372 8.539311408996582 L 3.703301668167114 6.425381660461426 L 3.710311651229858 6.224391460418701 L 3.576201677322388 6.074511528015137 L 0.5772532820701599 2.723107814788818 L 0.5187844038009644 2.385595321655273 L 0.7712491750717163 1.824007511138916 L 1.114045977592468 1.453426241874695 L 2.197633028030396 0.9242174625396729 L 3.497727632522583 0.6124231219291687 L 5.286277294158936 0.5010274052619934 L 7.393014430999756 0.6399458050727844 L 8.540162086486816 0.9773515462875366 L 8.878021240234375 1.079261541366577 L 9.183431625366211 1.173961758613586 L 10.18751430511475 1.848527431488037 L 10.41573715209961 2.265844345092773 L 10.46345710754395 2.405521392822266 L 10.294508934021 2.953986167907715 L 6.911861896514893 6.18809175491333 L 6.764801502227783 6.328701496124268 L 6.757691860198975 6.532041549682617 L 6.683871746063232 8.645973205566406 Z" stroke="none"/>
          <path d="M 6.20163106918335 8.12883472442627 L 6.272201538085938 6.107911586761475 L 9.854947090148926 2.682488441467285 L 9.93376636505127 2.426614284515381 L 9.807378768920898 2.195508480072021 L 8.965387344360352 1.629839181900024 L 8.729514122009277 1.556713700294495 L 8.395800590515137 1.456066608428955 L 7.304946899414062 1.135218024253845 L 5.285468578338623 1.002053499221802 L 3.572120189666748 1.108765482902527 L 2.367663383483887 1.397623538970947 L 1.417526841163635 1.861656904220581 L 1.193784117698669 2.103534460067749 L 1.037564396858215 2.451033115386963 L 1.045442581176758 2.496510028839111 L 4.217031478881836 6.040841579437256 L 4.146621227264404 8.057071685791016 L 6.20163106918335 8.12883472442627 M 7.166121482849121 9.163121223449707 L 3.112331628799438 9.021561622619629 L 3.203601598739624 6.407931327819824 L 0.1090616583824158 2.949701547622681 L 1.658630367273872e-06 2.320151567459106 L 0.3487216532230377 1.544451594352722 L 0.81052166223526 1.045221567153931 L 2.027591705322266 0.450821578502655 L 3.423321723937988 0.1160915642976761 L 5.287241458892822 1.565399202263507e-06 L 7.481051445007324 0.1446615606546402 L 9.022401809692383 0.6005615592002869 L 9.40144157409668 0.7180715799331665 L 10.56764125823975 1.501551508903503 L 10.87502193450928 2.063611507415771 L 10.98910140991211 2.397521495819092 L 10.73405170440674 3.225501537322998 L 7.257391452789307 6.549491405487061 L 7.166121482849121 9.163121223449707 Z" stroke="none"/>
        </g>
      </g>
      <g id="Vol_Horn-6" data-name="Vol Horn" transform="matrix(0.035, 0.999, -0.999, 0.035, 9.158, 0)" fill="none">
        <path d="M 6.683871746063232 8.645973205566406 L 5.800341606140137 8.615121841430664 L 3.629481554031372 8.539311408996582 L 3.703301668167114 6.425381660461426 L 3.710311651229858 6.224391460418701 L 3.576201677322388 6.074511528015137 L 0.5772532820701599 2.723107814788818 L 0.5187844038009644 2.385595321655273 L 0.7712491750717163 1.824007511138916 L 1.114045977592468 1.453426241874695 L 2.197633028030396 0.9242174625396729 L 3.497727632522583 0.6124231219291687 L 5.286277294158936 0.5010274052619934 L 7.393014430999756 0.6399458050727844 L 8.540162086486816 0.9773515462875366 L 8.878021240234375 1.079261541366577 L 9.183431625366211 1.173961758613586 L 10.18751430511475 1.848527431488037 L 10.41573715209961 2.265844345092773 L 10.46345710754395 2.405521392822266 L 10.294508934021 2.953986167907715 L 6.911861896514893 6.18809175491333 L 6.764801502227783 6.328701496124268 L 6.757691860198975 6.532041549682617 L 6.683871746063232 8.645973205566406 Z" stroke="none"/>
        <path d="M 6.20163106918335 8.12883472442627 L 6.272201538085938 6.107911586761475 L 9.854947090148926 2.682488441467285 L 9.93376636505127 2.426614284515381 L 9.807378768920898 2.195508480072021 L 8.965387344360352 1.629839181900024 L 8.729514122009277 1.556713700294495 L 8.395800590515137 1.456066608428955 L 7.304946899414062 1.135218024253845 L 5.285468578338623 1.002053499221802 L 3.572120189666748 1.108765482902527 L 2.367663383483887 1.397623538970947 L 1.417526841163635 1.861656904220581 L 1.193784117698669 2.103534460067749 L 1.037564396858215 2.451033115386963 L 1.045442581176758 2.496510028839111 L 4.217031478881836 6.040841579437256 L 4.146621227264404 8.057071685791016 L 6.20163106918335 8.12883472442627 M 7.166121482849121 9.163121223449707 L 3.112331628799438 9.021561622619629 L 3.203601598739624 6.407931327819824 L 0.1090616583824158 2.949701547622681 L 1.658630367273872e-06 2.320151567459106 L 0.3487216532230377 1.544451594352722 L 0.81052166223526 1.045221567153931 L 2.027591705322266 0.450821578502655 L 3.423321723937988 0.1160915642976761 L 5.287241458892822 1.565399202263507e-06 L 7.481051445007324 0.1446615606546402 L 9.022401809692383 0.6005615592002869 L 9.40144157409668 0.7180715799331665 L 10.56764125823975 1.501551508903503 L 10.87502193450928 2.063611507415771 L 10.98910140991211 2.397521495819092 L 10.73405170440674 3.225501537322998 L 7.257391452789307 6.549491405487061 L 7.166121482849121 9.163121223449707 Z" stroke="none" fill="#f0f"/>
      </g>
    </g>
    <g transform="matrix(1, 0, 0, 1, -3, -6)" filter="url(#Vol_Path_1)">
      <path id="Vol_Path_1-2" data-name="Vol Path 1" d="M1121.79,597.724c1.579,1.476,1.476,2.815,1.682,4.291a18.455,18.455,0,0,1-.549,4.6c-.018.118-.481,1.3-.481,1.3" transform="translate(-1110.18 -591.32)" fill="none" stroke="#f0f" stroke-width="1"/>
    </g>
    <g transform="matrix(1, 0, 0, 1, -3, -6)" filter="url(#Vol_Path_2)">
      <path id="Vol_Path_2-2" data-name="Vol Path 2" d="M1120.438,597.724c1.03,1.133.967,2.414,1.236,3.639a10.947,10.947,0,0,1-1,5.218" transform="translate(-1106.63 -590.6)" fill="none" stroke="#f0f" stroke-width="1"/>
    </g>
    <g transform="matrix(1, 0, 0, 1, -3, -6)" filter="url(#Vol_Path_3)">
      <path id="Vol_Path_3-2" data-name="Vol Path 3" d="M1121.147,597.5a7.5,7.5,0,0,1,1,2.884,5.581,5.581,0,0,1,0,1.648,9.132,9.132,0,0,1-.721,2.643" transform="translate(-1105.63 -589.52)" fill="none" stroke="#f0f" stroke-width="1"/>
    </g>
  </g>
</svg>
