<svg id="ActiveConsole" xmlns="http://www.w3.org/2000/svg" xmlns:xlink="http://www.w3.org/1999/xlink" width="428" height="213" viewBox="0 0 428 213">
  <defs>
    <filter id="FeedSurfaceActive">
      <feOffset dy="5" input="SourceAlpha"/>
      <feGaussianBlur stdDeviation="3" result="blur"/>
      <feFlood flood-color="#a00" flood-opacity="0.8" result="color"/>
      <feComposite operator="out" in="SourceGraphic" in2="blur"/>
      <feComposite operator="in" in="color"/>
      <feComposite operator="in" in2="SourceGraphic"/>
    </filter>
    <filter id="AboutActive">
      <feOffset dy="5" input="SourceAlpha"/>
      <feGaussianBlur stdDeviation="3" result="blur-2"/>
      <feFlood flood-color="#a00" flood-opacity="0.8" result="color-2"/>
      <feComposite operator="out" in="SourceGraphic" in2="blur-2"/>
      <feComposite operator="in" in="color-2"/>
      <feComposite operator="in" in2="SourceGraphic"/>
    </filter>
    <linearGradient id="linear-gradient" x1="0.5" x2="0.5" y2="1" gradientUnits="objectBoundingBox">
      <stop offset="0" stop-color="#a00"/>
      <stop offset="0.531"/>
      <stop offset="1" stop-color="#a00"/>
    </linearGradient>
    <filter id="Chat_" x="318" y="71" width="49" height="40" filterUnits="userSpaceOnUse">
      <feOffset dy="2" input="SourceAlpha"/>
      <feGaussianBlur stdDeviation="3" result="blur-3"/>
      <feFlood/>
      <feComposite operator="in" in2="blur-3"/>
      <feComposite in="SourceGraphic"/>
    </filter>
    <filter id="Chat_2" x="318" y="71" width="49" height="40" filterUnits="userSpaceOnUse">
      <feOffset dy="6" input="SourceAlpha"/>
      <feGaussianBlur stdDeviation="3" result="blur-4"/>
      <feFlood flood-color="red" result="color-3"/>
      <feComposite operator="out" in="SourceGraphic" in2="blur-4"/>
      <feComposite operator="in" in="color-3"/>
      <feComposite operator="in" in2="SourceGraphic"/>
    </filter>
    <filter id="About_This_User" x="144" y="74" width="107" height="40" filterUnits="userSpaceOnUse">
      <feOffset dy="3" input="SourceAlpha"/>
      <feGaussianBlur stdDeviation="3" result="blur-5"/>
      <feFlood/>
      <feComposite operator="in" in2="blur-5"/>
      <feComposite in="SourceGraphic"/>
    </filter>
    <filter id="About_This_User-2" x="144" y="74" width="107" height="40" filterUnits="userSpaceOnUse">
      <feOffset dy="3" input="SourceAlpha"/>
      <feGaussianBlur stdDeviation="3" result="blur-6"/>
      <feFlood flood-color="red" flood-opacity="0.902" result="color-4"/>
      <feComposite operator="out" in="SourceGraphic" in2="blur-6"/>
      <feComposite operator="in" in="color-4"/>
      <feComposite operator="in" in2="SourceGraphic"/>
    </filter>
    <filter id="Feed" x="50" y="74" width="45" height="40" filterUnits="userSpaceOnUse">
      <feOffset dy="3" input="SourceAlpha"/>
      <feGaussianBlur stdDeviation="3" result="blur-7"/>
      <feFlood/>
      <feComposite operator="in" in2="blur-7"/>
      <feComposite in="SourceGraphic"/>
    </filter>
    <filter id="Feed-2" x="50" y="74" width="45" height="40" filterUnits="userSpaceOnUse">
      <feOffset dy="3" input="SourceAlpha"/>
      <feGaussianBlur stdDeviation="3" result="blur-8"/>
      <feFlood flood-color="red" result="color-5"/>
      <feComposite operator="out" in="SourceGraphic" in2="blur-8"/>
      <feComposite operator="in" in="color-5"/>
      <feComposite operator="in" in2="SourceGraphic"/>
    </filter>
    <filter id="ScrollBar" x="245" y="93" width="4" height="55" filterUnits="userSpaceOnUse">
      <feOffset dy="3" input="SourceAlpha"/>
      <feGaussianBlur stdDeviation="3" result="blur-9"/>
      <feFlood flood-color="#fff" flood-opacity="0.278" result="color-6"/>
      <feComposite operator="out" in="SourceGraphic" in2="blur-9"/>
      <feComposite operator="in" in="color-6"/>
      <feComposite operator="in" in2="SourceGraphic"/>
    </filter>
    <filter id="OptionalPanelActive">
      <feOffset dy="1" input="SourceAlpha"/>
      <feGaussianBlur stdDeviation="3" result="blur-10"/>
      <feFlood flood-color="#a00" flood-opacity="0.8" result="color-7"/>
      <feComposite operator="out" in="SourceGraphic" in2="blur-10"/>
      <feComposite operator="in" in="color-7"/>
      <feComposite operator="in" in2="SourceGraphic"/>
    </filter>
    <filter id="Social" x="317" y="102" width="51" height="40" filterUnits="userSpaceOnUse">
      <feOffset dy="3" input="SourceAlpha"/>
      <feGaussianBlur stdDeviation="3" result="blur-11"/>
      <feFlood/>
      <feComposite operator="in" in2="blur-11"/>
      <feComposite in="SourceGraphic"/>
    </filter>
    <filter id="Social-2" x="317" y="102" width="51" height="40" filterUnits="userSpaceOnUse">
      <feOffset dy="3" input="SourceAlpha"/>
      <feGaussianBlur stdDeviation="3" result="blur-12"/>
      <feFlood flood-color="red" result="color-8"/>
      <feComposite operator="out" in="SourceGraphic" in2="blur-12"/>
      <feComposite operator="in" in="color-8"/>
      <feComposite operator="in" in2="SourceGraphic"/>
    </filter>
  </defs>
  <path id="Elevation" d="M0,0H428a0,0,0,0,1,0,0V112a30,30,0,0,1-30,30H30A30,30,0,0,1,0,112V0A0,0,0,0,1,0,0Z" transform="translate(0 71)" fill="rgba(0,0,0,0.41)"/>
  <path id="ChatBox" d="M20,0H130a20,20,0,0,1,20,20V75a0,0,0,0,1,0,0H0a0,0,0,0,1,0,0V20A20,20,0,0,1,20,0Z" transform="translate(267)" fill="rgba(38,0,0,0.72)"/>
  <path id="Console" d="M0,0H428a0,0,0,0,1,0,0V109a30,30,0,0,1-30,30H30A30,30,0,0,1,0,109V0A0,0,0,0,1,0,0Z" transform="translate(0 71)" fill="#212121"/>
  <rect id="ChatInset" width="150" height="19" transform="translate(267 78)"/>
  <rect id="FeedInset" width="109" height="117" transform="translate(17 78)"/>
  <rect id="AboutInset" width="109" height="117" transform="translate(142 78)"/>
  <g data-type="innerShadowGroup">
    <rect id="FeedSurfaceActive-2" data-name="FeedSurfaceActive" width="105" height="115" transform="translate(19 80)" fill="#212121"/>
    <g transform="matrix(1, 0, 0, 1, 0, 0)" filter="url(#FeedSurfaceActive)">
      <rect id="FeedSurfaceActive-3" data-name="FeedSurfaceActive" width="105" height="115" transform="translate(19 80)" fill="#fff"/>
    </g>
  </g>
  <g data-type="innerShadowGroup">
    <rect id="AboutActive-2" data-name="AboutActive" width="101" height="115" transform="translate(144 80)" fill="#212121"/>
    <g transform="matrix(1, 0, 0, 1, 0, 0)" filter="url(#AboutActive)">
      <rect id="AboutActive-3" data-name="AboutActive" width="101" height="115" transform="translate(144 80)" fill="#fff"/>
    </g>
  </g>
  <rect id="ChatButtonActive" width="146" height="17" transform="translate(269 80)" fill="url(#linear-gradient)"/>
  <g data-type="innerShadowGroup">
    <g transform="matrix(1, 0, 0, 1, 0, 0)" filter="url(#Chat_)">
      <text id="Chat_3" data-name="Chat!" transform="translate(327 93)" fill="#fff" font-size="14" font-family="Atma-Medium, Atma" font-weight="500"><tspan x="0" y="0">Chat!</tspan></text>
    </g>
    <g transform="matrix(1, 0, 0, 1, 0, 0)" filter="url(#Chat_2)">
      <text id="Chat_4" data-name="Chat!" transform="translate(327 93)" fill="#fff" font-size="14" font-family="Atma-Medium, Atma" font-weight="500"><tspan x="0" y="0">Chat!</tspan></text>
    </g>
  </g>
  <g data-type="innerShadowGroup">
    <g transform="matrix(1, 0, 0, 1, 0, 0)" filter="url(#About_This_User)">
      <text id="About_This_User-3" data-name="About This User" transform="translate(153 95)" fill="#fff" font-size="14" font-family="Atma-Medium, Atma" font-weight="500"><tspan x="0" y="0">About This User</tspan></text>
    </g>
    <g transform="matrix(1, 0, 0, 1, 0, 0)" filter="url(#About_This_User-2)">
      <text id="About_This_User-4" data-name="About This User" transform="translate(153 95)" fill="#fff" font-size="14" font-family="Atma-Medium, Atma" font-weight="500"><tspan x="0" y="0">About This User</tspan></text>
    </g>
  </g>
  <g data-type="innerShadowGroup">
    <g transform="matrix(1, 0, 0, 1, 0, 0)" filter="url(#Feed)">
      <text id="Feed-3" data-name="Feed" transform="translate(59 95)" fill="#fff" font-size="14" font-family="Atma-Medium, Atma" font-weight="500"><tspan x="0" y="0">Feed</tspan></text>
    </g>
    <g transform="matrix(1, 0, 0, 1, 0, 0)" filter="url(#Feed-2)">
      <text id="Feed-4" data-name="Feed" transform="translate(59 95)" fill="#fff" font-size="14" font-family="Atma-Medium, Atma" font-weight="500"><tspan x="0" y="0">Feed</tspan></text>
    </g>
  </g>
  <rect id="ScrollSlot" width="4" height="115" transform="translate(245 80)" fill="#240000"/>
  <g data-type="innerShadowGroup">
    <rect id="ScrollBar-2" data-name="ScrollBar" width="4" height="55" rx="2" transform="translate(245 93)" fill="#212121"/>
    <g transform="matrix(1, 0, 0, 1, 0, 0)" filter="url(#ScrollBar)">
      <rect id="ScrollBar-3" data-name="ScrollBar" width="4" height="55" rx="2" transform="translate(245 93)" fill="#fff"/>
    </g>
  </g>
  <path id="OptionInset" d="M0,0H150a0,0,0,0,1,0,0V62a27,27,0,0,1-27,27H0a0,0,0,0,1,0,0V0A0,0,0,0,1,0,0Z" transform="translate(267 106)"/>
  <g data-type="innerShadowGroup">
    <path id="OptionalPanelActive-2" data-name="OptionalPanelActive" d="M0,0H146a0,0,0,0,1,0,0V64a23,23,0,0,1-23,23H0a0,0,0,0,1,0,0V0A0,0,0,0,1,0,0Z" transform="translate(269 108)" fill="#212121"/>
    <g transform="matrix(1, 0, 0, 1, 0, 0)" filter="url(#OptionalPanelActive)">
      <path id="OptionalPanelActive-3" data-name="OptionalPanelActive" d="M0,0H146a0,0,0,0,1,0,0V64a23,23,0,0,1-23,23H0a0,0,0,0,1,0,0V0A0,0,0,0,1,0,0Z" transform="translate(269 108)" fill="#fff"/>
    </g>
  </g>
  <g data-type="innerShadowGroup">
    <g transform="matrix(1, 0, 0, 1, 0, 0)" filter="url(#Social)">
      <text id="Social-3" data-name="Social" transform="translate(326 123)" fill="#fff" font-size="14" font-family="Atma-Medium, Atma" font-weight="500"><tspan x="0" y="0">Social</tspan></text>
    </g>
    <g transform="matrix(1, 0, 0, 1, 0, 0)" filter="url(#Social-2)">
      <text id="Social-4" data-name="Social" transform="translate(326 123)" fill="#fff" font-size="14" font-family="Atma-Medium, Atma" font-weight="500"><tspan x="0" y="0">Social</tspan></text>
    </g>
  </g>
</svg>
