<svg id="ConsoleInactive" xmlns="http://www.w3.org/2000/svg" xmlns:xlink="http://www.w3.org/1999/xlink" width="428" height="142" viewBox="0 0 428 142">
  <defs>
    <filter id="FeedSurface">
      <feOffset dy="3" input="SourceAlpha"/>
      <feGaussianBlur stdDeviation="3" result="blur"/>
      <feFlood flood-color="#f6f6f6" flood-opacity="0.8" result="color"/>
      <feComposite operator="out" in="SourceGraphic" in2="blur"/>
      <feComposite operator="in" in="color"/>
      <feComposite operator="in" in2="SourceGraphic"/>
    </filter>
    <filter id="AboutPlaceholder">
      <feOffset dy="3" input="SourceAlpha"/>
      <feGaussianBlur stdDeviation="3" result="blur-2"/>
      <feFlood flood-color="#f6f6f6" flood-opacity="0.8" result="color-2"/>
      <feComposite operator="out" in="SourceGraphic" in2="blur-2"/>
      <feComposite operator="in" in="color-2"/>
      <feComposite operator="in" in2="SourceGraphic"/>
    </filter>
    <filter id="ChatButton">
      <feOffset dy="1" input="SourceAlpha"/>
      <feGaussianBlur stdDeviation="5" result="blur-3"/>
      <feFlood flood-color="#f6f6f6" flood-opacity="0.769" result="color-3"/>
      <feComposite operator="out" in="SourceGraphic" in2="blur-3"/>
      <feComposite operator="in" in="color-3"/>
      <feComposite operator="in" in2="SourceGraphic"/>
    </filter>
    <filter id="Chat_" x="318" y="0" width="49" height="40" filterUnits="userSpaceOnUse">
      <feOffset dy="2" input="SourceAlpha"/>
      <feGaussianBlur stdDeviation="3" result="blur-4"/>
      <feFlood/>
      <feComposite operator="in" in2="blur-4"/>
      <feComposite in="SourceGraphic"/>
    </filter>
    <filter id="Chat_2" x="318" y="0" width="49" height="40" filterUnits="userSpaceOnUse">
      <feOffset dy="6" input="SourceAlpha"/>
      <feGaussianBlur stdDeviation="3" result="blur-5"/>
      <feFlood flood-color="red" result="color-4"/>
      <feComposite operator="out" in="SourceGraphic" in2="blur-5"/>
      <feComposite operator="in" in="color-4"/>
      <feComposite operator="in" in2="SourceGraphic"/>
    </filter>
    <filter id="About_This_User" x="144" y="3" width="107" height="40" filterUnits="userSpaceOnUse">
      <feOffset dy="3" input="SourceAlpha"/>
      <feGaussianBlur stdDeviation="3" result="blur-6"/>
      <feFlood/>
      <feComposite operator="in" in2="blur-6"/>
      <feComposite in="SourceGraphic"/>
    </filter>
    <filter id="About_This_User-2" x="144" y="3" width="107" height="40" filterUnits="userSpaceOnUse">
      <feOffset dy="3" input="SourceAlpha"/>
      <feGaussianBlur stdDeviation="3" result="blur-7"/>
      <feFlood flood-color="red" flood-opacity="0.902" result="color-5"/>
      <feComposite operator="out" in="SourceGraphic" in2="blur-7"/>
      <feComposite operator="in" in="color-5"/>
      <feComposite operator="in" in2="SourceGraphic"/>
    </filter>
    <filter id="Feed" x="50" y="3" width="45" height="40" filterUnits="userSpaceOnUse">
      <feOffset dy="3" input="SourceAlpha"/>
      <feGaussianBlur stdDeviation="3" result="blur-8"/>
      <feFlood/>
      <feComposite operator="in" in2="blur-8"/>
      <feComposite in="SourceGraphic"/>
    </filter>
    <filter id="Feed-2" x="50" y="3" width="45" height="40" filterUnits="userSpaceOnUse">
      <feOffset dy="3" input="SourceAlpha"/>
      <feGaussianBlur stdDeviation="3" result="blur-9"/>
      <feFlood flood-color="red" result="color-6"/>
      <feComposite operator="out" in="SourceGraphic" in2="blur-9"/>
      <feComposite operator="in" in="color-6"/>
      <feComposite operator="in" in2="SourceGraphic"/>
    </filter>
    <filter id="OptionalPanel">
      <feOffset dy="1" input="SourceAlpha"/>
      <feGaussianBlur stdDeviation="3" result="blur-10"/>
      <feFlood flood-color="#f6f6f6" flood-opacity="0.8" result="color-7"/>
      <feComposite operator="out" in="SourceGraphic" in2="blur-10"/>
      <feComposite operator="in" in="color-7"/>
      <feComposite operator="in" in2="SourceGraphic"/>
    </filter>
    <filter id="Social" x="317" y="32" width="51" height="40" filterUnits="userSpaceOnUse">
      <feOffset dy="3" input="SourceAlpha"/>
      <feGaussianBlur stdDeviation="3" result="blur-11"/>
      <feFlood/>
      <feComposite operator="in" in2="blur-11"/>
      <feComposite in="SourceGraphic"/>
    </filter>
    <filter id="Social-2" x="317" y="32" width="51" height="40" filterUnits="userSpaceOnUse">
      <feOffset dy="3" input="SourceAlpha"/>
      <feGaussianBlur stdDeviation="3" result="blur-12"/>
      <feFlood flood-color="red" result="color-8"/>
      <feComposite operator="out" in="SourceGraphic" in2="blur-12"/>
      <feComposite operator="in" in="color-8"/>
      <feComposite operator="in" in2="SourceGraphic"/>
    </filter>
  </defs>
  <path id="Elevation" d="M0,0H428a0,0,0,0,1,0,0V112a30,30,0,0,1-30,30H30A30,30,0,0,1,0,112V0A0,0,0,0,1,0,0Z" fill="rgba(0,0,0,0.41)"/>
  <path id="Console" d="M0,0H428a0,0,0,0,1,0,0V109a30,30,0,0,1-30,30H30A30,30,0,0,1,0,109V0A0,0,0,0,1,0,0Z" fill="#212121"/>
  <rect id="ChatInset" width="150" height="19" transform="translate(267 7)"/>
  <rect id="FeedInset" width="109" height="117" transform="translate(17 7)"/>
  <rect id="AboutInset" width="109" height="117" transform="translate(142 7)"/>
  <g data-type="innerShadowGroup">
    <rect id="FeedSurface-2" data-name="FeedSurface" width="105" height="115" transform="translate(19 9)" fill="#212121"/>
    <g transform="matrix(1, 0, 0, 1, 0, 0)" filter="url(#FeedSurface)">
      <rect id="FeedSurface-3" data-name="FeedSurface" width="105" height="115" transform="translate(19 9)" fill="#fff"/>
    </g>
  </g>
  <g data-type="innerShadowGroup">
    <rect id="AboutPlaceholder-2" data-name="AboutPlaceholder" width="105" height="115" transform="translate(144 9)" fill="#212121"/>
    <g transform="matrix(1, 0, 0, 1, 0, 0)" filter="url(#AboutPlaceholder)">
      <rect id="AboutPlaceholder-3" data-name="AboutPlaceholder" width="105" height="115" transform="translate(144 9)" fill="#fff"/>
    </g>
  </g>
  <g data-type="innerShadowGroup">
    <rect id="ChatButton-2" data-name="ChatButton" width="146" height="17" transform="translate(269 9)" fill="#212121"/>
    <g transform="matrix(1, 0, 0, 1, 0, 0)" filter="url(#ChatButton)">
      <rect id="ChatButton-3" data-name="ChatButton" width="146" height="17" transform="translate(269 9)" fill="#fff"/>
    </g>
  </g>
  <g data-type="innerShadowGroup">
    <g transform="matrix(1, 0, 0, 1, 0, 0)" filter="url(#Chat_)">
      <text id="Chat_3" data-name="Chat!" transform="translate(327 22)" fill="#fff" font-size="14" font-family="Atma-Medium, Atma" font-weight="500"><tspan x="0" y="0">Chat!</tspan></text>
    </g>
    <g transform="matrix(1, 0, 0, 1, 0, 0)" filter="url(#Chat_2)">
      <text id="Chat_4" data-name="Chat!" transform="translate(327 22)" fill="#fff" font-size="14" font-family="Atma-Medium, Atma" font-weight="500"><tspan x="0" y="0">Chat!</tspan></text>
    </g>
  </g>
  <g data-type="innerShadowGroup">
    <g transform="matrix(1, 0, 0, 1, 0, 0)" filter="url(#About_This_User)">
      <text id="About_This_User-3" data-name="About This User" transform="translate(153 24)" fill="#fff" font-size="14" font-family="Atma-Medium, Atma" font-weight="500"><tspan x="0" y="0">About This User</tspan></text>
    </g>
    <g transform="matrix(1, 0, 0, 1, 0, 0)" filter="url(#About_This_User-2)">
      <text id="About_This_User-4" data-name="About This User" transform="translate(153 24)" fill="#fff" font-size="14" font-family="Atma-Medium, Atma" font-weight="500"><tspan x="0" y="0">About This User</tspan></text>
    </g>
  </g>
  <g data-type="innerShadowGroup">
    <g transform="matrix(1, 0, 0, 1, 0, 0)" filter="url(#Feed)">
      <text id="Feed-3" data-name="Feed" transform="translate(59 24)" fill="#fff" font-size="14" font-family="Atma-Medium, Atma" font-weight="500"><tspan x="0" y="0">Feed</tspan></text>
    </g>
    <g transform="matrix(1, 0, 0, 1, 0, 0)" filter="url(#Feed-2)">
      <text id="Feed-4" data-name="Feed" transform="translate(59 24)" fill="#fff" font-size="14" font-family="Atma-Medium, Atma" font-weight="500"><tspan x="0" y="0">Feed</tspan></text>
    </g>
  </g>
  <path id="OptionInset" d="M0,0H150a0,0,0,0,1,0,0V61a27,27,0,0,1-27,27H0a0,0,0,0,1,0,0V0A0,0,0,0,1,0,0Z" transform="translate(267 36)"/>
  <g data-type="innerShadowGroup">
    <path id="OptionalPanel-2" data-name="OptionalPanel" d="M0,0H146a0,0,0,0,1,0,0V63a23,23,0,0,1-23,23H0a0,0,0,0,1,0,0V0A0,0,0,0,1,0,0Z" transform="translate(269 38)" fill="#212121"/>
    <g transform="matrix(1, 0, 0, 1, 0, 0)" filter="url(#OptionalPanel)">
      <path id="OptionalPanel-3" data-name="OptionalPanel" d="M0,0H146a0,0,0,0,1,0,0V63a23,23,0,0,1-23,23H0a0,0,0,0,1,0,0V0A0,0,0,0,1,0,0Z" transform="translate(269 38)" fill="#fff"/>
    </g>
  </g>
  <g data-type="innerShadowGroup">
    <g transform="matrix(1, 0, 0, 1, 0, 0)" filter="url(#Social)">
      <text id="Social-3" data-name="Social" transform="translate(326 53)" fill="#fff" font-size="14" font-family="Atma-Medium, Atma" font-weight="500"><tspan x="0" y="0">Social</tspan></text>
    </g>
    <g transform="matrix(1, 0, 0, 1, 0, 0)" filter="url(#Social-2)">
      <text id="Social-4" data-name="Social" transform="translate(326 53)" fill="#fff" font-size="14" font-family="Atma-Medium, Atma" font-weight="500"><tspan x="0" y="0">Social</tspan></text>
    </g>
  </g>
</svg>
